<?xml version="1.0" encoding="UTF-8"?>
<svg width="512px" height="512px" viewBox="0 0 512 512" version="1.1" xmlns="http://www.w3.org/2000/svg" xmlns:xlink="http://www.w3.org/1999/xlink">
    <title>world</title>
    <g id="Page-1" stroke="none" stroke-width="1" fill="none" fill-rule="evenodd">
        <g id="world">
            <circle id="Oval-3" fill="#ECECEC" cx="256" cy="256" r="256"></circle>
            <path d="M194.203484,45.4256911 C194.203484,45.4256911 194.203484,45.4256911 199.040331,43.0093536 C203.877178,40.593016 203.877178,40.593016 203.877178,40.593016 L211.132448,32.5385575 L215.163153,32.5385575 L220,23.6786531 L220,18.845978 L220,12.4024111 L215.969294,8.37518187 C215.969294,8.37518187 219.193859,13.1047599 207.907883,5.50779464 C207.308114,5.10184993 206.618058,4.56703388 205.895755,4 C121.012321,20.824153 51.2456444,79.5186032 19,157.646851 C21.4119742,157.820827 23.0371547,158.220328 23.301569,159 C23.301569,159 81.3437289,96.1752234 123.263067,91.3425483 L133.742901,63.1519435 C133.742901,63.1519435 133.742901,69.5955103 137.773607,63.1519435 C141.804312,56.7083766 133.742901,64.7628352 141.804312,56.7083766 C149.865723,48.6539181 149.865723,47.0430264 154.70257,44.6266888 C159.539417,42.2103513 161.95784,40.5994596 164.376263,38.9885679 C166.794687,37.3776762 175.662239,32.545001 175.662239,32.545001 L179.692944,32.545001 L174.856098,38.183122 L170.019251,43.0157971 L164.376263,47.8484723 L160.345558,50.2583662 L157.927134,55.8964872 L160.345558,61.5346082 C160.345558,61.5346082 161.95784,61.5346082 167.600828,60.7291623 C173.243816,59.9237165 181.305227,59.9237165 179.692944,57.5073789 C178.080662,55.0910414 182.917509,51.869258 185.335932,50.2583662 C187.754356,48.6474745 187.754356,48.6474745 187.754356,48.6474745 L194.203484,45.4256911 Z M133.71889,465.522766 L133.71889,459.196357 L132.816473,451.962497 L130.096329,447.444553 L129.187466,435.692749 L126.473769,435.692749 L125.564906,429.366339 L130.089884,429.366339 L139.146285,420.324015 L139.146285,415.80607 L138.237422,410.380676 L135.517278,410.380676 L136.426141,395.912956 L143.168487,383.253702 C143.168487,383.253702 141.859982,376.927293 142.762399,370.594448 C143.664816,364.261602 142.762399,361.552123 142.762399,361.552123 C142.762399,361.552123 142.762399,361.552123 138.237422,359.743658 C133.705998,357.941629 131.901164,354.318263 129.181021,352.509798 C126.467323,350.707769 123.74718,345.282375 123.74718,345.282375 C123.74718,345.282375 117.410922,339.850544 111.977081,338.048515 C106.543241,336.24005 111.977081,338.048515 108.348075,337.141065 C104.725515,336.233614 93.8578335,331.71567 92.0529991,328.999755 C90.2417189,326.283839 80.2764548,321.765895 77.5627574,319.056415 C74.8426141,316.3405 72.9862131,314.532035 72.9862131,314.532035 L72.315846,310.014091 C72.315846,310.014091 73.9337511,305.496147 72.1289167,301.872781 C70.3176365,298.255851 73.0377798,297.354836 72.1289167,294.638921 C71.2200537,291.929442 72.1289167,289.213526 72.1289167,289.213526 L67.5974933,281.979667 C67.5974933,281.979667 67.5974933,281.979667 65.7926589,278.362737 C63.9813787,274.739371 63.9813787,272.036328 60.3588183,269.320412 C56.729812,266.604497 54.0161146,260.278088 49.4846911,258.868644 C44.9597135,257.452764 38.6170098,244.001904 38.6170098,244.001904 C38.6170098,244.001904 36.8057296,237.675494 30.463026,232.2501 C24.1267681,226.818269 24.1267681,232.2501 19.5953447,237.675494 C15.0639212,243.100889 15.0639212,237.675494 15.0639212,237.675494 C15.0639212,237.675494 12.1504029,245.031635 9.63008057,244.001904 C6.2782453,242.631074 3.27448523,241.408269 0.502775291,240.282001 C0.199820949,245.385605 0,250.508516 0,255.682914 C0,349.729525 50.8705461,431.876308 126.589794,476.322069 C126.628469,476.257711 126.680036,476.186917 126.712265,476.122559 C131.437064,478.883525 136.226321,481.547953 141.105819,484 L144,478.246379 C139.481468,475.974535 135.040286,473.53536 130.663563,470.986776 C132.99051,468.052043 133.71889,465.522766 133.71889,465.522766 Z M450.961431,115.370412 C450.961431,115.370412 447.567385,97.583442 441.293543,78.7975661 C398.887251,34.143249 340.590654,4.85919398 275.480251,0 C274.021069,6.36077515 273.519675,10.8139622 274.747446,12.0770949 C277.813658,15.2542602 277.813658,15.2542602 277.813658,15.2542602 L281.651244,22.4077155 L287.77724,23.9866313 L289.307132,27.9629213 L285.475974,33.5245717 L277.813658,32.725447 C277.685096,32.725447 276.92015,32.725447 273.217554,32.725447 C267.850076,32.725447 262.495454,32.725447 262.495454,32.725447 L256.150902,32.725447 C256.150902,32.725447 255.598084,35.1163767 252.531872,37.4944172 C249.46566,39.8789023 248.700714,36.87574 247.164394,40.7618063 C245.634502,44.6478725 244.098182,51.0022031 244.098182,51.0022031 L244.869556,55.7647288 L250.230606,58.9483387 C250.230606,58.9483387 253.63108,58.9483387 256.144474,58.9483387 C258.657868,58.9483387 267.08513,59.7410188 267.08513,59.7410188 C269.37354,54.9720486 264.790292,47.0259131 264.790292,47.0259131 L260.194188,47.0259131 L264.025346,40.7553617 L267.850076,40.7553617 L272.452608,40.7553617 L277.813658,47.8185933 L279.34355,54.1729239 L279.34355,60.5272545 L276.277338,66.0889049 L270.916288,68.4669454 L263.2604,68.4669454 L256.150902,72.4432355 L247.92934,78.8168997 C247.92934,78.8168997 247.92934,78.8168997 244.098182,85.1776749 C240.267024,91.5255609 237.20724,96.3009757 237.20724,96.3009757 L237.972186,102.655306 L239.502078,107.424276 C234.134599,110.601442 241.796915,108.216957 230.309869,110.601442 C218.816395,112.985927 218.816395,112.985927 218.816395,112.985927 C218.816395,112.985927 217.286503,113.772163 215.750183,115.363967 C214.213863,116.949328 216.515129,109.009637 214.213863,116.949328 C211.919025,124.895463 209.617759,128.871753 209.617759,128.871753 L215.750183,133.640724 C215.750183,133.640724 210.382705,137.610569 215.750183,138.403249 C221.111233,139.195929 213.455345,138.403249 221.111233,139.195929 C228.773549,139.995054 235.664491,139.195929 235.664491,139.195929 L239.502078,133.640724 L247.157965,126.493713 L252.525444,119.346702 L256.144474,114.577732 L262.489026,111.400567 C262.489026,111.400567 266.313756,107.430721 267.843648,110.607886 C269.37354,113.778607 268.615022,123.322992 268.615022,123.322992 L277.80723,125.701033 L281.644816,125.701033 C281.644816,125.701033 283.174708,126.500157 285.475974,128.085518 C287.77724,129.670878 292.366916,130.470003 292.366916,130.470003 L295.433128,124.115672 L300.794178,118.554022 C300.794178,118.554022 303.866818,117.761342 306.161656,117.761342 C308.462922,117.761342 312.287652,120.145827 312.287652,120.145827 L319.487144,121.731187 L338.340812,121.731187 L345.9967,118.554022 L349.834287,120.938507 C352.129125,127.292838 351.35775,129.670878 349.834287,132.061808 C348.297966,134.446293 348.297966,134.446293 348.297966,134.446293 C348.297966,134.446293 347.539449,135.238973 340.642079,138.416138 C333.751137,141.593304 319.19145,144.770469 316.125238,144.770469 C313.059026,144.770469 313.059026,144.770469 313.059026,144.770469 C313.059026,144.770469 311.529134,143.977789 306.168084,143.185109 C300.800606,142.392428 291.608398,138.416138 291.608398,138.416138 L283.181136,135.238973 L279.34355,135.238973 L275.51882,135.238973 C275.51882,135.238973 267.850076,134.446293 263.2604,134.446293 C258.657868,134.446293 256.150902,136.038098 256.150902,136.038098 L252.531872,136.830778 L241.803344,143.977789 L232.611136,149.539439 L228.015032,152.716604 L223.418928,156.164441 L219.587769,161.45542 L208.094295,170.986916 C205.028083,174.963206 205.028083,174.963206 205.028083,174.963206 L194.299555,197.918709 L194.299555,204.363263 L189.703451,208.333109 L189.703451,219.462854 C189.703451,219.462854 193.534609,239.32497 189.703451,241.703011 C185.872293,244.087496 189.703451,251.240951 189.703451,251.240951 L188,256.351483 L198.047148,267.126778 L208.094295,275.072913 L230.316298,288.580699 L234.141028,288.580699 L244.875984,288.580699 L249.472088,288.580699 C249.472088,288.580699 247.935768,284.604409 259.429242,283.019049 C270.922716,281.427244 270.922716,281.427244 270.922716,281.427244 L276.283766,279.841884 L283.946082,280.641008 L288.542186,281.427244 L293.903236,284.604409 L303.866818,288.580699 L306.939458,288.580699 L306.939458,293.343225 L306.939458,301.28936 L306.939458,310.021732 L306.939458,313.998022 L306.939458,320.352352 L314.588918,326.706683 L314.588918,332.268333 L317.65513,332.268333 L322.257662,341.799829 C322.257662,341.799829 323.787554,348.160604 322.257662,354.514935 C320.72777,360.87571 320.72777,360.87571 320.72777,360.87571 L318.432932,368.016276 C318.432932,368.016276 319.962824,371.992566 319.197878,375.169732 C319.017891,375.9173 318.882901,376.458642 318.780051,376.903317 C319.275016,375.885077 320.419221,375.981745 322.945471,384.707672 C326.860195,398.215458 326.860195,398.215458 326.860195,398.215458 C326.860195,398.215458 327.618712,401.392623 326.860195,404.569789 C326.075964,407.759843 323.781126,419.675824 323.781126,419.675824 L327.188029,424.43835 L327.188029,427.615515 L330.678496,427.615515 C330.678496,427.615515 325.317446,430 330.678496,430 C336.039546,430 336.039546,430 336.039546,430 L341.400596,426.030155 C341.400596,426.030155 341.400596,422.060309 348.291538,418.883144 C355.188908,415.705978 355.188908,415.705978 355.188908,415.705978 L359.020066,412.522369 L362.851225,407.759843 C362.851225,407.759843 368.218703,401.405512 371.284915,399.027472 C374.351127,396.642987 374.351127,396.642987 374.351127,396.642987 C374.351127,396.642987 375.881019,395.850306 380.483551,390.288656 C385.079655,384.727006 385.079655,384.727006 385.079655,384.727006 L385.079655,381.54984 L393.513345,369.627415 L397.338075,362.480404 L401.940607,346.394796 C401.940607,346.394796 409.596495,325.134212 409.596495,322.756171 C409.596495,320.371686 409.596495,314.017355 409.596495,314.017355 L414.199027,307.663025 C414.199027,307.663025 416.493865,289.392713 417.265239,285.416423 C418.036613,281.440133 418.030185,281.440133 418.030185,281.440133 C418.030185,281.440133 419.560077,283.031938 422.626289,271.115957 C425.692501,259.193531 425.692501,259.193531 425.692501,259.193531 L425.692501,252.839201 C425.692501,252.839201 422.626289,251.253841 425.692501,247.27755 C428.765142,243.307705 428.765142,243.307705 428.765142,243.307705 L428.765142,236.141361 L429.523659,225.011615 L418.801559,221.04177 L411.904189,216.279244 L407.308085,213.095634 L401.182089,205.955068 L396.579557,197.918709 C391.218507,195.624447 395.814611,198.008932 391.218507,195.624447 C386.622403,193.239962 386.622403,193.239962 386.622403,193.239962 C386.622403,193.239962 376.658821,181.323981 376.658821,178.939496 C376.658821,176.555011 376.658821,176.555011 376.658821,176.555011 L375.893875,170.993361 C375.893875,170.993361 378.960087,163.84635 383.556191,170.993361 C388.145867,178.146816 385.086083,170.993361 388.145867,178.146816 C391.218507,185.293827 384.321137,178.146816 391.218507,185.293827 C398.115877,192.440837 399.652197,185.203603 399.652197,185.203603 C399.652197,185.203603 401.182089,182.735339 404.248301,185.203603 C407.314513,187.678312 411.139243,197.918709 411.139243,197.918709 L414.211883,197.918709 L418.043042,197.918709 C418.043042,197.918709 419.572933,197.841374 421.8742,197.918709 C424.169037,198.008932 426.470304,197.918709 426.470304,197.918709 C426.470304,197.918709 426.470304,190.056352 429.536516,187.678312 C432.602728,185.293827 431.837782,190.855477 432.602728,185.293827 C433.367674,179.732176 438.735152,179.732176 432.602728,173.371401 C426.476732,167.017071 423.41052,165.425266 422.645574,162.241656 C421.880628,159.070935 421.115682,161.204083 418.814416,156.164441 C416.51315,151.1248 412.68842,146.362274 408.085887,144.764024 C403.489783,143.178664 401.959891,143.971344 399.658625,140.794179 C397.357359,137.617014 392.002737,133.647168 392.002737,133.647168 L393.532629,129.670878 L398.893679,129.670878 C398.893679,129.670878 400.423571,132.854488 402.724837,134.439848 C405.019675,136.031653 408.850833,140.001499 408.850833,140.001499 C408.850833,140.001499 414.218312,140.794179 418.814416,140.794179 C423.41052,140.794179 418.04947,143.178664 423.41052,140.794179 C428.777998,138.409694 435.508237,136.031653 435.508237,136.031653 L444.096202,135.232529 L447.168842,129.670878 L451,120.938507 L451,115.370412 L450.961431,115.370412 Z M318.324,377 C318.072,377.516 318,378.35 318,378.35 C318,378.35 318.006,378.314 318.324,377 Z M11.9926852,216.936081 L11.9926852,212.872163 L17.9963426,208.808244 L17.9963426,203.931542 L24,203.931542 L24,199.867624 L24,196.531959 L24,191.674764 L20.7997562,187.675868 L20.7997562,183.611949 L20.7997562,179.548031 L20.7997562,173.858545 L16.7994514,173.858545 L16.7994514,168.981843 L15.8265773,168 C9.77811643,184.912403 5.47058824,202.657097 3,221 L7.1987199,221 L11.9926852,216.936081 Z M499.076923,248.199791 C502.650154,262.402645 486.974462,256.519616 486.974462,256.519616 L478.076923,269.095797 L466.769231,283.112195 L466.769231,289.991803 L466.769231,315.709965 L466.769231,323.74689 L458.692308,323.74689 L458.692308,336.605971 L449,362.324132 L449,370.361058 L449,388.6531 L455.461538,388.6531 L459.926462,399.930514 C459.926462,399.930514 461.380308,402.457323 462.989231,406 C493.791385,363.841504 512,312.006549 512,255.90238 C512,246.483104 511.450769,237.192418 510.455692,228.036752 C498.689231,217.929515 490.560615,214.283965 499.076923,248.199791 Z" id="Shape" fill="#7C7C7C" fill-rule="nonzero"></path>
        </g>
    </g>
</svg>