<svg xmlns="http://www.w3.org/2000/svg" width="175" height="175" viewBox="0 0 175 175">
    <g fill="none" fill-rule="evenodd">
        <path fill="#9E3667" d="M125.094 130.854l-16.418 28.435H16.627c-12.78 0-20.768-13.836-14.378-24.904L24.76 95.393C35.177 77.345 56.383 68.497 76.54 73.79l27.79 7.295c21.64 5.678 31.95 30.39 20.764 49.769z" transform="translate(0 -4)"/>
        <path fill="#F4A48D" d="M85.689 110.057c1.577-.367 3.235.02 4.486 1.047l8.186 6.718c1.074.882 1.176 2.49.223 3.501-.867.919-2.297 1.008-3.271.205l-5.801-4.784 9.652 10.91c.84.95.766 2.4-.168 3.259-.91.837-2.315.818-3.201-.045l-4.237-4.123-.484.523 3.252 6.292c.406.784.263 1.733-.338 2.362l-.126.121c-.889.786-2.255.658-2.983-.279-.957-1.233-2.287-2.94-3.513-4.499l-1.12 1.207.704 3.562c.138.7-.167 1.405-.757 1.787l-.13.077c-.662.35-1.475.235-2.013-.287l-1.354-1.312-.188.203-2.711 2.07c-.903.689-1.837 1.334-2.798 1.934-1.181.738-2.405 1.41-3.665 2.007l-7.872 3.74c-13.074 5.976-27.585 8.088-41.82 6.086l-10.18-1.43c.84-14.377 11.519-15.109 11.946-15.132h.013l2.74.303c10.364 1.152 20.852.273 30.878-2.587l5.43-1.55.002-.002 5.436-11.756c1.195-2.585 3.267-4.657 5.842-5.854l.324-.145z" transform="translate(0 -4)"/>
        <g>
            <path fill="#A66555" d="M58.322 40.765c-.162 0-.323-.002-.484-.008l-9.287-.34 5.503-7.16 12.863 2.254-1.3 3.163-1.265.644c-1.87.952-3.936 1.447-6.03 1.447z" transform="translate(0 -4) translate(99.885 122.39)"/>
            <path fill="#C3DEE7" d="M53.12 41.863L74.902 4.135c1.028-1.78-.257-4.007-2.314-4.007h-48.13c-.955 0-1.837.509-2.314 1.336L.362 39.192c-1.028 1.78.257 4.006 2.313 4.006h48.131c.955 0 1.837-.509 2.314-1.335z" transform="translate(0 -4) translate(99.885 122.39)"/>
            <path fill="#F4A48D" d="M51.667 32.824v-.296l-1.503.023c-1.483.024-2.726-1.113-2.836-2.59l-.024-.332c-.104-1.382.823-2.632 2.174-2.936l-.017-1.295c-.027-2.021 1.463-3.744 3.468-4.007l6.595-.865-.108-.387c-.622-2.218.641-4.527 2.844-5.2l6.646-2.032c1.018-.31 2.11.153 2.594 1.1l.494.965c.548 1.074.127 2.389-.943 2.944l-2.344 1.217.535 1.032c.897 1.734.942 3.784.124 5.557l-.327.705c1.001 1.47 1.113 3.371.292 4.949l-.358.688-.17 2.352c-.139 1.92-1.383 3.584-3.186 4.258l-12.72-4.153c-.733-.24-1.23-.924-1.23-1.697z" transform="translate(0 -4) translate(99.885 122.39)"/>
        </g>
        <g>
            <path fill="#F4A48D" d="M27.195 43.803c-1.925-2.48-3.396-5.379-4.256-8.603-.73-2.735-.961-5.494-.748-8.164.464-5.849 3.057-11.308 7.183-15.364 2.892-2.846 6.537-5.002 10.735-6.12C53.04 2.101 66.314 9.785 69.76 22.713c.26.968.664 7.392.724 8.342l.14 2.292 2.945 20.368-3.124-.202c-.078.23-.161.458-.25.686-.603 1.59-1.43 3.099-2.464 4.48l-1.937 2.61-1.222 1.641-.117.155-.06.083c-1.322 1.778-2.921 3.748-4.694 5.604-2.235 2.339-5.286 3.34-8.215 3.052-.267.913-.518 1.918-.714 2.98-.27 1.452-.34 2.935-.272 4.41 0 0-.074 2.219-.142 2.26-2.089 5.54-7.439 9.482-13.702 9.482-7.37 0-13.476-5.458-14.49-12.551-.034-.018-.053-.034-.051-.049.86-6.484.463-2.858 2.574-10.352.897-3.19 2.488-5.544 3.512-14.518.176-1.558.307-6.532.392-7.52.005-.051.008-.121.01-.207l-1.408-1.957z" transform="translate(0 -4) rotate(10 27.995 366.798)"/>
            <path fill="#A66555" d="M37.187 57.703l7.282 10.133c1.754 2.38 4.327 3.722 7.004 3.988.005.002.008.003.008 0-.625 2.132-.834 3.75-.834 3.75-4.922-2.085-8.16-6.267-13.46-17.871zm32.592-4.216l-2.643-.175c-.85-.734-1.353-1.86-1.234-3.094l.888-9.356 2.989 12.625z" transform="translate(0 -4) rotate(10 27.995 366.798)"/>
        </g>
        <path fill="#C00" d="M86.974 37.957c-1.692.624-2.689 3.384-2.26 6.5.058.428.141.842.245 1.239-.927.608-2.369 2.141-2.369 2.141l.002.003c-1.652-2.769-2.787-5.903-3.255-9.29-.398-2.882-.282-5.724.282-8.42 1.23-5.904 4.598-11.14 9.362-14.75 3.34-2.532 7.365-4.265 11.826-4.87 8.215-1.117 16.043 1.839 21.413 7.307l7.586.159c1.523.032 2.25 1.871 1.156 2.921l.776.64c1.68 1.385 2.29 3.676 1.515 5.703l-4.531 11.616c-.052-.453-.14-.9-.26-1.335-.23-.83-.583-1.623-1.045-2.35l-.052-.08-.052-.08-.001-.002-.052-.077-.002-.003-.054-.077-.053-.075-.004-.006-.054-.074-.002-.003-.055-.076-.055-.072-.006-.008-.056-.072-.001-.001-.056-.07-.005-.006-.055-.07-.008-.009-.057-.069-.058-.067-.008-.01-.056-.065-.009-.01-.059-.066-.06-.066-.01-.01-.058-.064-.008-.008-.057-.061-.005-.005-.06-.063-.012-.011-.06-.062-.008-.006-.058-.058-.009-.009-.061-.059-.012-.012-.063-.06-.004-.003-.062-.057-.011-.01-.063-.057-.013-.011-.065-.058-.067-.058-.013-.011-.065-.055-.012-.01-.063-.052-.007-.005-.067-.055-.014-.011-.067-.053-.01-.008-.064-.05-.01-.007-.07-.052-.014-.01-.07-.052-.006-.005-.068-.048-.013-.01-.07-.05-.014-.01-.074-.05-.133-.09-.02-.012-.127-.085-.024-.016-.128-.084-.02-.012-.132-.086-.003-.002-.134-.085-.02-.014-.13-.08-.024-.016-.13-.08-.02-.012-.133-.08-.004-.004-.136-.081-.022-.013-.13-.077-.025-.015-.132-.077-.018-.01-.134-.077-.007-.004-.137-.078-.022-.012-.133-.074-.024-.014-.135-.073-.017-.01-.135-.073-.009-.004-.138-.074-.023-.012-.134-.07-.025-.013-.136-.07-.016-.008-.137-.07-.01-.005-.14-.07-.023-.01-.135-.068-.025-.011-.139-.067-.014-.007-.139-.066-.011-.006-.141-.065-.024-.011-.137-.063-.024-.011-.141-.064-.013-.005-.14-.063-.013-.005-.142-.062-.024-.01-.14-.06-.023-.01-.144-.06-.01-.005-.144-.06-.013-.004-.144-.059-.023-.01-.142-.056-.022-.008-.146-.057-.008-.003-.147-.057-.013-.005-.146-.054-.023-.009-.144-.053-.02-.007-.15-.054-.004-.002-.151-.053-.013-.005-.148-.051-.022-.008-.146-.05-.02-.006-.152-.05-.156-.051-.013-.004-.15-.048-.02-.006-.15-.047-.016-.005-.156-.047-.158-.047-.011-.004-.153-.044-.019-.005-.152-.043-.013-.004-.159-.044-.16-.043-.01-.003-.156-.04-.016-.005-.157-.04-.009-.002-.162-.04-.163-.04-.007-.001-.16-.038-.013-.003-.16-.037h-.005l-.166-.037-.166-.036-.004-.001-.164-.034-.009-.002c-.168-.034-.336-.067-.505-.098-.53 5.882-5.173 10.716-11.225 11.338-7.147.735-13.262-.63-13.49-.682l-.021-.025-.015-.017-.02-.022-.016-.018-.019-.02-.017-.02-.018-.019-.018-.02-.017-.018-.02-.02-.016-.017-.02-.021-.016-.015-.022-.023-.014-.013-.023-.023-.013-.013-.024-.023-.013-.012-.025-.024-.012-.01-.026-.024-.011-.01-.026-.025-.011-.01-.028-.023-.01-.009-.028-.024-.01-.008-.028-.024-.01-.008-.029-.023-.01-.008-.029-.023-.009-.007-.03-.023-.008-.007-.03-.023-.01-.006-.03-.023-.008-.006-.03-.022-.01-.006-.03-.021-.009-.006-.031-.021-.009-.006-.03-.02-.01-.006-.03-.02-.01-.005-.03-.02-.01-.005-.03-.018-.01-.005-.031-.018-.01-.006-.03-.017-.01-.005-.031-.017-.01-.005-.03-.016-.011-.005-.03-.015-.011-.005-.03-.015-.011-.005-.03-.014-.012-.005-.03-.013-.011-.005-.03-.012-.012-.005-.029-.012-.013-.005-.028-.01-.013-.005-.028-.01-.014-.005-.028-.01-.014-.005-.027-.009-.015-.004-.027-.008-.015-.005-.027-.007-.016-.005-.026-.007-.016-.004-.026-.006-.016-.004-.025-.006-.018-.003-.024-.006-.018-.003-.024-.005-.019-.003-.024-.004-.018-.003-.024-.003-.019-.003-.023-.003-.02-.002-.022-.003-.02-.002-.022-.002-.02-.001-.023-.002-.02-.001-.022-.001-.021-.001-.021-.001h-.128l-.023.002h-.019l-.024.002-.018.001-.026.002-.017.002-.028.003-.014.001-.043.006-.04.006-.011.001-.038.007h-.003l-.04.008-.01.002-.035.007-.006.002-.039.009-.01.003-.033.008-.007.002-.038.01-.011.004-.03.01-.01.002-.037.013-.012.004-.027.01-.012.004z" transform="translate(0 -4)"/>
        <path fill="#9E3667" d="M89.806 101.545S83.153 73.455 75.23 69.66l-7.654 4.2 3.115 20.681 19.116 7.003z" transform="translate(0 -4)"/>
    </g>
</svg>
