<svg xmlns="http://www.w3.org/2000/svg" width="56" height="56" viewBox="0 0 56 56">
    <g fill="none" fill-rule="evenodd">
        <g fill="#C00">
            <g>
                <g>
                    <g>
                        <path d="M23.12 7.481c2.168-3.753 7.59-3.753 9.793.063L50.57 42.885c2.17 3.754-.542 8.448-4.879 8.448H10.309c-4.337 0-7.05-4.694-4.914-8.385L23.086 7.544zm7.74 1.168c-1.266-2.19-4.422-2.199-5.704-.029L7.448 44.053C6.178 46.25 7.768 49 10.31 49h35.383c2.541 0 4.129-2.75 2.825-5.01zM28 39.667c.644 0 1.167.522 1.167 1.166v2.334c0 .644-.523 1.166-1.167 1.166s-1.167-.522-1.167-1.166v-2.334c0-.644.523-1.166 1.167-1.166zm0-17.5c.644 0 1.167.522 1.167 1.166V35c0 .644-.523 1.167-1.167 1.167s-1.167-.523-1.167-1.167V23.333c0-.644.523-1.166 1.167-1.166z" transform="translate(-696 -1823) translate(0 554) translate(292 1205) translate(404 64)"/>
                    </g>
                </g>
            </g>
        </g>
    </g>
</svg>
