<svg xmlns="http://www.w3.org/2000/svg" width="56" height="56" viewBox="0 0 56 56">
    <g fill="none" fill-rule="evenodd">
        <g fill="#137E84">
            <g>
                <g>
                    <g>
                        <path d="M37.422 4.667c2.453 0 4.46 1.938 4.573 4.363l.005.216v37.508c0 2.453-1.937 4.462-4.363 4.574l-.215.005H18.578c-2.453 0-4.46-1.938-4.573-4.363L14 46.754V9.246c0-2.453 1.937-4.462 4.363-4.574l.215-.005h18.844zm0 2.333H18.578c-1.186 0-2.16.925-2.24 2.092l-.005.154v37.508c0 1.187.925 2.162 2.091 2.24l.154.006h18.844c1.186 0 2.16-.925 2.24-2.092l.005-.154V9.246C39.667 8.007 38.66 7 37.422 7zM29.16 44.453c.642 0 1.16.502 1.16 1.122 0 .579-.451 1.054-1.033 1.115l-.127.007h-2.32c-.642 0-1.16-.502-1.16-1.122 0-.579.451-1.055 1.033-1.115l.127-.007h2.32zm-1.133-23.782c.071.354.2.699.386 1.02l2.438 4.221c.276.478.426 1.008.449 1.541 2.61.682 4.411 2.13 4.411 3.805 0 2.331-3.486 4.22-7.786 4.22-4.3 0-7.786-1.889-7.786-4.22 0-1.675 1.801-3.123 4.411-3.804-.027.631.123 1.268.45 1.834l2.438 4.221c.185.322.314.667.385 1.02l.102-.176c.604-1.045.604-2.332 0-3.376L25.97 27.59l-.105-.199c-.49-1.004-.453-2.191.11-3.167l.103-.177c.071.354.2.699.385 1.02l1.14 1.974 1.786 3.092c.186.321.314.666.386 1.02l.102-.176c.603-1.045.603-2.332 0-3.377l-1.95-3.376c-.604-1.045-.604-2.332 0-3.377zm3.66-11.368c.652 0 1.18.502 1.18 1.122 0 .579-.46 1.055-1.051 1.115l-.129.007h-7.075c-.651 0-1.179-.502-1.179-1.122 0-.579.46-1.054 1.05-1.115l.13-.007h7.074z" transform="translate(-696 -767) translate(0 554) translate(292 149) translate(404 64)"/>
                    </g>
                </g>
            </g>
        </g>
    </g>
</svg>
