<svg xmlns="http://www.w3.org/2000/svg" width="48" height="48" viewBox="0 0 48 48">
    <g fill="none" fill-rule="evenodd">
        <g fill="#FFF">
            <g>
                <g>
                    <g>
                        <g>
                            <g>
                                <g>
                                    <path d="M37.994 15.632l.735 1.105-1.058.797c-1.51 1.14-4.266 3.22-4.266 7.338 0 4.878 3.121 6.754 4.62 7.656.663.398 1.348.809 1.348 1.707 0 .586-4.68 13.178-11.477 13.178-1.663 0-2.838-.5-3.875-.94-1.05-.447-1.954-.831-3.45-.831-.758 0-1.717.358-2.731.738-1.387.518-2.957 1.106-4.738 1.106h-.047C5.911 47.445.002 32.862.002 25.435c0-12.132 9.1-14.788 12.608-14.788 1.58 0 3.269.621 4.757 1.17 1.041.384 2.118.78 2.717.78.358 0 1.203-.337 1.948-.633 1.59-.633 3.57-1.42 5.874-1.42h.014c1.72 0 6.937.378 10.074 5.088zM28.626 0c.177 6.382-4.387 10.81-8.946 10.532C18.929 5.44 24.238 0 28.626 0z" transform="translate(-488 -3432) translate(0 3039) translate(252 148) translate(64 125) translate(0 80) translate(172 40) translate(4)"/>
                                </g>
                            </g>
                        </g>
                    </g>
                </g>
            </g>
        </g>
    </g>
</svg>
