<svg xmlns="http://www.w3.org/2000/svg" width="165" height="199" viewBox="0 0 165 199">
    <g fill="none" fill-rule="evenodd" opacity=".12">
        <g fill="#FFF" fill-rule="nonzero">
            <g>
                <g>
                    <g>
                        <g>
                            <g>
                                <path d="M54.7 198.963C24.768 198.791.01 137.69.01 106.571c0-50.83 38.131-61.96 52.827-61.96 6.623 0 13.695 2.602 19.932 4.903 4.362 1.605 8.873 3.263 11.382 3.263 1.501 0 5.04-1.41 8.164-2.647 6.664-2.653 14.955-5.95 24.61-5.95h.058c7.21 0 29.069 1.583 42.211 21.319l3.078 4.626-4.43 3.343c-6.33 4.776-17.878 13.488-17.878 30.744 0 20.438 13.079 28.298 19.362 32.079 2.774 1.668 5.645 3.389 5.645 7.152 0 2.457-19.61 55.215-48.086 55.215-6.968 0-11.894-2.094-16.238-3.941-4.396-1.87-8.188-3.481-14.454-3.481-3.177 0-7.193 1.502-11.445 3.096-5.81 2.168-12.388 4.631-19.851 4.631H54.7z" transform="translate(-270 -3416) translate(0 3039) translate(252 148) translate(64 125) translate(0 80) translate(-46 24)"/>
                                <path d="M119.94 0c.743 26.74-18.381 45.292-37.483 44.129C79.31 22.789 101.557 0 119.941 0z" transform="translate(-270 -3416) translate(0 3039) translate(252 148) translate(64 125) translate(0 80) translate(-46 24)"/>
                            </g>
                        </g>
                    </g>
                </g>
            </g>
        </g>
    </g>
</svg>
