<?xml version="1.0" encoding="UTF-8"?>
<svg width="711px" height="400px" viewBox="0 0 711 400" version="1.1" xmlns="http://www.w3.org/2000/svg" xmlns:xlink="http://www.w3.org/1999/xlink">
    <title>F8808A77-74FC-4803-AC62-E1BE187AD4C5@3x</title>
    <g id="📌-Key-screens" stroke="none" stroke-width="1" fill="none" fill-rule="evenodd">
        <g id="↳-KS.-Banner-access-OTV-—-Global-position" transform="translate(-605.000000, -1762.000000)">
            <g id="Default" transform="translate(0.000000, 1796.000000)">
                <g id="Banner-Global-position-Copy-2" transform="translate(108.000000, 40.000000)">
                    <g id="Banner-Global-position" transform="translate(108.000000, 24.000000)">
                        <g id="bg" transform="translate(389.000000, -98.000000)">
                            <path d="M33.7402881,322.891622 C-72.6292663,264.82652 99.9684763,-6.54653792 173.240288,0.120770389 C222.088163,4.5656426 363.20791,37.3502101 596.599529,98.474473 L596.599529,231.224473 C292.273071,331.045974 104.653324,361.601691 33.7402881,322.891622 Z" id="Path-4" fill="#CEDEE7"></path>
                            <path d="M524.065359,390.456768 C521.559125,388.937427 354.567205,301.458481 352.387351,299.605089 C288.988974,245.701468 408.163781,20.5543164 479,27 C527.847875,31.4448722 604.971,61.9435879 710.369376,118.496147 L710.369376,251.246147 C636.431353,374.524892 574.330015,420.928432 524.065359,390.456768 Z" id="Path-4-Copy" fill="#9BC3D3"></path>
                        </g>
                    </g>
                </g>
            </g>
        </g>
    </g>
</svg>