<?xml version="1.0" encoding="UTF-8"?>
<svg width="818px" height="382px" viewBox="0 0 818 382" version="1.1" xmlns="http://www.w3.org/2000/svg" xmlns:xlink="http://www.w3.org/1999/xlink">
    <title>1AE19D8E-59D6-49F6-A163-22CB5A245D86@3x</title>
    <g id="📌-Key-screens" stroke="none" stroke-width="1" fill="none" fill-rule="evenodd">
        <g id="↳-KS.-Banner-access-OTV-—-Payments-landing" transform="translate(-786.000000, -1762.000000)">
            <g id="Default" transform="translate(0.000000, 1796.000000)">
                <g id="Banner" transform="translate(0.000000, 40.000000)">
                    <g transform="translate(108.000000, 24.000000)" id="bg">
                        <g transform="translate(678.259712, -97.474473)">
                            <path d="M33.7402881,322.891622 C-72.6292663,264.82652 99.9684763,-6.54653792 173.240288,0.120770389 C222.088163,4.5656426 363.20791,37.3502101 596.599529,98.474473 L596.599529,231.224473 C292.273071,331.045974 104.653324,361.601691 33.7402881,322.891622 Z" id="Path-4" fill="#CEDEE7"></path>
                            <path d="M630.295513,371.435093 C627.789279,369.915753 460.797358,282.436807 458.617504,280.583415 C395.219127,226.679794 531.327797,40.6961303 602.164016,47.1418139 C651.011891,51.5866861 722.490395,69.0309058 816.599529,99.474473 L816.599529,232.224473 C742.661507,355.503218 680.560168,401.906758 630.295513,371.435093 Z" id="Path-4-Copy" fill="#9BC3D3"></path>
                        </g>
                    </g>
                </g>
            </g>
        </g>
    </g>
</svg>