<svg xmlns="http://www.w3.org/2000/svg" width="600" height="400" viewBox="0 0 600 400">
    <g fill="none" fill-rule="evenodd">
        <path fill="#F6FAFC" d="M745-38L616.794 184.063C538.577 319.536 394.028 402.99 237.597 402.99H-55L73.21 180.928C151.425 45.455 295.973-38 452.404-38H745z"/>
        <g>
            <path fill="#9BC3D3" d="M175.587 352.582L221.582 352.582 221.582 212.877 175.587 212.877z" transform="translate(95.5 23.5)"/>
            <path fill="#C3DEE7" d="M20.206 280.179h356.759c11.158 0 20.2-9.044 20.2-20.201V20.198c0-11.156-9.042-20.198-20.2-20.198H20.205C9.045 0 0 9.042 0 20.199v239.779c0 11.157 9.044 20.2 20.206 20.2" transform="translate(95.5 23.5)"/>
            <path fill="#FFF" d="M15.554 236.271L381.61 236.271 381.61 15.142 15.554 15.142z" transform="translate(95.5 23.5)"/>
            <path fill="#DEEDF2" d="M185.775 256.92c0 7.075 5.734 12.811 12.81 12.811 7.076 0 12.811-5.736 12.811-12.812 0-7.075-5.735-12.81-12.81-12.81-7.077 0-12.811 5.735-12.811 12.81" transform="translate(95.5 23.5)"/>
            <path fill="#C3DEE7" d="M123.003 352.582L274.162 352.582 274.162 342.208 123.003 342.208z" transform="translate(95.5 23.5)"/>
        </g>
        <g transform="translate(111 39)">
            <path fill="#ECECEC" d="M0 8.86H366V17.72H0z"/>
            <path fill="#EFF6F9" d="M0 17.721H366V59.06999999999999H0z"/>
            <path fill="#A2A2A2" d="M0 0H366V8.86H0zM27.356 27.6H57.752V33.679H27.356z"/>
            <path fill="#FFF" d="M27.356 50.209H77.003V59.069H27.356z"/>
            <path fill="#E2EFF4" d="M77.003 50.209H126.65V59.069H77.003z"/>
            <rect width="46.354" height="8.86" x="252" y="30.052" fill="#FAB2B2" rx="4.43"/>
            <rect width="32" height="8.86" x="305" y="30" fill="#FFF" rx="4.43"/>
            <path fill="#C7C7C7" d="M27.356 82.819H51.673V86.872H27.356zM74.977 82.819H99.29400000000001V86.872H74.977z"/>
            <path fill="#DEEDF2" d="M132.73 102.07H155.527V110.17599999999999H132.73zM157.553 102.07H184.403V110.17599999999999H157.553zM186.429 102.07H213.279V110.17599999999999H186.429z"/>
            <path fill="#FAB2B2" d="M322 103H337.198V108.066H322zM290.789 103.336H316.11899999999997V108.402H290.789z"/>
            <path fill="#ECECEC" d="M27.356 100.044H126.65V112.202H27.356z"/>
            <path fill="#C7C7C7" d="M27.356 123.756H337.396V132.61599999999999H27.356z"/>
            <path fill="#A2A2A2" d="M27.356 71.674H33.435V79.78H27.356zM74.977 71.674H81.056V79.78H74.977z"/>
            <path fill="#C7C7C7" d="M122.598 82.819H146.915V86.872H122.598z"/>
            <path fill="#A2A2A2" d="M122.598 71.674H128.677V79.78H122.598z"/>
            <path fill="#C7C7C7" d="M170.218 82.819H194.535V86.872H170.218z"/>
            <path fill="#A2A2A2" d="M170.218 71.674H176.297V79.78H170.218z"/>
            <path fill="#C7C7C7" d="M217.839 82.819H242.156V86.872H217.839z"/>
            <path fill="#A2A2A2" d="M217.839 71.674H223.918V79.78H217.839zM265.459 71.674H271.538V79.78H265.459z"/>
            <path fill="#C7C7C7" d="M265.459 82.819H289.776V86.872H265.459z"/>
            <path fill="#FFF" d="M27.356 132.617H337.396V148.82799999999997H27.356zM27.356 165.039H337.396V181.25H27.356z"/>
            <path fill="#F6FAFC" d="M27.356 148.828H337.396V165.039H27.356zM27.356 181.251H337.396V197.462H27.356z"/>
            <path fill="#A2A2A2" d="M39.008 139.203H66.364V142.243H39.008zM39.008 171.625H66.364V174.665H39.008zM39.008 155.414H66.364V158.45399999999998H39.008zM39.008 187.836H66.364V190.876H39.008zM232.783 139.203H265.206V142.243H232.783zM126.999 139.203H162.441V142.243H126.999zM126.999 155.057H162.441V158.09699999999998H126.999zM126.999 171.301H162.441V174.34099999999998H126.999zM126.999 188.284H162.441V191.32399999999998H126.999zM180.162 139.203H215.604V142.243H180.162zM180.162 155.057H215.604V158.09699999999998H180.162zM180.162 171.301H215.604V174.34099999999998H180.162zM180.162 188.284H215.604V191.32399999999998H180.162zM232.783 171.625H265.206V174.665H232.783zM232.783 155.414H265.206V158.45399999999998H232.783zM232.783 187.836H265.206V190.876H232.783z"/>
            <path fill="#DADADA" d="M281.671 139.203H288.257V142.243H281.671zM281.671 171.625H288.257V174.665H281.671zM281.671 155.414H288.257V158.45399999999998H281.671zM281.671 187.836H288.257V190.876H281.671z"/>
            <path fill="#A2A2A2" d="M307.761 139.203H325.999V142.243H307.761zM307.761 171.625H325.999V174.665H307.761zM307.761 155.414H325.999V158.45399999999998H307.761zM307.761 187.836H325.999V190.876H307.761z"/>
            <rect width="25.33" height="6.079" x="86.882" y="137.683" fill="#FCCCCC" rx="3.04"/>
            <rect width="25.33" height="6.079" x="86.882" y="170.105" fill="#ECD7E1" rx="3.04"/>
            <rect width="25.33" height="6.079" x="86.882" y="153.894" fill="#FFF5D7" rx="3.04"/>
            <rect width="25.33" height="6.079" x="86.882" y="186.317" fill="#D2F0F2" rx="3.04"/>
            <path fill="#FFF" d="M27.356 197.462H337.396V213.673H27.356z"/>
            <path fill="#A2A2A2" d="M180.162 204.528H215.604V207.56799999999998H180.162zM126.999 204.528H162.441V207.56799999999998H126.999zM39.008 204.048H66.364V207.088H39.008zM232.783 204.048H265.206V207.088H232.783z"/>
            <path fill="#DADADA" d="M281.671 204.048H288.257V207.088H281.671z"/>
            <path fill="#A2A2A2" d="M307.761 204.048H325.999V207.088H307.761z"/>
            <rect width="25.33" height="6.079" x="86.882" y="202.528" fill="#E0F2E1" rx="3.04"/>
            <path fill="#C00" d="M0 207H366V221H0z"/>
        </g>
        <g>
            <path fill="#1BB3BC" d="M25.761 29.93c-1.814.136-3.64.452-5.46.96C5.533 35.03-3.05 50.178 1.005 64.97c2.843 10.374 11.18 17.73 20.984 19.832 2.474.53 4.725 1.84 6.366 3.77 6.943 8.186 18.346 11.95 29.32 8.595 14.461-4.422 22.753-19.761 18.546-34.288-.04-.143-.082-.287-.127-.43-1.434-4.666.275-9.69 4.14-12.67 8.763-6.756 12.983-18.412 9.735-29.693C85.736 5.395 70.3-3.142 55.608 1.08c-9.903 2.846-16.995 10.719-19.3 20.05-1.216 4.915-5.496 8.426-10.547 8.8" transform="matrix(-1 0 0 1 533 184)"/>
            <path fill="#63BA68" d="M129.077 86.84c-2.784 11.407-12.234 19.433-23.193 20.942-4.842.67-8.82 4.179-9.89 8.947-.026.14-.065.289-.102.438-1.097 4.534-3.267 8.546-6.191 11.825-1.202 1.367-2.543 2.616-3.994 3.714-6.22 4.722-14.367 6.814-22.523 5.102-.13-.027-.271-.066-.409-.094-10.886-2.466-18.781-10.975-21.015-21.154-.066-.287-.121-.566-.177-.856-.457-2.486-1.77-4.749-3.652-6.434-7.468-6.693-11.05-17.215-8.37-27.633 3.827-14.85 18.798-23.744 33.67-20.002 1.834.458 3.573 1.091 5.223 1.873 4.563 2.188 10.028 1.266 13.52-2.403 6.637-6.954 16.702-10.269 26.702-7.82 14.852 3.63 24.013 18.705 20.401 33.556" transform="matrix(-1 0 0 1 533 184)"/>
            <path fill="#3A8340" d="M95.473 130.49l-9.766 2.216-22.522 5.102c-.134-.027-.271-.063-.411-.094-10.886-2.466-18.781-10.977-21.015-21.154l47.94 12.43 5.774 1.5z" transform="matrix(-1 0 0 1 533 184)"/>
            <path fill="#FC3" d="M34.039 129.093L54.033 199.601 83.342 199.601 103.335 129.093z" transform="matrix(-1 0 0 1 533 184)"/>
        </g>
    </g>
</svg>
