<svg xmlns="http://www.w3.org/2000/svg" width="154" height="40" viewBox="0 0 154 40">
    <g fill="#FFF">
        <path d="M64.615 19.706c0-4.736 2.46-7.814 6.72-7.814 4.48 0 6.742 3.398 6.742 7.861 0 4.703-2.46 7.815-6.699 7.815-4.458 0-6.763-3.356-6.763-7.862zm11.86.109c0-4.094-1.91-6.49-5.14-6.49-3.228 0-5.117 2.35-5.117 6.315 0 4.115 1.91 6.49 5.16 6.49s5.097-2.375 5.097-6.315zM89.385 19.753v7.274h-1.548v-6.994c0-1.997-.775-3.037-3.493-3.037-.864.007-1.724.108-2.565.301v9.73H80.23V16.279c1.353-.374 2.75-.576 4.156-.603 3.736-.005 4.998 1.479 4.998 4.077zM101.141 22.15h-8.044c.196 2.635 1.56 4.053 4.031 4.053 1.275.01 2.53-.315 3.643-.946-.054.495-.132.988-.236 1.475-1.084.637-2.211.836-3.447.836-3.621 0-5.55-2.225-5.55-6.013 0-3.281 1.474-5.88 5.03-5.88 3.253 0 4.663 2.268 4.663 5.11.002.457-.028.914-.09 1.366zm-8.044-1.388h6.601v-.086c0-2.182-1.042-3.657-3.187-3.657-2.146 0-3.242 1.454-3.414 3.743zM113.984 13.897h-4.738v13.67h-1.492v-13.67h-4.908c.026-.492.082-.98.17-1.465h11.138c-.027.492-.084.98-.17 1.465zM120.077 15.77c.005.443-.046.886-.152 1.316-.546-.064-1.095-.093-1.645-.087-.703.008-1.404.086-2.091.235v9.793h-1.497V16.239c1.15-.361 2.345-.55 3.549-.563.613-.006 1.226.026 1.836.094zM130.308 16.291v11.013h-1.46l-.044-.86c-.838.732-1.923 1.132-3.043 1.123-3.177 0-5.146-2.092-5.146-5.856 0-3.876 1.947-6.033 5.951-6.033 1.275-.029 2.545.18 3.742.613zm-4.409 9.996c1.065.013 2.09-.397 2.842-1.138V17.3c-.708-.184-1.438-.273-2.17-.266-2.997 0-4.362 1.72-4.362 4.669 0 2.84 1.253 4.58 3.69 4.58v.005zM141.615 12.433v15.411h-1.448l-.066-.936c-.753.72-1.798 1.2-3.38 1.2-2.82 0-4.798-2.097-4.798-5.869 0-3.928 1.932-6.046 5.795-6.046.788-.002 1.573.102 2.333.309v-3.839c.506-.157 1.034-.235 1.564-.23zm-4.486 14.396c1.099.002 2.153-.43 2.931-1.2v-7.726c-.78-.222-1.586-.34-2.397-.352-2.799 0-4.154 1.655-4.154 4.678 0 2.846 1.222 4.59 3.62 4.59v.01zM153.903 22.15h-8.04c.196 2.635 1.561 4.053 4.035 4.053 1.274.01 2.53-.316 3.642-.946-.045.395-.132.989-.236 1.475-1.082.637-2.211.836-3.446.836-3.622 0-5.55-2.225-5.55-6.013 0-3.281 1.473-5.88 5.03-5.88 3.252 0 4.662 2.268 4.662 5.11.001.458-.031.914-.097 1.366zm-8.044-1.388h6.601v-.086c0-2.182-1.042-3.657-3.187-3.657-2.146 0-3.235 1.454-3.41 3.743h-.004zM25.867 15.602c-.055-1.247-.412-2.463-1.04-3.545l-5.643-9.71c-.426-.728-.727-1.521-.893-2.347l-.24.405c-1.399 2.402-1.399 5.361 0 7.763l4.516 7.76c1.398 2.403 1.398 5.363 0 7.766l-.24.405c-.169-.825-.47-1.618-.894-2.347l-4.137-7.108-2.642-4.527c-.424-.729-.726-1.522-.892-2.347l-.24.405c-1.393 2.394-1.398 5.342-.012 7.74l4.533 7.788c1.398 2.402 1.398 5.362 0 7.763l-.24.405c-.168-.825-.47-1.617-.894-2.347l-5.647-9.702c-.746-1.28-1.107-2.744-1.04-4.22C4.175 17.17 0 20.496 0 24.35c0 5.359 8.076 9.705 18.038 9.705 9.963 0 18.039-4.346 18.039-9.705.01-3.853-4.16-7.181-10.21-8.747zM50.077 0H51.692V40H50.077z"/>
    </g>
</svg>
