<?xml version="1.0" encoding="UTF-8"?>
<svg width="260px" height="248px" viewBox="0 0 260 248" version="1.1" xmlns="http://www.w3.org/2000/svg" xmlns:xlink="http://www.w3.org/1999/xlink">
    <!-- Generator: Sketch 62 (91390) - https://sketch.com -->
    <title>Group 36</title>
    <desc>Created with Sketch.</desc>
    <g id="Landing-Privada" stroke="none" stroke-width="1" fill="none" fill-rule="evenodd">
        <g transform="translate(-598.000000, -79.000000)" id="Welcome-Pack">
            <g transform="translate(91.000000, 79.000000)">
                <g id="g.-illustration/Characters/Children/Girl-with-Laptop">
                    <g id="Group-36" transform="translate(637.000000, 124.000000) scale(-1, 1) translate(-637.000000, -124.000000) translate(507.000000, 0.000000)">
                        <polygon id="Quaternary-color" fill="#DEEDF2" points="44 49.6837773 157.566837 45.2857143 163 173.888336 49.4328772 178.285714"></polygon>
                        <polygon id="Secondary-color" fill="#C3DEE7" points="43.3785028 59.0416275 100.659877 68.2857143 157 54.5029533 156.620925 45.2857143 43 49.8243885"></polygon>
                        <polygon id="Quaternary-color" fill="#DEEDF2" points="163.161388 26.2857143 36 31.1512036 36.8419433 50.8077803 100.974905 61.2857143 164 45.9395499"></polygon>
                        <polygon id="Primary-color" fill="#9BC3D3" points="93 28.7367199 104.695451 28.2857143 111 175.835254 99.3045489 176.285714"></polygon>
                        <path d="M100.151801,28.0752996 C108.287147,26.0248314 116.425534,23.7869695 124.265001,21.1471615 C125.246094,20.8253331 126.202989,20.4681986 127.156841,20.1178537 C128.119821,19.7389923 128.895596,19.4470383 129.873646,18.9948489 C131.621529,18.1991044 133.236543,17.2322611 134.549593,16.1282673 C135.850616,15.0392107 136.852863,13.7641183 137.188008,12.615313 C137.523009,11.4556442 137.305664,10.5892875 136.689855,9.86279712 C136.049848,9.13223297 134.905892,8.54425104 133.499095,8.32290912 C132.095485,8.08255623 130.474385,8.20748542 128.856474,8.57005164 L127.633839,8.90953312 L126.423376,9.33592186 L125.297387,9.80576423 L123.896675,10.4955906 L121.502989,11.8562324 C120.696931,12.3776759 119.863778,12.8638134 119.063805,13.4042679 C112.652146,17.729262 106.753709,23.155534 101.386462,29.0177002 C100.619816,29.8867728 97.4168847,28.2368928 98.0931155,27.0093277 C102.201504,19.7865198 107.686407,13.2453906 114.704891,7.97528008 C115.583252,7.31668601 116.516095,6.71105105 117.424739,6.08912098 C117.889566,5.7863035 118.378591,5.50792868 118.855589,5.22004839 L119.580071,4.79501757 L119.942311,4.58046528 L120.120389,4.47590498 L120.213992,4.42837757 L120.256157,4.39714528 L120.407139,4.3197435 L121.798722,3.61362202 C122.348169,3.36376365 122.970063,3.10168395 123.555589,2.85454143 C124.14126,2.63455743 124.720845,2.4444478 125.303473,2.24619062 C125.907111,2.08323951 126.50785,1.91349877 127.12366,1.76820069 C129.599067,1.25083092 132.288631,1.06072129 135.023548,1.64734529 C137.719198,2.21224247 140.553803,3.61905372 142.380076,6.14208009 C143.273651,7.39544571 143.850193,8.91224897 143.970457,10.4276943 C144.100864,11.9472134 143.789337,13.4273527 143.237427,14.7119506 C142.105353,17.3055891 140.149253,19.0736086 138.178084,20.4369663 C134.178368,23.1501023 129.638189,24.2106424 125.514732,25.116379 C117.140887,26.895262 108.7853,28.0780154 100.414498,29.2634848 C99.0048027,29.4508785 98.8629493,28.4012018 100.151801,28.0752996" id="Primary-color" fill="#9BC3D3"></path>
                        <path d="M99.9561327,31.9673372 C89.0471184,31.7131974 78.141174,31.4474397 67.1804105,30.6995424 C64.4333124,30.4962306 61.6954239,30.2813008 58.9087098,29.9226006 C57.5747768,29.7802823 55.9973004,29.504359 54.5293162,29.2168179 L53.5364315,28.968487 L53.0401353,28.8479521 L52.7933759,28.7840541 L52.3669559,28.6301179 C51.6421734,28.3454813 50.9021877,28.1276472 50.1833988,27.7471635 C48.7336877,27.1168967 47.3297323,26.1671397 46.0323453,25.0358543 C44.7410981,23.8798811 43.638575,22.3637554 42.9168624,20.6515789 C42.1888639,18.930689 41.8995648,17.0210096 42.0305461,15.1853938 C42.1584575,13.3541346 42.6853062,11.6056525 43.4710476,10.0445077 C46.6109433,3.79121513 53.4146598,0.144671344 60.1818302,0.289894115 C61.8781545,0.284085204 63.5196596,0.593409707 65.1428917,0.992772328 L66.416012,1.39794386 L67.0524991,1.60706465 L67.5335921,1.80311539 L68.4747276,2.19957356 L68.8615316,2.37238866 L69.1050749,2.49582801 L69.5924538,2.74415895 C70.9019741,3.40637479 72.1932213,4.07875622 73.4023129,4.82810572 C74.6540903,5.54550621 75.8266357,6.32680472 77.0082446,7.106651 C81.6952103,10.2536285 85.9893784,13.7694717 90.0856127,17.469748 C94.1787772,21.1787375 98.0495951,25.0750645 101.710346,29.1776078 C102.861549,30.4729949 100.297181,33.0986226 98.9876607,32.0399486 C94.763515,28.6838504 90.4785565,25.3931024 86.1630455,22.2127237 C81.8444646,19.0425106 77.4802742,15.9405522 73.0155088,13.2001985 C71.8979287,12.5220081 70.7892659,11.8263911 69.6563365,11.2280733 C68.5356865,10.5673096 67.402757,10.0052975 66.2698276,9.45490321 L65.8464774,9.23997351 L65.6331943,9.13396089 C65.6941532,9.15864876 65.4687368,9.05844505 65.758182,9.19205 L65.7306993,9.17607549 L65.6697404,9.14848317 L65.5510387,9.10055965 L64.6099032,8.71281485 L64.1470833,8.52838193 L63.8058888,8.43543936 L63.1297857,8.22050966 C62.100501,7.986701 61.0497272,7.76015347 60.008163,7.76886684 C58.9665989,7.73256115 57.9281046,7.82695595 56.9261564,8.07528689 C55.9180684,8.29312104 54.9374632,8.65327352 54.0328738,9.14557871 C52.1965048,10.0953356 50.6432951,11.5751557 49.6808167,13.248122 C48.7002114,14.9370628 48.4657316,16.749443 48.9925803,18.3251101 C49.4859528,19.9312739 50.9295242,21.4357818 52.9030142,22.5365705 C53.3598406,22.845895 53.9293752,23.0477546 54.4440907,23.317869 L54.5414495,23.3599836 L54.5902751,23.3832192 L54.6145417,23.3962893 L54.4866303,23.3541747 L54.7303198,23.4413083 L55.2146289,23.5981489 L56.180031,23.9321613 C57.3677796,24.2371291 58.4489597,24.5450014 59.8040896,24.8180202 C62.3867302,25.3872935 65.0576662,25.8520063 67.7163227,26.3036491 C78.4000667,28.0608447 89.2237092,29.4680533 100.038435,30.6719501 C101.853461,30.8810709 101.685933,31.997834 99.9561327,31.9673372" id="Primary-color" fill="#9BC3D3"></path>
                        <polygon id="Primary-color" fill="#9BC3D3" points="218.346827 180.285714 137.421005 175.228256 133 88.2857143 235 94.6623864"></polygon>
                        <polygon id="Primary-color" fill="#9BC3D3" points="127.398716 67.2857143 244 74.5643165 242.600419 94.2857143 126 87.0071121"></polygon>
                        <polygon id="Tertiary-color" fill="#34466B" points="233.675829 99.2857143 235 92.5739315 133 86.2857143 133.350381 93.1040544"></polygon>
                        <polygon id="Secondary-color" fill="#C3DEE7" points="178.653491 69.2857143 195 70.2972898 187.346509 177.285714 171 176.274684"></polygon>
                        <path d="M185.300849,70.5551059 C189.487292,68.937658 193.577013,67.1000129 197.519486,65.0888792 C201.456186,63.0764109 205.270179,60.8771087 208.71028,58.4202427 C210.425278,57.1911424 212.049328,55.9006538 213.456839,54.5354316 C214.858576,53.1822202 216.063982,51.7409299 216.785783,50.3677006 L217.018202,49.8645835 L217.122142,49.6390483 L217.038413,49.7511486 L216.894053,49.7484796 C216.797332,49.4749013 216.563468,48.8997198 216.188132,48.316531 C215.420136,47.1154558 214.220504,45.8503232 212.912602,44.8467582 C211.604699,43.8311823 210.136557,43.0504835 208.834429,42.6834883 C208.184809,42.4913162 207.588602,42.4059064 207.083342,42.4019028 L206.377421,42.457953 L206.058385,42.5166722 L206.181091,42.4966543 C206.214294,42.4859781 205.703259,42.8116029 205.206661,43.266677 C204.684077,43.7818048 204.106637,44.3703317 203.537858,45.0936459 C202.401744,46.4949003 201.275736,48.1296971 200.190148,49.8125369 C195.869451,56.6399823 191.830256,64.1693894 187.513889,71.556002 C187.352206,71.8429255 186.909021,71.9616985 186.344573,71.9590294 L185.892726,71.9350079 L185.658862,71.9069828 L185.462533,71.5893652 L184.864882,71.437229 L184.440463,71.7428359 L184.016045,72.0097415 C183.851474,72.0484428 183.601731,72.0017343 183.402514,71.722818 L183.219177,71.2317117 L183.030065,71.0755719 L182.656173,70.8446985 C182.208656,70.5244118 181.94159,70.1747655 182.010883,69.8331263 C182.903028,65.5839891 184.055022,61.413589 185.481299,57.2858938 C186.911908,53.1541951 188.599477,49.0785465 190.783645,45.0576136 C191.886556,43.0451453 193.11073,41.0460224 194.659713,39.0442303 C195.414716,38.0513415 196.331403,37.0344311 197.380901,36.0295315 C198.518458,35.0326391 199.772947,33.9610131 201.896484,33.1002425 C202.455158,32.9027324 203.11344,32.6972151 203.628805,32.5877838 C204.079208,32.5077121 204.53683,32.4236368 204.987233,32.3769284 C205.898145,32.2795078 206.804727,32.2634935 207.68821,32.312871 C209.456621,32.4209678 211.105214,32.813319 212.590679,33.3524683 C215.570271,34.456123 217.952212,36.0909198 219.961704,37.9592591 C221.958204,39.8529543 223.622676,41.9721848 224.833857,44.5798526 C225.414185,45.9090425 225.916558,47.3676816 225.997399,49.2173374 C226.019053,50.1568452 225.910783,51.2244676 225.471929,52.3561473 C225.347779,52.648409 225.216411,52.9286599 225.072051,53.2062417 L224.770339,53.6706574 L224.172688,54.5501114 C222.488006,56.7787732 220.503055,58.436257 218.482014,59.8601984 C216.452311,61.2801362 214.356203,62.4571899 212.229779,63.5101325 C207.974043,65.6013379 203.610038,67.2107787 199.21283,68.6227094 C194.809848,70.0239638 190.373662,71.2116937 185.895613,72.2379458 C185.520277,72.3233556 185.209902,72.2873233 184.978926,72.1845647 L184.818687,72.0951513 L184.573274,72.0017343 L184.488102,71.6987965 L184.55162,71.389186 L184.6238,71.08091 C184.746507,70.8727236 184.970265,70.6832206 185.300849,70.5551059" id="Secondary-color" fill="#C3DEE7"></path>
                        <path d="M185.70015,70.5570291 C181.858851,68.4108826 178.137947,66.0521524 174.584179,63.5444784 C171.037493,61.025972 167.640947,58.3395652 164.636745,55.4486991 C163.141018,53.9985269 161.751522,52.4955473 160.571654,50.9492385 C159.400284,49.4151161 158.428628,47.8119379 157.921554,46.3455172 L157.764333,45.8093191 L157.696345,45.5696548 L157.7615,45.6942261 L157.900308,45.7023503 C158.03345,45.4518537 158.343644,44.895345 158.791229,44.3564388 C159.706228,43.2420675 161.048983,42.1195719 162.462559,41.2732996 C163.876134,40.4134869 165.41577,39.8150032 166.733029,39.5983575 C167.390242,39.4913886 167.983717,39.4764942 168.476627,39.5387799 L169.155087,39.6768915 L169.456782,39.7811523 L169.334971,39.7445933 C169.308059,39.731053 169.762726,40.1169531 170.17915,40.645027 C170.615404,41.2286164 171.09415,41.8880318 171.541735,42.6842048 C172.456734,44.2359296 173.319327,46.0178406 174.136594,47.8457888 C177.381585,55.2510099 180.246979,63.3278327 183.408402,71.2936245 C183.528796,71.5982826 183.939555,71.7729532 184.490538,71.8406549 L184.926791,71.8717978 L185.160499,71.8745058 L185.397039,71.577972 L186.001845,71.499438 L186.370111,71.8582574 L186.745459,72.1764558 L187.38001,71.9679343 L187.630714,71.4967299 L187.83751,71.3586182 L188.229855,71.1758234 C188.71285,70.9131405 189.020211,70.5935881 188.998965,70.2442469 C188.731263,65.8571713 188.197278,61.518841 187.394174,57.1886349 C186.579739,52.8624909 185.514601,48.5512413 183.953719,44.2332216 C183.163363,42.0721806 182.256862,39.9111397 181.026003,37.7054156 C180.436778,36.6072926 179.686081,35.4739648 178.807908,34.3338668 C177.841918,33.1883526 176.773946,31.9588882 174.829218,30.8282684 C174.313645,30.5601693 173.701757,30.2717597 173.218762,30.0970891 C172.788174,29.9616856 172.360418,29.826282 171.922748,29.713897 C171.053074,29.5053755 170.173484,29.37268 169.305226,29.3158105 C167.570126,29.2088417 165.911512,29.3943446 164.388874,29.7558721 C161.337931,30.4897595 158.791229,31.8410871 156.575967,33.4740541 C154.364953,35.1273317 152.44997,37.0473542 150.907501,39.5252395 C150.153972,40.7858467 149.464181,42.1926898 149.121411,44.0463646 C148.971271,44.9887735 148.92453,46.0692939 149.192231,47.2649074 C149.268717,47.5722735 149.360784,47.8715154 149.464181,48.1680492 L149.690807,48.6731045 L150.148307,49.6317618 C151.471232,52.0839204 153.173754,53.9904026 154.931517,55.6856553 C156.709109,57.3605974 158.58585,58.8026454 160.503666,60.1255383 C164.347798,62.7577836 168.364731,64.9215326 172.44257,66.8848844 C176.528908,68.845528 180.671901,70.59088 184.885715,72.1737477 C185.239817,72.3064432 185.547178,72.3118594 185.786551,72.2387414 L185.950854,72.1656235 L186.208641,72.1006298 C186.479174,72.0099094 186.391357,71.8745058 186.329035,71.8068041 L186.312038,71.4886057 L186.282294,71.1690533 C186.19306,70.9469914 186.004678,70.7316997 185.70015,70.5570291" id="Secondary-color" fill="#C3DEE7"></path>
                        <polygon id="Primary-color" fill="#9BC3D3" points="0 138.499148 121.910115 133.285714 123 156.072415 1.08974216 161.285714"></polygon>
                        <polygon id="Primary-color" fill="#9BC3D3" points="8 162.075723 118.398048 157.285714 122 233.495842 11.6019519 238.285714"></polygon>
                        <polygon id="Tertiary-color" fill="#34466B" points="7 161.983419 117.647315 157.285714 118 164.588009 7.35268528 169.285714"></polygon>
                        <polygon id="Secondary-color" fill="#C3DEE7" points="54 136.925989 68.3929577 136.285714 73 235.645439 58.6070423 236.285714"></polygon>
                        <polygon id="Secondary-color" fill="#C3DEE7" points="62 135.945725 94.5907972 111.285714 90.862366 123.613045 104 126.664875 64.539316 139.285714"></polygon>
                        <polygon id="Secondary-color" fill="#C3DEE7" points="63.0699482 136.285714 83 147.812571 78.9408705 153.285714 62 138.419714"></polygon>
                        <polygon id="Secondary-color" fill="#C3DEE7" points="61 136.531618 25.8966611 113.285714 30.8584265 126.006036 18 130.386648 58.7935398 140.285714"></polygon>
                        <polygon id="Secondary-color" fill="#C3DEE7" points="59.8031031 138.285714 42 150.566081 46.3061627 155.285714 61 140.169807"></polygon>
                        <polygon id="Secondary-color" fill="#C3DEE7" points="174.716519 136.285714 254 140.560613 248.283481 235.285714 169 231.010678"></polygon>
                        <polygon id="Secondary-color" fill="#C3DEE7" points="172.041784 117.285714 260 122.245213 258.958216 140.285714 171 135.326216"></polygon>
                        <polygon id="Primary-color" fill="#9BC3D3" points="175.321343 134.285714 254 138.279962 253.678657 143.285714 175 139.291467"></polygon>
                        <polygon id="Tertiary-color" fill="#34466B" points="210.644163 119.285714 223 119.966862 216.355837 232.285714 204 231.604567"></polygon>
                        <path d="M214.155587,118.851309 C212.689763,116.353228 211.41799,113.776556 210.373105,111.104742 C209.350611,108.424195 208.478879,105.671575 208.143023,102.744309 C207.956436,101.300226 207.972856,99.7492704 208.075852,98.3325571 C208.202731,96.8793508 208.411707,95.4131112 208.85653,93.9221085 C209.313294,92.4428357 209.976049,90.8944867 211.337384,89.4882 C212.028501,88.7909217 212.950984,88.1640228 214.012289,87.7782389 C215.075085,87.3781184 216.237893,87.2425727 217.299197,87.2973123 C218.359008,87.3520519 219.497932,87.6101101 220.495051,88.1171031 C221.493662,88.6136696 222.317628,89.3278912 222.914705,90.0864258 C224.068556,91.6308648 224.522334,93.2300434 224.777585,94.7418993 C225.020893,96.2706984 225.02985,97.7486679 224.967157,99.1979643 C224.883566,100.615981 224.691009,102.16042 224.311865,103.57192 C223.596865,106.436626 222.371365,109.087587 221.002566,111.650444 C219.615855,114.1974 218.017182,116.635658 216.248341,118.970824 C215.681118,119.69847 214.406359,119.038727 214.845211,118.270287 C216.203561,115.810263 217.429061,113.282336 218.459019,110.727169 C219.469571,108.170047 220.362201,105.573826 220.778662,102.991941 C221.189153,100.483042 221.166762,97.736938 220.704028,95.3049353 C220.457733,94.1019672 220.02336,92.9798052 219.403893,92.206934 C218.757557,91.4679493 218.079875,91.136905 217.037976,91.0717388 C215.996076,91.0417623 215.284062,91.3076404 214.561599,91.981459 C213.860034,92.6787373 213.289826,93.751373 212.89874,94.9191514 C212.143438,97.2807746 211.776236,100.009935 211.862812,102.524047 C211.943417,105.120269 212.494221,107.781657 213.153991,110.418281 C213.831673,113.054254 214.698927,115.688011 215.694553,118.273024 C216.036379,119.131002 214.630263,119.646858 214.155587,118.851309" id="Tertiary-color" fill="#34466B"></path>
                        <path d="M215.144446,118.254093 C216.889447,115.728697 218.800846,113.312736 220.910474,111.038716 C223.038912,108.776192 225.312044,106.603091 227.997551,104.790517 C229.311366,103.876424 230.827752,103.068785 232.257321,102.415862 C233.727405,101.755841 235.253919,101.159693 236.907764,100.745228 C238.563055,100.349215 240.377509,100.085207 242.385852,100.482639 C243.385682,100.695549 244.423133,101.132724 245.299974,101.812617 C246.18405,102.48967 246.858321,103.38815 247.299636,104.296566 C247.742397,105.21066 248.023102,106.292243 247.998504,107.389439 C247.982588,108.486635 247.672944,109.551185 247.214267,110.441432 C246.256397,112.212701 244.907856,113.431114 243.554973,114.439456 C242.189069,115.441836 240.755158,116.225487 239.314013,116.941148 C237.894572,117.612382 236.30584,118.259913 234.753281,118.688713 C231.632246,119.596561 228.47938,119.969154 225.354005,120.173264 C222.224289,120.359489 219.107595,120.309242 216.005371,120.060847 C215.03882,119.972135 215.080781,118.564516 216.032863,118.52605 C219.059847,118.366367 222.089724,118.061906 225.055937,117.576897 C228.014914,117.074146 230.957976,116.456139 233.665187,115.444817 C236.295711,114.465999 238.958068,113.008133 241.103869,111.340338 C242.163024,110.506441 243.048547,109.554023 243.510118,108.631414 C243.928282,107.708804 243.931176,106.969296 243.507225,106.065139 C243.048547,105.180852 242.461092,104.728064 241.465602,104.47683 C240.455643,104.26392 239.15051,104.350504 237.830907,104.640061 C235.181573,105.246145 232.360054,106.373148 229.95091,107.768418 C227.463633,109.202012 225.131177,111.053619 222.875409,112.990391 C220.629769,114.942065 218.475286,117.044622 216.427876,119.23575 C215.756499,119.969154 214.591718,119.070248 215.144446,118.254093" id="Tertiary-color" fill="#34466B"></path>
                        <path d="M214.537487,119.38549 C212.786056,117.13891 210.918148,114.961219 208.942284,112.918922 C206.956477,110.8908 204.884021,108.93011 202.614122,107.349635 C200.412404,105.803604 197.781707,104.473515 195.257545,103.637572 C194.003276,103.237485 192.733382,103.021544 191.722013,103.120903 C190.724848,103.256032 190.099844,103.62035 189.558648,104.392702 C189.04302,105.184927 188.969156,105.872494 189.274555,106.774676 C189.623989,107.66626 190.381096,108.641306 191.31576,109.526266 C193.222021,111.284925 195.651013,112.91614 198.101311,114.097456 C200.625474,115.314541 203.419524,116.208775 206.246245,116.987089 C209.080069,117.754408 211.99912,118.375337 214.930955,118.861138 C215.827267,118.996399 215.766187,120.312843 214.780386,120.285288 C211.72355,120.169369 208.680919,119.876855 205.651071,119.366148 C202.626906,118.839014 199.595638,118.162841 196.658121,116.989871 C195.195044,116.432399 193.722024,115.662299 192.416619,114.886766 C191.088486,114.078114 189.783081,113.203222 188.564324,112.132262 C187.35693,111.058651 186.182207,109.788575 185.45351,108.053099 C185.106917,107.174763 184.923677,106.159973 185.030212,105.143859 C185.131065,104.127744 185.530215,103.151374 186.06573,102.3512 C186.601244,101.551027 187.359771,100.794571 188.297277,100.252732 C189.2291,99.7148668 190.291607,99.416789 191.293033,99.3174297 C193.295885,99.163754 195.041634,99.5903365 196.609825,100.126877 C198.185119,100.683289 199.605581,101.388077 200.966385,102.149832 C202.285995,102.902313 203.679469,103.803171 204.861294,104.79014 C207.284604,106.744206 209.261888,108.99635 211.084342,111.312614 C212.88975,113.641993 214.482089,116.079078 215.898291,118.609958 C216.369884,119.473854 215.078683,120.094783 214.537487,119.38549" id="Tertiary-color" fill="#34466B"></path>
                        <path d="M142.103799,174.285714 C134.079941,174.23501 126.049937,174.04355 117.961985,173.150611 C115.937619,172.91399 113.910326,172.623825 111.864742,172.209671 C110.843487,172.004014 109.813012,171.75901 108.773465,171.451944 C107.733918,171.133655 106.685152,170.789946 105.581657,170.198394 C105.304211,170.049121 105.035837,169.922427 104.746244,169.705412 L104.319538,169.409704 L104.112185,169.251911 L103.846884,169.006907 L103.331793,168.44064 L103.096929,168.144932 L102.984253,167.973077 L102.798264,167.668851 L102.755535,167.595566 L102.743389,167.575825 L102.597057,167.263215 L102.578765,167.203992 L102.508672,166.978729 C102.337902,166.370276 102.097038,165.742081 102.08182,165.139307 L102.00558,164.220948 C101.984216,163.911042 102.030018,163.629396 102.045236,163.330848 C102.231225,160.967344 103.115221,158.880079 104.279882,157.018076 C105.459616,155.156073 106.962599,153.494184 108.831413,152.096904 L109.535566,151.578637 L110.316104,151.111075 L111.105715,150.657439 L111.977565,150.277223 C112.538458,149.998281 113.193882,149.812365 113.843306,149.634967 L114.334106,149.502594 L114.949874,149.415247 C115.36458,149.361703 115.78836,149.325061 116.209066,149.299776 L116.504658,149.285714 L116.690647,149.296937 L117.065697,149.319517 L117.437529,149.344802 L117.62659,149.350481 L117.672392,149.35332 L117.696684,149.35332 L118.035151,149.395506 L118.1509,149.418087 C118.736231,149.54478 119.349072,149.629288 119.909965,149.80966 C120.480077,149.961774 121.050189,150.12511 121.583718,150.330767 C122.132465,150.522227 122.653702,150.744786 123.168939,150.975863 C125.226815,151.891247 127.061973,153.032165 128.747872,154.277196 C132.110449,156.781455 134.912134,159.674448 137.402862,162.719555 C139.884371,165.773045 142.051997,168.978648 143.914519,172.356241 C144.496923,173.426578 141.939174,174.851982 141.201365,173.953363 C138.793022,171.08579 136.232201,168.313947 133.570703,165.705439 C130.906278,163.10261 128.107666,160.646216 125.129212,158.620877 C123.638375,157.618146 122.098955,156.73643 120.538025,156.06321 C120.150829,155.894195 119.760559,155.733563 119.367364,155.60403 C118.977094,155.451917 118.586972,155.350508 118.196702,155.240581 C117.806433,155.111048 117.42231,155.080084 117.038187,154.978675 L116.968093,154.967317 C117.583861,155.032219 117.123645,154.981515 117.257686,154.995577 L117.233395,154.995577 L117.184519,154.992737 L116.998531,154.978675 L116.623626,154.956095 L116.251649,154.93081 L116.062733,154.916613 L115.992494,154.942033 L115.754703,154.998416 L115.623735,155.00396 L115.391944,155.074405 C115.084061,155.158913 114.766958,155.215296 114.440782,155.378632 L113.94691,155.575771 L113.45611,155.846195 L112.959164,156.116618 L112.48051,156.449104 C111.197173,157.333525 110.026512,158.499728 109.105787,159.78424 C108.188135,161.057531 107.514419,162.482934 107.303993,163.798411 C107.218681,164.13644 107.233899,164.446346 107.233899,164.753277 C107.188244,165.082924 107.319358,165.333606 107.343649,165.632154 L107.358867,165.739242 L107.358867,165.753304 C107.136442,165.7026 107.861959,165.888516 106.858995,165.646351 L106.935234,165.657574 L107.081567,165.685698 L107.36194,165.74776 L107.444326,165.905417 L107.511346,166.026567 L107.520565,165.995604 L107.493055,165.947739 L107.566221,166.020888 L107.724699,166.1561 L108.124187,166.443425 C108.715517,166.840678 109.52342,167.203992 110.352687,167.536478 C111.187954,167.86315 112.072096,168.167377 112.980529,168.437801 C114.797541,168.981488 116.690647,169.443507 118.60219,169.860365 C126.284654,171.482907 134.2232,172.544861 142.158673,173.308268 C143.48474,173.429417 143.378063,174.280171 142.103799,174.285714" id="Primary-color" fill="#9BC3D3"></path>
                        <path d="M143.947259,173.306313 C151.860115,172.554943 159.778806,171.49111 167.442151,169.85882 C169.346314,169.439365 171.238804,168.975062 173.048123,168.429028 C173.95716,168.15331 174.835556,167.85206 175.674555,167.520009 C176.498963,167.185121 177.30732,166.819298 177.89389,166.419567 L178.29515,166.129664 L178.452736,165.991872 L178.534447,165.929866 L178.522774,165.918654 L178.497969,165.960802 L178.508183,165.994574 L178.581139,165.867995 L178.735807,165.549993 L178.775204,165.473938 L178.783958,165.451513 C178.906525,165.186872 178.632209,165.791939 178.659932,165.730068 L178.662851,165.699132 L178.677442,165.589304 C178.702247,165.291026 178.826273,165.037733 178.78104,164.708519 L178.78104,164.241243 L178.708084,163.748705 C178.489214,162.431579 177.815097,161.010434 176.892927,159.738292 C175.969299,158.466151 174.793241,157.303838 173.516504,156.422917 L173.039368,156.093703 L172.543265,155.82636 L172.054456,155.558882 L171.564189,155.364758 C171.238804,155.20157 170.923632,155.148074 170.615756,155.06648 L170.385213,154.996098 L170.261187,154.990424 L170.032104,154.934092 L169.956229,154.914504 L169.768002,154.928553 L169.394465,154.953815 L169.020928,154.976375 L168.835618,154.990424 L168.788926,154.993261 L168.76558,154.993261 C168.689706,155.001637 169.341936,154.93139 169.060324,154.965162 L168.987368,154.976375 C168.603617,155.074855 168.221325,155.108628 167.834656,155.240881 C167.445069,155.347872 167.062777,155.452026 166.67319,155.606839 C166.285061,155.733418 165.895474,155.896607 165.505887,156.062767 C163.953374,156.732543 162.421288,157.616301 160.937355,158.61529 C157.965109,160.6361 155.170878,163.07893 152.499213,165.662523 C149.826089,168.254627 147.246349,171.009785 144.796472,173.84397 C144.069826,174.710707 141.479289,173.348596 142.09329,172.250991 C143.999788,168.899006 146.188481,165.704806 148.686509,162.667986 C151.188915,159.642649 153.991902,156.760642 157.340602,154.264316 C159.025896,153.025947 160.855643,151.886194 162.901342,150.968664 C163.412037,150.735093 163.934405,150.515572 164.481578,150.329824 C165.01416,150.124352 165.578843,149.961164 166.150822,149.803514 C166.703831,149.629113 167.315206,149.541845 167.901776,149.41513 L168.011211,149.395407 L168.345351,149.356096 L168.370156,149.356096 L168.415389,149.350422 L168.600699,149.33921 L168.974236,149.322324 L169.349232,149.296927 L169.537459,149.285714 L169.83804,149.299764 C170.250973,149.325161 170.671202,149.361635 171.087054,149.41513 L171.695511,149.505235 L172.181401,149.637488 C172.832172,149.812024 173.480025,149.997773 174.035953,150.27079 L174.905594,150.653499 L175.689146,151.103754 L176.465403,151.568193 L177.17308,152.085992 C179.033469,153.479174 180.531995,155.136726 181.715348,156.99151 C182.879733,158.851698 183.763965,160.934378 183.952192,163.298451 C183.966784,163.596729 184.016394,163.878256 183.994507,164.187747 L183.915714,165.105277 C183.904041,165.710345 183.660367,166.340809 183.492567,166.948714 L183.41961,167.17661 L183.410856,167.204844 C183.349572,167.345473 183.539259,166.928991 183.270779,167.525683 L183.250351,167.564994 L183.200741,167.638212 L183.01835,167.942165 L182.900161,168.119538 L182.6667,168.417816 L182.150168,168.986274 L181.67887,169.380331 L181.252804,169.684283 C180.966815,169.900968 180.699794,170.024845 180.42256,170.176821 C179.322377,170.767839 178.276182,171.116776 177.234364,171.434778 C176.196923,171.73873 175.169696,171.992024 174.154143,172.194658 C172.114281,172.613977 170.093387,172.906717 168.075412,173.145961 C160.00789,174.049307 152.000191,174.243566 143.999788,174.285714 C142.649656,174.277339 142.695181,173.424516 143.947259,173.306313" id="Primary-color" fill="#9BC3D3"></path>
                        <polygon id="Secondary-color" fill="#C3DEE7" points="88 247.285714 198 247.285714 198 193.285714 88 193.285714"></polygon>
                        <polygon id="Secondary-color" fill="#C3DEE7" points="82 192.285714 205 192.285714 205 172.285714 82 172.285714"></polygon>
                        <polygon id="Primary-color" fill="#9BC3D3" points="88 200.285714 198 200.285714 198 192.285714 88 192.285714"></polygon>
                        <polygon id="Quaternary-color" fill="#DEEDF2" points="135 247.285714 148 247.285714 148 174.285714 135 174.285714"></polygon>
                        <path d="M143.169585,171.295842 C150.15107,167.839828 157.010768,164.104466 163.384784,159.95444 C164.965082,158.910948 166.511632,157.834798 167.945199,156.707125 C168.670053,156.148687 169.34942,155.565919 169.981832,154.983151 C170.602507,154.400383 171.189433,153.785088 171.559196,153.223918 L171.807172,152.830852 L171.892276,152.651949 L171.937763,152.565295 L171.926025,152.559831 L171.920155,152.603158 L171.943633,152.630351 L171.953904,152.494775 L171.962708,152.158698 L171.965642,152.074646 L171.965642,152.05565 C171.962708,151.779163 171.971512,152.410723 171.968577,152.340333 L171.959773,152.315872 L171.926025,152.212824 C171.818911,151.941802 171.827715,151.676115 171.641366,151.399629 L171.443278,150.987697 L171.161554,150.578367 C170.394148,149.485954 169.160136,148.469525 167.761785,147.667129 C166.361966,146.864734 164.778733,146.254903 163.223379,145.932357 L162.636453,145.804848 L162.067135,145.742525 L161.499284,145.680201 L160.96078,145.680201 C160.591016,145.650406 160.278478,145.712729 159.958604,145.747989 L159.716497,145.769718 L159.597644,145.810313 L159.361406,145.840108 L159.282171,145.848305 L159.117832,145.929625 L158.781817,146.078732 L158.448736,146.235906 L158.279995,146.311761 L158.240378,146.330757 L158.218368,146.341557 L158.475148,146.208843 L158.414988,146.246706 C158.105385,146.469066 157.766435,146.631705 157.467103,146.886462 C157.154565,147.116889 156.843494,147.347316 156.550031,147.623802 C156.240427,147.870363 155.957236,148.149582 155.669642,148.434265 C154.523669,149.572738 153.486277,150.900913 152.545728,152.305073 C150.667565,155.140326 149.14009,158.287455 147.779889,161.521239 C146.425557,164.75229 145.226761,168.094586 144.184967,171.472012 C143.885635,172.491303 140.907426,172.201155 141.002214,171.016623 C141.320182,167.376242 141.971229,163.784653 142.973992,160.21206 C143.982478,156.650266 145.333875,153.115535 147.354368,149.724448 C148.375619,148.035734 149.57735,146.385014 151.075479,144.845278 C151.448177,144.465874 151.832613,144.083607 152.261069,143.725801 C152.658712,143.351732 153.113579,143.01019 153.569914,142.67138 C154.010109,142.324374 154.538342,142.029021 155.021089,141.71181 L155.116464,141.654952 L155.409927,141.50038 L155.43047,141.492313 L155.470087,141.473316 L155.638828,141.397331 L155.971909,141.245622 L156.310859,141.093782 L156.4796,141.017927 L156.756922,140.925678 C157.154565,140.801032 157.558076,140.687185 157.964523,140.586869 L158.564654,140.451423 L159.067943,140.399899 C159.74731,140.321312 160.42521,140.256256 161.05909,140.299583 L162.024583,140.334844 C162.337121,140.367371 162.636453,140.416163 162.94459,140.456758 L163.861662,140.595066 L164.733247,140.801032 C167.050137,141.375733 169.14693,142.316307 171.036832,143.538832 C172.910593,144.772155 174.625884,146.303694 175.814409,148.325752 C175.955272,148.585975 176.119611,148.819134 176.232594,149.101085 L176.559806,149.938611 C176.804847,150.475319 176.853269,151.123143 176.960382,151.714108 L176.988261,151.941802 L176.994131,151.971598 C176.997065,152.117973 176.994131,151.684312 177,152.305073 L176.994131,152.3484 L176.988261,152.429719 L176.948644,152.763194 L176.914896,152.960963 L176.826857,153.30797 L176.593554,153.991054 C176.496711,154.245811 176.410139,154.375923 176.32797,154.514231 L176.068255,154.926293 C175.893644,155.219043 175.701426,155.427741 175.509208,155.655436 C174.747671,156.566214 173.931844,157.243833 173.108681,157.894389 C172.281115,158.528681 171.440343,159.114182 170.590768,159.653623 C168.884281,160.746036 167.142578,161.716405 165.384734,162.643448 C158.319613,166.283829 151.010917,169.281851 143.637659,172.141564 C142.390148,172.607753 142.062936,171.840747 143.169585,171.295842" id="Quaternary-color" fill="#DEEDF2"></path>
                        <path d="M141.493823,172.146505 C134.09575,169.278987 126.758949,166.281252 119.667821,162.640634 C117.900379,161.718174 116.148254,160.749748 114.439137,159.661911 C113.579865,159.12203 112.736059,158.538786 111.904477,157.906581 C111.079081,157.258229 110.259872,156.582791 109.492654,155.671269 C109.302507,155.443389 109.109119,155.239859 108.93429,154.941531 L108.673445,154.526398 L108.544569,154.317529 L108.406414,154.008263 L108.173258,153.327356 L108.084297,152.985535 L108.056607,152.787475 L108.013747,152.456462 L108.004468,152.372341 L108.001375,152.35346 C107.998282,152.616499 108.001375,151.970881 108.001375,152.025182 L108.010654,151.970881 L108.044382,151.743001 C108.145569,151.146214 108.194762,150.503201 108.443235,149.96332 L108.765499,149.12511 C108.879057,148.845664 109.044755,148.612314 109.185856,148.351879 C110.373283,146.328171 112.091679,144.795382 113.969587,143.555582 C115.865905,142.32672 117.970929,141.382644 120.299829,140.804739 L121.177512,140.595871 L122.098055,140.45745 C122.404854,140.416822 122.711652,140.36799 123.021544,140.335436 L123.994374,140.300147 C124.632568,140.25405 125.316863,140.327232 125.994971,140.395075 L126.501196,140.449376 L127.111848,140.587667 C127.51998,140.688065 127.928112,140.802005 128.326965,140.929488 L128.603128,141.021812 L128.771918,141.097728 L129.1095,141.246958 L129.443988,141.398921 L129.615725,141.474838 L129.658733,141.49385 L129.677144,141.501923 L129.97481,141.659356 L130.066865,141.716261 C130.557772,142.033731 131.088594,142.32672 131.527361,142.679349 C131.987633,143.02117 132.444959,143.368459 132.849998,143.734631 C133.276393,144.095463 133.663021,144.475307 134.037424,144.857756 C135.547115,146.398618 136.750007,148.053551 137.771736,149.749112 C139.796931,153.145572 141.144017,156.688527 142.13511,160.255963 C143.113979,163.836942 143.730374,167.436932 143.998436,171.080284 C144.077971,172.230495 141.098063,172.588593 140.803489,171.533311 C139.812249,168.150393 138.64014,164.797295 137.305426,161.555403 C135.961433,158.31351 134.436277,155.155738 132.552331,152.315436 C131.607191,150.904791 130.567051,149.578137 129.410112,148.438734 C129.127911,148.14848 128.83643,147.871768 128.526391,147.619406 C128.23491,147.345429 127.915887,147.117549 127.605848,146.886934 C127.29905,146.634702 126.961468,146.466462 126.645538,146.246785 L126.587212,146.208761 C127.12422,146.485473 126.72522,146.279339 126.838778,146.336244 L126.817274,146.328171 L126.774414,146.311894 L126.605623,146.230508 L126.271134,146.081279 L125.936646,145.923976 L125.770948,145.847929 L125.694212,145.84259 L125.448832,145.81264 L125.325994,145.769278 L125.08356,145.753 C124.761444,145.714977 124.442273,145.655337 124.068017,145.685157 L123.531009,145.685157 L122.960272,145.753 L122.38335,145.815375 L121.797295,145.940253 C120.232372,146.271135 118.645945,146.889668 117.243627,147.698188 C115.844401,148.503843 114.607781,149.523836 113.843804,150.619876 C113.61978,150.888514 113.500183,151.167831 113.368214,151.439204 C113.184106,151.715916 113.19633,151.979085 113.092051,152.250328 L113.05523,152.35346 L113.052137,152.367003 C112.871121,152.242124 113.457175,152.657257 112.640912,152.093025 L112.70233,152.130918 L112.82502,152.206965 L113.061268,152.364268 L113.064361,152.535113 L113.076733,152.659992 L113.101183,152.638245 L113.095144,152.586679 L113.128873,152.676269 L113.217834,152.852583 L113.463361,153.24597 C113.837617,153.804733 114.429858,154.415192 115.052734,154.998436 C115.68489,155.584414 116.369184,156.162319 117.09634,156.721082 C118.538573,157.846941 120.088178,158.915766 121.677551,159.957505 C128.078492,164.097376 134.957967,167.833053 141.960281,171.302696 C143.138576,171.877866 142.675211,172.591327 141.493823,172.146505" id="Quaternary-color" fill="#DEEDF2"></path>
                    </g>
                </g>
            </g>
        </g>
    </g>
</svg>