<svg xmlns="http://www.w3.org/2000/svg" width="48" height="48" viewBox="0 0 48 48">
    <g fill="none" fill-rule="evenodd">
        <g fill-rule="nonzero">
            <g>
                <g>
                    <g>
                        <g>
                            <g>
                                <g>
                                    <path fill="#00CDFF" d="M24.885 23.003L1.711 46.178C.603 45.13.004 43.693.004 42.136V5.786c0-1.586.629-3.023 1.767-4.101l23.114 21.318z" transform="translate(-904 -3432) translate(0 3039) translate(252 148) translate(64 125) translate(416 80) translate(172 40) translate(1.5)"/>
                                    <path fill="#FFCE00" d="M44.916 23.961c0 2.096-1.137 3.953-3.024 5l-6.587 3.653-8.174-7.545-2.246-2.066 8.654-8.653 8.353 4.611c1.887 1.048 3.024 2.904 3.024 5z" transform="translate(-904 -3432) translate(0 3039) translate(252 148) translate(64 125) translate(416 80) translate(172 40) translate(1.5)"/>
                                    <path fill="#07F076" d="M24.885 23.003L1.771 1.685c.299-.3.688-.57 1.077-.809C4.735-.26 7.01-.29 8.957.786L33.539 14.35l-8.654 8.653z" transform="translate(-904 -3432) translate(0 3039) translate(252 148) translate(64 125) translate(416 80) translate(172 40) translate(1.5)"/>
                                    <path fill="#F63349" d="M35.305 32.614L8.957 47.136c-.929.539-1.977.778-2.995.778-1.078 0-2.155-.269-3.114-.868-.419-.24-.808-.539-1.137-.868l23.174-23.175 2.246 2.066 8.174 7.545z" transform="translate(-904 -3432) translate(0 3039) translate(252 148) translate(64 125) translate(416 80) translate(172 40) translate(1.5)"/>
                                </g>
                            </g>
                        </g>
                    </g>
                </g>
            </g>
        </g>
    </g>
</svg>
