<svg xmlns="http://www.w3.org/2000/svg" width="200" height="200" viewBox="0 0 200 200">
    <g fill="none" fill-rule="evenodd" opacity=".12">
        <g fill-rule="nonzero">
            <g>
                <g>
                    <g>
                        <g>
                            <g>
                                <g>
                                    <path fill="#00CDFF" d="M103.69 95.846L7.127 192.408C2.512 188.04.017 182.053.017 175.566V24.112c0-6.613 2.62-12.6 7.36-17.092l96.312 88.826z" transform="translate(-652 -3416) translate(0 3039) translate(252 148) translate(64 125) translate(416 80) translate(-80 24) translate(6.25)"/>
                                    <path fill="#FFCE00" d="M187.151 99.839c0 8.733-4.74 16.467-12.6 20.834l-27.447 15.22-34.058-31.438-9.357-8.609 36.055-36.054 34.807 19.212c7.86 4.367 12.6 12.102 12.6 20.835z" transform="translate(-652 -3416) translate(0 3039) translate(252 148) translate(64 125) translate(416 80) translate(-80 24) translate(6.25)"/>
                                    <path fill="#07F076" d="M103.69 95.846L7.376 7.02c1.248-1.248 2.87-2.37 4.492-3.369 7.86-4.74 17.34-4.865 25.45-.374l102.425 56.515-36.055 36.054z" transform="translate(-652 -3416) translate(0 3039) translate(252 148) translate(64 125) translate(416 80) translate(-80 24) translate(6.25)"/>
                                    <path fill="#F63349" d="M147.104 135.893L37.32 196.4c-3.868 2.246-8.234 3.244-12.476 3.244-4.491 0-8.982-1.123-12.974-3.618-1.747-.998-3.369-2.246-4.741-3.618l96.561-96.562 9.357 8.609 34.058 31.438z" transform="translate(-652 -3416) translate(0 3039) translate(252 148) translate(64 125) translate(416 80) translate(-80 24) translate(6.25)"/>
                                </g>
                            </g>
                        </g>
                    </g>
                </g>
            </g>
        </g>
    </g>
</svg>
