<svg xmlns="http://www.w3.org/2000/svg" width="484" height="377" viewBox="0 0 484 377">
    <g fill="none" fill-rule="evenodd">
        <g>
            <path fill="#DEEDF2" d="M111.11 324.192c-.753-.79-1.491-1.59-2.216-2.397-14.588-16.265-33.915-26.88-54.86-30.87-12.712-2.421-24.877-8.786-34.706-19.095-25.745-26.999-25.775-70.54-.064-97.576 11.342-11.926 25.804-18.59 40.633-19.995 12.696-1.203 24.624-7.013 33.432-16.68.114-.124.228-.248.343-.37 15.026-16.08 39.332-16.24 54.54-.35.088.09.174.181.26.273 4.062 4.325 9.926 6.214 15.608 5.057 32.393-6.6 67.23 3.26 92.32 29.58 40.09 42.057 40.09 110.367 0 152.423-40.121 42.09-105.169 42.09-145.29 0" transform="translate(-59 -8) translate(59.4 -76)"/>
            <path fill="#C3DEE7" d="M351.756 326.53c-1.232-.22-2.457-.458-3.675-.715-24.533-5.166-49.393-1.868-71.084 8.674-13.165 6.4-28.59 8.768-44.666 5.89-42.105-7.534-72.563-47.899-68.258-90.46 1.9-18.774 10.293-34.79 22.694-46.178 10.617-9.749 17.32-23.25 18.512-38.205l.05-.577c2.321-25.133 24.145-41.81 48.975-37.414.142.024.284.05.425.077 6.69 1.25 13.301-.987 17.62-5.924 24.62-28.149 62.95-42.694 103.988-35.344C441.91 98.1 489.654 161.46 482.871 227.73c-6.79 66.323-65.49 110.557-131.115 98.802" transform="translate(-59 -8) translate(59.4 -76)"/>
            <path fill="#9BC3D3" d="M328.092 202.73c-52.3-6.267-107.36 22.047-135.274 43.538-16.723 12.874-21.316 36.51-38.81 42.908-35.133 12.846-117.628 16.65-119.26 35.58-3.21 37.266 24.621 57.182 88.814 74.414-1.387 2.552 7.818 49.184 59.57 59.713 20.479 4.166 54.827.015 68-9.09 20.248-13.996 41.28-21.52 62.466-22.593 75.353-3.819 134.443-22.967 135.135-51.917.233-9.676-4.118-23.09-10.933-30.89-4.247-4.86 1.988-8.957 3.436-10.124 17.782-14.321 27.757-30.312 28.12-43.01 1.14-39.84-64.495-79.33-141.264-88.53" transform="translate(-59 -8) translate(59.4 -76)"/>
        </g>
        <g>
            <path fill="#34466B" d="M335.617 171.214L338.198 182.992 333.383 182.992 328.411 171.214zM64.158 171.214L61.577 182.992 66.392 182.992 71.364 171.214z" transform="translate(-59 -8) translate(78 177.5)"/>
            <path fill="#34466B" d="M56.15 171.901L342.188 171.901 342.188 158.198 58.802 158.198z" transform="translate(-59 -8) translate(78 177.5)"/>
            <path fill="#34466B" d="M43.326 160.648L33.542 205.314 42.371 205.314 61.23 160.648zM355.824 160.648L365.608 205.314 356.779 205.314 337.92 160.648z" transform="translate(-59 -8) translate(78 177.5)"/>
            <path fill="#9BC3D3" d="M28.035 151.189c.988 3.572 4.43 9.674 11.315 9.674h319.393c8.024 0 12.46-5.83 12.46-9.674H28.035z" transform="translate(-59 -8) translate(78 177.5)"/>
            <path fill="#C3DEE7" d="M28.035 151.062L371.203 151.062 357.648 132.882 43.242 130.663z" transform="translate(-59 -8) translate(78 177.5)"/>
            <path fill="#DEEDF2" d="M377.315 38.733C379.753 15.338 363.036 0 338.552 0h-270C36.518 0 25.236 18.927 23.414 38.733c-1.818 19.802-7.885 42.189 33.776 48.28 41.658 6.09 274.94 7.496 296.276 0 21.339-7.497 22.143-31.904 23.849-48.28" transform="translate(-59 -8) translate(78 177.5)"/>
            <path fill="#9BC3D3" d="M39.647 49.168c1.332-23.531 8.36-37.119 27.57-37.119h266.116c15.931 0 33.734 9.583 28.112 37.12-5.622 27.536-5.506 30.346-23.603 34.564-18.096 4.216-265.25 0-276.69 0-11.439 0-20.027-3.75-21.505-11.247-1.477-7.496 0-23.318 0-23.318" transform="translate(-59 -8) translate(78 177.5)"/>
            <g>
                <path fill="#9BC3D3" d="M.99 12.663C2.15 5.373 7.292 2.232 16.586.666c6.42-1.083 19.595-1.199 24.796 2.4 5.197 3.598 7.597 25.593 11.596 41.189-4.4 7.998-8.398 45.99-8.398 45.99l-16.394 21.994S-6.207 71.851.99 12.663M398.546 12.847c-1.16-7.29-6.302-10.431-15.596-11.997-6.42-1.083-19.595-1.199-24.796 2.4-5.197 3.598-7.597 25.593-11.596 41.189 4.4 7.998 8.398 45.99 8.398 45.99l16.394 21.994s34.393-40.388 27.196-99.576" transform="translate(-59 -8) translate(78 177.5) translate(0 38.548)"/>
                <path fill="#C3DEE7" d="M18.1.5c-.535.066-1.045.14-1.51.217C7.291 2.287 2.15 5.428.99 12.714c-7.197 59.188 27.196 99.58 27.196 99.58l11.303-15.169C27.87 83.66 13.397 33.81 18.099.501M398.546 12.847C397.4 5.647 392.35 2.499 383.264.915c2.771 29.708-11.469 82.565-23.223 96.34l11.31 15.168s34.392-40.388 27.195-99.576" transform="translate(-59 -8) translate(78 177.5) translate(0 38.548)"/>
                <path fill="#DEEDF2" d="M18.053 10.207c4.74-.498 18.443-4.183 24.727-5.915-.377-.505-.769-.944-1.18-1.226C36.401-.535 23.226-.416 16.806.666 8.867 2.004 3.985 4.517 2 9.753c4.99.822 12.718.807 16.053.454M397.756 9.937C395.772 4.7 390.89 2.187 382.95.85c-6.42-1.083-19.595-1.199-24.796 2.4-.409.285-.8.724-1.177 1.225 6.283 1.736 19.986 5.417 24.727 5.916 3.334.353 11.06.367 16.052-.454" transform="translate(-59 -8) translate(78 177.5) translate(0 38.548)"/>
            </g>
            <path fill="#DEEDF2" d="M40.342 89.815c-3.065 2.789-5.237 4.165-6.47 9.11-1.238 4.95 1.233 19.786 3.708 26.796 2.474 7.004 7.42 7.829 14.427 7.829h302.958c7.007 0 9.894-8.654 10.303-16.898.415-8.245.584-17.142-.311-20.912-.89-3.771-3.768-7.043-6.447-8.633-2.679-1.588-28.78-10.511-44.865-10.511H67.655c-5.514 0-13.515 1.652-27.313 13.22" transform="translate(-59 -8) translate(78 177.5)"/>
            <path fill="#C3DEE7" d="M34.034 98.623c-.053.19-.115.35-.163.552-1.237 4.948 1.234 19.785 3.709 26.792 2.474 7.007 7.42 7.832 14.427 7.832h302.958c7.007 0 9.89-8.657 10.303-16.898.338-6.717.501-13.819.071-18.278H34.034z" transform="translate(-59 -8) translate(78 177.5)"/>
            <g>
                <path fill="#DEEDF2" d="M2.608 6.565C-1.71 4.278-.172.136 3.632 2.717c10.914-4.28 38.347 4.1 49.526 3.848C64.336 6.31 69.16 2.717 71.954 2.717c2.54-4.28 6.86-3.248 2.54 1.314.255 10.663-1.777 26.92-2.54 34.286-.762 7.366 8.636 20.574 10.161 26.163 5.082 2.982 5.334 6.165 1.27 4.572-8.891 3.557-50.801-1.18-57.153.427-6.352 1.608-12.807 1.394-12.807 1.394s-8.319 4.005-3.723-1.955c-1.37-6.446.273-22.914-.997-29.423-1.27-6.512-6.097-24.039-6.097-32.93" transform="translate(-59 -8) translate(78 177.5) translate(43 9.5)"/>
                <path fill="#C3DEE7" d="M82.112 64.571c-.433-1.587-1.51-3.803-2.8-6.313-5.539 11.339-29.219.205-44.17 2.792C17.927 64.03 19.583 49.465 18.59 36.818 17.753 26.156 9.17 8.908 3.083 2.482c-3.39-1.833-4.58 2.002-.477 4.174 0 8.891 4.826 26.418 6.096 32.93 1.27 6.509-.374 22.977.994 29.424-4.592 5.96 3.726 1.955 3.726 1.955s6.456.213 12.807-1.395c6.352-1.608 48.265 3.13 57.153-.424 4.064 1.59 3.81-1.593-1.27-4.575" transform="translate(-59 -8) translate(78 177.5) translate(43 9.5)"/>
            </g>
            <g>
                <path fill="#DEEDF2" d="M83.597 6.565c4.32-2.287 2.78-6.429-1.024-3.848-10.914-4.28-38.347 4.1-49.525 3.848C21.868 6.31 17.04 2.717 14.25 2.717c-2.54-4.28-6.86-3.248-2.54 1.314-.255 10.663 1.777 26.92 2.54 34.286.762 7.366-8.64 20.574-10.161 26.163-5.082 2.982-5.334 6.165-1.273 4.572 8.894 3.557 50.805-1.18 57.157.427 6.352 1.608 12.807 1.394 12.807 1.394s8.319 4.005 3.723-1.955c1.37-6.446-.273-22.914.997-29.423 1.27-6.512 6.097-24.039 6.097-32.93" transform="translate(-59 -8) translate(78 177.5) translate(270.5 9.5)"/>
                <path fill="#C3DEE7" d="M4.09 64.48c.434-1.587 1.51-3.803 2.801-6.313 5.54 11.338 29.218.205 44.17 2.792 17.213 2.981 15.557-11.585 16.551-24.232.837-10.662 9.42-27.91 15.507-34.337 3.39-1.833 4.58 2.003.478 4.175 0 8.89-4.827 26.418-6.097 32.93-1.27 6.509.374 22.977-.997 29.423 4.596 5.96-3.723 1.955-3.723 1.955s-6.455.214-12.807-1.394c-6.352-1.608-48.264 3.13-57.152-.424-4.064 1.59-3.812-1.594 1.27-4.575" transform="translate(-59 -8) translate(78 177.5) translate(270.5 9.5)"/>
            </g>
        </g>
        <g>
            <g>
                <g>
                    <path fill="#FFC4B8" d="M30.603 43.825c-4.742-3.496-7.822-9.131-7.822-15.482 0-10.597 8.575-19.2 19.136-19.2 9.752 0 17.81 7.335 18.988 16.801.206.986.356 1.983.46 2.98v.002l.003.022v.008c.03.298.057.596.08.894l1.318 14.815-3 1.008-.031.007-.116.398-.082 2.004-.147 3.746c-.051 1.24-.31 2.454-.76 3.596-.314.806-.73 1.578-1.237 2.295-.596.84-1.308 1.595-2.103 2.232-.414.335-.854.633-1.314.899-.243.14-.486.27-.738.392h-.002l1.289 23.403s-6.809 2.058-14.265.425c-4.507-.979-9.255-3.316-12.877-8.264 0 0 4.287-18.643 3.22-32.981z" transform="translate(-59 -8) matrix(-1 0 0 1 390.429 84.857) translate(42.715) translate(.285)"/>
                    <path fill="#F4A48D" d="M40.331 84.793c-4.507-.98-9.254-3.317-12.876-8.264 0 0 4.636-19.976 3.065-34.493 0 0 10.547 25.8 9.811 42.757zm19.432-39.036c-1.05.309-2.084-.52-2.016-1.614l.442-7.057 1.574 8.67z" transform="translate(-59 -8) matrix(-1 0 0 1 390.429 84.857) translate(42.715) translate(.285)"/>
                </g>
                <path fill="#34466B" d="M36.017 10.402c8.38-.297 7.352-7.545 7.352-7.545 8.968.296 12.791 3.699 12.791 3.699 7.205 5.768 4.349 17.34 4.349 17.34-1.1-8.733-14.382-5.01-19.582-4.133-2.124 2.098-1.304 7.22-2.381 11.537-.02.078-2.33 5.92-2.33 5.92l-.003.008-.13.607c-.039-.1-.079-.199-.12-.298-1.398-3.332-4.245-5.303-6.358-4.407-2.114.898-2.693 4.326-1.295 7.658.486 1.16 1.716 2.156 2.463 2.923.58 4.892.47 9.436.062 13.337l-2.168.095-7.794-37.275c-.58-4.99 1.63-7.267 5.165-8.358 2.752-.85 6.308-.979 9.98-1.108z" transform="translate(-59 -8) matrix(-1 0 0 1 390.429 84.857) translate(42.715)"/>
            </g>
            <g>
                <path fill="#EC0000" d="M92.053 33.206l6.592 4.08.3 2.9h1.106c12.829 0 24.683 6.865 31.098 18.009l13.302 23.109c7.88 13.69 5.839 30.947-5.016 42.407-3.562 3.76-8.45 5.974-13.617 6.167l-6.695.251-49.129 7.923s-17.774 4.092-22.659-.163c-10.245-8.925-12.237-16.879-12.237-16.879s-32.236-56.696 4.03-72.595c2.21-.968 4.352-2.087 6.335-3.46 4.3-2.978 9.563-4.769 15.445-4.769h5.74c.212-3.452 1.2-6.304 3.713-6.768 5.078-.939 13.17-1.291 17.202-1.414 1.582-.049 3.143.369 4.49 1.202z" transform="translate(-59 -8) matrix(-1 0 0 1 390.429 84.857) translate(0 34.286)"/>
                <path fill="#F4A48D" d="M123.807 102.866s13.224.552 9.367 15.842c-3.857 15.29-17.815 6.079-17.815 6.079l-15.428-10.5-10.986-.947-.69.306c-2.41 1.07-5.216.675-7.241-1.017l-5.488-.445c-3.128-.27-5.532-2.896-5.532-6.045v-10.09l2.548-2.658c1.306-1.361 3.108-2.13 4.992-2.13h2.975c2.753 0 5.441.83 7.717 2.382l12.44 8.486 23.141.737z" transform="translate(-59 -8) matrix(-1 0 0 1 390.429 84.857) translate(0 34.286)"/>
            </g>
            <g fill="#34466B">
                <path d="M33.602 122.857l-1.83 7.757-23.044 22.529L0 151.665l13.092-28.808h20.51zm73.537 9.714l25.059 2.244.737 2.993 19.007 6.732-48.857 8.603 4.054-20.572z" transform="translate(-59 -8) matrix(-1 0 0 1 390.429 84.857) translate(9.682 142.857)"/>
                <path d="M140.594 42.246c.427 17.862-7.99 94.229-7.99 94.229l-27.035 1.804s6.71-62.12 6.102-81.883c-.363-11.798-33.53-11.054-33.53-11.054l-42.524-1.56-2.21 79.4H12.769S5.6 44.213 4.071 25.466c-.304-3.734.336-7.62 1.956-11.065l.978-2.1c1.76-3.753 4.515-6.829 7.864-8.965C18.215 1.198 22.157 0 26.28 0c4.398 0 8.688 1.369 12.282 3.921l20.302 14.411 28.002 2.447 36.742 1.747c3.114.15 6.082 1.109 8.641 2.72 2.564 1.613 4.723 3.872 6.22 6.63 1.724 3.166 2.041 6.842 2.126 10.37z" transform="translate(-59 -8) matrix(-1 0 0 1 390.429 84.857) translate(9.682 142.857)"/>
            </g>
        </g>
        <g>
            <path fill="#DEEDF2" d="M99.57 45.263l-.224 3.675-31.259-1.916.225-3.676 31.259 1.917z" transform="translate(-59 -8) rotate(-5 2519.888 -2347.163)"/>
            <path fill="#FFF" d="M75.064 47.901l-61.336.119c-1.165.002-2.173-.814-2.417-1.957L2.165 3.219C1.837 1.68 3.005.229 4.573.227L65.906.108c1.165-.002 2.174.814 2.418 1.957l9.148 42.843c.329 1.538-.839 2.99-2.408 2.993z" transform="translate(-59 -8) rotate(-5 2519.888 -2347.163)"/>
            <path fill="#DEEDF2" d="M66.323 2.07l9.147 42.844c.328 1.536-.839 2.986-2.407 2.992l-25.683.047-32.567.066-3.084.005c-1.165.002-2.176-.815-2.42-1.96L.165 3.224c-.157-.75.035-1.48.46-2.027C1.068.615 1.767.23 2.574.23L27.632.18l36.27-.07c1.166-.001 2.178.815 2.42 1.96z" transform="translate(-59 -8) rotate(-5 2519.888 -2347.163)"/>
            <path fill="#C3DEE7" d="M27.631.18L14.814 48.019l-3.085.005c-1.165.002-2.177-.815-2.42-1.96L.164 3.224c-.157-.75.036-1.48.461-2.027C1.068.616 1.767.23 2.574.23L27.632.18z" transform="translate(-59 -8) rotate(-5 2519.888 -2347.163)"/>
        </g>
    </g>
</svg>
