<svg xmlns="http://www.w3.org/2000/svg" width="484" height="377" viewBox="0 0 484 377">
    <g fill="none" fill-rule="evenodd">
        <g>
            <path fill="#DEEDF2" d="M111.11 324.192c-.753-.79-1.491-1.59-2.216-2.397-14.588-16.265-33.915-26.88-54.86-30.87-12.712-2.421-24.877-8.786-34.706-19.095-25.745-26.999-25.775-70.54-.064-97.576 11.342-11.926 25.804-18.59 40.633-19.995 12.696-1.203 24.624-7.013 33.432-16.68.114-.124.228-.248.343-.37 15.026-16.08 39.332-16.24 54.54-.35.088.09.174.181.26.273 4.062 4.325 9.926 6.214 15.608 5.057 32.393-6.6 67.23 3.26 92.32 29.58 40.09 42.057 40.09 110.367 0 152.423-40.121 42.09-105.169 42.09-145.29 0" transform="translate(-59 -8) translate(59.4 -76)"/>
            <path fill="#C3DEE7" d="M351.756 326.53c-1.232-.22-2.457-.458-3.675-.715-24.533-5.166-49.393-1.868-71.084 8.674-13.165 6.4-28.59 8.768-44.666 5.89-42.105-7.534-72.563-47.899-68.258-90.46 1.9-18.774 10.293-34.79 22.694-46.178 10.617-9.749 17.32-23.25 18.512-38.205l.05-.577c2.321-25.133 24.145-41.81 48.975-37.414.142.024.284.05.425.077 6.69 1.25 13.301-.987 17.62-5.924 24.62-28.149 62.95-42.694 103.988-35.344C441.91 98.1 489.654 161.46 482.871 227.73c-6.79 66.323-65.49 110.557-131.115 98.802" transform="translate(-59 -8) translate(59.4 -76)"/>
            <path fill="#9BC3D3" d="M328.092 202.73c-52.3-6.267-107.36 22.047-135.274 43.538-16.723 12.874-21.316 36.51-38.81 42.908-35.133 12.846-117.628 16.65-119.26 35.58-3.21 37.266 24.621 57.182 88.814 74.414-1.387 2.552 7.818 49.184 59.57 59.713 20.479 4.166 54.827.015 68-9.09 20.248-13.996 41.28-21.52 62.466-22.593 75.353-3.819 134.443-22.967 135.135-51.917.233-9.676-4.118-23.09-10.933-30.89-4.247-4.86 1.988-8.957 3.436-10.124 17.782-14.321 27.757-30.312 28.12-43.01 1.14-39.84-64.495-79.33-141.264-88.53" transform="translate(-59 -8) translate(59.4 -76)"/>
        </g>
        <g>
            <path fill="#34466B" d="M335.617 171.214L338.198 182.992 333.383 182.992 328.411 171.214zM64.158 171.214L61.577 182.992 66.392 182.992 71.364 171.214z" transform="translate(-59 -8) translate(78 177.5)"/>
            <path fill="#34466B" d="M56.15 171.901L342.188 171.901 342.188 158.198 58.802 158.198z" transform="translate(-59 -8) translate(78 177.5)"/>
            <path fill="#34466B" d="M43.326 160.648L33.542 205.314 42.371 205.314 61.23 160.648zM355.824 160.648L365.608 205.314 356.779 205.314 337.92 160.648z" transform="translate(-59 -8) translate(78 177.5)"/>
            <path fill="#9BC3D3" d="M28.035 151.189c.988 3.572 4.43 9.674 11.315 9.674h319.393c8.024 0 12.46-5.83 12.46-9.674H28.035z" transform="translate(-59 -8) translate(78 177.5)"/>
            <path fill="#C3DEE7" d="M28.035 151.062L371.203 151.062 357.648 132.882 43.242 130.663z" transform="translate(-59 -8) translate(78 177.5)"/>
            <path fill="#DEEDF2" d="M377.315 38.733C379.753 15.338 363.036 0 338.552 0h-270C36.518 0 25.236 18.927 23.414 38.733c-1.818 19.802-7.885 42.189 33.776 48.28 41.658 6.09 274.94 7.496 296.276 0 21.339-7.497 22.143-31.904 23.849-48.28" transform="translate(-59 -8) translate(78 177.5)"/>
            <path fill="#9BC3D3" d="M39.647 49.168c1.332-23.531 8.36-37.119 27.57-37.119h266.116c15.931 0 33.734 9.583 28.112 37.12-5.622 27.536-5.506 30.346-23.603 34.564-18.096 4.216-265.25 0-276.69 0-11.439 0-20.027-3.75-21.505-11.247-1.477-7.496 0-23.318 0-23.318" transform="translate(-59 -8) translate(78 177.5)"/>
            <g>
                <path fill="#9BC3D3" d="M.99 12.663C2.15 5.373 7.292 2.232 16.586.666c6.42-1.083 19.595-1.199 24.796 2.4 5.197 3.598 7.597 25.593 11.596 41.189-4.4 7.998-8.398 45.99-8.398 45.99l-16.394 21.994S-6.207 71.851.99 12.663M398.546 12.847c-1.16-7.29-6.302-10.431-15.596-11.997-6.42-1.083-19.595-1.199-24.796 2.4-5.197 3.598-7.597 25.593-11.596 41.189 4.4 7.998 8.398 45.99 8.398 45.99l16.394 21.994s34.393-40.388 27.196-99.576" transform="translate(-59 -8) translate(78 177.5) translate(0 38.548)"/>
                <path fill="#C3DEE7" d="M18.1.5c-.535.066-1.045.14-1.51.217C7.291 2.287 2.15 5.428.99 12.714c-7.197 59.188 27.196 99.58 27.196 99.58l11.303-15.169C27.87 83.66 13.397 33.81 18.099.501M398.546 12.847C397.4 5.647 392.35 2.499 383.264.915c2.771 29.708-11.469 82.565-23.223 96.34l11.31 15.168s34.392-40.388 27.195-99.576" transform="translate(-59 -8) translate(78 177.5) translate(0 38.548)"/>
                <path fill="#DEEDF2" d="M18.053 10.207c4.74-.498 18.443-4.183 24.727-5.915-.377-.505-.769-.944-1.18-1.226C36.401-.535 23.226-.416 16.806.666 8.867 2.004 3.985 4.517 2 9.753c4.99.822 12.718.807 16.053.454M397.756 9.937C395.772 4.7 390.89 2.187 382.95.85c-6.42-1.083-19.595-1.199-24.796 2.4-.409.285-.8.724-1.177 1.225 6.283 1.736 19.986 5.417 24.727 5.916 3.334.353 11.06.367 16.052-.454" transform="translate(-59 -8) translate(78 177.5) translate(0 38.548)"/>
            </g>
            <path fill="#DEEDF2" d="M40.342 89.815c-3.065 2.789-5.237 4.165-6.47 9.11-1.238 4.95 1.233 19.786 3.708 26.796 2.474 7.004 7.42 7.829 14.427 7.829h302.958c7.007 0 9.894-8.654 10.303-16.898.415-8.245.584-17.142-.311-20.912-.89-3.771-3.768-7.043-6.447-8.633-2.679-1.588-28.78-10.511-44.865-10.511H67.655c-5.514 0-13.515 1.652-27.313 13.22" transform="translate(-59 -8) translate(78 177.5)"/>
            <path fill="#C3DEE7" d="M34.034 98.623c-.053.19-.115.35-.163.552-1.237 4.948 1.234 19.785 3.709 26.792 2.474 7.007 7.42 7.832 14.427 7.832h302.958c7.007 0 9.89-8.657 10.303-16.898.338-6.717.501-13.819.071-18.278H34.034z" transform="translate(-59 -8) translate(78 177.5)"/>
            <g>
                <path fill="#DEEDF2" d="M2.608 6.565C-1.71 4.278-.172.136 3.632 2.717c10.914-4.28 38.347 4.1 49.526 3.848C64.336 6.31 69.16 2.717 71.954 2.717c2.54-4.28 6.86-3.248 2.54 1.314.255 10.663-1.777 26.92-2.54 34.286-.762 7.366 8.636 20.574 10.161 26.163 5.082 2.982 5.334 6.165 1.27 4.572-8.891 3.557-50.801-1.18-57.153.427-6.352 1.608-12.807 1.394-12.807 1.394s-8.319 4.005-3.723-1.955c-1.37-6.446.273-22.914-.997-29.423-1.27-6.512-6.097-24.039-6.097-32.93" transform="translate(-59 -8) translate(78 177.5) translate(43 9.5)"/>
                <path fill="#C3DEE7" d="M82.112 64.571c-.433-1.587-1.51-3.803-2.8-6.313-5.539 11.339-29.219.205-44.17 2.792C17.927 64.03 19.583 49.465 18.59 36.818 17.753 26.156 9.17 8.908 3.083 2.482c-3.39-1.833-4.58 2.002-.477 4.174 0 8.891 4.826 26.418 6.096 32.93 1.27 6.509-.374 22.977.994 29.424-4.592 5.96 3.726 1.955 3.726 1.955s6.456.213 12.807-1.395c6.352-1.608 48.265 3.13 57.153-.424 4.064 1.59 3.81-1.593-1.27-4.575" transform="translate(-59 -8) translate(78 177.5) translate(43 9.5)"/>
            </g>
            <g>
                <path fill="#DEEDF2" d="M83.597 6.565c4.32-2.287 2.78-6.429-1.024-3.848-10.914-4.28-38.347 4.1-49.525 3.848C21.868 6.31 17.04 2.717 14.25 2.717c-2.54-4.28-6.86-3.248-2.54 1.314-.255 10.663 1.777 26.92 2.54 34.286.762 7.366-8.64 20.574-10.161 26.163-5.082 2.982-5.334 6.165-1.273 4.572 8.894 3.557 50.805-1.18 57.157.427 6.352 1.608 12.807 1.394 12.807 1.394s8.319 4.005 3.723-1.955c1.37-6.446-.273-22.914.997-29.423 1.27-6.512 6.097-24.039 6.097-32.93" transform="translate(-59 -8) translate(78 177.5) translate(270.5 9.5)"/>
                <path fill="#C3DEE7" d="M4.09 64.48c.434-1.587 1.51-3.803 2.801-6.313 5.54 11.338 29.218.205 44.17 2.792 17.213 2.981 15.557-11.585 16.551-24.232.837-10.662 9.42-27.91 15.507-34.337 3.39-1.833 4.58 2.003.478 4.175 0 8.89-4.827 26.418-6.097 32.93-1.27 6.509.374 22.977-.997 29.423 4.596 5.96-3.723 1.955-3.723 1.955s-6.455.214-12.807-1.394c-6.352-1.608-48.264 3.13-57.152-.424-4.064 1.59-3.812-1.594 1.27-4.575" transform="translate(-59 -8) translate(78 177.5) translate(270.5 9.5)"/>
            </g>
        </g>
        <g>
            <g fill="#34466B">
                <path d="M23.607 213.182l18.85 4.232 20.792 25.05-46.154-19.857 6.512-9.425zM10.335 155.48l10.963 16.156-3.843 29.604L0 159.71l10.335-4.231z" transform="translate(-59 -8) rotate(-10 591.87 -257.314) rotate(-40 250.385 17.356)"/>
                <path d="M57.656 35.4l40.287 69.763c5.305 9.185 2.162 20.935-7.018 26.236L21.3 171.634l-10.968-16.157 67.979-37.843L41.78 58.83 57.656 35.4z" transform="translate(-59 -8) rotate(-10 591.87 -257.314) rotate(-40 250.385 17.356)"/>
                <path d="M66.265 48.947l-8.32 10.741 11.332 47.172c3.588 14.899 2.668 30.513-2.637 44.891L42.454 217.42l-18.85-4.237 21.59-86.665L9.746 65.117C-2.579 43.78 1.893 16.907 19.85.93c18.36-6.676 31.97 23.958 46.416 48.017z" transform="translate(-59 -8) rotate(-10 591.87 -257.314) rotate(-40 250.385 17.356)"/>
            </g>
            <g>
                <g>
                    <path fill="#FFC4B8" d="M28.658 40.903c-4.44-3.263-7.325-8.522-7.325-14.45 0-9.89 8.03-17.92 17.92-17.92 9.132 0 16.678 6.846 17.781 15.681.193.92.334 1.852.43 2.782v.002l.003.02.001.007c.029.279.053.557.074.835l1.235 13.828-2.81.94-.029.007-.108.37-.077 1.871-.138 3.497c-.047 1.157-.29 2.29-.71 3.356-.295.753-.684 1.473-1.16 2.142-.557.785-1.224 1.489-1.969 2.084-.387.312-.8.59-1.23.838-.228.132-.455.253-.692.366h-.001l1.207 21.843s-6.377 1.921-13.359.397c-4.22-.914-8.666-3.096-12.058-7.714 0 0 4.015-17.4 3.015-30.782z" transform="translate(-59 -8) rotate(-10 591.87 -257.314) rotate(5 22.973 570.773) translate(15)"/>
                    <path fill="#F4A48D" d="M37.768 79.14c-4.22-.914-8.667-3.095-12.058-7.713 0 0 4.342-18.644 2.87-32.194 0 0 9.877 24.081 9.188 39.907zm18.196-36.434c-.983.289-1.951-.484-1.887-1.506l.414-6.586 1.473 8.092z" transform="translate(-59 -8) rotate(-10 591.87 -257.314) rotate(5 22.973 570.773) translate(15)"/>
                </g>
                <path fill="#34466B" d="M53.245 103.23c-20.734.465-41.891-4.356-41.978-22.45-.101-21.169 13.526-53.026 18.429-63.4C33.103 10.17 43.27-.048 59.26 3.333c2.554.54 6.263 2.478 8.001 4.258.105.107.21.21.315.312 7.545 1.114 13.6 7.28 14.226 15.158.066.841.068 1.674.01 2.492.142 11.066.531 55.667-2.194 65.81-1.436 5.343-17.32 11.665-26.374 11.868zm6.867-23.492c2.227-.233 4.226-.555 5.924-.996L64.829 56.9h.002c.236-.114.463-.235.691-.367.43-.248.843-.526 1.23-.838.745-.595 1.412-1.3 1.97-2.084.475-.669.864-1.39 1.159-2.142.42-1.066.663-2.2.71-3.356l.139-3.496.076-1.871s.039-.13.108-.371l.03-.007 2.809-.94L72.519 27.6c-.021-.278-.046-.556-.075-.835v-.007l-.003-.02v-.002c-.097-.93-.237-1.861-.43-2.782-.22-1.754-.693-3.43-1.382-4.99-1.579-2.413-3.52-4.507-10.43-4.467-8.5.051-11.66 4.593-13.048 7.618-1.272 2.774-1.729 6.048-1.729 6.048l-.002.007-.087.498-.013.079-.014.075c-1.49-1.999-3.528-2.979-4.876-2.22-1.285.723-1.546 2.801-.758 4.996.114.415.267.834.463 1.25l.035.072.01.02.027.055.009.019.035.07.007.013.03.058.01.021.03.055.008.015c.761 1.406 1.865 2.417 2.959 2.812.072.037.143.071.215.103 0 0 .14 4.287.18 4.591 1.503 11.74-2.7 29.038-3.011 30.737 3.052 3.997 7.034 6.866 13.84 8.022 2.047.271 4.025.29 5.593.227z" transform="translate(-59 -8) rotate(-10 591.87 -257.314) rotate(5 22.973 570.773)"/>
            </g>
            <g>
                <path fill="#FFF" d="M42.742 3.41l3.632-1.994c6.744 4.735 14.04 6.722 22.175 4.545l14.946 21.69v70.737H46.374l-7.07-78.1L42.743 3.41z" transform="translate(-59 -8) rotate(-10 591.87 -257.314) translate(41.388 68.034)"/>
                <path fill="#FC3" d="M35.868 5.32v-.001L41.38.627c1.286-1.095 3.467-.699 4.119.748L61.332 36.51c1.045 2.319 1.542 4.79 1.464 7.274l-1.745 55.72c-.103 3.307-3.364 5.899-7.236 5.753l-32.508-1.229c-3.544-.134-6.104-2.947-5.378-5.912l5.05-20.626-10.426-1.079C3.333 75.664-1.452 69.647.4 63.644l14.247-46.172c1.4-4.538 5.468-8.128 10.736-9.474l10.485-2.68v.001zm50.695 62.827l-1.942 3.97 10.33 22.576c1.512 3.3-.814 6.97-4.878 7.696l-6.87 1.229c-2.97.53-5.761-1.404-5.761-3.994V65.002l1.004-16.673.35-5.843c.123-2.022-.078-4.049-.596-6.024l-4.994-19.045c-.477-1.822-1.265-3.576-2.337-5.205L66.333 5.32l19.762 5.72c3.867 1.12 6.565 4.116 6.837 7.594l1.795 36.828 13.197 4.17-3.872 7.05c-2.03 3.697-7.235 5.236-11.51 3.403l-5.979-1.937zm-65.737-7.791l4.373-.106.345-1.41-2.034-8.305-2.684 9.821z" transform="translate(-59 -8) rotate(-10 591.87 -257.314) translate(41.388 68.034)"/>
                <path fill="#FFC4B8" d="M85.742 64.83c.733 0 1.328.507 1.328 1.133 0 .546-.456 1.014-1.085 1.115l-7.88 1.253 4.563.3c.77.05 1.365.598 1.365 1.258 0 .678-.628 1.235-1.423 1.26l-12.49.4c-3.225.102-6.451-.116-9.616-.651l-3.29-.557-27.475 4.937 6.087-13.002 19.034-1.79 13.294-3.113 7.407-.407c1.336-.074 2.677.006 3.988.238l6.352 1.124c.612.109 1.083.528 1.183 1.056.122.646-.344 1.268-1.083 1.444l-2.502.598 3.061.536c.695.122 1.194.644 1.194 1.25 0 .51-.357.97-.905 1.171l-1.223.447h.116zm15.265-2.583l-2.749-3.542c-.741-.98-.633-2.271.294-3.127.076-.07.14-.12.185-.14-.148-.763.141-1.54.777-2.092l.8-.694c-.34-.789-.098-1.676.617-2.255l1.084-.877c-.107-.552.15-1.108.67-1.449l.297-.194c.553-.362 1.304-.414 1.917-.133l3.058 1.401c1.196.548 2.129 1.437 2.636 2.512l-.762-3.924c-.192-.987.197-1.992 1.04-2.687.36-.297.872-.416 1.36-.317.737.152 1.217.76 1.105 1.4l-.204 1.16.625 1.348c.545 1.174.688 2.455.415 3.697l-.088.397c-.18.818-.472 1.614-.87 2.374-1.724 3.286-4.061 6.313-6.92 8.962l-.004.003c-.743.688-1.695 1.197-2.758 1.428-1.191.259-2.891.266-4.208-.763l1.683-2.488z" transform="translate(-59 -8) rotate(-10 591.87 -257.314) translate(41.388 68.034)"/>
            </g>
            <g>
                <path fill="#9BC3D3" d="M5.029 37l40.845-19.653 51.892 12.15c.623.148.763.968.228 1.313L61.549 54.5c-.805.52-1.797.657-2.715.37L5.099 37.96c-.445-.143-.493-.755-.07-.96" transform="translate(-59 -8) rotate(-10 591.87 -257.314) matrix(-1 0 0 1 185.048 148.967)"/>
                <path fill="#FFF" d="M19.67 32.027s46.645 13.575 48.865 14.067c2.222.493 3.52-.022 8.145-2.962 6.24-3.963 20.235-12.585 21.472-13.325 1.233-.743-.74-1.73-4.197-2.468-3.455-.742-35.29-8.64-40.968-9.872-11.352 4.935-33.317 14.56-33.317 14.56" transform="translate(-59 -8) rotate(-10 591.87 -257.314) matrix(-1 0 0 1 185.048 148.967)"/>
                <path fill="#C3DEE7" d="M56.028 24.617c.385.142 25.084 6.2 25.084 6.2L65.41 39.565l-9.382-14.948z" transform="translate(-59 -8) rotate(-10 591.87 -257.314) matrix(-1 0 0 1 185.048 148.967)"/>
                <path fill="#DEEDF2" d="M2.788.114C.073-.504-.707 1.48.66 3.959 2.583 7.44 13.435 27.474 14.323 29.016c1.255 2.175 1.957 4.078 8.145 5.923 6.31 1.88 37.747 10.902 40.227 11.6 1.845.517 8.885 2.712 5.675-3.21-3.207-5.923-13.52-26.445-14.26-27.925-.742-1.48-.932-3.435-5.56-4.488C43.858 9.851 6.208.891 2.788.114" transform="translate(-59 -8) rotate(-10 591.87 -257.314) matrix(-1 0 0 1 185.048 148.967)"/>
            </g>
        </g>
    </g>
</svg>
