<?xml version="1.0" encoding="UTF-8"?>
<svg width="24px" height="25px" viewBox="0 0 24 25" version="1.1" xmlns="http://www.w3.org/2000/svg" xmlns:xlink="http://www.w3.org/1999/xlink">
    <!-- Generator: Sketch 60.1 (88133) - https://sketch.com -->
    <title>003</title>
    <desc>Created with Sketch.</desc>
    <defs>
        <path d="M11.9908321,2 C13.4407083,2 14.7762098,2.78774363 15.4781281,4.05697657 L21.9047165,15.1916194 C22.0165632,15.3454839 22.0311026,15.5496293 21.9421919,15.7178052 C21.8532812,15.8859811 21.676431,15.9888489 21.4863597,15.9829474 C21.2962883,15.977046 21.1261542,15.8634048 21.047838,15.6900368 L18.756,11.754 L18.7561864,20.1360762 C18.7561864,21.1654929 17.9443023,22 16.9427924,22 L14.0694487,21.999467 C14.067397,21.999657 14.0653415,21.9998347 14.0632823,22 L9.85859965,22 L9.848,21.999 L6.9790895,22 C5.97757968,22 5.16569556,21.1654929 5.16569556,20.1360762 L5.165,11.822 L2.9238624,15.7000051 C2.83540848,15.8532906 2.67233423,15.9481454 2.49542317,15.9492138 C2.40879022,15.9496313 2.32333756,15.9291131 2.2463306,15.8894037 C2.00964836,15.7469921 1.92999801,15.4415235 2.06698395,15.2015878 L8.50353605,4.05697657 C9.20545437,2.78774363 10.5409558,2 11.9908321,2 Z M11.9659228,3.04050189 C10.885838,3.04050189 9.8897632,3.62344954 9.3604145,4.56536223 L6.162,10.097 L6.16206586,20.1360762 C6.16206586,20.3588023 6.24814489,20.5724062 6.40136654,20.7298973 C6.55458819,20.8873885 6.76240135,20.9758661 6.9790895,20.9758661 L9.36,20.975 L9.3604145,14.6632971 C9.3604145,14.1127605 9.80650467,13.6664625 10.3567848,13.6664625 L13.5252423,13.6664625 C14.0755224,13.6664625 14.5216152,14.1127605 14.5216152,14.6632971 L14.521,20.975 L16.9427924,20.9758661 C17.3940221,20.9758661 17.7598161,20.5998793 17.7598161,20.1360762 L17.759,10.042 L14.5714311,4.56536223 C14.0420824,3.62344954 13.0460076,3.04050189 11.9659228,3.04050189 Z M13.5650971,14.6632971 L10.3767122,14.6632971 L10.356,20.975 L13.565,20.975 L13.5650971,14.6632971 Z" id="path-1"></path>
    </defs>
    <g id="DRAFT" stroke="none" stroke-width="1" fill="none" fill-rule="evenodd">
        <g id="Exportar_24px" transform="translate(0.000000, 1.000000)">
            <mask id="mask-2" fill="white">
                <use xlink:href="#path-1"></use>
            </mask>
            <use id="Combined-Shape" fill="#444444" fill-rule="nonzero" xlink:href="#path-1"></use>
        </g>
    </g>
</svg>