<svg xmlns="http://www.w3.org/2000/svg" width="155" height="206" viewBox="0 0 155 206">
    <g fill="none" fill-rule="evenodd">
        <g>
            <g>
                <g>
                    <g>
                        <g>
                            <path fill="#DEEDF2" d="M30.45 145.265l-14.784-.026 8.102-19.883 2.084-16.238c1.53-11.933 7.072-22.282 15.008-28.461 1.45-1.122 14.815-2.117 16.415-2.951l30.253-15.755c.827-.432 1.655-.786 2.492-1.08 9.23-3.188 19.156 1.893 24.045 12.728l17.3 38.336c5.708 12.653 1.466 27.814-8.11 33.345l-.382.149-82.35-.146 3.97-20.543-14.09 20.525h.047z" transform="translate(-921 -1306) translate(0 1266) translate(292 40) translate(629) translate(0 7.856) matrix(-1 0 0 1 149.609 0)"/>
                            <path fill="#723846" d="M31.955 137.708c.852-.124 1.72-.158 2.59-.092l8.524.676c2.274.18 4.188 2.23 4.729 5.067l.417 2.187-3.824-.025-2.512 9.733c-.148.589-.555.995-1.029 1.054l-.12.007h-.75c-.6 0-1.106-.553-1.197-1.311l-.186-1.557-.172 1.541c-.082.765-.596 1.327-1.198 1.327h-1.232c-.58 0-1.074-.528-1.188-1.254l-.178-1.207-.197 1.232c-.117.714-.61 1.229-1.186 1.229h-.456c-.502 0-.946-.395-1.126-.989l-3.139-10.41c-.982-3.253.714-6.81 3.43-7.208zm76.85-95.733c.333-.784 1.025-1.242 1.746-1.097.785.158 1.368 1.033 1.368 2.054l-.003 7.9.003.11v.029c0 .013-.001.026-.003.038v.086l1.393 1.39 2.252 2.246c.59.59.854 1.577.669 2.505l-4.08 21.552 20.954 43.636c1.565 2.06 2.993 4.759 4.083 7.905 3.024 8.732 2.289 17.622-1.64 19.846-3.929 2.227-9.563-3.055-12.586-11.787-.268-.777-.508-1.554-.717-2.329L103.67 85.285l-2.817-6.791c-.921-2.211-1-4.833-.22-7.127l1.368-4.002-1.178-2.202-.044.925c-.037.676-.445 1.22-.968 1.298l-.094.016c-.63.098-1.193-.514-1.227-1.32l-.099-2.439-1.272.556c-.402.177-.85-.038-1.064-.508-.168-.358-.16-.79-.015-1.134.047-.108.104-.21.176-.294l1.99-2.364 2.444-3.27c.41-.549 1.035-.732 1.59-.473l4.596 2.155-4.415-3.065c-.173-.098-.353-.155-.541-.177l-6.699-.768c-.798-.088-1.343-1.086-1.126-2.084.16-.73.719-1.204 1.306-1.204l8.46-.013c.252 0 .501.07.73.205l4.006 2.399-3.455-3.728c-.172-.194-.377-.33-.595-.408l-7.094-2.559c-.694-.246-1.071-1.2-.824-2.06.207-.72.782-1.143 1.37-1.014l6.55 1.476 1.685.382c.259.056.504.192.71.401l.974.97v-.001l.366-2.154.395-2.353c.034-.208.088-.404.165-.581zM59.588 60.87c.834.29 1.669.648 2.49 1.08l4.74 2.468c.05-.284.01-.49.01-.49l20.571 2.008c-.289 4.105.347 7.366 1.361 9.908l3.574 1.862c1.603.836 3.134 1.829 4.583 2.95-3.35 12.798-13.501 20.607-23.672 17.71-10.894-3.105-17.692-17.33-15.179-31.778.35-2.012.867-3.926 1.522-5.718z" transform="translate(-921 -1306) translate(0 1266) translate(292 40) translate(629) translate(0 7.856)"/>
                        </g>
                        <g>
                            <g>
                                <path fill="#723846" d="M29.405 53.145l-.194.098c-8.525-8.525-8.499-22.393.059-30.95 7.762-7.763 19.894-8.506 28.444-2.213 1.286.822 2.444 1.867 3.413 3.117 2.915 3.287 4.665 7.25 5.25 11.352l.004.002-.015.008 5.866 18.404-3.28.732c.276 2.105-.391 5.213-1.07 7.653-1.177 4.215-5.291 6.924-9.644 6.304-.352-.05-.716-.114-1.09-.2-.5-.103-1.015-.243-1.558-.416-.032-.01-.07-.022-.109-.032l1.862 3.2 5.944 10.244c2.9 4.998-.465 11.29-6.253 11.695-.185.021-.375.037-.56.054-.39.037-.786.054-1.182.054-1.411.01-2.871-.178-4.342-.578-1.025-.275-2.019-.648-2.974-1.1-.027-.017-.049-.028-.076-.039-3.598-1.727-6.328-4.84-7.712-8.57L31.12 57.505l-1.449-3.896.027.01c-.101-.156-.199-.314-.293-.474z" transform="translate(-921 -1306) translate(0 1266) translate(292 40) translate(629) matrix(-1 0 0 1 124.822 0)"/>
                                <path fill="#3B101C" d="M41.813 61.177c6.122 4.538 11.271 7.334 15.532 8.99l-1.862-3.2c-4.037-1.149-7.934-2.736-11.63-4.733l-1.975-1.068-.065.01zm27.139-7.52l-2.433-9.946s-2.76 7.391 2.433 9.947z" transform="translate(-921 -1306) translate(0 1266) translate(292 40) translate(629) matrix(-1 0 0 1 124.822 0)"/>
                            </g>
                            <g fill="#420716">
                                <path d="M65.306 31.194l.006.025.343 1.076c.011-1.027-.045-2.053-.166-3.07-.027-.216-.054-.431-.087-.644-.502-3.417-1.75-6.72-3.691-9.65-1.604-2.42-3.683-4.588-6.211-6.356-10.802-7.553-25.712-4.97-33.307 5.77-.533.754-1.017 1.53-1.45 2.322-1.593-1.601-3.804-2.593-6.247-2.593-4.853 0-8.787 3.913-8.787 8.74 0 4.826 3.934 8.738 8.787 8.738 1.25 0 2.44-.26 3.516-.727.628 5.235 2.993 10.247 6.935 14.112.928.911 1.948 1.76 3.051 2.53.447.313.902.61 1.363.888l-.55-1.48.026.01c-.777-1.203-1.345-2.499-1.704-3.838-.965-.428-1.898-1.248-2.575-2.364-1.378-2.27-1.185-4.907.43-5.888.755-.458 1.687-.475 2.607-.13.297-.759.665-1.497 1.107-2.206l1.378-2.224 1.975-3.174c-.182 1.561.011 3.083.726 4.491 2.465 4.853 21.18-13.609 21.18-13.609l.641 1.872c1.928 5.789 9.653 7.211 10.704 7.379z" transform="translate(-921 -1306) translate(0 1266) translate(292 40) translate(629) matrix(-1 0 0 1 124.822 0)"/>
                            </g>
                        </g>
                    </g>
                </g>
            </g>
        </g>
    </g>
</svg>
