<?xml version="1.0" encoding="UTF-8"?>
<svg width="936px" height="355px" viewBox="0 0 936 355" version="1.1" xmlns="http://www.w3.org/2000/svg" xmlns:xlink="http://www.w3.org/1999/xlink">
    <title>Illustration 01 Copy</title>
    <defs>
        <path d="M4,0 L932,0 C934.209139,-4.05812251e-16 936,1.790861 936,4 L936,355 L936,355 L0,355 L0,4 C-2.705415e-16,1.790861 1.790861,4.05812251e-16 4,0 Z" id="path-1"></path>
        <rect id="path-3" x="0" y="4" width="764" height="405" rx="202.5"></rect>
        <mask id="mask-4" maskContentUnits="userSpaceOnUse" maskUnits="objectBoundingBox" x="0" y="0" width="764" height="405" fill="white">
            <use xlink:href="#path-3"></use>
        </mask>
    </defs>
    <g id="ðŸ“-New-Modules" stroke="none" stroke-width="1" fill="none" fill-rule="evenodd">
        <g id="R2-Onboarding-Screen-01" transform="translate(-252.000000, -145.000000)">
            <g id="Illustration-01-Copy" transform="translate(252.000000, 145.000000)">
                <mask id="mask-2" fill="white">
                    <use xlink:href="#path-1"></use>
                </mask>
                <use id="Mascara" fill="#EFF6F9" xlink:href="#path-1"></use>
                <g id="g.-illustration/Backgrounds/Props/Cloud-02" mask="url(#mask-2)" fill="#DEEDF2">
                    <g transform="translate(-58.000000, -51.000000)" id="Primary-color">
                        <path d="M146.526501,129.703713 C172.378646,125.169852 199.512711,136.491255 213.402085,159.897039 C231.101755,189.722127 220.596912,227.85471 189.946502,245.071683 C176.590553,252.573953 161.609917,254.863383 147.493399,252.594203 L147.492372,252.597703 L147.480552,252.592703 C146.208655,252.389209 144.945494,252.140467 143.687215,251.859975 C141.120038,251.618983 137.144524,251.609233 131.412251,252.493956 C126.473435,253.256183 120.393767,254.820885 115.025076,256.373087 C110.688035,258.139533 106.269541,259.533241 101.804282,260.54321 C101.767025,260.555459 101.750066,260.562209 101.750066,260.562209 L101.744156,260.556959 C67.094336,268.349471 29.8477898,253.736918 11.1406229,222.212382 C-11.7933539,183.564815 1.81671708,134.147077 41.5394801,111.83401 C76.9318828,91.953368 121.093439,100.314612 146.526501,129.703713"></path>
                    </g>
                </g>
                <g id="g.-illustration/Backgrounds/Props/Cloud-02" mask="url(#mask-2)" fill="#C3DEE7">
                    <g transform="translate(38.000000, 26.000000)" id="Primary-color">
                        <path d="M83.1636896,117.626875 C97.8365291,115.000596 113.236944,121.558618 121.120102,135.116621 C131.165861,152.393062 125.203653,174.481692 107.807474,184.454773 C100.227071,188.800529 91.7245474,190.126701 83.71247,188.812258 L83.7118866,188.814286 L83.7051782,188.81139 C82.9832906,188.693514 82.2663614,188.549428 81.5522031,188.386951 C80.0951568,188.247354 77.8387841,188.241706 74.5853315,188.754189 C71.78222,189.195716 68.3315973,190.102083 65.2845024,191.00121 C62.8229386,192.024439 60.3151448,192.831756 57.7808089,193.41679 C57.7596627,193.423885 57.7500375,193.427795 57.7500375,193.427795 L57.7466833,193.424754 C38.0805691,197.938634 16.9406375,189.474186 6.32305626,171.213325 C-6.69352518,148.826386 1.03110969,120.200732 23.5764617,107.275694 C43.6640416,95.7596599 68.7287084,100.602983 83.1636896,117.626875"></path>
                    </g>
                </g>
                <g id="Ellipsis" mask="url(#mask-2)">
                    <g transform="translate(86.000000, 26.000000)">
                        <use id="Rectangle" stroke="#9BC3D3" mask="url(#mask-4)" stroke-width="2" fill="none" stroke-dasharray="2,4" xlink:href="#path-3"></use>
                        <circle id="Oval" stroke="none" fill="#FFCC33" fill-rule="evenodd" cx="344" cy="4" r="4"></circle>
                        <circle id="Oval" stroke="none" fill="#9E3667" fill-rule="evenodd" cx="15" cy="283" r="4"></circle>
                        <circle id="Oval" stroke="none" fill="#1BB3BC" fill-rule="evenodd" cx="761" cy="172" r="4"></circle>
                    </g>
                </g>
                <g id="g.-illustration/Backgrounds/Props/Flock" opacity="0.5" mask="url(#mask-2)" fill="#9BC3D3">
                    <g transform="translate(781.000000, 55.000000)" id="Primary-color">
                        <path d="M80.8568039,100.836903 C93.3070046,98.9727471 105.561293,109.458622 115.26383,118.965816 C121.792593,106.802201 137.132495,100.681556 147.804795,102.440853 C149.842278,102.774848 149.945132,106.277907 147.804795,106.479857 C141.329907,107.093475 134.96277,109.540179 129.986608,114.922928 C125.798992,119.455156 123.785997,123.354348 120.342845,128.5701 C119.35349,130.069192 117.360087,130.535231 115.92993,130.022588 C115.5528,129.88666 115.170772,129.715779 114.842619,129.451691 C114.470387,129.156533 114.142234,128.779818 113.848366,128.375918 C113.652454,128.197269 113.446747,128.115712 113.260631,127.878809 C104.552347,116.651156 93.6155658,104.631236 80.8568039,104.44482 C78.9417652,104.417635 79.0495167,101.108759 80.8568039,100.836903 Z M1.94349436,0.234640741 C15.1773426,-1.15570862 34.2003872,3.68721219 42.296446,13.314799 C54.3303339,5.79215452 69.5281988,3.03475775 84.9660558,4.51054757 C87.209247,4.72414873 87.3414875,7.34173383 84.9660558,7.36503578 C69.1461707,7.51261476 55.5792722,13.3303336 44.7796293,22.2200254 C44.5543306,22.406441 44.2947473,22.4724632 44.0498575,22.6122748 C43.6874205,22.9346184 43.2858011,23.2297764 42.8205103,23.4666795 C42.4139932,23.6725133 41.9389068,23.8084413 41.4736161,23.9171837 C39.7006135,24.3249678 37.2223281,23.9521366 35.9978788,22.7676211 C31.7318973,18.6354096 29.2340207,13.7031647 24.0374578,10.1146652 C17.8662333,5.85817669 9.97588188,3.91634798 1.94349436,3.4308908 C-0.71111176,3.27166085 -0.583769031,0.498729446 1.94349436,0.234640741 Z"></path>
                    </g>
                </g>
                <g id="Device" mask="url(#mask-2)">
                    <g transform="translate(198.000000, 29.000000)">
                        <g id="g.-illustration/Objects/Devices/Desktop-Computer">
                            <g id="Group-8" transform="translate(2.025000, 31.725000)">
                                <g id="Group-7">
                                    <polygon id="Secondary-stand" fill="#9BC3D3" points="237.042947 475.986316 299.135368 475.986316 299.135368 287.383737 237.042947 287.383737"></polygon>
                                    <path d="M27.2775789,378.241105 L508.902632,378.241105 C523.965789,378.241105 536.172632,366.031895 536.172632,350.970158 L536.172632,27.2681053 C536.172632,12.2063684 523.965789,0 508.902632,0 L27.2775789,0 C12.2092105,0 0,12.2063684 0,27.2681053 L0,350.970158 C0,366.031895 12.2092105,378.241105 27.2775789,378.241105" id="Primary-color" fill="#9BC3D3"></path>
                                    <polygon id="Display" fill="#FFFFFF" points="20.9974737 318.966158 515.173263 318.966158 515.173263 20.4423158 20.9974737 20.4423158"></polygon>
                                    <path d="M250.795895,346.841053 C250.795895,356.393368 258.536842,364.137158 268.090579,364.137158 C277.641947,364.137158 285.385263,356.393368 285.385263,346.841053 C285.385263,337.289684 277.641947,329.546368 268.090579,329.546368 C258.536842,329.546368 250.795895,337.289684 250.795895,346.841053" id="Secondary-color" fill="#DEEDF2"></path>
                                    <polygon id="Stand" fill="#C3DEE7" points="166.053789 475.986316 370.118842 475.986316 370.118842 461.981368 166.053789 461.981368"></polygon>
                                </g>
                            </g>
                        </g>
                        <g id="Content" transform="translate(23.000000, 52.000000)">
                            <rect id="Rectangle" fill="#ECECEC" x="0" y="12" width="494" height="12"></rect>
                            <rect id="Rectangle" fill="#9BC3D3" x="494" y="0" width="10" height="323"></rect>
                            <rect id="Rectangle" fill="#F6FAFC" x="0" y="24" width="494" height="56"></rect>
                            <rect id="Rectangle" fill="#A2A2A2" x="0" y="0" width="494" height="12"></rect>
                            <rect id="Rectangle" fill="#A2A2A2" x="37.05" y="37.3791667" width="41.1666667" height="8.23333333"></rect>
                            <rect id="Rectangle" fill="#FFFFFF" x="37.05" y="68" width="67.2388889" height="12"></rect>
                            <rect id="Rectangle" fill="#E8F3F6" x="104.288889" y="68" width="67.2388889" height="12"></rect>
                            <rect id="Rectangle" fill="#FAB2B2" x="394.170833" y="40.7" width="62.7791667" height="12" rx="6"></rect>
                            <rect id="Rectangle" fill="#C7C7C7" x="37.05" y="112.165278" width="32.9333333" height="5.48888889"></rect>
                            <rect id="Rectangle" fill="#C7C7C7" x="101.544444" y="112.165278" width="32.9333333" height="5.48888889"></rect>
                            <rect id="Rectangle" fill="#DEEDF2" x="179.761111" y="138.2375" width="30.875" height="10.9777778"></rect>
                            <rect id="Rectangle" fill="#DEEDF2" x="213.380556" y="138.2375" width="36.3638889" height="10.9777778"></rect>
                            <rect id="Rectangle" fill="#DEEDF2" x="252.488889" y="138.2375" width="36.3638889" height="10.9777778"></rect>
                            <rect id="Rectangle" fill="#FAB2B2" x="436.366667" y="139.952778" width="20.5833333" height="6.86111111"></rect>
                            <rect id="Rectangle" fill="#FAB2B2" x="393.827778" y="139.952778" width="34.3055556" height="6.86111111"></rect>
                            <rect id="Rectangle" fill="#ECECEC" x="37.05" y="135.493056" width="134.477778" height="16.4666667"></rect>
                            <rect id="Rectangle" fill="#C7C7C7" x="37.05" y="167.608333" width="419.9" height="12"></rect>
                            <rect id="Rectangle" fill="#A2A2A2" x="37.05" y="97.0708333" width="8.23333333" height="10.9777778"></rect>
                            <rect id="Rectangle" fill="#A2A2A2" x="101.544444" y="97.0708333" width="8.23333333" height="10.9777778"></rect>
                            <rect id="Rectangle" fill="#C7C7C7" x="166.038889" y="112.165278" width="32.9333333" height="5.48888889"></rect>
                            <rect id="Rectangle" fill="#A2A2A2" x="166.038889" y="97.0708333" width="8.23333333" height="10.9777778"></rect>
                            <rect id="Rectangle" fill="#C7C7C7" x="230.533333" y="112.165278" width="32.9333333" height="5.48888889"></rect>
                            <rect id="Rectangle" fill="#A2A2A2" x="230.533333" y="97.0708333" width="8.23333333" height="10.9777778"></rect>
                            <rect id="Rectangle" fill="#C7C7C7" x="295.027778" y="112.165278" width="32.9333333" height="5.48888889"></rect>
                            <rect id="Rectangle" fill="#A2A2A2" x="295.027778" y="97.0708333" width="8.23333333" height="10.9777778"></rect>
                            <rect id="Rectangle" fill="#A2A2A2" x="359.522222" y="97.0708333" width="8.23333333" height="10.9777778"></rect>
                            <rect id="Rectangle" fill="#C7C7C7" x="359.522222" y="112.165278" width="32.9333333" height="5.48888889"></rect>
                            <rect id="Rectangle" fill="#FFFFFF" x="37.05" y="179.608333" width="419.9" height="21.9555556"></rect>
                            <rect id="Rectangle" fill="#FFFFFF" x="37.05" y="223.519444" width="419.9" height="21.9555556"></rect>
                            <rect id="Rectangle" fill="#F6FAFC" x="37.05" y="201.563889" width="419.9" height="21.9555556"></rect>
                            <rect id="Rectangle" fill="#F6FAFC" x="37.05" y="245.475" width="419.9" height="21.9555556"></rect>
                            <rect id="Rectangle" fill="#A2A2A2" x="52.8305556" y="188.527778" width="37.05" height="4.11666667"></rect>
                            <rect id="Rectangle" fill="#A2A2A2" x="52.8305556" y="232.438889" width="37.05" height="4.11666667"></rect>
                            <rect id="Rectangle" fill="#A2A2A2" x="52.8305556" y="210.483333" width="37.05" height="4.11666667"></rect>
                            <rect id="Rectangle" fill="#A2A2A2" x="52.8305556" y="254.394444" width="37.05" height="4.11666667"></rect>
                            <rect id="Rectangle" fill="#A2A2A2" x="315.268056" y="188.527778" width="43.9111111" height="4.11666667"></rect>
                            <rect id="Rectangle" fill="#A2A2A2" x="172" y="188.527778" width="48" height="4.11666667"></rect>
                            <rect id="Rectangle" fill="#A2A2A2" x="172" y="210" width="48" height="4.11666667"></rect>
                            <rect id="Rectangle" fill="#A2A2A2" x="172" y="232" width="48" height="4.11666667"></rect>
                            <rect id="Rectangle" fill="#A2A2A2" x="172" y="255" width="48" height="4.11666667"></rect>
                            <rect id="Rectangle" fill="#A2A2A2" x="244" y="188.527778" width="48" height="4.11666667"></rect>
                            <rect id="Rectangle" fill="#A2A2A2" x="244" y="210" width="48" height="4.11666667"></rect>
                            <rect id="Rectangle" fill="#A2A2A2" x="244" y="232" width="48" height="4.11666667"></rect>
                            <rect id="Rectangle" fill="#A2A2A2" x="244" y="255" width="48" height="4.11666667"></rect>
                            <rect id="Rectangle" fill="#A2A2A2" x="315.268056" y="232.438889" width="43.9111111" height="4.11666667"></rect>
                            <rect id="Rectangle" fill="#A2A2A2" x="315.268056" y="210.483333" width="43.9111111" height="4.11666667"></rect>
                            <rect id="Rectangle" fill="#A2A2A2" x="315.268056" y="254.394444" width="43.9111111" height="4.11666667"></rect>
                            <rect id="Rectangle" fill="#DADADA" x="381.477778" y="188.527778" width="8.91944444" height="4.11666667"></rect>
                            <rect id="Rectangle" fill="#DADADA" x="381.477778" y="232.438889" width="8.91944444" height="4.11666667"></rect>
                            <rect id="Rectangle" fill="#DADADA" x="381.477778" y="210.483333" width="8.91944444" height="4.11666667"></rect>
                            <rect id="Rectangle" fill="#DADADA" x="381.477778" y="254.394444" width="8.91944444" height="4.11666667"></rect>
                            <rect id="Rectangle" fill="#A2A2A2" x="416.8125" y="188.527778" width="24.7" height="4.11666667"></rect>
                            <rect id="Rectangle" fill="#A2A2A2" x="416.8125" y="232.438889" width="24.7" height="4.11666667"></rect>
                            <rect id="Rectangle" fill="#A2A2A2" x="416.8125" y="210.483333" width="24.7" height="4.11666667"></rect>
                            <rect id="Rectangle" fill="#A2A2A2" x="416.8125" y="254.394444" width="24.7" height="4.11666667"></rect>
                            <rect id="Rectangle" fill="#FCCCCC" x="117.668056" y="186.469444" width="34.3055556" height="8.23333333" rx="4.11666667"></rect>
                            <rect id="Rectangle" fill="#ECD7E1" x="117.668056" y="230.380556" width="34.3055556" height="8.23333333" rx="4.11666667"></rect>
                            <rect id="Rectangle" fill="#FFF5D7" x="117.668056" y="208.425" width="34.3055556" height="8.23333333" rx="4.11666667"></rect>
                            <rect id="Rectangle" fill="#D2F0F2" x="117.668056" y="252.336111" width="34.3055556" height="8.23333333" rx="4.11666667"></rect>
                            <rect id="Rectangle" fill="#FFFFFF" x="37.05" y="267.430556" width="419.9" height="21.9555556"></rect>
                        </g>
                    </g>
                </g>
            </g>
        </g>
    </g>
</svg>