<?xml version="1.0" encoding="UTF-8"?>
<svg width="936px" height="355px" viewBox="0 0 936 355" version="1.1" xmlns="http://www.w3.org/2000/svg" xmlns:xlink="http://www.w3.org/1999/xlink">
    <title>Illustration 01 Copy 2</title>
    <defs>
        <path d="M4,0 L932,0 C934.209139,-4.05812251e-16 936,1.790861 936,4 L936,355 L936,355 L0,355 L0,4 C-2.705415e-16,1.790861 1.790861,4.05812251e-16 4,0 Z" id="path-1"></path>
        <rect id="path-3" x="4" y="3" width="764" height="405" rx="202.5"></rect>
        <mask id="mask-4" maskContentUnits="userSpaceOnUse" maskUnits="objectBoundingBox" x="0" y="0" width="764" height="405" fill="white">
            <use xlink:href="#path-3"></use>
        </mask>
    </defs>
    <g id="ðŸ“-New-Modules" stroke="none" stroke-width="1" fill="none" fill-rule="evenodd">
        <g id="R2-Onboarding-Screen-02" transform="translate(-252.000000, -145.000000)">
            <g id="Illustration-01-Copy-2" transform="translate(252.000000, 145.000000)">
                <mask id="mask-2" fill="white">
                    <use xlink:href="#path-1"></use>
                </mask>
                <use id="Mascara" fill="#EFF6F9" xlink:href="#path-1"></use>
                <g id="g.-illustration/Backgrounds/Props/Cloud-02" mask="url(#mask-2)" fill="#DEEDF2">
                    <g transform="translate(105.000000, -153.000000)" id="Primary-color">
                        <path d="M146.526501,129.703713 C172.378646,125.169852 199.512711,136.491255 213.402085,159.897039 C231.101755,189.722127 220.596912,227.85471 189.946502,245.071683 C176.590553,252.573953 161.609917,254.863383 147.493399,252.594203 L147.492372,252.597703 L147.480552,252.592703 C146.208655,252.389209 144.945494,252.140467 143.687215,251.859975 C141.120038,251.618983 137.144524,251.609233 131.412251,252.493956 C126.473435,253.256183 120.393767,254.820885 115.025076,256.373087 C110.688035,258.139533 106.269541,259.533241 101.804282,260.54321 C101.767025,260.555459 101.750066,260.562209 101.750066,260.562209 L101.744156,260.556959 C67.094336,268.349471 29.8477898,253.736918 11.1406229,222.212382 C-11.7933539,183.564815 1.81671708,134.147077 41.5394801,111.83401 C76.9318828,91.953368 121.093439,100.314612 146.526501,129.703713"></path>
                    </g>
                </g>
                <g id="g.-illustration/Backgrounds/Props/Flock" opacity="0.5" mask="url(#mask-2)" fill="#9BC3D3">
                    <g transform="translate(12.000000, 111.000000)" id="Primary-color">
                        <path d="M1.78919604,5.62749734 C12.9953562,5.73235609 22.6048344,9.84903296 30.2551937,16.1444416 C30.4119233,16.2803697 30.5980396,16.3269735 30.7694625,16.424065 C31.0290457,16.6493171 31.313118,16.8629183 31.6461682,17.0299155 C31.9302404,17.1774945 32.2681884,17.274586 32.5963408,17.3483754 C33.8501769,17.6357661 35.6035884,17.3716774 36.4704985,16.536691 C39.4973372,13.612297 41.265442,10.1170053 44.9485855,7.57320971 C49.3174207,4.55949154 54.9058074,3.18079316 60.5970478,2.8390313 C62.477802,2.72640524 62.3896416,0.761274581 60.5970478,0.574859024 C51.2226638,-0.411589962 37.7488236,3.01767955 32.013503,9.83738199 C23.4913357,4.509004 12.7259773,2.55552431 1.78919604,3.60411182 C0.207207519,3.75945811 0.109251573,5.61196271 1.78919604,5.62749734"></path>
                    </g>
                </g>
                <g id="g.-illustration/Backgrounds/Props/Cloud-02" mask="url(#mask-2)" fill="#C3DEE7">
                    <g transform="translate(201.000000, -76.000000)" id="Primary-color">
                        <path d="M83.1636896,117.626875 C97.8365291,115.000596 113.236944,121.558618 121.120102,135.116621 C131.165861,152.393062 125.203653,174.481692 107.807474,184.454773 C100.227071,188.800529 91.7245474,190.126701 83.71247,188.812258 L83.7118866,188.814286 L83.7051782,188.81139 C82.9832906,188.693514 82.2663614,188.549428 81.5522031,188.386951 C80.0951568,188.247354 77.8387841,188.241706 74.5853315,188.754189 C71.78222,189.195716 68.3315973,190.102083 65.2845024,191.00121 C62.8229386,192.024439 60.3151448,192.831756 57.7808089,193.41679 C57.7596627,193.423885 57.7500375,193.427795 57.7500375,193.427795 L57.7466833,193.424754 C38.0805691,197.938634 16.9406375,189.474186 6.32305626,171.213325 C-6.69352518,148.826386 1.03110969,120.200732 23.5764617,107.275694 C43.6640416,95.7596599 68.7287084,100.602983 83.1636896,117.626875"></path>
                    </g>
                </g>
                <g id="g.-illustration/Backgrounds/Props/Flock" opacity="0.5" mask="url(#mask-2)" fill="#9BC3D3">
                    <g transform="translate(783.000000, -4.000000)" id="Primary-color">
                        <path d="M40.1377244,81.5666754 C46.3180666,80.8906731 52.4011572,84.6931857 57.2175451,88.1407971 C60.4584563,83.7298825 68.0732604,81.5103418 73.3710439,82.1483189 C74.3824611,82.269436 74.4335182,83.5397569 73.3710439,83.6129905 C70.1568769,83.8355079 66.9961984,84.7227608 64.5260065,86.6747172 C62.4472525,88.3182477 61.4479918,89.732219 59.7387941,91.6236169 C59.2476733,92.1672354 58.2581378,92.3362359 57.5482007,92.1503353 C57.3609913,92.1010435 57.1713506,92.0390766 57.0084541,91.9433096 C56.8236759,91.8362759 56.6607794,91.6996672 56.514902,91.5532 C56.4176503,91.4884165 56.3155361,91.4588414 56.223147,91.3729327 C51.9003112,87.3014276 46.471238,82.9426216 40.1377244,82.8750213 C39.1870895,82.865163 39.2405779,81.665259 40.1377244,81.5666754 Z M77.445888,68.8747334 C80.29293,66.4016919 86.9814121,65.1581295 91.6349035,65.5158474 C92.5247561,65.5834476 92.5685193,66.2960666 91.6349035,66.3369084 C88.8097431,66.4608421 86.0356398,66.9608021 83.8669281,68.0536724 C82.0385971,68.9761338 81.160901,70.243638 79.658363,71.3041165 C79.2280245,71.6069091 78.3576222,71.7026761 77.7352117,71.5984591 C77.5723151,71.5717007 77.404556,71.5364922 77.2635412,71.4829754 C77.0982134,71.4224169 76.9571985,71.3449583 76.82834,71.2632747 C76.7432448,71.2280662 76.6508558,71.2111662 76.5730545,71.1618743 C72.7753776,68.8789585 68.0051842,67.3861202 62.4423899,67.3480951 C61.6084571,67.3424617 61.6570829,66.6706845 62.4423899,66.614351 C67.8714632,66.2340997 73.2154413,66.9424937 77.445888,68.8747334 Z M0.96476038,45.0850882 C7.53410923,44.5809032 16.9772443,46.3371007 20.9961687,49.8283705 C26.9698512,47.1004199 34.5141478,46.1004999 42.1775777,46.6356683 C43.2911091,46.7131269 43.3567539,47.6623467 42.1775777,47.6707968 C34.3245071,47.7243136 27.5898304,49.8340039 22.2288333,53.0576895 C22.1169939,53.1252898 21.9881355,53.1492315 21.8665709,53.1999317 C21.6866554,53.3168237 21.4872895,53.4238574 21.2563168,53.509766 C21.0545197,53.5844079 20.8186844,53.6336998 20.5877117,53.6731332 C19.7075843,53.8210087 18.477351,53.6858083 17.8695282,53.2562652 C15.7518735,51.7577936 14.511915,49.9692043 11.932315,48.6679 C8.86888811,47.1243616 4.95207797,46.4201926 0.96476038,46.2441504 C-0.352999456,46.1864085 -0.289785885,45.1808552 0.96476038,45.0850882 Z"></path>
                    </g>
                </g>
                <g id="g.-illustration/Backgrounds/Props/Cloud-01" mask="url(#mask-2)" fill="#DEEDF2">
                    <g transform="translate(746.000000, -157.000000)" id="Primary-color">
                        <path d="M145.021793,260.085137 C149.32057,221.710249 179.079892,192 215.148568,192 C254.170536,192 285.805835,226.776481 285.805835,269.6773 C285.805835,276.71556 284.954916,283.535167 283.357937,290.018196 C283.957878,290.02689 284.552663,290.050323 285.144009,290.088309 L285.809273,290.028024 L285.809273,290.136877 C306.047407,291.808424 322,310.393109 322,333.072092 C322,355.751074 306.047407,374.33576 285.809273,376.007306 L285.809273,376.135814 L28.5539386,376.135814 L28.5539386,376.131467 L28.553079,376.131467 C12.784422,376.131467 0,362.074981 0,344.737766 C0,327.400551 12.784422,313.345954 28.553079,313.345954 L28.5539386,313.345954 L28.5539386,313.344631 L93.730768,307.437241 C93.4330321,305.297208 93.2786632,303.105394 93.2786632,300.874083 C93.2786632,277.094469 110.812764,257.816408 132.443311,257.816408 C136.843339,257.816408 141.07387,258.614101 145.021793,260.085137 Z"></path>
                    </g>
                </g>
                <g id="g.-illustration/Backgrounds/Props/Cloud-02" mask="url(#mask-2)" fill="#C3DEE7">
                    <g transform="translate(879.000000, 90.000000)" id="Primary-color">
                        <path d="M71.2831625,114.074864 C83.8598821,112.009639 97.0602376,117.166666 103.817231,127.828263 C112.427881,141.413926 107.317417,158.783746 92.4064063,166.626271 C85.9089179,170.043639 78.6210406,171.0865 71.7535457,170.052863 L71.7530457,170.054457 L71.7472956,170.05218 C71.1285348,169.959486 70.5140241,169.846181 69.9018884,169.718414 C68.6529916,169.608639 66.7189578,169.604198 63.9302841,170.007199 C61.5276172,170.354402 58.5699405,171.067142 55.9581449,171.774187 C53.8482331,172.578823 51.6986955,173.213673 49.5264076,173.673725 C49.5082823,173.679305 49.5000322,173.682379 49.5000322,173.682379 L49.4971571,173.679988 C32.6404878,177.229565 14.5205464,170.573382 5.41976251,156.213602 C-5.7373073,138.609201 0.88380831,116.098866 20.2083957,105.935013 C37.4263213,96.8791575 58.9103215,100.687798 71.2831625,114.074864"></path>
                    </g>
                </g>
                <g id="Ellipsis" mask="url(#mask-2)">
                    <g transform="translate(82.000000, 27.000000)">
                        <use id="Rectangle" stroke="#9BC3D3" mask="url(#mask-4)" stroke-width="2" fill="none" stroke-dasharray="2,4" xlink:href="#path-3"></use>
                        <circle id="Oval" stroke="none" fill="#FFCC33" fill-rule="evenodd" cx="4" cy="217" r="4"></circle>
                        <circle id="Oval" stroke="none" fill="#1BB3BC" fill-rule="evenodd" cx="499" cy="4" r="4"></circle>
                    </g>
                </g>
                <g id="Device" mask="url(#mask-2)">
                    <g transform="translate(198.000000, 29.000000)">
                        <g id="g.-illustration/Objects/Devices/Desktop-Computer">
                            <g id="Group-8" transform="translate(2.025000, 31.725000)">
                                <g id="Group-7">
                                    <polygon id="Secondary-stand" fill="#9BC3D3" points="237.042947 475.986316 299.135368 475.986316 299.135368 287.383737 237.042947 287.383737"></polygon>
                                    <path d="M27.2775789,378.241105 L508.902632,378.241105 C523.965789,378.241105 536.172632,366.031895 536.172632,350.970158 L536.172632,27.2681053 C536.172632,12.2063684 523.965789,0 508.902632,0 L27.2775789,0 C12.2092105,0 0,12.2063684 0,27.2681053 L0,350.970158 C0,366.031895 12.2092105,378.241105 27.2775789,378.241105" id="Primary-color" fill="#9BC3D3"></path>
                                    <polygon id="Display" fill="#FFFFFF" points="20.9974737 318.966158 515.173263 318.966158 515.173263 20.4423158 20.9974737 20.4423158"></polygon>
                                    <path d="M250.795895,346.841053 C250.795895,356.393368 258.536842,364.137158 268.090579,364.137158 C277.641947,364.137158 285.385263,356.393368 285.385263,346.841053 C285.385263,337.289684 277.641947,329.546368 268.090579,329.546368 C258.536842,329.546368 250.795895,337.289684 250.795895,346.841053" id="Secondary-color" fill="#DEEDF2"></path>
                                    <polygon id="Stand" fill="#C3DEE7" points="166.053789 475.986316 370.118842 475.986316 370.118842 461.981368 166.053789 461.981368"></polygon>
                                </g>
                            </g>
                        </g>
                        <g id="Content" transform="translate(23.000000, 52.000000)">
                            <rect id="Rectangle" fill="#B5B5B5" x="37.05" y="38.6180556" width="51.1152778" height="5.48888889"></rect>
                            <rect id="Rectangle" fill="#B5B5B5" x="144.083333" y="38.6180556" width="51.1152778" height="5.48888889"></rect>
                            <rect id="Rectangle" fill="#B5B5B5" x="251.116667" y="38.6180556" width="51.1152778" height="5.48888889"></rect>
                            <rect id="Rectangle" fill="#B5B5B5" x="360.208333" y="38.6180556" width="51.1152778" height="5.48888889"></rect>
                            <rect id="Rectangle" fill="#F6FAFC" x="37.05" y="57.8291667" width="419.9" height="70.3263889"></rect>
                            <rect id="Rectangle" fill="#FAB2B2" x="37.2429687" y="141.877778" width="54.8888889" height="9.60555556" rx="4.80277778"></rect>
                            <rect id="Rectangle" stroke="#FAB2B2" stroke-width="1.5" x="101.458247" y="142.627778" width="53.3888889" height="8.10555556" rx="4.05277778"></rect>
                            <rect id="Rectangle" stroke="#FAB2B2" stroke-width="1.5" x="164.923524" y="142.627778" width="53.3888889" height="8.10555556" rx="4.05277778"></rect>
                            <rect id="Rectangle" fill="#B5B5B5" x="50.0861111" y="74.6388889" width="51.1152778" height="5.48888889"></rect>
                            <rect id="Rectangle" fill="#B5B5B5" x="50.0861111" y="85.6166667" width="37.7361111" height="5.48888889"></rect>
                            <rect id="Rectangle" fill="#B5B5B5" x="68.6111111" y="172.606944" width="65.5236111" height="5.48888889"></rect>
                            <rect id="Rectangle" fill="#B5B5B5" x="79.2458333" y="207.255556" width="75.1291667" height="2.74444444"></rect>
                            <rect id="Rectangle" fill="#B5B5B5" x="79.2458333" y="212.744444" width="54.8888889" height="2.74444444"></rect>
                            <rect id="Rectangle" fill="#B5B5B5" x="79.2458333" y="218.233333" width="62.0930556" height="2.74444444"></rect>
                            <rect id="Rectangle" fill="#B5B5B5" x="79.2458333" y="223.722222" width="54.8888889" height="2.74444444"></rect>
                            <rect id="Rectangle" fill="#1BB3BC" x="68.6111111" y="196.620833" width="144.769444" height="5.48888889"></rect>
                            <rect id="Rectangle" fill="#B5B5B5" x="68.6111111" y="247.393056" width="37.7361111" height="5.48888889"></rect>
                            <rect id="Rectangle" fill="#B5B5B5" x="50.0861111" y="96.5944444" width="51.1152778" height="5.48888889"></rect>
                            <rect id="Rectangle" fill="#B5B5B5" x="157.119444" y="74.6388889" width="51.1152778" height="5.48888889"></rect>
                            <rect id="Rectangle" fill="#B5B5B5" x="157.119444" y="85.6166667" width="42.8819444" height="5.48888889"></rect>
                            <rect id="Rectangle" fill="#B5B5B5" x="157.119444" y="96.5944444" width="56.2611111" height="5.48888889"></rect>
                            <rect id="Rectangle" fill="#B5B5B5" x="157.119444" y="107.572222" width="72.7277778" height="5.48888889"></rect>
                            <rect id="Rectangle" fill="#B5B5B5" x="264.152778" y="74.6388889" width="51.1152778" height="5.48888889"></rect>
                            <rect id="Rectangle" fill="#B5B5B5" x="264.152778" y="85.6166667" width="79.9319444" height="5.48888889"></rect>
                            <rect id="Rectangle" fill="#B5B5B5" x="264.152778" y="96.5944444" width="105.661111" height="5.48888889"></rect>
                            <circle id="Oval" fill="#1BB3BC" cx="55.2319444" cy="199.365278" r="5.14583333"></circle>
                            <circle id="Oval" fill="#C7C7C7" cx="55.2319444" cy="250.1375" r="5.14583333"></circle>
                            <circle id="Oval" fill="#7C7C7C" cx="55.2319444" cy="175.351389" r="5.14583333"></circle>
                            <rect id="Rectangle" fill="#ECECEC" x="0" y="12" width="494.2" height="12"></rect>
                            <rect id="Rectangle" fill="#A2A2A2" x="0" y="0" width="494.2" height="12"></rect>
                        </g>
                    </g>
                </g>
            </g>
        </g>
    </g>
</svg>