<?xml version="1.0" encoding="UTF-8"?>
<svg width="936px" height="355px" viewBox="0 0 936 355" version="1.1" xmlns="http://www.w3.org/2000/svg" xmlns:xlink="http://www.w3.org/1999/xlink">
    <title>Illustration 01 Copy 3</title>
    <defs>
        <path d="M4,0 L932,0 C934.209139,-4.05812251e-16 936,1.790861 936,4 L936,355 L936,355 L0,355 L0,4 C-2.705415e-16,1.790861 1.790861,4.05812251e-16 4,0 Z" id="path-1"></path>
        <rect id="path-3" x="0" y="4" width="764" height="405" rx="202.5"></rect>
        <mask id="mask-4" maskContentUnits="userSpaceOnUse" maskUnits="objectBoundingBox" x="0" y="0" width="764" height="405" fill="white">
            <use xlink:href="#path-3"></use>
        </mask>
    </defs>
    <g id="ðŸ“-New-Modules" stroke="none" stroke-width="1" fill="none" fill-rule="evenodd">
        <g id="R2-Onboarding-Screen-03" transform="translate(-252.000000, -145.000000)">
            <g id="Illustration-01-Copy-3" transform="translate(252.000000, 145.000000)">
                <mask id="mask-2" fill="white">
                    <use xlink:href="#path-1"></use>
                </mask>
                <use id="Mascara" fill="#EFF6F9" xlink:href="#path-1"></use>
                <g id="g.-illustration/Backgrounds/Props/Cloud-01" mask="url(#mask-2)" fill="#DEEDF2">
                    <g transform="translate(-190.000000, -157.000000)" id="Primary-color">
                        <path d="M145.021793,260.085137 C149.32057,221.710249 179.079892,192 215.148568,192 C254.170536,192 285.805835,226.776481 285.805835,269.6773 C285.805835,276.71556 284.954916,283.535167 283.357937,290.018196 C283.957878,290.02689 284.552663,290.050323 285.144009,290.088309 L285.809273,290.028024 L285.809273,290.136877 C306.047407,291.808424 322,310.393109 322,333.072092 C322,355.751074 306.047407,374.33576 285.809273,376.007306 L285.809273,376.135814 L28.5539386,376.135814 L28.5539386,376.131467 L28.553079,376.131467 C12.784422,376.131467 0,362.074981 0,344.737766 C0,327.400551 12.784422,313.345954 28.553079,313.345954 L28.5539386,313.345954 L28.5539386,313.344631 L93.730768,307.437241 C93.4330321,305.297208 93.2786632,303.105394 93.2786632,300.874083 C93.2786632,277.094469 110.812764,257.816408 132.443311,257.816408 C136.843339,257.816408 141.07387,258.614101 145.021793,260.085137 Z"></path>
                    </g>
                </g>
                <g id="g.-illustration/Backgrounds/Props/Cloud-02" mask="url(#mask-2)" fill="#C3DEE7">
                    <g transform="translate(-57.000000, 90.000000)" id="Primary-color">
                        <path d="M71.2831625,114.074864 C83.8598821,112.009639 97.0602376,117.166666 103.817231,127.828263 C112.427881,141.413926 107.317417,158.783746 92.4064063,166.626271 C85.9089179,170.043639 78.6210406,171.0865 71.7535457,170.052863 L71.7530457,170.054457 L71.7472956,170.05218 C71.1285348,169.959486 70.5140241,169.846181 69.9018884,169.718414 C68.6529916,169.608639 66.7189578,169.604198 63.9302841,170.007199 C61.5276172,170.354402 58.5699405,171.067142 55.9581449,171.774187 C53.8482331,172.578823 51.6986955,173.213673 49.5264076,173.673725 C49.5082823,173.679305 49.5000322,173.682379 49.5000322,173.682379 L49.4971571,173.679988 C32.6404878,177.229565 14.5205464,170.573382 5.41976251,156.213602 C-5.7373073,138.609201 0.88380831,116.098866 20.2083957,105.935013 C37.4263213,96.8791575 58.9103215,100.687798 71.2831625,114.074864"></path>
                    </g>
                </g>
                <g id="g.-illustration/Backgrounds/Props/Mountain" mask="url(#mask-2)" fill="#C3DEE7">
                    <g transform="translate(652.000000, -50.000000)" id="Primary-color">
                        <path d="M0,512.167698 L568,512.167698 L323.122329,106.606484 C305.739833,77.7978386 262.23674,77.7978386 244.830817,106.606484 L0,512.167698 Z"></path>
                    </g>
                </g>
                <g id="g.-illustration/Backgrounds/Props/Cloud-02" mask="url(#mask-2)" fill="#DEEDF2">
                    <g transform="translate(861.000000, 80.493243) scale(-1, 1) translate(-861.000000, -80.493243) translate(812.000000, -58.000000)" id="Primary-color">
                        <path d="M64.6828697,114.427665 C76.0950782,112.306714 88.0731785,117.602893 94.204524,128.552174 C102.017892,142.504421 97.3806188,160.342933 83.8502576,168.397074 C77.9543884,171.906654 71.3413146,172.977655 65.1096989,171.916127 L65.1092452,171.917764 L65.1040275,171.915425 C64.5425593,171.82023 63.9849478,171.703868 63.4294913,171.572653 C62.2962331,171.459916 60.5412765,171.455356 58.0108134,171.869231 C55.8306156,172.225802 53.1467979,172.957774 50.7768352,173.683898 C48.8622856,174.510245 46.9117793,175.162225 44.9406291,175.634691 C44.9241821,175.640421 44.9166958,175.643579 44.9166958,175.643579 L44.914087,175.641123 C29.6182204,179.286478 13.1760514,172.450692 4.91793265,157.703439 C-5.20607514,139.624016 0.801974207,116.506281 18.337248,106.068175 C33.9609212,96.7679642 53.4556621,100.679374 64.6828697,114.427665"></path>
                    </g>
                </g>
                <g id="Ellipsis" mask="url(#mask-2)">
                    <g transform="translate(90.000000, 26.000000)">
                        <use id="Rectangle" stroke="#9BC3D3" mask="url(#mask-4)" stroke-width="2" fill="none" stroke-dasharray="2,4" xlink:href="#path-3"></use>
                        <circle id="Oval" stroke="none" fill="#9E3667" fill-rule="evenodd" cx="518" cy="4" r="4"></circle>
                        <circle id="Oval" stroke="none" fill="#1BB3BC" fill-rule="evenodd" cx="11" cy="270" r="4"></circle>
                        <circle id="Oval" stroke="none" fill="#FFCC33" fill-rule="evenodd" cx="752" cy="275" r="4"></circle>
                    </g>
                </g>
                <g id="Device" mask="url(#mask-2)">
                    <g transform="translate(198.000000, 29.000000)">
                        <g id="g.-illustration/Objects/Devices/Desktop-Computer">
                            <g id="Group-8" transform="translate(2.025000, 31.725000)">
                                <g id="Group-7">
                                    <polygon id="Secondary-stand" fill="#9BC3D3" points="237.042947 475.986316 299.135368 475.986316 299.135368 287.383737 237.042947 287.383737"></polygon>
                                    <path d="M27.2775789,378.241105 L508.902632,378.241105 C523.965789,378.241105 536.172632,366.031895 536.172632,350.970158 L536.172632,27.2681053 C536.172632,12.2063684 523.965789,0 508.902632,0 L27.2775789,0 C12.2092105,0 0,12.2063684 0,27.2681053 L0,350.970158 C0,366.031895 12.2092105,378.241105 27.2775789,378.241105" id="Primary-color" fill="#9BC3D3"></path>
                                    <polygon id="Display" fill="#FFFFFF" points="20.9974737 318.966158 515.173263 318.966158 515.173263 20.4423158 20.9974737 20.4423158"></polygon>
                                    <path d="M250.795895,346.841053 C250.795895,356.393368 258.536842,364.137158 268.090579,364.137158 C277.641947,364.137158 285.385263,356.393368 285.385263,346.841053 C285.385263,337.289684 277.641947,329.546368 268.090579,329.546368 C258.536842,329.546368 250.795895,337.289684 250.795895,346.841053" id="Secondary-color" fill="#DEEDF2"></path>
                                    <polygon id="Stand" fill="#C3DEE7" points="166.053789 475.986316 370.118842 475.986316 370.118842 461.981368 166.053789 461.981368"></polygon>
                                </g>
                            </g>
                        </g>
                        <g id="Content" transform="translate(23.000000, 52.000000)">
                            <rect id="Rectangle" fill="#E8F3F6" x="0" y="0" width="495" height="305"></rect>
                            <rect id="Rectangle" fill="#FFFFFF" x="108" y="21" width="135.022222" height="93"></rect>
                            <rect id="Rectangle" fill="#CEDEE7" x="108" y="223.533333" width="278.311111" height="28.9333333"></rect>
                            <rect id="Rectangle" fill="#FFFFFF" x="108" y="122.266667" width="135.022222" height="93"></rect>
                            <rect id="Rectangle" fill="#FFFFFF" x="251.288889" y="21" width="135.022222" height="93"></rect>
                            <rect id="Rectangle" fill="#FFFFFF" x="251.288889" y="122.266667" width="135.022222" height="93"></rect>
                            <rect id="Rectangle" fill="#FAB2B2" x="157.6" y="86.1" width="35.8222222" height="14.1222222" rx="7.06111111"></rect>
                            <rect id="Rectangle" fill="#FAB2B2" x="278.844444" y="86.1" width="35.8222222" height="14.1222222" rx="7.06111111"></rect>
                            <rect id="Rectangle" fill="#FAB2B2" x="135.555556" y="187.366667" width="35.8222222" height="14.1222222" rx="7.06111111"></rect>
                            <rect id="Rectangle" fill="#FAB2B2" x="322.933333" y="86.1" width="35.8222222" height="14.1222222" rx="7.06111111"></rect>
                            <rect id="Rectangle" fill="#FAB2B2" x="179.644444" y="187.366667" width="35.8222222" height="14.1222222" rx="7.06111111"></rect>
                            <rect id="Rectangle" fill="#CEDEE7" x="267.822222" y="180.477778" width="101.955556" height="13.7777778"></rect>
                            <rect id="Rectangle" fill="#CCCCCC" x="136.933333" y="166.011111" width="77.5" height="5.85555556"></rect>
                            <rect id="Rectangle" fill="#CCCCCC" x="127.977778" y="66.8111111" width="95.4111111" height="5.85555556"></rect>
                            <rect id="Rectangle" fill="#CCCCCC" x="280.911111" y="66.8111111" width="76.1222222" height="5.85555556"></rect>
                            <rect id="Rectangle" fill="#CCCCCC" x="280.911111" y="166.011111" width="76.1222222" height="5.85555556"></rect>
                            <rect id="Rectangle" fill="#9BC3D3" x="166.9" y="39.2555556" width="17.5666667" height="17.5666667"></rect>
                            <rect id="Rectangle" fill="#9BC3D3" x="310.188889" y="39.2555556" width="17.5666667" height="17.5666667"></rect>
                            <rect id="Rectangle" fill="#9BC3D3" x="166.9" y="138.455556" width="17.5666667" height="17.5666667"></rect>
                            <rect id="Rectangle" fill="#9BC3D3" x="310.188889" y="138.455556" width="17.5666667" height="17.5666667"></rect>
                        </g>
                    </g>
                </g>
            </g>
        </g>
    </g>
</svg>