<svg xmlns="http://www.w3.org/2000/svg" width="201" height="52" viewBox="0 0 201 52">
    <path fill="#EC0000" d="M84.324 25.618c0-6.157 3.21-10.159 8.77-10.159 5.847 0 8.798 4.418 8.798 10.22 0 6.114-3.21 10.159-8.742 10.159-5.818 0-8.826-4.362-8.826-10.22zm15.477.142c0-5.323-2.494-8.438-6.707-8.438-4.213 0-6.678 3.056-6.678 8.21 0 5.35 2.493 8.437 6.734 8.437 4.242 0 6.65-3.087 6.65-8.21zm16.848-.081v9.456h-2.02v-9.091c0-2.598-1.011-3.95-4.56-3.95-1.126.01-2.25.14-3.346.392v12.65h-2.02V21.161c1.766-.485 3.588-.748 5.424-.784 4.875-.006 6.522 1.923 6.522 5.3zm15.342 3.118h-10.498c.256 3.423 2.037 5.267 5.261 5.267 1.664.014 3.302-.41 4.754-1.23-.07.644-.173 1.284-.308 1.917-1.415.828-2.886 1.087-4.498 1.087-4.725 0-7.243-2.892-7.243-7.817 0-4.265 1.924-7.643 6.564-7.643 4.245 0 6.085 2.948 6.085 6.644.003.594-.036 1.186-.117 1.774zm-10.498-1.806h8.615v-.113c0-2.836-1.36-4.753-4.16-4.753s-4.23 1.89-4.455 4.866zm27.259-8.925h-6.184v17.772h-1.947V18.066h-6.405c.034-.64.108-1.275.222-1.904h14.535c-.035.639-.109 1.274-.221 1.904zm7.95 2.435c.008.577-.059 1.151-.197 1.71-.712-.081-1.43-.12-2.147-.112-.918.01-1.832.112-2.73.305v12.731h-1.952V21.111c1.5-.47 3.06-.716 4.63-.732.8-.007 1.6.033 2.397.122zm13.352.678v14.317h-1.904l-.058-1.118c-1.095.951-2.51 1.471-3.972 1.46-4.146 0-6.715-2.72-6.715-7.613 0-5.039 2.54-7.843 7.766-7.843 1.665-.037 3.32.232 4.883.797zm-5.753 12.993c1.39.018 2.727-.515 3.708-1.478V22.489c-.923-.24-1.876-.355-2.832-.345-3.91 0-5.692 2.234-5.692 6.068 0 3.691 1.635 5.954 4.816 5.954v.007zm20.51-18.01v20.036h-1.89l-.086-1.217c-.983.936-2.347 1.56-4.412 1.56-3.68 0-6.26-2.727-6.26-7.63 0-5.106 2.52-7.86 7.562-7.86 1.028-.002 2.052.133 3.044.402v-4.991c.66-.204 1.349-.305 2.042-.3zm-5.855 18.716c1.433.003 2.81-.559 3.825-1.56V23.275c-1.018-.288-2.07-.443-3.129-.458-3.652 0-5.42 2.151-5.42 6.082 0 3.7 1.595 5.967 4.724 5.967v.013-.001zm21.89-6.081h-10.49c.254 3.423 2.036 5.267 5.263 5.267 1.663.014 3.301-.41 4.754-1.23-.058.513-.172 1.286-.308 1.917-1.412.828-2.886 1.087-4.498 1.087-4.726 0-7.243-2.892-7.243-7.817 0-4.265 1.924-7.643 6.566-7.643 4.243 0 6.083 2.948 6.083 6.644.001.594-.04 1.187-.127 1.774zM190.35 26.99h8.615v-.113c0-2.836-1.36-4.753-4.16-4.753s-4.221 1.89-4.449 4.866h-.006zM33.758 20.283c-.073-1.622-.538-3.202-1.358-4.61L25.036 3.052c-.555-.947-.95-1.978-1.167-3.051l-.313.527c-1.824 3.122-1.824 6.968 0 10.09l5.894 10.09c1.824 3.123 1.824 6.97 0 10.095l-.314.527c-.22-1.073-.613-2.104-1.166-3.052l-5.398-9.24-3.449-5.885c-.553-.948-.946-1.978-1.163-3.05l-.313.526c-1.819 3.11-1.825 6.943-.016 10.06l5.916 10.126c1.824 3.123 1.824 6.97 0 10.092l-.314.527c-.219-1.073-.613-2.104-1.166-3.052l-7.37-12.614c-.973-1.662-1.444-3.566-1.358-5.485C5.45 22.32 0 26.645 0 31.653 0 38.622 10.54 44.27 23.54 44.27c13.001 0 23.541-5.65 23.541-12.616.013-5.009-5.43-9.336-13.323-11.371zM65.35 0h2.108v52h-2.108V0z"/>
</svg>
