<?xml version="1.0" encoding="UTF-8"?>
<svg width="48px" height="48px" viewBox="0 0 48 48" version="1.1" xmlns="http://www.w3.org/2000/svg" xmlns:xlink="http://www.w3.org/1999/xlink">
    <!-- Generator: Sketch 64 (93537) - https://sketch.com -->
    <title>Exportar_48px</title>
    <desc>Created with Sketch.</desc>
    <g id="Exportar_48px" stroke="none" stroke-width="1" fill="none" fill-rule="evenodd">
        <g id="d.-logo-/-symbol-/-red" fill="#EC0000">
            <path d="M28.9876011,19.8486006 L24.8934713,12.7228649 C24.5812839,12.1794285 24.365556,11.5971502 24.2457652,11 L24.0747847,11.2977878 C23.0614379,13.0615941 23.0614379,15.23429 24.0746105,16.9980964 L27.3500536,22.6989299 C28.3632263,24.4625613 28.3632263,26.6356072 27.3500536,28.3994135 L27.178899,28.6972013 C27.0591082,28.1000511 26.8433803,27.5177728 26.5311929,26.9743364 L21.6182023,18.4233485 C21.3060149,17.8799121 21.0904611,17.2976338 20.9704962,16.7004836 L20.7995157,16.9982714 C19.7896512,18.756129 19.7865172,20.9202517 20.7895911,22.6809087 L24.0747847,28.3994135 C25.0881314,30.1630449 25.0881314,32.3360908 24.0747847,34.0998971 L23.90363,34.3976849 C23.7838392,33.8005347 23.5681113,33.2182564 23.2559239,32.6749949 L19.1619682,25.5490842 C18.6128109,24.593434 18.3619118,23.5175838 18.4078781,22.4517066 C14.0250664,23.6024411 11,26.0456305 11,28.8744392 C11,32.8097168 16.8537315,36 24.0747847,36 C31.2956637,36 37.1493952,32.8097168 37.1493952,28.8744392 C37.1493952,26.0454555 34.1246771,23.6015663 29.7415171,22.4510067 C29.7026896,21.55012 29.4517905,20.6564068 28.9876011,19.8486006 Z" id="🔒-color-locked"></path>
        </g>
    </g>
</svg>