<svg xmlns="http://www.w3.org/2000/svg" width="138" height="48" viewBox="0 0 138 48">
    <g fill="none" fill-rule="evenodd">
        <g fill="#D9292A">
            <g>
                <g>
                    <path d="M61.81 0v48h-1.84V0h1.84zm43.332 32.373c1.63 0 2.999.21 4.393.736v13.15h-1.71l-.052-1.026c-.895.789-2.105 1.341-3.578 1.341-3.736 0-6.051-2.498-6.051-6.996 0-4.628 2.289-7.205 6.998-7.205zm18.52-4.471v18.357h-1.71l-.079-1.105c-.894.868-2.13 1.42-3.998 1.42-3.341 0-5.683-2.498-5.683-6.996 0-4.68 2.29-7.205 6.867-7.205.973 0 1.894.131 2.762.368v-4.576c.552-.184 1.236-.263 1.841-.263zm8.682 4.47c3.946 0 5.656 2.71 5.656 6.102 0 .552-.026 1.104-.106 1.63h-9.76c.237 3.156 1.895 4.84 4.894 4.84 1.42 0 2.999-.316 4.42-1.131-.053.473-.159 1.183-.29 1.762-1.315.762-2.683 1-4.183 1-4.393 0-6.735-2.657-6.735-7.18 0-3.919 1.79-7.022 6.104-7.022zm-42.04-4.312c-.026.473-.105 1.262-.21 1.761h-5.84V46.26H82.41V29.82h-6.05c.026-.473.105-1.262.21-1.761h13.733zm4.972 4.365c.868 0 1.684.027 2.262.105 0 .605-.078 1.263-.183 1.605-.606-.08-1.29-.105-2.026-.105-.763 0-1.71.105-2.578.289v11.94h-1.842v-13.15c1.157-.395 2.946-.684 4.367-.684zm9.866 1.578c-3.526 0-5.13 2.051-5.13 5.575 0 3.393 1.473 5.47 4.34 5.47 1.369 0 2.473-.499 3.341-1.34v-9.39c-.789-.21-1.604-.315-2.551-.315zm13.838 0c-3.315 0-4.92 1.973-4.92 5.575 0 3.393 1.447 5.47 4.288 5.47 1.395 0 2.579-.551 3.473-1.42v-9.204c-.947-.263-1.947-.42-2.841-.42zM21.762 0c.197.976.551 1.928 1.064 2.816l6.726 11.646c.763 1.32 1.175 2.781 1.239 4.254 7.2 1.88 12.17 5.874 12.17 10.498 0 6.432-9.617 11.646-21.48 11.646C9.617 40.86 0 35.646 0 29.214c0-4.623 4.97-8.617 12.17-10.497-.075 1.742.337 3.5 1.24 5.062l6.725 11.647c.513.888.868 1.84 1.065 2.816l.28-.487c1.666-2.883 1.666-6.435 0-9.318l-5.397-9.345c-1.648-2.878-1.642-6.416.017-9.288l.28-.487c.198.976.552 1.928 1.065 2.816l8.072 13.976c.513.888.867 1.84 1.064 2.815l.28-.487c1.666-2.882 1.666-6.434 0-9.316l-5.38-9.318c-1.665-2.882-1.665-6.434 0-9.316zm110.503 33.977c-2.631 0-3.92 1.736-4.13 4.47h7.997v-.104c0-2.604-1.263-4.366-3.867-4.366zM85.2 1.392c5.367 0 8.077 4.103 8.077 9.494 0 5.68-2.947 9.441-8.024 9.441-5.34 0-8.103-4.05-8.103-9.494 0-5.706 2.946-9.441 8.05-9.441zm30.464 4.681c3.947 0 5.657 2.71 5.657 6.102 0 .552-.027 1.104-.106 1.63h-9.76c.237 3.156 1.895 4.84 4.894 4.84 1.42 0 2.998-.316 4.42-1.132-.053.474-.159 1.184-.29 1.762-1.315.763-2.683 1-4.183 1-4.394 0-6.735-2.657-6.735-7.18 0-3.919 1.789-7.022 6.103-7.022zm-14.469 0c4.446 0 5.946 1.815 5.946 4.997v8.89h-1.842v-8.548c0-2.446-.92-3.708-4.156-3.708-.948 0-2.053.131-3.052.368V19.96h-1.842V6.81c1.763-.473 3.473-.736 4.946-.736zM85.2 3.128c-3.893 0-6.13 2.84-6.13 7.626 0 4.97 2.29 7.838 6.183 7.838s6.103-2.867 6.103-7.627c0-4.944-2.288-7.837-6.156-7.837zm30.386 4.55c-2.631 0-3.92 1.735-4.13 4.47h7.997v-.105c0-2.603-1.263-4.366-3.867-4.366z" transform="translate(-108 -1991) translate(0 1967) translate(108 24)"/>
                </g>
            </g>
        </g>
    </g>
</svg>
