<svg xmlns="http://www.w3.org/2000/svg" width="271" height="29" viewBox="0 0 271 29">
    <g fill="none" fill-rule="evenodd">
        <g fill="#FFF">
            <g>
                <path d="M173.319 17.173c0-5.012-2.317-7.944-6.231-7.944-3.94 0-6.204 2.88-6.204 7.73 0 5.038 2.317 7.944 6.257 7.944 3.941 0 6.178-2.906 6.178-7.73m-14.379-.133c0-5.785 2.982-9.57 8.148-9.57 5.432 0 8.174 4.158 8.174 9.623 0 5.758-2.982 9.57-8.12 9.57-5.406 0-8.202-4.106-8.202-9.623M189.295 17.28v9.01h-1.864v-8.664c0-2.479-.932-3.759-4.207-3.759-.958 0-2.077.134-3.088.374v12.048h-1.864V12.961c1.784-.48 3.514-.746 5.005-.746 4.5 0 6.018 1.84 6.018 5.064M193.662 18.372h8.095v-.106c0-2.64-1.278-4.425-3.914-4.425-2.663 0-3.968 1.76-4.18 4.531m9.878 1.68h-9.879c.24 3.198 1.917 4.904 4.953 4.904 1.438 0 3.035-.32 4.473-1.146-.053.48-.16 1.2-.293 1.786-1.331.773-2.716 1.013-4.233 1.013-4.447 0-6.817-2.692-6.817-7.277 0-3.972 1.81-7.117 6.178-7.117 3.994 0 5.724 2.745 5.724 6.184 0 .56-.026 1.12-.106 1.653M222.233 9.63h-5.911v16.659h-1.864V9.629h-6.124c.027-.48.106-1.28.213-1.786h13.899c-.027.48-.106 1.28-.213 1.786M229.769 12.375c0 .613-.08 1.28-.186 1.626-.613-.08-1.305-.107-2.05-.107-.773 0-1.732.107-2.61.293V26.29h-1.864V12.961c1.172-.4 2.982-.693 4.42-.693.879 0 1.704.027 2.29.107M236.666 25.063c1.384 0 2.502-.507 3.381-1.36v-9.516c-.799-.213-1.624-.32-2.583-.32-3.568 0-5.192 2.08-5.192 5.652 0 3.438 1.491 5.544 4.394 5.544m5.245-12.102V26.29h-1.73l-.054-1.04c-.905.8-2.13 1.36-3.621 1.36-3.781 0-6.124-2.532-6.124-7.09 0-4.692 2.316-7.304 7.082-7.304 1.651 0 3.036.213 4.447.746M250.832 25.063c1.41 0 2.609-.56 3.514-1.44v-9.329c-.958-.267-1.97-.426-2.875-.426-3.355 0-4.98 1.999-4.98 5.65 0 3.44 1.465 5.545 4.34 5.545m5.38-17.38V26.29h-1.732l-.08-1.12c-.905.88-2.156 1.44-4.047 1.44-3.381 0-5.751-2.532-5.751-7.09 0-4.745 2.316-7.304 6.95-7.304.985 0 1.917.133 2.795.373V7.95c.56-.187 1.252-.267 1.864-.267M260.737 18.372h8.094v-.106c0-2.64-1.278-4.425-3.914-4.425-2.662 0-3.967 1.76-4.18 4.531m9.878 1.68h-9.878c.24 3.198 1.917 4.904 4.952 4.904 1.438 0 3.036-.32 4.474-1.146-.054.48-.16 1.2-.293 1.786-1.331.773-2.716 1.013-4.234 1.013-4.447 0-6.816-2.692-6.816-7.277 0-3.972 1.81-7.117 6.177-7.117 3.994 0 5.725 2.745 5.725 6.184 0 .56-.027 1.12-.107 1.653M153.968 12.319c0 .88-.106 1.946-.266 2.506-.693-.08-1.385-.107-2.21-.107-.72 0-1.438.053-2.157.16v11.41h-2.93v-13.33c1.252-.426 3.356-.746 5.006-.746.906 0 1.918.027 2.557.107m-19.653 5.811h6.604c0-2.186-1.172-3.466-3.195-3.466-2.077 0-3.17 1.2-3.409 3.466m9.4 2.453h-9.347c.373 2.372 1.758 3.519 4.367 3.519 1.598 0 3.223-.347 4.687-1.013-.106.773-.266 1.786-.452 2.665-1.332.614-2.743.854-4.314.854-4.9 0-7.27-2.72-7.27-7.278 0-3.972 1.837-7.118 6.497-7.118 4.181 0 5.992 2.746 5.992 6.105 0 .826-.053 1.493-.16 2.266m-17.629 2.612v-8.21c-.772-.16-1.571-.267-2.343-.267-2.903 0-4.288 1.813-4.288 4.852 0 2.719 1.092 4.638 3.702 4.638 1.171 0 2.13-.4 2.93-1.013m2.902-15.568v18.66h-2.69l-.16-1.705c-.745 1.253-1.89 2.026-3.808 2.026-3.515 0-5.858-2.56-5.858-7.038 0-4.692 2.503-7.358 7.43-7.358.772 0 1.49.08 2.183.213V8.027c.906-.32 1.944-.4 2.903-.4m-14.86 9.704v8.957h-2.93v-8.451c0-2.106-.692-3.12-3.62-3.12-.693 0-1.519.08-2.318.214v11.357h-2.929v-13.33c1.864-.453 3.915-.746 5.326-.746 4.9 0 6.47 1.893 6.47 5.119m-17.921 5.917v-8.37c-.612-.107-1.278-.16-2.104-.16-3.036 0-4.447 1.866-4.447 4.852 0 2.719 1.092 4.638 3.701 4.638 1.146 0 2.078-.373 2.85-.96m2.93-10.29v13.33h-2.69l-.16-1.6c-.746 1.173-1.891 1.92-3.755 1.92-3.515 0-5.858-2.56-5.858-7.038 0-4.692 2.503-7.358 7.43-7.358 1.916 0 3.488.213 5.032.746M83.424 24.102c.852 0 1.651-.16 2.29-.4-.08.8-.186 1.706-.346 2.479-.799.32-1.65.427-2.476.427-2.85 0-4.66-1.307-4.66-4.56V8.054c.905-.293 2.023-.426 2.929-.426v5.038h4.633c-.053.907-.133 1.733-.266 2.506h-4.367v6.531c0 1.733.852 2.4 2.263 2.4m-8.122-6.771v8.957h-2.93v-8.451c0-2.106-.692-3.12-3.621-3.12-.693 0-1.518.08-2.317.214v11.357h-2.929v-13.33c1.864-.453 3.914-.746 5.326-.746 4.9 0 6.47 1.893 6.47 5.119M57.38 23.248v-8.37c-.613-.107-1.279-.16-2.104-.16-3.036 0-4.447 1.866-4.447 4.852 0 2.719 1.092 4.638 3.701 4.638 1.145 0 2.077-.373 2.85-.96m2.929-10.29v13.33h-2.69l-.16-1.6c-.745 1.173-1.89 1.92-3.754 1.92-3.515 0-5.858-2.56-5.858-7.038 0-4.692 2.503-7.358 7.43-7.358 1.916 0 3.487.213 5.032.746M33.706 25.701c.053-1.093.213-1.84.506-2.692 1.491.693 3.408 1.04 4.873 1.04 2.476 0 3.861-.8 3.861-2.373 0-1.547-1.012-2.266-3.515-3.36l-1.358-.586c-2.503-1.093-4.208-2.506-4.208-5.331 0-3.04 2.104-4.985 6.418-4.985 1.731 0 3.355.24 4.873.773-.08 1.066-.266 1.892-.532 2.666-1.438-.534-3.142-.774-4.368-.774-2.316 0-3.381.907-3.381 2.32 0 1.386 1.038 2.186 2.902 2.986l1.438.613c3.382 1.44 4.793 2.959 4.793 5.544 0 3.066-2.316 5.172-6.843 5.172-2.184 0-3.968-.32-5.46-1.013M20.322 12.558c-.042-.973-.314-1.938-.817-2.81l-4.44-7.698c-.338-.587-.572-1.216-.702-1.861l-.185.321c-1.1 1.906-1.1 4.253 0 6.158l3.551 6.158c1.099 1.905 1.099 4.253 0 6.158l-.186.322c-.13-.645-.363-1.274-.702-1.862l-3.251-5.637-2.076-3.6c-.338-.586-.572-1.216-.702-1.86l-.186.321c-1.095 1.899-1.098 4.237-.01 6.139l3.562 6.177c1.099 1.905 1.099 4.252 0 6.158l-.186.321c-.13-.645-.364-1.274-.702-1.86l-4.44-7.698c-.595-1.032-.867-2.195-.817-3.346C3.28 13.802 0 16.441 0 19.497c0 4.251 6.347 7.697 14.177 7.697 7.83 0 14.176-3.446 14.176-7.697 0-3.056-3.28-5.696-8.032-6.939" transform="translate(-108 -960) translate(108 960)"/>
            </g>
        </g>
    </g>
</svg>
