<svg xmlns="http://www.w3.org/2000/svg" width="200" height="201" viewBox="0 0 200 201">
    <g fill="none" fill-rule="evenodd">
        <g>
            <path fill="#9E3667" d="M182.37 55.071L24.97 138.705 0 84.778 27.943 68.778 51.524 55.277 151.258 0 173.084 38.635z" transform="translate(.25 17) translate(17.403 29.06)"/>
            <path fill="#732645" d="M151.258 0l21.826 38.635-8.67 20.39c-18.415 6.669-36.795 10.537-54.278 12.51-.978 8.81-6.192 16.987-14.646 21.384-13.473 7.005-30.073 1.763-37.078-11.709-1.497-2.879-2.435-5.9-2.852-8.94-10.268-.828-19.578-2.102-27.616-3.492l23.58-13.5 12.74-7.061c1.727-1.575 3.685-2.954 5.857-4.083 1.718-.893 3.487-1.587 5.28-2.09L151.259 0z" transform="translate(.25 17) translate(17.403 29.06)"/>
        </g>
        <path fill="#C3DEE7" d="M195.448 27.872L170.1 87.478c-84.37 30.56-168.005 2.326-168.005 2.326L22.062 4.03l110.73 15.226 39.483 5.43 23.173 3.186z" transform="translate(.25 17)"/>
        <path fill="#DEEDF2" d="M193.351 23.842l-25.346 59.606C83.637 114.008 0 85.774 0 85.774L19.966 0l110.73 15.226 39.483 5.429 23.172 3.187z" transform="translate(.25 17)"/>
        <path fill="#9BC3D3" d="M119.017 42.512c7.548 14.516 1.9 32.403-12.616 39.95-14.514 7.549-32.402 1.9-39.95-12.616-7.548-14.516-1.9-32.402 12.617-39.95 14.517-7.548 32.404-1.9 39.949 12.616zM54.183 25.643c3.06 5.884.77 13.135-5.114 16.194-5.884 3.06-13.134.77-16.193-5.114-3.06-5.884-.77-13.134 5.114-16.194 5.884-3.06 13.134-.77 16.193 5.114z" transform="translate(.25 17)"/>
    </g>
</svg>
