<svg xmlns="http://www.w3.org/2000/svg" width="251" height="400" viewBox="0 0 251 400">
    <g fill="none" fill-rule="evenodd">
        <g>
            <g>
                <g>
                    <g>
                        <g>
                            <path fill="#9BC3D3" d="M154.822 398.947L176.168 398.947 176.168 133.447 154.822 133.447z" transform="translate(-1114 -629) translate(0 554) translate(0 40) matrix(-1 0 0 1 1365 35) translate(0 .5)"/>
                            <g fill="#C3DEE7">
                                <path d="M1.378 135.857c-1.825-.124-1.843-2.796-.018-2.94l145.09-11.425 18.482 11.537c.315.195.319.644.007.847l-18.348 11.743-145.213-9.762z" transform="translate(-1114 -629) translate(0 554) translate(0 40) matrix(-1 0 0 1 1365 35) translate(0 .5)"/>
                                <path d="M249.959 311.715c.815 1.637-1.485 3.002-2.531 1.503l-83.119-158.416.623-21.773c.01-.37.402-.602.731-.431l19.402 9.907 64.894 169.21z" transform="translate(-1114 -629) translate(0 554) translate(0 40) matrix(-1 0 0 1 1365 35) translate(0 .5)"/>
                                <path d="M248.358 2.133c.797-1.648-1.52-2.984-2.545-1.474l-81.75 110.6.869 21.766c.018.373.41.597.735.427l19.286-10.128 63.405-121.19z" transform="translate(-1114 -629) translate(0 554) translate(0 40) matrix(-1 0 0 1 1365 35) translate(0 .5)"/>
                            </g>
                            <path fill="#DEEDF2" d="M176.183 133.345c0 5.99-4.856 10.845-10.841 10.845-5.99 0-10.842-4.856-10.842-10.845 0-5.985 4.852-10.845 10.842-10.845 5.985 0 10.841 4.86 10.841 10.845" transform="translate(-1114 -629) translate(0 554) translate(0 40) matrix(-1 0 0 1 1365 35) translate(0 .5)"/>
                        </g>
                    </g>
                </g>
            </g>
        </g>
    </g>
</svg>
