<svg xmlns="http://www.w3.org/2000/svg" xmlns:xlink="http://www.w3.org/1999/xlink" width="32" height="32" viewBox="0 0 32 32">
    <defs>
        <circle id="a" cx="16" cy="16" r="16"/>
    </defs>
    <g fill="none" fill-rule="evenodd">
        <mask id="b" fill="#fff">
            <use xlink:href="#a"/>
        </mask>
        <use fill="#FFF" xlink:href="#a"/>
        <g fill-rule="nonzero" mask="url(#b)">
            <path fill="#A2A2A2" d="M27.389 32.711H4.331c-1.287-.002-2.33-1.078-2.331-2.406v-1.153c0-2.612 3.213-4.733 7.168-4.733.852.036 1.7.14 2.538.311l.532.09c.636.109 1.284.25 1.928.423l.311.09c.454.151.925.239 1.4.26a8.444 8.444 0 0 0 1.778-.36l.659-.181a19.27 19.27 0 0 1 4.241-.636c4.151 0 7.165 1.99 7.165 4.733V30.3c-.002 1.328-1.044 2.404-2.331 2.406"/>
            <path fill="#7C7C7C" d="M18.026 25.536a.687.687 0 0 0-.7-.22 8.845 8.845 0 0 1-1.452.278 3.055 3.055 0 0 1-.599-.065l.291.068.311.09c.454.151.925.239 1.4.26.914 0 .938-.216.781-.411"/>
            <path fill="#8F8F8F" d="M14.6 25.366l-.119-.033-.312-.09a20.958 20.958 0 0 0-1.928-.423l-.532-.09a16.109 16.109 0 0 0-2.537-.31C5.216 24.42 2 26.54 2 29.151v1.153c.002 1.328 1.044 2.404 2.331 2.406h6.157l4.112-7.345z"/>
            <path fill="#7C7C7C" d="M14.166 25.243a20.958 20.958 0 0 0-1.928-.423l-.532-.09a16.109 16.109 0 0 0-2.538-.31C5.216 24.42 2 26.54 2 29.151v1.153c.002 1.328 1.044 2.404 2.331 2.406h.175A2.42 2.42 0 0 1 3.4 30.659v-1.153c0-2.608 3.216-4.733 7.168-4.733.852.037 1.7.14 2.537.311l.532.094c.326.05.651.116.98.188l-.126-.033-.311-.09"/>
            <path fill="#F6DBD8" d="M15.857 21.866c-2.86.079-5.312-2.093-5.67-5.022l-.746-6.142a5.334 5.334 0 0 1 1.193-4.263c1.325-1.546 3.227-2.431 5.226-2.431s3.901.885 5.226 2.43a5.341 5.341 0 0 1 1.19 4.275l-.742 6.142c-.368 2.926-2.82 5.09-5.677 5.01"/>
            <path fill="#F2CBC9" d="M11.306 15.727L10.4 8.202a6.337 6.337 0 0 1-.07-1.359 5.296 5.296 0 0 0-.886 3.848l.746 6.142c.359 2.93 2.81 5.101 5.67 5.022.38 0 .757-.035 1.13-.105-2.988-.491-5.19-2.789-5.683-6.023"/>
            <path fill="#DADADA" d="M15.857 21.866c-2.86.079-5.312-2.093-5.67-5.022l-.746-6.142a5.334 5.334 0 0 1 1.193-4.263c1.325-1.546 3.227-2.431 5.226-2.431s3.901.885 5.226 2.43a5.341 5.341 0 0 1 1.19 4.275l-.742 6.142c-.368 2.926-2.82 5.09-5.677 5.01"/>
            <path fill="#C7C7C7" d="M11.306 15.727L10.4 8.202a6.337 6.337 0 0 1-.07-1.359 5.296 5.296 0 0 0-.886 3.848l.746 6.142c.359 2.93 2.81 5.101 5.67 5.022.38 0 .757-.035 1.13-.105-2.988-.491-5.19-2.789-5.683-6.023"/>
            <path fill="#C7C7C7" d="M10.634 6.428a5.334 5.334 0 0 0-1.193 4.263l.476 3.916L15.846 4c-1.993.007-3.888.89-5.212 2.428" opacity=".4"/>
            <path fill="#C7C7C7" d="M10.4 8.202a6.337 6.337 0 0 1-.07-1.359 5.296 5.296 0 0 0-.886 3.848l.476 3.916 1.033-1.846-.553-4.56z" opacity=".3"/>
        </g>
    </g>
</svg>
