<svg xmlns="http://www.w3.org/2000/svg" width="124" height="124" viewBox="0 0 124 124">
    <g fill="none" fill-rule="evenodd">
        <g fill="#000" fill-rule="nonzero">
            <g>
                <g>
                    <g>
                        <g>
                            <path d="M74.256 0H79.303V5.047H74.256zM0 0v34.605h34.605V0H0zm29.661 29.661H4.944V4.944H29.66V29.66z" transform="translate(-653 -4505) translate(0 4128) translate(460 148) translate(64 125) translate(129 104)"/>
                            <path d="M74.576 34.867v-4.981h4.887v4.98h4.886v-9.961h-9.773v-9.962h4.887V9.962h-4.887V4.98h-4.888v4.98h-4.886V0H50.145v4.981h-9.773v4.98h9.773v4.982h4.886v4.98h4.886v-4.98h9.771v9.962h-4.886v4.98h4.886v4.982h-4.886v-4.981h-4.887v4.98H55.03v-9.961h-4.884v14.943h4.886v4.98h9.773v-4.98h9.772v9.962h4.887v4.98h4.886V44.83h-4.886v-9.962h-4.887zM59.917 9.962h-4.886V4.98h4.886v4.98zM89.395 0v34.605H124V0H89.395zm29.661 29.661H94.34V4.944h24.717V29.66zM9.372 9.372H24.512V24.512H9.372z" transform="translate(-653 -4505) translate(0 4128) translate(460 148) translate(64 125) translate(129 104)"/>
                            <path d="M99.488 9.372H114.628V24.512H99.488zM44.698 19.465H49.745V24.512H44.698zM40.372 24.512H45.419V39.652H40.372zM19.826 40.372L39.651 40.372 39.651 45.328 29.738 45.328 29.738 50.285 39.651 50.285 39.651 60.198 34.695 60.198 34.695 55.241 24.782 55.241 24.782 60.198 19.826 60.198 19.826 65.154 14.869 65.154 14.869 80.023 9.913 80.023 9.913 70.109 0 70.109 0 60.198 9.913 60.198 9.913 55.241 0 55.241 0 50.285 9.913 50.285 9.913 45.328 14.869 45.328 14.869 55.241 19.826 55.241zM89.215 40.372L98.948 40.372 98.948 45.274 103.814 45.274 103.814 59.981 98.948 59.981 98.948 55.079 94.081 55.079 94.081 59.981 89.215 59.981 89.215 64.884 84.349 64.884 84.349 55.079 89.215 55.079zM114.628 40.372H119.675V45.419H114.628zM40.372 45.419L50.285 45.419 50.285 55.271 55.241 55.271 55.241 50.345 60.198 50.345 60.198 55.271 65.154 55.271 65.154 50.345 75.067 50.345 75.067 60.198 80.023 60.198 80.023 65.124 75.067 65.124 75.067 79.903 65.154 79.903 65.154 89.756 60.198 89.756 60.198 99.609 55.241 99.609 55.241 94.682 45.328 94.682 45.328 104.535 40.372 104.535 40.372 79.903 45.328 79.903 45.328 89.756 50.285 89.756 50.285 84.829 55.241 84.829 55.241 79.903 60.198 79.903 60.198 74.977 70.109 74.977 70.109 70.048 65.154 70.048 65.154 65.124 70.109 65.124 70.109 60.198 60.198 60.198 60.198 65.124 55.241 65.124 55.241 60.198 50.285 60.198 50.285 65.124 40.372 65.124 40.372 60.198 45.328 60.198 45.328 50.345 40.372 50.345z" transform="translate(-653 -4505) translate(0 4128) translate(460 148) translate(64 125) translate(129 104)"/>
                            <path d="M29.558 59.837H34.605V64.884H29.558zM49.847 64.884L54.791 64.884 54.791 79.483 49.847 79.483 49.847 74.616 39.96 74.616 39.96 79.483 35.017 79.483 35.017 74.616 30.073 74.616 30.073 79.483 35.017 79.483 35.017 84.349 25.13 84.349 25.13 79.483 20.186 79.483 20.186 74.616 25.13 74.616 25.13 69.748 49.847 69.748zM80.023 64.884L84.709 64.884 84.709 69.568 89.395 69.568 89.395 74.256 80.023 74.256zM0 78.581H9.372V83.628H0z" transform="translate(-653 -4505) translate(0 4128) translate(460 148) translate(64 125) translate(129 104)"/>
                            <path d="M114.051 59.597v-9.853h-4.974v19.704h-4.975v4.928h-4.974v-4.928h4.974V64.52h-4.974v-4.926h-4.975v4.926H89.18v4.927h4.974V79.3H74.256v19.708h4.974v4.926h9.95v4.926h9.948v-4.926h4.974v-4.926h4.975v9.852h4.974V89.155h-9.949v-4.926h9.95V64.523H124v-4.926h-9.949zm-14.923 39.41H84.205V84.23h14.923v14.779z" transform="translate(-653 -4505) translate(0 4128) translate(460 148) translate(64 125) translate(129 104)"/>
                            <path d="M114.628 84.349H124V89.396H114.628zM64.884 89.395H69.931V98.767H64.884zM89.395 89.395H94.442V94.442H89.395zM0 89.395V124h34.605V89.395H0zm29.661 29.661H4.944V94.34H29.66v24.717z" transform="translate(-653 -4505) translate(0 4128) translate(460 148) translate(64 125) translate(129 104)"/>
                            <path d="M9.372 99.488H24.512V114.628H9.372zM59.837 99.488H64.884V104.535H59.837zM69.209 99.488H74.256V104.535H69.209zM45.419 104.535L50.285 104.535 50.285 109.401 55.151 109.401 55.151 104.535 60.017 104.535 60.017 109.401 64.884 109.401 64.884 114.267 60.017 114.267 60.017 119.134 64.884 119.134 64.884 124 50.285 124 50.285 119.134 55.151 119.134 55.151 114.267 45.419 114.267z" transform="translate(-653 -4505) translate(0 4128) translate(460 148) translate(64 125) translate(129 104)"/>
                            <path d="M64.884 103.814H69.931V108.86099999999999H64.884z" transform="translate(-653 -4505) translate(0 4128) translate(460 148) translate(64 125) translate(129 104)"/>
                            <path d="M74.257 104.535L79.303 104.535 79.303 109.401 84.349 109.401 84.349 124 69.209 124 69.209 119.134 74.257 119.134 74.257 114.267 69.209 114.267 69.209 109.401 74.257 109.401zM118.953 103.814H124V108.86099999999999H118.953z" transform="translate(-653 -4505) translate(0 4128) translate(460 148) translate(64 125) translate(129 104)"/>
                            <path d="M104.226 108.86L109.169 108.86 109.169 113.907 114.113 113.907 114.113 108.86 119.056 108.86 119.056 118.953 124 118.953 124 124 109.169 124 109.169 118.953 89.395 118.953 89.395 113.907 104.226 113.907z" transform="translate(-653 -4505) translate(0 4128) translate(460 148) translate(64 125) translate(129 104)"/>
                        </g>
                    </g>
                </g>
            </g>
        </g>
    </g>
</svg>
