<svg xmlns="http://www.w3.org/2000/svg" xmlns:xlink="http://www.w3.org/1999/xlink" width="528" height="312" viewBox="0 0 528 312">
    <defs>
        <filter id="d9pkvlgdkb" width="110.5%" height="118.6%" x="-4.4%" y="-7.9%" filterUnits="objectBoundingBox">
            <feMorphology in="SourceAlpha" operator="dilate" radius="2" result="shadowSpreadOuter1"/>
            <feOffset dx="4" dy="4" in="shadowSpreadOuter1" result="shadowOffsetOuter1"/>
            <feGaussianBlur in="shadowOffsetOuter1" result="shadowBlurOuter1" stdDeviation="6"/>
            <feColorMatrix in="shadowBlurOuter1" values="0 0 0 0 0 0 0 0 0 0 0 0 0 0 0 0 0 0 0.04 0"/>
        </filter>
        <filter id="zatvizjqtc" width="105%" height="117.9%" x="-2%" y="-7.1%" filterUnits="objectBoundingBox">
            <feMorphology in="SourceAlpha" operator="dilate" radius=".5" result="shadowSpreadOuter1"/>
            <feOffset dx="1" dy="1" in="shadowSpreadOuter1" result="shadowOffsetOuter1"/>
            <feGaussianBlur in="shadowOffsetOuter1" result="shadowBlurOuter1" stdDeviation="1"/>
            <feComposite in="shadowBlurOuter1" in2="SourceAlpha" operator="out" result="shadowBlurOuter1"/>
            <feColorMatrix in="shadowBlurOuter1" values="0 0 0 0 0 0 0 0 0 0 0 0 0 0 0 0 0 0 0.04 0"/>
        </filter>
        <filter id="csdblaqspe" width="105%" height="117.9%" x="-2%" y="-7.1%" filterUnits="objectBoundingBox">
            <feMorphology in="SourceAlpha" operator="dilate" radius=".5" result="shadowSpreadOuter1"/>
            <feOffset dx="1" dy="1" in="shadowSpreadOuter1" result="shadowOffsetOuter1"/>
            <feGaussianBlur in="shadowOffsetOuter1" result="shadowBlurOuter1" stdDeviation="1"/>
            <feComposite in="shadowBlurOuter1" in2="SourceAlpha" operator="out" result="shadowBlurOuter1"/>
            <feColorMatrix in="shadowBlurOuter1" values="0 0 0 0 0 0 0 0 0 0 0 0 0 0 0 0 0 0 0.04 0"/>
        </filter>
        <filter id="53p67if2kg" width="105%" height="117.9%" x="-2%" y="-7.1%" filterUnits="objectBoundingBox">
            <feMorphology in="SourceAlpha" operator="dilate" radius=".5" result="shadowSpreadOuter1"/>
            <feOffset dx="1" dy="1" in="shadowSpreadOuter1" result="shadowOffsetOuter1"/>
            <feGaussianBlur in="shadowOffsetOuter1" result="shadowBlurOuter1" stdDeviation="1"/>
            <feComposite in="shadowBlurOuter1" in2="SourceAlpha" operator="out" result="shadowBlurOuter1"/>
            <feColorMatrix in="shadowBlurOuter1" values="0 0 0 0 0 0 0 0 0 0 0 0 0 0 0 0 0 0 0.04 0"/>
        </filter>
        <filter id="o0zwxqc0ci" width="105%" height="117.9%" x="-2%" y="-7.1%" filterUnits="objectBoundingBox">
            <feMorphology in="SourceAlpha" operator="dilate" radius=".5" result="shadowSpreadOuter1"/>
            <feOffset dx="1" dy="1" in="shadowSpreadOuter1" result="shadowOffsetOuter1"/>
            <feGaussianBlur in="shadowOffsetOuter1" result="shadowBlurOuter1" stdDeviation="1"/>
            <feComposite in="shadowBlurOuter1" in2="SourceAlpha" operator="out" result="shadowBlurOuter1"/>
            <feColorMatrix in="shadowBlurOuter1" values="0 0 0 0 0 0 0 0 0 0 0 0 0 0 0 0 0 0 0.04 0"/>
        </filter>
        <rect id="8piufm8bua" width="496" height="280" x="0" y="0" rx="4"/>
        <rect id="wghuoclx2d" width="200" height="56" x="0" y="0" rx="2"/>
        <rect id="1uponla2ef" width="200" height="56" x="0" y="0" rx="2"/>
        <rect id="7dthku0bgh" width="200" height="56" x="0" y="0" rx="2"/>
        <rect id="0tgdtl3c1j" width="200" height="56" x="0" y="0" rx="2"/>
    </defs>
    <g fill="none" fill-rule="evenodd" transform="translate(12 12)">
        <use fill="#000" filter="url(#d9pkvlgdkb)" xlink:href="#8piufm8bua"/>
        <use fill="#FFF" xlink:href="#8piufm8bua"/>
        <g transform="translate(256 173)">
            <use fill="#000" filter="url(#zatvizjqtc)" xlink:href="#wghuoclx2d"/>
            <rect width="199.5" height="55.5" x=".25" y=".25" fill="#F6FAFC" stroke="#CEDEE7" stroke-linejoin="square" stroke-width=".5" rx="2"/>
            <g fill="#444" font-family="SantanderMicroText, Santander Micro Text" font-size="6">
                <text transform="translate(152 40)">
                    <tspan x="29.26" y="6">EUR</tspan>
                </text>
                <text transform="translate(152 40)">
                    <tspan x="21.136" y="6">84</tspan>
                </text>
                <text transform="translate(152 40)">
                    <tspan x="19.386" y="6">,</tspan>
                </text>
                <text transform="translate(152 40)">
                    <tspan x=".226" y="6">34.928</tspan>
                </text>
            </g>
            <path fill="#DADADA" d="M8 40H60V46H8z"/>
            <g fill="#444" font-family="SantanderMicroText, Santander Micro Text">
                <text font-size="8" transform="translate(125 21)">
                    <tspan x="52.68" y="13">EUR</tspan>
                </text>
                <text font-size="8" transform="translate(125 21)">
                    <tspan x="41.848" y="13">21</tspan>
                </text>
                <text font-size="8" transform="translate(125 21)">
                    <tspan x="38.848" y="13">,</tspan>
                </text>
                <text font-size="12" transform="translate(125 21)">
                    <tspan x=".452" y="13">36.935</tspan>
                </text>
            </g>
            <path fill="#DADADA" d="M8 28H49V34H8z"/>
            <path fill="#EC0000" d="M144 12H192V16H144z"/>
            <text fill="#444" font-family="SantanderMicroText-Bd, Santander Micro Text" font-size="8" font-weight="bold">
                <tspan x="24" y="17">Bamboo Innovation</tspan>
            </text>
            <g fill="#444">
                <path d="M7.506 1c.94 0 1.748.746 1.748 1.65v7.574c.535.076 1.053.17 1.55.282.136.03.22.164.19.299-.03.135-.164.22-.299.189-1.433-.322-3.045-.494-4.717-.494-1.654 0-3.25.168-4.674.484-.135.03-.268-.055-.298-.19-.03-.135.055-.268.19-.298.5-.111 1.021-.204 1.558-.279V2.65c0-.911.754-1.65 1.685-1.65zm0 .49H4.439c-.654 0-1.184.52-1.184 1.16v7.503c.877-.1 1.791-.153 2.723-.153l-.228.002V8c0-.12.143-.222.333-.245l.084-.005c.23 0 .416.112.416.25v2.007c.741.018 1.468.07 2.17.152V2.65c0-.625-.578-1.159-1.247-1.159zm-2.84 6.76c.23 0 .417.112.417.25v.556c0 .138-.186.25-.416.25-.23 0-.417-.112-.417-.25V8.5c0-.138.187-.25.417-.25zm3 0c.23 0 .417.112.417.25v.556c0 .138-.186.25-.416.25-.23 0-.417-.112-.417-.25V8.5c0-.138.187-.25.417-.25zm-3-2c.23 0 .417.112.417.25v.556c0 .138-.186.25-.416.25-.23 0-.417-.112-.417-.25V6.5c0-.138.187-.25.417-.25zm1.5 0c.23 0 .417.112.417.25v.556c0 .138-.186.25-.416.25-.23 0-.417-.112-.417-.25V6.5c0-.138.187-.25.417-.25zm1.5 0c.23 0 .417.112.417.25v.556c0 .138-.186.25-.416.25-.23 0-.417-.112-.417-.25V6.5c0-.138.187-.25.417-.25zm-3-2c.23 0 .417.112.417.25v.556c0 .138-.186.25-.416.25-.23 0-.417-.112-.417-.25V4.5c0-.138.187-.25.417-.25zm1.5 0c.23 0 .417.112.417.25v.556c0 .138-.186.25-.416.25-.23 0-.417-.112-.417-.25V4.5c0-.138.187-.25.417-.25zm1.5 0c.23 0 .417.112.417.25v.556c0 .138-.186.25-.416.25-.23 0-.417-.112-.417-.25V4.5c0-.138.187-.25.417-.25zm-3-2c.23 0 .417.112.417.25v.556c0 .138-.186.25-.416.25-.23 0-.417-.112-.417-.25V2.5c0-.138.187-.25.417-.25zm1.5 0c.23 0 .417.112.417.25v.556c0 .138-.186.25-.416.25-.23 0-.417-.112-.417-.25V2.5c0-.138.187-.25.417-.25zm1.5 0c.23 0 .417.112.417.25v.556c0 .138-.186.25-.416.25-.23 0-.417-.112-.417-.25V2.5c0-.138.187-.25.417-.25z" transform="translate(8 8)"/>
            </g>
        </g>
        <g transform="translate(40 173)">
            <use fill="#000" filter="url(#csdblaqspe)" xlink:href="#1uponla2ef"/>
            <rect width="199.5" height="55.5" x=".25" y=".25" fill="#F6FAFC" stroke="#CEDEE7" stroke-linejoin="square" stroke-width=".5" rx="2"/>
            <g fill="#444" font-family="SantanderMicroText, Santander Micro Text" font-size="6">
                <text transform="translate(148 40)">
                    <tspan x="33.26" y="6">EUR</tspan>
                </text>
                <text transform="translate(148 40)">
                    <tspan x="25.136" y="6">73</tspan>
                </text>
                <text transform="translate(148 40)">
                    <tspan x="23.386" y="6">,</tspan>
                </text>
                <text transform="translate(148 40)">
                    <tspan x=".794" y="6">319.346</tspan>
                </text>
            </g>
            <path fill="#DADADA" d="M8 40H60V46H8z"/>
            <g fill="#444" font-family="SantanderMicroText, Santander Micro Text">
                <text font-size="8" transform="translate(118 21)">
                    <tspan x="59.68" y="13">EUR</tspan>
                </text>
                <text font-size="8" transform="translate(118 21)">
                    <tspan x="48.848" y="13">90</tspan>
                </text>
                <text font-size="8" transform="translate(118 21)">
                    <tspan x="45.848" y="13">,</tspan>
                </text>
                <text font-size="12" transform="translate(118 21)">
                    <tspan x=".588" y="13">412.359</tspan>
                </text>
            </g>
            <path fill="#DADADA" d="M8 28H49V34H8z"/>
            <path fill="#EC0000" d="M144 12H192V16H144z"/>
            <text fill="#444" font-family="SantanderMicroText-Bd, Santander Micro Text" font-size="8" font-weight="bold">
                <tspan x="24" y="17">Bamboo Materials</tspan>
            </text>
            <g fill="#444">
                <path d="M7.506 1c.94 0 1.748.746 1.748 1.65v7.574c.535.076 1.053.17 1.55.282.136.03.22.164.19.299-.03.135-.164.22-.299.189-1.433-.322-3.045-.494-4.717-.494-1.654 0-3.25.168-4.674.484-.135.03-.268-.055-.298-.19-.03-.135.055-.268.19-.298.5-.111 1.021-.204 1.558-.279V2.65c0-.911.754-1.65 1.685-1.65zm0 .49H4.439c-.654 0-1.184.52-1.184 1.16v7.503c.877-.1 1.791-.153 2.723-.153l-.228.002V8c0-.12.143-.222.333-.245l.084-.005c.23 0 .416.112.416.25v2.007c.741.018 1.468.07 2.17.152V2.65c0-.625-.578-1.159-1.247-1.159zm-2.84 6.76c.23 0 .417.112.417.25v.556c0 .138-.186.25-.416.25-.23 0-.417-.112-.417-.25V8.5c0-.138.187-.25.417-.25zm3 0c.23 0 .417.112.417.25v.556c0 .138-.186.25-.416.25-.23 0-.417-.112-.417-.25V8.5c0-.138.187-.25.417-.25zm-3-2c.23 0 .417.112.417.25v.556c0 .138-.186.25-.416.25-.23 0-.417-.112-.417-.25V6.5c0-.138.187-.25.417-.25zm1.5 0c.23 0 .417.112.417.25v.556c0 .138-.186.25-.416.25-.23 0-.417-.112-.417-.25V6.5c0-.138.187-.25.417-.25zm1.5 0c.23 0 .417.112.417.25v.556c0 .138-.186.25-.416.25-.23 0-.417-.112-.417-.25V6.5c0-.138.187-.25.417-.25zm-3-2c.23 0 .417.112.417.25v.556c0 .138-.186.25-.416.25-.23 0-.417-.112-.417-.25V4.5c0-.138.187-.25.417-.25zm1.5 0c.23 0 .417.112.417.25v.556c0 .138-.186.25-.416.25-.23 0-.417-.112-.417-.25V4.5c0-.138.187-.25.417-.25zm1.5 0c.23 0 .417.112.417.25v.556c0 .138-.186.25-.416.25-.23 0-.417-.112-.417-.25V4.5c0-.138.187-.25.417-.25zm-3-2c.23 0 .417.112.417.25v.556c0 .138-.186.25-.416.25-.23 0-.417-.112-.417-.25V2.5c0-.138.187-.25.417-.25zm1.5 0c.23 0 .417.112.417.25v.556c0 .138-.186.25-.416.25-.23 0-.417-.112-.417-.25V2.5c0-.138.187-.25.417-.25zm1.5 0c.23 0 .417.112.417.25v.556c0 .138-.186.25-.416.25-.23 0-.417-.112-.417-.25V2.5c0-.138.187-.25.417-.25z" transform="translate(8 8)"/>
            </g>
        </g>
        <g transform="translate(256 101)">
            <use fill="#000" filter="url(#53p67if2kg)" xlink:href="#7dthku0bgh"/>
            <rect width="199.5" height="55.5" x=".25" y=".25" fill="#F6FAFC" stroke="#CEDEE7" stroke-linejoin="square" stroke-width=".5" rx="2"/>
            <g fill="#444" font-family="SantanderMicroText, Santander Micro Text" font-size="6">
                <text transform="translate(143 40)">
                    <tspan x="38.26" y="6">EUR</tspan>
                </text>
                <text transform="translate(143 40)">
                    <tspan x="30.136" y="6">00</tspan>
                </text>
                <text transform="translate(143 40)">
                    <tspan x="28.386" y="6">,</tspan>
                </text>
                <text transform="translate(143 40)">
                    <tspan x=".748" y="6">2.186.204</tspan>
                </text>
            </g>
            <path fill="#DADADA" d="M8 40H60V46H8z"/>
            <g fill="#444" font-family="SantanderMicroText, Santander Micro Text">
                <text font-size="8" transform="translate(108 21)">
                    <tspan x="69.68" y="13">EUR</tspan>
                </text>
                <text font-size="8" transform="translate(108 21)">
                    <tspan x="58.848" y="13">00</tspan>
                </text>
                <text font-size="8" transform="translate(108 21)">
                    <tspan x="55.848" y="13">,</tspan>
                </text>
                <text font-size="12" transform="translate(108 21)">
                    <tspan x=".496" y="13">2.186.204</tspan>
                </text>
            </g>
            <path fill="#DADADA" d="M8 28H49V34H8z"/>
            <path fill="#EC0000" d="M144 12H192V16H144z"/>
            <text fill="#444" font-family="SantanderMicroText-Bd, Santander Micro Text" font-size="8" font-weight="bold">
                <tspan x="24" y="17">Natural Bamboo</tspan>
            </text>
            <g fill="#444">
                <path d="M7.506 1c.94 0 1.748.746 1.748 1.65v7.574c.535.076 1.053.17 1.55.282.136.03.22.164.19.299-.03.135-.164.22-.299.189-1.433-.322-3.045-.494-4.717-.494-1.654 0-3.25.168-4.674.484-.135.03-.268-.055-.298-.19-.03-.135.055-.268.19-.298.5-.111 1.021-.204 1.558-.279V2.65c0-.911.754-1.65 1.685-1.65zm0 .49H4.439c-.654 0-1.184.52-1.184 1.16v7.503c.877-.1 1.791-.153 2.723-.153l-.228.002V8c0-.12.143-.222.333-.245l.084-.005c.23 0 .416.112.416.25v2.007c.741.018 1.468.07 2.17.152V2.65c0-.625-.578-1.159-1.247-1.159zm-2.84 6.76c.23 0 .417.112.417.25v.556c0 .138-.186.25-.416.25-.23 0-.417-.112-.417-.25V8.5c0-.138.187-.25.417-.25zm3 0c.23 0 .417.112.417.25v.556c0 .138-.186.25-.416.25-.23 0-.417-.112-.417-.25V8.5c0-.138.187-.25.417-.25zm-3-2c.23 0 .417.112.417.25v.556c0 .138-.186.25-.416.25-.23 0-.417-.112-.417-.25V6.5c0-.138.187-.25.417-.25zm1.5 0c.23 0 .417.112.417.25v.556c0 .138-.186.25-.416.25-.23 0-.417-.112-.417-.25V6.5c0-.138.187-.25.417-.25zm1.5 0c.23 0 .417.112.417.25v.556c0 .138-.186.25-.416.25-.23 0-.417-.112-.417-.25V6.5c0-.138.187-.25.417-.25zm-3-2c.23 0 .417.112.417.25v.556c0 .138-.186.25-.416.25-.23 0-.417-.112-.417-.25V4.5c0-.138.187-.25.417-.25zm1.5 0c.23 0 .417.112.417.25v.556c0 .138-.186.25-.416.25-.23 0-.417-.112-.417-.25V4.5c0-.138.187-.25.417-.25zm1.5 0c.23 0 .417.112.417.25v.556c0 .138-.186.25-.416.25-.23 0-.417-.112-.417-.25V4.5c0-.138.187-.25.417-.25zm-3-2c.23 0 .417.112.417.25v.556c0 .138-.186.25-.416.25-.23 0-.417-.112-.417-.25V2.5c0-.138.187-.25.417-.25zm1.5 0c.23 0 .417.112.417.25v.556c0 .138-.186.25-.416.25-.23 0-.417-.112-.417-.25V2.5c0-.138.187-.25.417-.25zm1.5 0c.23 0 .417.112.417.25v.556c0 .138-.186.25-.416.25-.23 0-.417-.112-.417-.25V2.5c0-.138.187-.25.417-.25z" transform="translate(8 8)"/>
            </g>
        </g>
        <g transform="translate(40 101)">
            <use fill="#000" filter="url(#o0zwxqc0ci)" xlink:href="#0tgdtl3c1j"/>
            <rect width="199.5" height="55.5" x=".25" y=".25" fill="#F6FAFC" stroke="#CEDEE7" stroke-linejoin="square" stroke-width=".5" rx="2"/>
            <g fill="#444" font-family="SantanderMicroText, Santander Micro Text" font-size="6">
                <text transform="translate(164 40)">
                    <tspan x="17.26" y="6">EUR</tspan>
                </text>
                <text transform="translate(164 40)">
                    <tspan x="9.136" y="6">19</tspan>
                </text>
                <text transform="translate(164 40)">
                    <tspan x="7.386" y="6">,</tspan>
                </text>
                <text transform="translate(164 40)">
                    <tspan x=".136" y="6">58</tspan>
                </text>
            </g>
            <path fill="#DADADA" d="M8 40H60V46H8z"/>
            <g fill="#444" font-family="SantanderMicroText, Santander Micro Text">
                <text font-size="8" transform="translate(101 21)">
                    <tspan x="76.68" y="13">EUR</tspan>
                </text>
                <text font-size="8" transform="translate(101 21)">
                    <tspan x="65.848" y="13">24</tspan>
                </text>
                <text font-size="8" transform="translate(101 21)">
                    <tspan x="62.848" y="13">,</tspan>
                </text>
                <text font-size="12" transform="translate(101 21)">
                    <tspan x=".632" y="13">67.893.240</tspan>
                </text>
            </g>
            <path fill="#DADADA" d="M8 28H49V34H8z"/>
            <path fill="#EC0000" d="M144 12H192V16H144z"/>
            <text fill="#444" font-family="SantanderMicroText-Bd, Santander Micro Text" font-size="8" font-weight="bold">
                <tspan x="24" y="17">Boomers Bamboo</tspan>
            </text>
            <g fill="#444">
                <path d="M7.506 1c.94 0 1.748.746 1.748 1.65v7.574c.535.076 1.053.17 1.55.282.136.03.22.164.19.299-.03.135-.164.22-.299.189-1.433-.322-3.045-.494-4.717-.494-1.654 0-3.25.168-4.674.484-.135.03-.268-.055-.298-.19-.03-.135.055-.268.19-.298.5-.111 1.021-.204 1.558-.279V2.65c0-.911.754-1.65 1.685-1.65zm0 .49H4.439c-.654 0-1.184.52-1.184 1.16v7.503c.877-.1 1.791-.153 2.723-.153l-.228.002V8c0-.12.143-.222.333-.245l.084-.005c.23 0 .416.112.416.25v2.007c.741.018 1.468.07 2.17.152V2.65c0-.625-.578-1.159-1.247-1.159zm-2.84 6.76c.23 0 .417.112.417.25v.556c0 .138-.186.25-.416.25-.23 0-.417-.112-.417-.25V8.5c0-.138.187-.25.417-.25zm3 0c.23 0 .417.112.417.25v.556c0 .138-.186.25-.416.25-.23 0-.417-.112-.417-.25V8.5c0-.138.187-.25.417-.25zm-3-2c.23 0 .417.112.417.25v.556c0 .138-.186.25-.416.25-.23 0-.417-.112-.417-.25V6.5c0-.138.187-.25.417-.25zm1.5 0c.23 0 .417.112.417.25v.556c0 .138-.186.25-.416.25-.23 0-.417-.112-.417-.25V6.5c0-.138.187-.25.417-.25zm1.5 0c.23 0 .417.112.417.25v.556c0 .138-.186.25-.416.25-.23 0-.417-.112-.417-.25V6.5c0-.138.187-.25.417-.25zm-3-2c.23 0 .417.112.417.25v.556c0 .138-.186.25-.416.25-.23 0-.417-.112-.417-.25V4.5c0-.138.187-.25.417-.25zm1.5 0c.23 0 .417.112.417.25v.556c0 .138-.186.25-.416.25-.23 0-.417-.112-.417-.25V4.5c0-.138.187-.25.417-.25zm1.5 0c.23 0 .417.112.417.25v.556c0 .138-.186.25-.416.25-.23 0-.417-.112-.417-.25V4.5c0-.138.187-.25.417-.25zm-3-2c.23 0 .417.112.417.25v.556c0 .138-.186.25-.416.25-.23 0-.417-.112-.417-.25V2.5c0-.138.187-.25.417-.25zm1.5 0c.23 0 .417.112.417.25v.556c0 .138-.186.25-.416.25-.23 0-.417-.112-.417-.25V2.5c0-.138.187-.25.417-.25zm1.5 0c.23 0 .417.112.417.25v.556c0 .138-.186.25-.416.25-.23 0-.417-.112-.417-.25V2.5c0-.138.187-.25.417-.25z" transform="translate(8 8)"/>
            </g>
        </g>
        <text fill="#444" font-family="SantanderMicroText, Santander Micro Text" font-size="14">
            <tspan x="40" y="79">Global Position</tspan>
        </text>
        <path fill="#F6F6F6" d="M0 24H496V40H0z"/>
        <path fill="#C00" d="M4 0h488c2.21 0 4 1.79 4 4v20H0V4c0-2.21 1.79-4 4-4z"/>
        <g fill="#FFF">
            <path d="M10.505 6.15L8.417 2.54c-.159-.276-.269-.57-.33-.873L8 1.817c-.517.894-.517 1.995 0 2.889l1.67 2.888c.517.894.517 1.995 0 2.888l-.087.151c-.061-.302-.171-.597-.33-.873L6.747 5.428c-.159-.276-.269-.57-.33-.873l-.087.15c-.515.891-.517 1.988-.005 2.88L8 10.482c.517.894.517 1.995 0 2.889l-.087.15c-.061-.302-.171-.597-.33-.872l-2.088-3.61c-.28-.485-.408-1.03-.384-1.57-2.235.583-3.778 1.82-3.778 3.254 0 1.994 2.985 3.61 6.667 3.61s6.667-1.616 6.667-3.61c0-1.433-1.543-2.672-3.778-3.254-.02-.457-.147-.91-.384-1.319z" transform="translate(40 4)"/>
        </g>
    </g>
</svg>
