<svg xmlns="http://www.w3.org/2000/svg" xmlns:xlink="http://www.w3.org/1999/xlink" width="528" height="312" viewBox="0 0 528 312">
    <defs>
        <filter id="e9d0qen4vb" width="110.5%" height="118.6%" x="-4.4%" y="-7.9%" filterUnits="objectBoundingBox">
            <feMorphology in="SourceAlpha" operator="dilate" radius="2" result="shadowSpreadOuter1"/>
            <feOffset dx="4" dy="4" in="shadowSpreadOuter1" result="shadowOffsetOuter1"/>
            <feGaussianBlur in="shadowOffsetOuter1" result="shadowBlurOuter1" stdDeviation="6"/>
            <feColorMatrix in="shadowBlurOuter1" values="0 0 0 0 0 0 0 0 0 0 0 0 0 0 0 0 0 0 0.04 0"/>
        </filter>
        <filter id="n56d0jxdyd" width="100.1%" height="103.1%" x="-.1%" y="-1.6%" filterUnits="objectBoundingBox">
            <feOffset dy="-.5" in="SourceAlpha" result="shadowOffsetInner1"/>
            <feComposite in="shadowOffsetInner1" in2="SourceAlpha" k2="-1" k3="1" operator="arithmetic" result="shadowInnerInner1"/>
            <feColorMatrix in="shadowInnerInner1" values="0 0 0 0 0.807843137 0 0 0 0 0.870588235 0 0 0 0 0.905882353 0 0 0 1 0"/>
        </filter>
        <filter id="qm27oe9mgf" width="100.1%" height="103.1%" x="-.1%" y="-1.6%" filterUnits="objectBoundingBox">
            <feOffset dy="-.5" in="SourceAlpha" result="shadowOffsetInner1"/>
            <feComposite in="shadowOffsetInner1" in2="SourceAlpha" k2="-1" k3="1" operator="arithmetic" result="shadowInnerInner1"/>
            <feColorMatrix in="shadowInnerInner1" values="0 0 0 0 0.807843137 0 0 0 0 0.870588235 0 0 0 0 0.905882353 0 0 0 1 0"/>
        </filter>
        <filter id="4tvqvvheuh" width="100.1%" height="103.1%" x="-.1%" y="-1.6%" filterUnits="objectBoundingBox">
            <feOffset dy="-.5" in="SourceAlpha" result="shadowOffsetInner1"/>
            <feComposite in="shadowOffsetInner1" in2="SourceAlpha" k2="-1" k3="1" operator="arithmetic" result="shadowInnerInner1"/>
            <feColorMatrix in="shadowInnerInner1" values="0 0 0 0 0.807843137 0 0 0 0 0.870588235 0 0 0 0 0.905882353 0 0 0 1 0"/>
        </filter>
        <filter id="i3fi0y34vj" width="100.1%" height="103.1%" x="-.1%" y="-1.6%" filterUnits="objectBoundingBox">
            <feOffset dy="-.5" in="SourceAlpha" result="shadowOffsetInner1"/>
            <feComposite in="shadowOffsetInner1" in2="SourceAlpha" k2="-1" k3="1" operator="arithmetic" result="shadowInnerInner1"/>
            <feColorMatrix in="shadowInnerInner1" values="0 0 0 0 0.807843137 0 0 0 0 0.870588235 0 0 0 0 0.905882353 0 0 0 1 0"/>
        </filter>
        <filter id="ljp3hyvkbl" width="100.1%" height="103.1%" x="-.1%" y="-1.6%" filterUnits="objectBoundingBox">
            <feOffset dy="-.5" in="SourceAlpha" result="shadowOffsetInner1"/>
            <feComposite in="shadowOffsetInner1" in2="SourceAlpha" k2="-1" k3="1" operator="arithmetic" result="shadowInnerInner1"/>
            <feColorMatrix in="shadowInnerInner1" values="0 0 0 0 0.807843137 0 0 0 0 0.870588235 0 0 0 0 0.905882353 0 0 0 1 0"/>
        </filter>
        <filter id="fw7t2q34vo" width="101.4%" height="105%" x="-.7%" y="-2.5%" filterUnits="objectBoundingBox">
            <feOffset dy="-1" in="SourceAlpha" result="shadowOffsetInner1"/>
            <feComposite in="shadowOffsetInner1" in2="SourceAlpha" k2="-1" k3="1" operator="arithmetic" result="shadowInnerInner1"/>
            <feColorMatrix in="shadowInnerInner1" values="0 0 0 0 0.925490196 0 0 0 0 0 0 0 0 0 0 0 0 0 1 0"/>
        </filter>
        <filter id="c81wxgwh2p" width="102%" height="162.5%" x="-.8%" y="-25%" filterUnits="objectBoundingBox">
            <feMorphology in="SourceAlpha" operator="dilate" radius=".5" result="shadowSpreadOuter1"/>
            <feOffset dx="1" dy="1" in="shadowSpreadOuter1" result="shadowOffsetOuter1"/>
            <feGaussianBlur in="shadowOffsetOuter1" result="shadowBlurOuter1" stdDeviation="1"/>
            <feColorMatrix in="shadowBlurOuter1" values="0 0 0 0 0 0 0 0 0 0 0 0 0 0 0 0 0 0 0.04 0"/>
        </filter>
        <path id="fhuxhk2u5c" d="M0 64H416V80H0z"/>
        <path id="ctwqas744e" d="M0 48H416V64H0z"/>
        <path id="1b5ib86yyg" d="M0 32H416V48H0z"/>
        <path id="oglep1lxxi" d="M0 16H416V32H0z"/>
        <path id="5yjc786j4k" d="M2 0h412c1.105 0 2 .895 2 2v14H0V2C0 .895.895 0 2 0z"/>
        <path id="bo6j4et6sn" d="M0 0H72V20H0z"/>
        <path id="pg1hpvgifq" d="M0 24H496V40H0z"/>
        <rect id="7jwwxbxg1a" width="496" height="280" x="0" y="0" rx="4"/>
        <rect id="e28rycanjm" width="496" height="121" x="0" y="0" rx="4"/>
    </defs>
    <g fill="none" fill-rule="evenodd" transform="translate(12 12)">
        <use fill="#000" filter="url(#e9d0qen4vb)" xlink:href="#7jwwxbxg1a"/>
        <use fill="#FFF" xlink:href="#7jwwxbxg1a"/>
        <g transform="translate(40 173)">
            <use fill="#F6FAFC" xlink:href="#fhuxhk2u5c"/>
            <use fill="#000" filter="url(#n56d0jxdyd)" xlink:href="#fhuxhk2u5c"/>
            <use fill="#FFF" xlink:href="#ctwqas744e"/>
            <use fill="#000" filter="url(#qm27oe9mgf)" xlink:href="#ctwqas744e"/>
            <use fill="#F6FAFC" xlink:href="#1b5ib86yyg"/>
            <use fill="#000" filter="url(#4tvqvvheuh)" xlink:href="#1b5ib86yyg"/>
            <g>
                <use fill="#FFF" xlink:href="#oglep1lxxi"/>
                <use fill="#000" filter="url(#i3fi0y34vj)" xlink:href="#oglep1lxxi"/>
            </g>
            <g>
                <use fill="#ECECEC" xlink:href="#5yjc786j4k"/>
                <use fill="#000" filter="url(#ljp3hyvkbl)" xlink:href="#5yjc786j4k"/>
            </g>
        </g>
        <g fill="#F6FAFC" stroke="#CEDEE7" stroke-width=".5" transform="translate(248 139)">
            <rect width="47.5" height="15.5" x=".25" y=".25" rx="2"/>
            <rect width="47.5" height="15.5" x="52.25" y=".25" rx="2"/>
            <rect width="47.5" height="15.5" x="104.25" y=".25" rx="2"/>
        </g>
        <g transform="translate(40 137)">
            <rect width="199.5" height="19.5" x=".25" y=".25" fill="#FFF" stroke="#CCC" stroke-width=".5" rx="2"/>
            <path fill="#767676" d="M184.608 5c1.992 0 3.608 1.615 3.608 3.608 0 .6-.146 1.165-.405 1.662l2.87 2.87c.425.426.425 1.115 0 1.541-.426.425-1.116.425-1.54 0l-2.872-2.87c-.497.259-1.062.405-1.661.405-1.993 0-3.608-1.616-3.608-3.608C181 6.615 182.615 5 184.608 5zm2.1 6.542l2.786 2.786c.23.23.603.23.833 0 .23-.23.23-.604 0-.834l-2.785-2.786c-.23.321-.513.604-.834.834zm-2.1-6.042c-1.717 0-3.108 1.391-3.108 3.108 0 1.716 1.391 3.108 3.108 3.108 1.716 0 3.108-1.392 3.108-3.108 0-1.717-1.392-3.108-3.108-3.108z"/>
        </g>
        <use fill="#F6FAFC" xlink:href="#e28rycanjm"/>
        <g transform="translate(40 101)">
            <path fill="#E8F3F6" d="M72 0H144V20H72z"/>
            <text fill="#444" font-family="SantanderMicroText, Santander Micro Text" font-size="8">
                <tspan x="92.332" y="13">Multiple</tspan>
            </text>
            <use fill="#FFF" xlink:href="#bo6j4et6sn"/>
            <use fill="#000" filter="url(#fw7t2q34vo)" xlink:href="#bo6j4et6sn"/>
            <text fill="#444" font-family="SantanderMicroText-Bd, Santander Micro Text" font-size="8" font-weight="bold">
                <tspan x="24.184" y="13">Single</tspan>
            </text>
        </g>
        <rect width="64" height="16" x="392" y="69" fill="#EC0000" rx="8"/>
        <text fill="#444" font-family="SantanderMicroText, Santander Micro Text" font-size="14">
            <tspan x="40" y="79">Payments</tspan>
        </text>
        <use fill="#000" filter="url(#c81wxgwh2p)" xlink:href="#pg1hpvgifq"/>
        <use fill="#FFF" xlink:href="#pg1hpvgifq"/>
        <path fill="#C00" d="M4 0h488c2.21 0 4 1.79 4 4v20H0V4c0-2.21 1.79-4 4-4z"/>
        <g fill="#FFF">
            <path d="M10.505 6.15L8.417 2.54c-.159-.276-.269-.57-.33-.873L8 1.817c-.517.894-.517 1.995 0 2.889l1.67 2.888c.517.894.517 1.995 0 2.888l-.087.151c-.061-.302-.171-.597-.33-.873L6.747 5.428c-.159-.276-.269-.57-.33-.873l-.087.15c-.515.891-.517 1.988-.005 2.88L8 10.482c.517.894.517 1.995 0 2.889l-.087.15c-.061-.302-.171-.597-.33-.872l-2.088-3.61c-.28-.485-.408-1.03-.384-1.57-2.235.583-3.778 1.82-3.778 3.254 0 1.994 2.985 3.61 6.667 3.61s6.667-1.616 6.667-3.61c0-1.433-1.543-2.672-3.778-3.254-.02-.457-.147-.91-.384-1.319z" transform="translate(40 4)"/>
        </g>
    </g>
</svg>
