<svg xmlns="http://www.w3.org/2000/svg" width="1224" height="816" viewBox="0 0 1224 816">
    <g fill="none" fill-rule="evenodd">
        <path fill="#C7C7C7" d="M0 32H392V60H0z"/>
        <path fill="#ECECEC" d="M0 68H416V80H0zM0 134H208V183H0z"/>
        <path fill="#C7C7C7" d="M566 130H808V158H566z"/>
        <path fill="#ECECEC" d="M688 170H808V182H688zM421 171H565V183H421zM421 146H545V158H421zM668 206H808V222H668zM566 50H808V82H566z"/>
        <g transform="translate(0 243)">
            <rect width="392" height="114" fill="#ECECEC" rx="4"/>
            <g fill="#FFF">
                <path d="M0 0H109V16H0zM0 35H88V47H0zM0 59H112V71H0zM244 61H360V73H244zM216 29H360V53H216zM268 0H360V12H268z" transform="translate(16 22)"/>
            </g>
            <g transform="translate(0 130)">
                <rect width="392" height="114" fill="#ECECEC" rx="4"/>
                <g fill="#FFF">
                    <path d="M0 0H109V16H0zM0 35H88V47H0zM0 59H112V71H0zM244 61H360V73H244zM216 29H360V53H216zM268 0H360V12H268z" transform="translate(16 22)"/>
                </g>
            </g>
            <g transform="translate(0 260)">
                <rect width="392" height="114" fill="#ECECEC" rx="4"/>
                <g fill="#FFF">
                    <path d="M0 0H109V16H0zM0 35H88V47H0zM0 59H112V71H0zM244 61H360V73H244zM216 29H360V53H216zM268 0H360V12H268z" transform="translate(16 22)"/>
                </g>
            </g>
            <g transform="translate(0 390)">
                <rect width="392" height="114" fill="#ECECEC" rx="4"/>
                <g fill="#FFF">
                    <path d="M0 0H109V16H0zM0 35H88V47H0zM0 59H112V71H0zM244 61H360V73H244zM216 29H360V53H216zM268 0H360V12H268z" transform="translate(16 22)"/>
                </g>
            </g>
        </g>
        <g transform="translate(416 243)">
            <rect width="392" height="114" fill="#ECECEC" rx="4"/>
            <g fill="#FFF">
                <path d="M0 0H109V16H0zM0 35H88V47H0zM0 59H112V71H0zM244 61H360V73H244zM216 29H360V53H216zM268 0H360V12H268z" transform="translate(16 22)"/>
            </g>
        </g>
        <g transform="translate(416 373)">
            <rect width="392" height="114" fill="#ECECEC" rx="4"/>
            <g fill="#FFF">
                <path d="M0 0H109V16H0zM0 35H88V47H0zM0 59H112V71H0zM244 61H360V73H244zM216 29H360V53H216zM268 0H360V12H268z" transform="translate(16 22)"/>
            </g>
        </g>
        <g transform="translate(416 503)">
            <rect width="392" height="114" fill="#ECECEC" rx="4"/>
            <g fill="#FFF">
                <path d="M0 0H109V16H0zM0 35H88V47H0zM0 59H112V71H0zM244 61H360V73H244zM216 29H360V53H216zM268 0H360V12H268z" transform="translate(16 22)"/>
            </g>
        </g>
        <g transform="translate(416 633)">
            <rect width="392" height="114" fill="#ECECEC" rx="4"/>
            <g fill="#FFF">
                <path d="M0 0H109V16H0zM0 35H88V47H0zM0 59H112V71H0zM244 61H360V73H244zM216 29H360V53H216zM268 0H360V12H268z" transform="translate(16 22)"/>
            </g>
        </g>
        <path fill="#F6F6F6" d="M832 0H1224V816H832z"/>
        <path fill="#FFF" d="M880 75H1064V123H880z"/>
        <path fill="#DADADA" d="M880 294H996V306H880zM1052 294H1168V306H1052zM880 322H996V334H880zM1052 322H1168V334H1052zM880 350H996V362H880zM1052 350H1168V362H1052z"/>
        <path fill="#ECECEC" d="M880 439H1144V455H880zM880 208H1076V224H880zM880 170H1108V186H880zM880 513H971V529H880zM880 597H971V613H880zM880 681H971V697H880zM1040 513H1131V529H1040zM1040 597H1131V613H1040zM1040 681H1131V697H1040zM880 533H971V549H880zM880 617H971V633H880zM880 701H971V717H880zM1040 533H1131V549H1040zM1040 617H1131V633H1040zM1040 701H1131V717H1040z"/>
        <path fill="#DADADA" d="M880 489H912V505H880zM880 573H912V589H880zM880 657H912V673H880zM1040 489H1072V505H1040zM1040 573H1072V589H1040zM1040 657H1072V673H1040z"/>
        <path fill="#ECECEC" d="M880 390H1168V402H880zM880 745H1168V757H880z"/>
    </g>
</svg>
