<svg xmlns="http://www.w3.org/2000/svg" xmlns:xlink="http://www.w3.org/1999/xlink" width="936" height="355" viewBox="0 0 936 355">
    <defs>
        <rect id="iolrzp6bna" width="764" height="405" x="4" y="3" rx="202.5"/>
        <rect id="a6zys3i4xg" width="25.548" height="11.2" x="0" y="0" rx="5.6"/>
        <rect id="a6dw16fqri" width="25.548" height="11.2" x="0" y="0" rx="5.6"/>
        <rect id="alrw5knrfk" width="25.548" height="11.2" x="0" y="0" rx="5.6"/>
        <path id="9rbs5s6o4b" d="M4 0h928c2.21 0 4 1.79 4 4v351H0V4c0-2.21 1.79-4 4-4z"/>
        <path id="t95zfy9t8e" d="M0 22H495V34.375H0z"/>
        <path id="49ygjegskn" d="M19.284 13.709L5.742.162C5.246-.232 4.5.144 4.5.734v18.513c0 .414.336.75.75.75.195 0 .382-.075.49-.183l3.75-3.271 3.061 7.154c.052.122.15.218.273.268.06.023.123.035.186.035.067 0 .134-.014.197-.041l3.22-1.381c.254-.108.372-.402.263-.656l-2.962-6.928h5.022c.414 0 .75-.337.75-.75 0-.122-.03-.304-.216-.535z"/>
        <filter id="8c4hk2djlf" width="100%" height="100%" x="0%" y="0%" filterUnits="objectBoundingBox">
            <feOffset in="SourceAlpha" result="shadowOffsetInner1"/>
            <feComposite in="shadowOffsetInner1" in2="SourceAlpha" k2="-1" k3="1" operator="arithmetic" result="shadowInnerInner1"/>
            <feColorMatrix in="shadowInnerInner1" values="0 0 0 0 0.780392157 0 0 0 0 0.780392157 0 0 0 0 0.780392157 0 0 0 1 0"/>
        </filter>
        <filter id="zqoh0gzxom" width="186.7%" height="154.2%" x="-43.3%" y="-22.9%" filterUnits="objectBoundingBox">
            <feOffset dy="1" in="SourceAlpha" result="shadowOffsetOuter1"/>
            <feGaussianBlur in="shadowOffsetOuter1" result="shadowBlurOuter1" stdDeviation="2"/>
            <feComposite in="shadowBlurOuter1" in2="SourceAlpha" operator="out" result="shadowBlurOuter1"/>
            <feColorMatrix in="shadowBlurOuter1" values="0 0 0 0 0 0 0 0 0 0 0 0 0 0 0 0 0 0 0.4 0"/>
        </filter>
        <mask id="n12slpex2d" width="764" height="405" x="0" y="0" fill="#fff" maskContentUnits="userSpaceOnUse" maskUnits="objectBoundingBox">
            <use xlink:href="#iolrzp6bna"/>
        </mask>
    </defs>
    <g fill="none" fill-rule="evenodd">
        <g>
            <g>
                <g transform="translate(-252 -2377) translate(0 2297) translate(252 80)">
                    <mask id="gatd3rcswc" fill="#fff">
                        <use xlink:href="#9rbs5s6o4b"/>
                    </mask>
                    <use fill="#EFF6F9" xlink:href="#9rbs5s6o4b"/>
                    <g fill="#DEEDF2" mask="url(#gatd3rcswc)">
                        <path d="M146.527 129.704c25.852-4.534 52.986 6.787 66.875 30.193 17.7 29.825 7.195 67.958-23.455 85.175-13.356 7.502-28.337 9.791-42.454 7.522v.004l-.012-.005c-1.272-.204-2.536-.453-3.794-.733-2.567-.241-6.542-.25-12.275.634-4.939.762-11.018 2.327-16.387 3.88-4.337 1.766-8.755 3.16-13.22 4.17-.038.011-.055.018-.055.018l-.006-.005c-34.65 7.792-71.896-6.82-90.603-38.345-22.934-38.647-9.324-88.065 30.398-110.378 35.393-19.88 79.554-11.52 104.988 17.87" transform="translate(105 -153)"/>
                    </g>
                    <g fill="#9BC3D3" mask="url(#gatd3rcswc)" opacity=".5">
                        <path d="M1.79 5.627c11.205.105 20.815 4.222 28.465 10.517.157.136.343.183.514.28.26.225.544.439.877.606.284.147.622.245.95.318 1.254.288 3.008.024 3.874-.811 3.027-2.925 4.795-6.42 8.479-8.964 4.368-3.014 9.957-4.392 15.648-4.734 1.88-.113 1.793-2.078 0-2.264-9.374-.987-22.848 2.443-28.583 9.262C23.49 4.51 12.726 2.556 1.789 3.604c-1.582.155-1.68 2.008 0 2.023" transform="translate(12 111)"/>
                    </g>
                    <g fill="#C3DEE7" mask="url(#gatd3rcswc)">
                        <path d="M83.164 117.627c14.673-2.626 30.073 3.932 37.956 17.49 10.046 17.276 4.084 39.365-13.313 49.338-7.58 4.346-16.082 5.672-24.095 4.357v.002l-.007-.003c-.722-.117-1.439-.262-2.153-.424-1.457-.14-3.713-.145-6.967.367-2.803.442-6.253 1.348-9.3 2.247-2.462 1.023-4.97 1.83-7.504 2.416l-.031.01-.003-.002c-19.666 4.514-40.806-3.95-51.424-22.212-13.017-22.387-5.292-51.012 17.253-63.937 20.088-11.516 45.153-6.673 59.588 10.35" transform="translate(201 -76)"/>
                    </g>
                    <g fill="#9BC3D3" mask="url(#gatd3rcswc)" opacity=".5">
                        <path d="M40.138 81.567c6.18-.676 12.263 3.126 17.08 6.574 3.24-4.411 10.855-6.63 16.153-5.993 1.011.121 1.063 1.392 0 1.465-3.214.223-6.375 1.11-8.845 3.062-2.079 1.643-3.078 3.057-4.787 4.949-.491.543-1.48.712-2.19.526-.188-.049-.378-.11-.54-.207-.185-.107-.348-.243-.494-.39-.097-.065-.2-.094-.292-.18-4.323-4.072-9.752-8.43-16.085-8.498-.95-.01-.897-1.21 0-1.308zm37.308-12.692c2.847-2.473 9.535-3.717 14.189-3.36.89.068.934.781 0 .822-2.825.124-5.6.624-7.768 1.717-1.828.922-2.706 2.19-4.209 3.25-.43.303-1.3.399-1.923.294-.163-.026-.33-.062-.471-.115-.166-.06-.307-.138-.436-.22-.085-.035-.177-.052-.255-.101-3.798-2.283-8.568-3.776-14.13-3.814-.835-.006-.786-.677 0-.734 5.428-.38 10.772.328 15.003 2.26zM.965 45.085c6.57-.504 16.012 1.252 20.031 4.743C26.97 47.1 34.514 46.1 42.178 46.636c1.113.077 1.179 1.026 0 1.035-7.853.053-14.588 2.163-19.95 5.387-.111.067-.24.091-.361.142-.18.117-.38.224-.61.31-.202.074-.438.124-.67.163-.88.148-2.11.013-2.717-.417-2.118-1.498-3.358-3.287-5.938-4.588C8.87 47.124 4.952 46.42.965 46.244c-1.318-.058-1.255-1.063 0-1.159z" transform="translate(783 -4)"/>
                    </g>
                    <g fill="#DEEDF2" mask="url(#gatd3rcswc)">
                        <path d="M145.022 260.085C149.32 221.71 179.08 192 215.149 192c39.022 0 70.657 34.776 70.657 77.677 0 7.039-.851 13.858-2.448 20.341.6.009 1.195.032 1.786.07l.665-.06v.109C306.047 291.808 322 310.393 322 333.072c0 22.68-15.953 41.264-36.19 42.935v.129H28.553v-.005C12.783 376.131 0 362.075 0 344.738c0-17.337 12.784-31.392 28.553-31.392v-.001l65.178-5.908c-.298-2.14-.452-4.332-.452-6.563 0-23.78 17.534-43.058 39.164-43.058 4.4 0 8.63.798 12.579 2.27z" transform="translate(746 -157)"/>
                    </g>
                    <g fill="#C3DEE7" mask="url(#gatd3rcswc)">
                        <path d="M71.283 114.075c12.577-2.065 25.777 3.092 32.534 13.753 8.61 13.586 3.5 30.956-11.41 38.798-6.498 3.418-13.786 4.46-20.653 3.427l-.001.001-.006-.002c-.618-.093-1.233-.206-1.845-.334-1.249-.11-3.183-.114-5.972.29-2.402.346-5.36 1.06-7.972 1.766-2.11.805-4.26 1.44-6.432 1.9l-.026.008-.003-.002c-16.857 3.55-34.976-3.107-44.077-17.466-11.157-17.605-4.536-40.115 14.788-50.279 17.218-9.056 38.702-5.247 51.075 8.14" transform="translate(879 90)"/>
                    </g>
                    <g mask="url(#gatd3rcswc)">
                        <g transform="translate(82 27)">
                            <use stroke="#9BC3D3" stroke-dasharray="2 4" stroke-width="2" mask="url(#n12slpex2d)" xlink:href="#iolrzp6bna"/>
                            <circle cx="4" cy="217" r="4" fill="#FC3"/>
                            <circle cx="499" cy="4" r="4" fill="#1BB3BC"/>
                        </g>
                    </g>
                    <g mask="url(#gatd3rcswc)">
                        <g>
                            <g>
                                <path fill="#9BC3D3" d="M237.043 475.986L299.135 475.986 299.135 287.384 237.043 287.384z" transform="translate(198 61) translate(.025 .725)"/>
                                <path fill="#9BC3D3" d="M27.278 378.241h481.625c15.063 0 27.27-12.21 27.27-27.27V27.267C536.173 12.206 523.966 0 508.903 0H27.278C12.209 0 0 12.206 0 27.268V350.97c0 15.062 12.21 27.271 27.278 27.271" transform="translate(198 61) translate(.025 .725)"/>
                                <path fill="#FFF" d="M20.997 318.966L515.173 318.966 515.173 20.442 20.997 20.442z" transform="translate(198 61) translate(.025 .725)"/>
                                <g>
                                    <path fill="#FFF" fill-rule="nonzero" d="M0 0H495V309.375H0z" transform="translate(198 61) translate(.025 .725) translate(20.975 20.275)"/>
                                    <g>
                                        <path fill="#FFF" d="M0 0H495V89.375H0z" transform="translate(198 61) translate(.025 .725) translate(20.975 20.275) translate(0 118.25)"/>
                                        <g>
                                            <path fill="#F4FCFC" d="M0 0H420.75V20.625H0z" transform="translate(198 61) translate(.025 .725) translate(20.975 20.275) translate(0 118.25) translate(37.125 55)"/>
                                            <path fill="#DADADA" d="M381.563 8.25H407.001V12.375H381.563zM335.156 8.25H342.031V12.375H335.156zM265.375 8.25H295.969V12.375H265.375zM181.844 8.25H225.844V12.375H181.844zM97.969 8.25H142.65699999999998V12.375H97.969zM13.75 8.25H58.438V12.375H13.75z" transform="translate(198 61) translate(.025 .725) translate(20.975 20.275) translate(0 118.25) translate(37.125 55)"/>
                                        </g>
                                        <g>
                                            <path fill="#FFF" d="M0 0H420.75V20.625H0z" transform="translate(198 61) translate(.025 .725) translate(20.975 20.275) translate(0 118.25) translate(37.125 34.375)"/>
                                            <path fill="#DADADA" d="M381.563 8.25H407.001V12.375H381.563zM335.156 8.25H342.031V12.375H335.156zM265.375 8.25H295.969V12.375H265.375zM181.844 8.25H225.844V12.375H181.844zM97.969 8.25H142.65699999999998V12.375H97.969zM13.75 8.25H58.438V12.375H13.75z" transform="translate(198 61) translate(.025 .725) translate(20.975 20.275) translate(0 118.25) translate(37.125 34.375)"/>
                                        </g>
                                        <g>
                                            <path fill="#F4FCFC" d="M0 0H420.75V20.625H0z" transform="translate(198 61) translate(.025 .725) translate(20.975 20.275) translate(0 118.25) translate(37.125 13.75)"/>
                                            <path fill="#DADADA" d="M381.563 8.25H407.001V12.375H381.563zM335.156 8.25H342.031V12.375H335.156zM265.375 8.25H295.969V12.375H265.375zM181.844 8.25H225.844V12.375H181.844zM97.969 8.25H142.65699999999998V12.375H97.969zM13.75 8.25H58.438V12.375H13.75z" transform="translate(198 61) translate(.025 .725) translate(20.975 20.275) translate(0 118.25) translate(37.125 13.75)"/>
                                        </g>
                                    </g>
                                    <g>
                                        <path fill="#FFF" d="M0 0H495V34.375H0z" transform="translate(198 61) translate(.025 .725) translate(20.975 20.275) translate(0 83.875)"/>
                                        <path fill="#F67F7F" d="M430.375 16.5H457.875V22H430.375z" transform="translate(198 61) translate(.025 .725) translate(20.975 20.275) translate(0 83.875)"/>
                                        <path fill="#DEEDF2" d="M217.25 13.75H251.625V24.75H217.25zM180.125 13.75H214.5V24.75H180.125z" transform="translate(198 61) translate(.025 .725) translate(20.975 20.275) translate(0 83.875)"/>
                                        <path fill="#F6F6F6" d="M37.125 8.25H171.875V24.75H37.125z" transform="translate(198 61) translate(.025 .725) translate(20.975 20.275) translate(0 83.875)"/>
                                    </g>
                                    <g>
                                        <path fill="#F6FAFC" d="M0 0H495V49.5H0z" transform="translate(198 61) translate(.025 .725) translate(20.975 20.275) translate(0 34.375)"/>
                                        <path fill="#DADADA" d="M37.125 30.594H149.188V34.719H37.125zM37.125 15.469H88.688V22.344H37.125z" transform="translate(198 61) translate(.025 .725) translate(20.975 20.275) translate(0 34.375)"/>
                                    </g>
                                    <g>
                                        <g transform="translate(198 61) translate(.025 .725) translate(20.975 20.275)">
                                            <use fill="#FFF" xlink:href="#t95zfy9t8e"/>
                                            <use fill="#000" filter="url(#8c4hk2djlf)" xlink:href="#t95zfy9t8e"/>
                                        </g>
                                        <path fill="#C7C7C7" d="M0 0H495V22H0z" transform="translate(198 61) translate(.025 .725) translate(20.975 20.275)"/>
                                    </g>
                                </g>
                                <g fill="#444" opacity=".7">
                                    <path d="M0 0H494V250H0z" transform="translate(198 61) translate(.025 .725) translate(20.975 54.275)"/>
                                </g>
                                <g>
                                    <g fill="#F6FAFC">
                                        <g>
                                            <path d="M0 0L205 0 205 300 0 300z" transform="translate(198 61) translate(.025 .725) translate(310.975 54.275)"/>
                                        </g>
                                        <g fill-rule="nonzero">
                                            <path d="M0 0L205 0 205 300 0 300z" transform="translate(198 61) translate(.025 .725) translate(310.975 54.275)"/>
                                        </g>
                                    </g>
                                    <g fill="#DADADA">
                                        <path d="M0 0H51.563V6.875H0z" transform="translate(198 61) translate(.025 .725) translate(310.975 54.275) translate(11 16)"/>
                                    </g>
                                    <g>
                                        <g transform="translate(198 61) translate(.025 .725) translate(310.975 54.275) translate(11 32)">
                                            <g transform="translate(145 2)">
                                                <rect width="25.048" height="10.7" x=".25" y=".25" stroke="#CCC" stroke-width=".5" rx="5.35"/>
                                                <g>
                                                    <mask id="dq8ngjotmh" fill="#fff">
                                                        <use xlink:href="#a6zys3i4xg"/>
                                                    </mask>
                                                    <use fill="#DADADA" xlink:href="#a6zys3i4xg"/>
                                                    <g mask="url(#dq8ngjotmh)">
                                                        <g fill="#000" fill-rule="nonzero">
                                                            <ellipse cx="5.677" cy="5.6" rx="5.323" ry="5.25"/>
                                                        </g>
                                                        <g fill="#FFF">
                                                            <ellipse cx="5.677" cy="5.6" rx="5.323" ry="5.25"/>
                                                        </g>
                                                    </g>
                                                </g>
                                            </g>
                                            <path fill="#B5B5B5" fill-rule="nonzero" d="M22 2H79V8H22z"/>
                                            <path fill="#DADADA" fill-rule="nonzero" d="M0 32H176V44H0zM0 46H176V58H0zM0 60H87V72H0zM89 60H176V72H89z"/>
                                            <circle cx="9" cy="9" r="9" fill="#DEEDF2"/>
                                            <path fill="#DADADA" fill-rule="nonzero" d="M22 10H49V16H22z"/>
                                        </g>
                                        <g transform="translate(198 61) translate(.025 .725) translate(310.975 54.275) translate(11 32) translate(0 104)">
                                            <g>
                                                <g fill="#FFF" fill-rule="nonzero">
                                                    <rect width="176" height="38" rx="1.419"/>
                                                </g>
                                                <g transform="translate(145 6)">
                                                    <rect width="25.048" height="10.7" x=".25" y=".25" stroke="#CCC" stroke-width=".5" rx="5.35"/>
                                                    <g>
                                                        <mask id="22em6wxz3j" fill="#fff">
                                                            <use xlink:href="#a6dw16fqri"/>
                                                        </mask>
                                                        <use fill="#DADADA" xlink:href="#a6dw16fqri"/>
                                                        <g mask="url(#22em6wxz3j)">
                                                            <g fill="#000" fill-rule="nonzero">
                                                                <ellipse cx="5.677" cy="5.6" rx="5.323" ry="5.25"/>
                                                            </g>
                                                            <g fill="#FFF">
                                                                <ellipse cx="5.677" cy="5.6" rx="5.323" ry="5.25"/>
                                                            </g>
                                                        </g>
                                                    </g>
                                                </g>
                                            </g>
                                            <circle cx="11" cy="12" r="5" fill="#F67F7F"/>
                                            <path fill="#B5B5B5" fill-rule="nonzero" d="M20 9H77V15H20z"/>
                                            <path fill="#DADADA" fill-rule="nonzero" d="M6 27H63V33H6z"/>
                                        </g>
                                        <path fill="#DADADA" d="M0 88H51.563V94.875H0z" transform="translate(198 61) translate(.025 .725) translate(310.975 54.275) translate(11 32)"/>
                                        <g transform="translate(198 61) translate(.025 .725) translate(310.975 54.275) translate(11 32) translate(0 148)">
                                            <g>
                                                <g fill="#FFF" fill-rule="nonzero">
                                                    <rect width="176" height="38" rx="1.419"/>
                                                </g>
                                                <g transform="translate(145 6)">
                                                    <rect width="25.048" height="10.7" x=".25" y=".25" stroke="#CCC" stroke-width=".5" rx="5.35"/>
                                                    <g>
                                                        <mask id="loyhzm5oul" fill="#fff">
                                                            <use xlink:href="#alrw5knrfk"/>
                                                        </mask>
                                                        <use fill="#DADADA" xlink:href="#alrw5knrfk"/>
                                                        <g mask="url(#loyhzm5oul)">
                                                            <g fill="#000" fill-rule="nonzero">
                                                                <ellipse cx="5.677" cy="5.6" rx="5.323" ry="5.25"/>
                                                            </g>
                                                            <g fill="#FFF">
                                                                <ellipse cx="5.677" cy="5.6" rx="5.323" ry="5.25"/>
                                                            </g>
                                                        </g>
                                                    </g>
                                                </g>
                                            </g>
                                            <circle cx="11" cy="12" r="5" fill="#F67F7F"/>
                                            <path fill="#B5B5B5" fill-rule="nonzero" d="M20 9H77V15H20z"/>
                                            <path fill="#DADADA" fill-rule="nonzero" d="M6 27H63V33H6z"/>
                                        </g>
                                    </g>
                                    <g fill-rule="nonzero">
                                        <g transform="translate(198 61) translate(.025 .725) translate(310.975 54.275) translate(167.281 39.313)">
                                            <use fill="#000" filter="url(#zqoh0gzxom)" xlink:href="#49ygjegskn"/>
                                            <path fill="#EC0000" fill-rule="evenodd" stroke="#FFF" stroke-linejoin="square" d="M5 1.838l13.918 12.215c.059.08.082.143.082.19 0 .07-.028.132-.073.177-.046.046-.108.074-.177.074h0-5.78l3.087 7.219-2.642 1.545-3.766-7.516-4.259 3.713c-.027.036-.087.042-.14.042-.069 0-.131-.028-.177-.073h0L5 1.838z"/>
                                        </g>
                                    </g>
                                </g>
                            </g>
                        </g>
                    </g>
                    <path fill="#CEDEE7" d="M1 354h934c.552 0 1 .448 1 1H0c0-.552.448-1 1-1z"/>
                </g>
            </g>
        </g>
    </g>
</svg>
