<svg xmlns="http://www.w3.org/2000/svg" width="182" height="182" viewBox="0 0 182 182">
    <g fill="none" fill-rule="evenodd">
        <g>
            <g>
                <g>
                    <g>
                        <path fill="#9E3667" d="M130.097 135.928L113.023 165.5h-95.73c-13.292 0-21.6-14.389-14.954-25.9L25.75 99.05c10.834-18.77 32.888-27.972 53.852-22.468l28.901 7.588c22.505 5.904 33.229 31.604 21.594 51.76z" transform="translate(-473 -856) translate(0 785) translate(420 77) translate(53 -10)"/>
                        <g fill="#F4A48D">
                            <path d="M78.078 18.896c1.704-.397 3.496.021 4.85 1.131l8.848 7.263c1.161.953 1.272 2.691.24 3.785-.936.993-2.482 1.09-3.535.22l-6.271-5.17 10.434 11.793c.909 1.028.828 2.594-.181 3.523-.984.905-2.503.884-3.461-.048l-4.58-4.457-.524.565 3.517 6.802c.44.85.282 1.88-.374 2.56l-.129.124c-.96.849-2.437.71-3.224-.302-.657-.846-1.477-1.9-2.328-2.989l-.366-.468c-.37-.471-.74-.945-1.103-1.406l-1.212 1.306.761 3.85c.15.758-.183 1.525-.826 1.936l-.133.078c-.715.379-1.593.253-2.175-.31l-1.464-1.418-.203.22-2.931 2.236c-.975.745-1.985 1.443-3.024 2.091-1.277.798-2.6 1.524-3.962 2.17l-8.51 4.042c-14.133 6.46-29.819 8.744-45.207 6.58L0 63.055C.928 47.2 12.928 46.698 12.928 46.698l2.963.329c11.202 1.245 22.54.295 33.378-2.797l5.87-1.676 5.878-12.71c1.346-2.91 3.72-5.22 6.666-6.485z" transform="translate(-473 -856) translate(0 785) translate(420 77) translate(53 -10) translate(13.462 92.577)"/>
                        </g>
                        <g>
                            <g>
                                <path fill="#A66555" d="M63.694 47.25c-.177 0-.353-.002-.528-.01l-10.144-.392 6.011-8.3 14.048 2.612-1.42 3.667-1.382.746c-2.042 1.104-4.299 1.678-6.585 1.678z" transform="translate(-473 -856) translate(0 785) translate(420 77) translate(53 -10) translate(99.885 106.308) translate(0 16.082)"/>
                                <path fill="#C3DEE7" d="M58.012 48.523L81.8 4.793c1.123-2.064-.28-4.645-2.526-4.645H26.71c-1.042 0-2.005.59-2.526 1.548L.395 45.426C-.728 47.49.676 50.07 2.922 50.07h52.564c1.042 0 2.006-.59 2.526-1.547z" transform="translate(-473 -856) translate(0 785) translate(420 77) translate(53 -10) translate(99.885 106.308) translate(0 16.082)"/>
                                <path fill="#F4A48D" d="M56.426 38.046v-.343l-1.642.027c-1.62.027-2.977-1.29-3.097-3.003l-.026-.385c-.113-1.602.898-3.05 2.374-3.403l-.018-1.5c-.03-2.343 1.598-4.34 3.787-4.644l7.202-1.003-.118-.449c-.679-2.571.7-5.247 3.106-6.028l7.259-2.354c1.11-.36 2.305.177 2.832 1.274l.54 1.119c.598 1.244.14 2.769-1.03 3.412l-2.56 1.411.584 1.196c.98 2.01 1.03 4.386.136 6.441l-.357.817c1.093 1.705 1.215 3.908.32 5.736l-.393.798-.185 2.727c-.151 2.225-1.51 4.153-3.479 4.935L57.77 40.013c-.8-.278-1.343-1.071-1.343-1.967z" transform="translate(-473 -856) translate(0 785) translate(420 77) translate(53 -10) translate(99.885 106.308) translate(0 16.082)"/>
                            </g>
                        </g>
                        <g>
                            <path fill="#F4A48D" d="M27.243 45.515c-2.002-2.58-3.532-5.594-4.426-8.947-.759-2.845-1-5.714-.778-8.49.482-6.083 3.179-11.761 7.47-15.979 3.007-2.96 6.798-5.202 11.164-6.365 13.449-3.588 27.254 4.404 30.838 17.849.27 1.006.69 7.687.752 8.676l.146 2.383 3.063 21.182-3.25-.21c-.08.24-.167.477-.258.714-.629 1.654-1.49 3.223-2.564 4.659l-2.014 2.715-1.27 1.706-.123.162-.062.086c-1.375 1.849-3.039 3.898-4.882 5.828-2.324 2.432-5.497 3.473-8.544 3.174-.277.95-.538 1.994-.742 3.099-.282 1.51-.354 3.052-.283 4.586 0 0-.077 2.308-.148 2.35-2.172 5.763-7.736 9.862-14.25 9.862-7.665 0-14.015-5.676-15.07-13.053-.035-.019-.054-.036-.053-.05.895-6.744.482-2.973 2.678-10.767.933-3.318 2.587-5.766 3.652-15.099.184-1.62.319-6.792.408-7.82.005-.054.008-.126.01-.215l-1.464-2.036z" transform="translate(-473 -856) translate(0 785) translate(420 77) translate(53 -10) rotate(10 29.28 387.313)"/>
                            <path fill="#A66555" d="M37.635 59.97l7.573 10.54c1.823 2.474 4.5 3.87 7.284 4.147.005.002.008.003.009 0-.65 2.217-.868 3.9-.868 3.9-5.119-2.169-8.487-6.518-13.998-18.586zm33.895-4.383l-2.748-.182c-.884-.764-1.408-1.934-1.284-3.218l.924-9.73 3.108 13.13z" transform="translate(-473 -856) translate(0 785) translate(420 77) translate(53 -10) rotate(10 29.28 387.313)"/>
                        </g>
                        <g fill="#C00">
                            <path d="M29.094 33.957c-1.809.687-2.874 3.723-2.416 7.15.062.471.15.927.262 1.363-.99.67-2.532 2.356-2.532 2.356l.002.003c-1.766-3.046-2.98-6.493-3.48-10.219-.425-3.17-.301-6.297.302-9.262 1.314-6.495 4.915-12.256 10.007-16.226 3.57-2.786 7.874-4.692 12.642-5.359 8.782-1.227 17.15 2.024 22.89 8.04l8.11.174c1.628.036 2.406 2.059 1.235 3.214l.83.704c1.797 1.523 2.448 4.043 1.62 6.273L73.72 34.947c-.055-.499-.148-.99-.277-1.469-.246-.914-.623-1.785-1.117-2.585v-.001l-.056-.088-.055-.087-.001-.002-.056-.086-.002-.002-.057-.086-.057-.082-.005-.007-.057-.081-.002-.003-.06-.083-.059-.08-.006-.009-.06-.079v-.001l-.06-.078-.005-.006-.06-.076-.008-.01-.061-.076-.062-.075-.008-.01-.06-.072-.01-.01-.063-.073-.063-.072-.011-.012-.063-.07-.008-.01-.062-.066-.005-.006-.065-.069-.012-.012-.065-.068-.007-.007-.062-.064-.01-.01-.065-.064-.014-.013-.067-.066-.004-.004-.066-.062-.012-.012-.068-.063-.013-.012-.07-.063-.071-.064-.014-.012-.07-.06-.012-.011-.068-.058-.007-.006-.072-.06-.015-.012-.072-.059-.01-.008-.069-.054-.01-.009-.074-.057-.016-.012-.075-.057-.007-.005-.071-.053-.014-.01-.076-.054-.015-.011-.078-.056-.143-.099-.02-.014-.137-.093-.026-.018-.137-.092-.02-.014-.142-.094-.003-.002-.144-.094-.022-.015-.138-.089-.026-.016-.139-.089-.02-.012-.143-.09-.005-.003-.145-.09-.023-.014-.14-.085-.026-.016-.141-.085-.02-.011-.143-.085-.007-.004-.146-.085-.024-.014-.142-.081-.026-.015-.144-.081-.018-.01-.145-.08-.009-.006-.148-.08-.024-.014-.143-.077-.027-.014-.146-.078-.017-.009-.146-.076-.01-.006-.15-.076-.025-.013-.145-.073-.026-.013-.148-.074-.016-.007-.148-.073-.012-.006-.15-.072-.026-.012-.147-.07-.026-.011-.15-.07-.014-.007-.15-.068-.014-.006-.152-.069-.025-.01-.15-.067-.024-.01-.154-.067-.011-.005-.153-.065-.015-.006-.153-.064-.025-.01-.152-.062-.023-.01-.157-.063-.008-.003-.157-.062-.015-.005-.155-.06-.025-.01-.154-.058-.022-.009-.16-.059-.004-.002-.162-.058-.014-.005-.158-.057-.023-.008-.157-.055-.02-.007-.163-.055-.167-.056-.013-.005-.161-.052-.022-.007-.16-.051-.017-.006-.166-.052-.17-.052-.011-.003-.164-.05-.02-.005-.163-.047-.014-.004-.17-.049-.171-.047-.01-.003-.167-.045-.017-.004-.167-.045-.01-.002-.173-.044-.175-.044-.008-.002-.17-.041-.014-.003-.172-.04-.004-.002-.178-.04-.178-.04h-.004l-.175-.038-.01-.002c-.179-.038-.359-.074-.54-.108-.565 6.47-5.53 11.788-12 12.472-7.639.809-14.176-.693-14.42-.75l-.022-.027-.016-.018-.021-.025-.017-.02-.02-.023-.019-.02-.019-.022-.02-.022-.018-.019-.021-.023-.017-.018-.022-.024-.016-.016-.024-.025-.015-.015-.025-.025-.014-.014-.025-.026-.014-.013-.027-.026-.012-.012-.028-.026-.012-.011-.028-.026-.012-.01-.03-.027-.01-.01-.03-.026-.01-.01-.031-.026-.01-.008-.031-.026-.01-.008-.032-.026-.01-.008-.031-.025-.01-.008-.032-.025-.01-.007-.032-.025-.01-.006-.032-.024-.01-.007-.032-.024-.01-.006-.033-.023-.009-.006-.033-.023-.01-.006-.033-.022-.01-.006-.033-.02-.01-.007-.032-.02-.01-.006-.034-.02-.01-.006-.033-.019-.01-.005-.033-.018-.01-.006-.033-.018-.012-.005-.032-.017-.011-.006-.033-.016-.012-.005-.031-.015-.013-.006-.031-.014-.013-.006-.031-.013-.014-.006-.03-.013-.014-.005-.03-.012-.015-.006-.03-.01-.015-.006-.03-.01-.014-.006-.03-.01-.015-.004-.03-.01-.015-.004-.029-.009-.017-.004-.027-.008-.018-.005-.027-.007-.018-.004-.027-.006-.018-.004-.027-.006-.019-.004-.026-.005-.02-.003-.025-.005-.02-.003-.025-.004-.02-.003-.025-.003-.02-.003-.025-.003-.021-.002-.024-.002-.022-.002-.023-.001-.023-.002-.023-.001h-.022l-.023-.002H29.801l-.025.002-.02.001-.026.002-.02.001-.027.002-.018.002-.03.003-.016.002-.045.006-.043.006-.012.002-.04.007h-.003l-.043.01-.011.001-.038.009-.005.001-.042.01-.011.003-.035.01-.008.002-.041.012-.011.003-.033.01-.01.004-.04.013-.012.005-.03.01-.012.005z" transform="translate(-473 -856) translate(0 785) translate(420 77) translate(53 -10) translate(60.76 6.92)"/>
                        </g>
                        <path fill="#9E3667" d="M93.399 105.447s-6.92-29.215-15.161-33.16l-7.96 4.368 3.24 21.509 19.88 7.283z" transform="translate(-473 -856) translate(0 785) translate(420 77) translate(53 -10)"/>
                    </g>
                </g>
            </g>
        </g>
    </g>
</svg>
