<svg xmlns="http://www.w3.org/2000/svg" width="214" height="375" viewBox="0 0 214 375">
    <g fill="none" fill-rule="evenodd">
        <g>
            <g>
                <g>
                    <g>
                        <g>
                            <g>
                                <g>
                                    <path fill="#723846" d="M20.452 70.558c-.059-.045 13.33-14.32 13.94-21.736-1.51-.856-2.932-1.93-4.218-3.219-7.684-7.703-7.66-20.234.053-27.966 7.713-7.732 20.213-7.756 27.898-.053 3.12 3.128 4.97 7.052 5.549 11.128l.004.002 3.828 13.103-3.49.756-.014 10.016c-.004 2.61-1.638 4.944-4.087 5.839l-5.522 2.017h-.002s-.29.852-.803 2.218l-6.975 17.043h-.012c-2.155 2.848-6.391 5.244-10.385 5.244-9.29 0-14.615-6.943-15.764-14.392z" transform="translate(-1040 -852) translate(0 785) translate(1044 77) matrix(-1 0 0 1 210 -10) translate(7.071) translate(.581) translate(41)"/>
                                    <path fill="#3B101C" d="M53.111 63.974c-2.53-.825-6.193-2.876-10.125-7.904l11.427 4.375s-.483 1.418-1.302 3.53zm10.897-21.401c-1.045.327-2.094-.486-2.043-1.585l.325-7.084 1.718 8.669z" transform="translate(-1040 -852) translate(0 785) translate(1044 77) matrix(-1 0 0 1 210 -10) translate(7.071) translate(.581) translate(41)"/>
                                </g>
                                <g fill="#1BB3BC">
                                    <path d="M83.666 10.317c3.83 0 7.424 1.008 10.533 2.776 3.11 1.767 5.735 4.292 7.625 7.326 1.622 2.601 2.7 5.574 3.081 8.764l-1.192-4.29c-.56-1.202-1.237-2.368-2.043-3.48l-.03.165v.005l-.032.16-.001.009-.031.156-.003.012-.032.154-.002.013-.034.153-.003.013-.034.153-.002.011-.036.155-.002.009-.038.157v.003c-.147.598-.32 1.186-.514 1.763l-.002.005-.049.143-.006.018-.048.134-.009.026-.046.128-.012.032-.045.123-.014.036-.044.12-.015.038-.045.117-.016.04-.046.115-.017.043-.046.113-.017.043-.047.112-.018.043-.047.112-.018.042-.049.112-.018.04-.05.114-.017.038-.052.115-.016.035-.054.118-.013.028-.058.124-.008.017c-.136.286-.278.568-.427.847l-.012.023-.06.111-.02.037-.055.103-.026.045-.053.097-.028.05-.053.093-.03.052-.053.091-.032.055-.051.088-.033.056-.053.087-.034.057-.052.085-.035.058-.053.084-.036.058-.052.083-.037.059-.053.082-.037.058-.054.082-.038.058-.054.081-.039.058-.054.08-.039.058-.055.08-.039.057-.056.08-.038.055-.058.082-.037.052-.06.084-.033.044-.24.324-.022.03-.062.08-.04.052-.058.075-.045.057-.056.072-.047.059-.057.07-.048.06-.056.069-.05.06-.056.068-.05.061-.056.067-.052.061-.056.066-.052.06-.057.066-.053.061-.056.064-.054.061-.057.064-.055.06-.057.063-.056.061-.056.062-.057.06-.057.062-.058.06-.057.061-.058.06-.057.06-.06.061-.057.059-.06.06-.057.058-.062.062-.057.055-.065.064-.054.053-.072.07-.048.046-.12.113-.042.04-.08.074-.052.048-.07.065-.056.05-.068.062-.057.051-.067.06-.06.051-.066.059-.06.051-.066.058-.06.051-.067.057-.062.051-.067.056-.06.051-.07.056-.06.05-.068.055-.063.05-.069.054-.061.05-.07.054-.063.048-.07.054-.062.048-.07.053-.063.047-.072.054-.063.046-.073.053-.061.046-.075.053-.062.044-.076.054-.06.043-.08.055-.057.04-.087.06-.051.035-.11.074-.03.02-.138.091-.043.028-.098.063-.055.036-.086.055-.06.037-.082.052-.063.039-.08.049-.064.039-.08.048-.065.039-.079.047-.066.039-.079.045-.067.04-.078.044-.068.039-.078.044-.07.038-.078.043-.068.038-.08.042-.069.038-.08.042-.068.036-.08.042-.07.036-.081.041-.07.035-.081.041-.069.034-.083.041-.069.033-.084.041-.067.032-.088.041-.065.03-.092.043-.062.028-.103.047-.05.023-.155.068c-.072-.2-.15-.393-.234-.579-.105-.232-.217-.454-.337-.662-.077-.134-.158-.264-.24-.387-.114-.168-.232-.326-.354-.472-.06-.071-.12-.14-.182-.206-.036-.038-.072-.075-.108-.11-.13-.131-.265-.248-.402-.35-.227-.171-.461-.302-.698-.388-.08-.028-.159-.052-.239-.07-.215-.05-.431-.063-.645-.033l-.032.004-.03.006-.032.006c-.09.017-.177.042-.262.074l-.036.013-.06.026c-.063.028-.124.06-.184.095l-.034.02c-.098.06-.19.13-.28.209-.073.066-.145.139-.213.217-.01.011-.02.022-.028.033l-.028.033c-.163.202-.307.438-.43.705-.083.179-.155.371-.218.575l-.004.014-.023.077-.004.01-.023.083v.004l-.022.083-.002.008-.02.083-.003.013-.018.081-.004.015-.017.083-.002.013-.017.086-.002.01-.016.09-.015.093-.001.01-.013.089-.002.014-.012.088-.001.015-.01.09-.002.013-.009.093-.001.008-.008.096v.004l-.008.097v.012l-.006.093v.016l-.004.093-.001.016-.003.095v.013l-.002.1V38.166l.001.014.002.098v.016l.004.098v.016l.006.1v.011l.007.106.008.107.001.01.01.103c.026.284.066.574.122.867l.012.062c.016.08.032.16.05.24.024.106.05.212.077.317l.02.077c.028.1.056.2.086.297.118.385.258.75.416 1.088.23.494.497.935.79 1.306.16.201.325.382.496.54l.101.09c.02.274.037.549.048.825l.006.147.001.048.004.1v.056l.003.092.001.058.002.093.001.055.001.103v.044l.001.146V45.789l-.002.056-.001.091-.001.057-.002.093-.001.053-.003.107-.001.039-.005.145-.001.03-.005.115-.002.05-.005.095-.003.056-.004.09-.004.056-.005.094-.003.051-.008.112-.002.032-.01.143-.003.038-.009.106-.004.052-.008.092-.005.056-.008.09-.005.054-.01.094-.005.05-.013.12-.002.021-.015.142-.006.042-.012.1-.006.053-.011.09-.007.055-.012.089-.007.054-.013.095-.007.046-.02.136v.005l-.021.14-.007.045-.015.095-.009.053-.015.088-.009.055-.015.088-.009.052-.017.097-.007.043-.026.138-.004.018-.023.12-.009.048-.018.092-.01.053-.018.086-.012.054-.018.088-.01.05-.022.1-.008.038-.031.137-.007.029-.025.107-.011.049-.022.088-.012.053-.02.085-.014.053-.022.088-.012.049-.027.102-.008.033-.036.134-.01.036-.027.1-.013.049-.024.085-.015.053-.024.083-.015.053-.025.087-.014.047-.033.109-.007.024-.04.132-.013.04-.029.093-.016.05-.027.083-.016.052-.027.082-.017.051-.029.087-.015.045-.041.12-.004.011-.045.13-.015.043-.032.088-.017.05-.03.08-.02.053-.028.08-.02.05-.032.087-.016.043-.05.127-.006.019-.044.11-.017.045-.033.083-.02.05-.033.079-.02.051-.033.08-.02.048-.038.088-.016.04-.053.124-.013.03-.042.096-.021.047-.035.08-.022.05-.035.076-.023.05-.035.078-.022.048-.042.089-.016.035-.058.122-.017.037-.042.087-.023.048-.038.075-.024.051-.037.073-.025.05-.038.077-.024.046-.047.092-.015.03-.062.12-.021.04-.043.08-.026.049-.038.072-.027.05-.04.072-.026.05-.041.074-.026.045-.053.097-.013.022-.066.116-.025.044-.043.074-.029.05-.04.068-.03.05-.04.07-.03.048-.043.073-.027.044-.066.108-.003.006-.015.025-.056.09-.029.046-.043.07-.032.049-.041.066-.032.05-.043.066-.031.049-.047.07-.028.043-.072.11-.024.036-.051.077-.033.047-.044.065-.034.05-.043.063-.035.05-.044.063-.034.048-.049.07-.029.04-.076.107-.03.041-.05.068-.034.049-.045.06-.037.05-.044.06-.037.05-.046.06-.036.048-.052.068-.03.04-.08.102-.035.045-.048.061-.038.05-.046.057-.04.05-.045.056-.04.05-.046.057-.039.047-.054.066-.03.037-.02.024-.064.076-.04.047-.042.05-.144.169-.022.026-.148.17-.01.01-.15.168-.011.013-.152.166-.022.024-.152.164-.017.018-.16.168-.16.165-.02.02-.156.159-.022.021-.163.162-.169.163-.014.014-.164.155-.022.02-.165.155-.013.011-.173.158-.002.002-.173.153-.02.019-.17.148-.02.016-.176.151-.068.057-.028.024-.062.052-.041.034-.06.05-.044.035-.06.05-.043.033-.062.05-.04.032-.064.052-.027.02-.073.058-.072.057-.028.021-.067.052-.039.03-.065.05-.041.03-.065.05-.04.03-.067.05-.037.027c-.082.061-.164.121-.248.181l-.026.02-.072.05-.037.027-.07.05-.039.027-.07.049-.037.026-.072.05-.03.02c-.087.06-.175.12-.263.178l-.025.017-.076.05-.035.023-.074.048-.038.024-.074.048-.034.022-.079.05-.02.013c-.093.059-.186.117-.28.174l-.024.015-.08.05-.033.02-.08.047-.033.02-.08.048-.03.017-.085.05-.005.003c-.1.059-.2.116-.302.174l-.023.012-.085.048-.03.017-.084.046-.031.017-.086.047-.023.012c-.136.074-.272.145-.409.216l-.02.01-.09.047-.028.014-.089.045-.027.013-.092.046-.015.007c-.14.07-.283.138-.425.205l-.02.01-.094.043-.025.012-.094.043-.021.01-.1.045c-.151.068-.3.133-.45.196l-.016.007-.1.042-.02.009-.101.041-.016.007c-.187.076-.375.15-.565.223l-.014.005-.105.04-.017.006-.106.04-.008.002c-.193.071-.387.14-.583.206l-.011.003-.11.037-.013.004c-.235.078-.474.153-.713.223l-.008.003-.116.034-.006.002c-.242.07-.485.136-.73.198l-.005.001-.122.03c-1.82.453-3.722.692-5.681.692-.53 0-1.056-.018-1.577-.053-1.335-.092-2.57.645-3.13 1.863-3.536 7.704-11.3 13.055-20.314 13.055-4.09 0-7.92-1.103-11.218-3.027-2.448-1.428-5.45-1.316-7.894.119-1.755 1.03-3.797 1.62-5.977 1.62-6.938 0-12.485-5.975-11.8-13.073.503-5.208 4.45-9.54 9.582-10.497l.118-.021c2.816-.497 5.173-2.414 6.14-5.112 3.098-8.652 11.353-14.84 21.05-14.84h.023c1.336 0 2.524-.834 3.002-2.085 3.526-9.233 12.664-15.68 23.233-15.138.362.018.723.045 1.081.08l.002-.002.074-.146.008-.014.01-.017.02-.042.055-.103.078-.145.008-.016.009-.015.079-.145.055-.1.025-.043.009-.016.007-.014.081-.142.055-.095.029-.05.01-.016.006-.011.083-.14.003-.006.008-.012.043-.073.033-.055.01-.016.006-.009.085-.139.005-.006.009-.015.039-.063.039-.062.01-.015.004-.007.088-.137.005-.01.01-.015.036-.055.045-.07.008-.012.004-.005.09-.136.007-.01.01-.016.032-.048.054-.079.007-.01.093-.136.009-.012.01-.014.029-.042.065-.093.095-.134.01-.013.01-.014c.064-.089.129-.178.194-.265l.01-.015.01-.012.098-.131.067-.088.033-.043.012-.015.008-.01.1-.129.065-.083.038-.049.012-.014.007-.01.102-.125.005-.006.01-.013.049-.06.044-.054.012-.013.006-.007.103-.125.006-.008.012-.013.044-.052.051-.06.01-.013.005-.005.106-.123.008-.009.012-.014.04-.045.06-.068.01-.013.108-.12.01-.011.012-.014.035-.04.07-.077.006-.005.11-.12.012-.012.012-.013c.074-.08.149-.158.224-.237l.012-.013.012-.012.113-.117.079-.08.036-.036.014-.014.01-.01.115-.114.076-.076.042-.04.014-.014.009-.009.116-.112.005-.005.012-.011.058-.055.048-.045.013-.013.008-.008.118-.109.007-.007.014-.012.05-.047.056-.05.014-.013.006-.006.119-.107.01-.008.014-.013.045-.04.064-.057.012-.01.004-.004.121-.106.011-.009.015-.013.04-.035.075-.063.01-.009.123-.104.013-.01.015-.013.036-.03.089-.073.126-.103.015-.011.013-.012.127-.101.09-.07.038-.03.016-.012.012-.01.128-.099.087-.066.044-.033.016-.013.011-.008.13-.096.004-.004.014-.01.066-.049.05-.036.017-.013.01-.006.13-.094.007-.006.016-.01.059-.042.057-.041.016-.01.008-.007.131-.09.01-.008.017-.011.052-.036.067-.045.014-.01.006-.004.133-.089.012-.008.018-.012.045-.03.078-.05.015-.01.135-.087.014-.01.017-.01.04-.026.091-.057.007-.004.137-.086.016-.01.016-.01.139-.084.1-.06.04-.024.016-.01.015-.008.14-.082.097-.056.046-.026.017-.01.013-.008.14-.079.006-.003.014-.008.075-.041.052-.03.019-.009.011-.006.141-.077.008-.004.016-.01.067-.034.06-.032.018-.01.01-.005.142-.074.01-.005.018-.009.06-.03.068-.035.017-.008.007-.004.144-.072.013-.006.018-.009.052-.026.08-.039.019-.008.146-.07.014-.007.018-.009.047-.021.093-.044.01-.004.15-.068.015-.007.017-.008.3-.132.019-.008.016-.007.15-.064.106-.044.048-.02.018-.007.014-.006.152-.062.102-.04.055-.022.019-.007.012-.005.153-.058.006-.003.017-.006.075-.028.062-.023.019-.008.01-.003c.052-.02.103-.038.154-.056l.01-.004.018-.006.066-.024.072-.025.017-.007.008-.002.155-.054.012-.004.019-.006.059-.02.083-.028.014-.004.006-.002.157-.052.013-.004.02-.006.051-.017.097-.03.012-.003.159-.05.015-.004.019-.005c.106-.033.213-.064.32-.094l.018-.005.017-.005.162-.045.112-.03.05-.013.018-.005.015-.004.162-.042.11-.027.056-.015.019-.004.013-.003.162-.04h.006l.016-.004.083-.02.065-.015.019-.004.01-.003.164-.036.008-.001.018-.004.074-.016.074-.016.018-.003.009-.002.164-.034.011-.002.02-.004.065-.013.084-.016.016-.003h.006l.166-.032.013-.002.02-.004.057-.01.098-.017.014-.002c.056-.01.111-.02.168-.028l.015-.003.019-.003.05-.008.118-.018.17-.025.017-.003.018-.002c.113-.016.226-.032.34-.046l.019-.002.016-.003.17-.02.115-.014.057-.005.02-.003.015-.001.169-.018h.005l.016-.002.09-.008.065-.006.02-.002.013-.002.17-.014h.008l.02-.002.078-.006.073-.006h.02l.01-.002.17-.011.012-.001.022-.001.069-.005.082-.004h.02l.008-.001.17-.01h.036l.061-.003.095-.004h.021l.17-.006h.018l.022-.001.053-.001.109-.002.013-.001.172-.002h.041l.173-.001z" transform="translate(-1040 -852) translate(0 785) translate(1044 77) matrix(-1 0 0 1 210 -10) translate(7.071) translate(.581)"/>
                                </g>
                            </g>
                            <g>
                                <g>
                                    <path fill="#FFF" d="M46.661 4.362l3.965-2.55c7.363 6.057 15.328 8.599 24.209 5.813l16.316 27.746v90.49H50.626L42.91 25.954 46.66 4.362z" transform="translate(-1040 -852) translate(0 785) translate(1044 77) matrix(-1 0 0 1 210 -10) translate(7.071) translate(15.124 50.893) translate(.826 18.286)"/>
                                    <path fill="#FC3" d="M39.156 6.805v-.001L45.175.802c1.404-1.4 3.785-.894 4.497.957l17.284 44.946c1.141 2.966 1.684 6.128 1.6 9.305l-1.906 71.278c-.113 4.231-3.672 7.548-7.9 7.36l-35.488-1.571c-3.87-.172-6.664-3.77-5.871-7.563l5.512-26.386-11.381-1.38C3.638 96.793-1.586 89.095.437 81.416L15.99 22.351c1.529-5.806 5.969-10.398 11.72-12.12l11.447-3.427zM94.5 87.176l-2.12 5.078 11.278 28.88c1.65 4.223-.89 8.917-5.326 9.846l-7.5 1.572c-3.242.68-6.289-1.796-6.289-5.11V83.154l1.096-21.328.383-7.476c.133-2.586-.086-5.179-.652-7.706L79.92 22.281c-.522-2.332-1.382-4.575-2.551-6.659l-4.953-8.818 21.574 7.318c4.222 1.432 7.168 5.265 7.464 9.714l1.96 47.112 14.407 5.335-4.227 9.018c-2.217 4.73-7.898 6.698-12.565 4.354L94.5 87.176zM22.736 77.21l4.773-.136.377-1.803-2.22-10.625-2.93 12.564z" transform="translate(-1040 -852) translate(0 785) translate(1044 77) matrix(-1 0 0 1 210 -10) translate(7.071) translate(15.124 50.893) translate(.826 18.286)"/>
                                    <path fill="#DEEDF2" d="M100.715 98.286L133.662 41.143 112.839 41.143 79.892 98.286z" transform="translate(-1040 -852) translate(0 785) translate(1044 77) matrix(-1 0 0 1 210 -10) translate(7.071) translate(15.124 50.893) translate(.826 18.286)"/>
                                    <path fill="#723846" d="M93.604 82.933c.8 0 1.45.65 1.45 1.45 0 .698-.498 1.297-1.184 1.425l-8.602 1.604 4.98.383c.842.065 1.49.766 1.49 1.61 0 .867-.685 1.58-1.553 1.612l-13.636.51c-3.52.132-7.042-.147-10.497-.832l-3.591-.712L32.466 96.3l6.645-16.634 20.779-2.289 14.513-3.982 8.086-.521c1.459-.095 2.923.008 4.354.305l6.934 1.437c.67.14 1.183.676 1.292 1.35.133.828-.376 1.623-1.182 1.849l-2.731.765 3.342.686c.758.155 1.302.823 1.302 1.597 0 .653-.389 1.242-.988 1.5l-1.334.571h.126zm16.665-3.304l-3.001-4.531c-.81-1.253-.692-2.906.321-4 .083-.09.152-.153.202-.179-.161-.977.154-1.972.848-2.677l.873-.887c-.371-1.01-.107-2.144.674-2.885l1.184-1.123c-.118-.705.163-1.417.73-1.852l.325-.249c.604-.463 1.423-.53 2.093-.17l3.338 1.793c1.305.7 2.324 1.838 2.878 3.213l-.832-5.02c-.21-1.263.215-2.548 1.135-3.438.393-.38.953-.532 1.484-.405.806.194 1.33.971 1.207 1.79l-.222 1.484.682 1.725c.594 1.502.751 3.141.453 4.73l-.096.508c-.196 1.046-.515 2.065-.95 3.036-1.882 4.205-4.434 8.076-7.555 11.464l-.003.004c-.812.881-1.851 1.532-3.012 1.827-1.3.332-3.156.341-4.593-.976l1.837-3.182z" transform="translate(-1040 -852) translate(0 785) translate(1044 77) matrix(-1 0 0 1 210 -10) translate(7.071) translate(15.124 50.893) translate(.826 18.286)"/>
                                </g>
                            </g>
                        </g>
                    </g>
                </g>
            </g>
        </g>
    </g>
</svg>
