<svg xmlns="http://www.w3.org/2000/svg" width="200" height="352" viewBox="0 0 200 352">
    <g fill="none" fill-rule="evenodd">
        <g>
            <g>
                <g>
                    <g>
                        <g>
                            <g>
                                <g>
                                    <path fill="#C00" d="M60.773 123.716c-1.276-.004-2.542-.07-3.791-.195l35.776-61.898c4.575 6.452 7.259 14.36 7.235 22.891-.06 21.705-17.613 39.26-39.22 39.202m20.071-86.9l-47.137 82.062c-6.152 10.71-.54 24.375 11.34 27.603l73.115 19.87L135.098 89.2l-34.021-52.896c-4.814-7.485-15.798-7.207-20.233.512" transform="translate(-156 -770) translate(0 785) translate(108 77) matrix(-1 0 0 1 248 -92) translate(18 86.571) translate(.817 .346)"/>
                                    <path fill="#1BB3BC" d="M98.297 117.257l4.56-7.56 2.15-3.556 2.314-3.837.62-1.03 1.343-2.23 5.74-9.535 3.38-4.53-10.259-7.4-3.547-2.566-8.344-6.019-2.5-1.81-5.427-.617-.128-.013-18.742-2.125-1.59-.188-1.197-.132-3.49-.395-4.553-.52 3.63-13.177 9.898.056 5.266.03 16.253.097c5.519.028 11.008.66 16.358 1.902 6.222 1.42 12.264 3.655 17.963 6.665 10.278 5.43 22.503 13.393 30.689 23.646 6.976 8.744 9.397 20.017 7.199 30.602-.861 4.147-2.435 8.187-4.717 11.928L150.2 142.92h.001l-4.673 7.594-5.02 8.15c-4.788 5.54-11.386 8.192-17.929 8.139-1.485-.014-2.961-.165-4.42-.456h-.013c-.01 0-.03-.005-.046-.01-.013-.008-.036-.008-.049-.013-1.031-.2-2.049-.478-3.043-.83-.012 0-.03 0-.035-.012-5.02-1.746-9.512-5.22-12.501-10.323l-2.68-4.571-5.122-8.733-27.281-6.96c-7.76-1.98-13.938-7.873-16.308-15.56L38.108 77.272l9.937-5.23 22.453 43.09 27.8 2.125z" transform="translate(-156 -770) translate(0 785) translate(108 77) matrix(-1 0 0 1 248 -92) translate(18 86.571) translate(.817 .346)"/>
                                    <g>
                                        <g>
                                            <path fill="#9BC3D3" d="M0 50.826L73.512 50.826 73.512 0 0 0z" transform="translate(-156 -770) translate(0 785) translate(108 77) matrix(-1 0 0 1 248 -92) translate(18 86.571) translate(.817 .346) rotate(-42 65.501 25.785) translate(1 10.996)"/>
                                            <path fill="#DEEDF2" d="M3.752 50.826L69.759 50.826 69.759 0 3.752 0z" transform="translate(-156 -770) translate(0 785) translate(108 77) matrix(-1 0 0 1 248 -92) translate(18 86.571) translate(.817 .346) rotate(-42 65.501 25.785) translate(1 10.996)"/>
                                            <path fill="#DEEDF2" d="M36.756 50.826L69.759 50.826 69.759 0 36.756 0zM36.756 50.827L3.753 50.827 3.753 0z" transform="translate(-156 -770) translate(0 785) translate(108 77) matrix(-1 0 0 1 248 -92) translate(18 86.571) translate(.817 .346) rotate(-42 65.501 25.785) translate(1 10.996)"/>
                                        </g>
                                    </g>
                                    <path fill="#1BB3BC" d="M165.883 113.015c-.861 4.147-2.435 8.187-4.717 11.928L150.2 142.92l-4.673 7.594-5.018 8.15c-4.79 5.541-11.386 8.192-17.929 8.139l-.879-15.132-.44-7.61c-.084-1.456-.275-2.877-.566-4.27-2.32-11.179-11.017-20.122-22.398-22.531l4.56-7.563 2.151-3.556 2.314-3.837.62-1.03 1.343-2.23 5.74-9.535 3.38-4.53 15.736-.03c11.12-.024 21.278 6.36 26.128 16.423l5.615 11.643z" transform="translate(-156 -770) translate(0 785) translate(108 77) matrix(-1 0 0 1 248 -92) translate(18 86.571) translate(.817 .346)"/>
                                </g>
                                <path fill="#137E84" d="M115.564 148.744c.423.39.855.765 1.298 1.122-4.127 1.596-8.46 2.66-12.898 3.149l-3.027.334-5.745-9.806 20.373 5.2z" transform="translate(-156 -770) translate(0 785) translate(108 77) matrix(-1 0 0 1 248 -92) translate(18 86.571)"/>
                            </g>
                            <g>
                                <g fill="#FFC4B8">
                                    <path d="M30.472 56.979C20.645 53.913 13.5 44.693 13.5 33.809c0-13.387 10.806-24.255 24.116-24.255s24.116 10.868 24.116 24.254c0 9.758-5.742 18.178-14.01 22.025.461 2.707 2.092 5.253 3.591 7.108-.514.33-1.047.64-1.597.929-7.425 3.914-16.082 3.035-22.473-1.534l2.596-4.305.633-1.052z" transform="translate(-156 -770) translate(0 785) translate(108 77) matrix(-1 0 0 1 248 -92) translate(18 86.571) translate(77.5 46.183)"/>
                                </g>
                                <g fill="#9E3667">
                                    <path d="M15 25.65c.288-.801.618-1.587.988-2.355h.008c2.183-4.54 5.779-8.435 10.562-10.955 11.867-6.243 26.526-1.643 32.748 10.306.2.383.39.77.567 1.16 1.736 3.005 2.46 6.826 4.277 9.845 3.765 6.253 11.414 7.984 15.93 13.57 3.753 4.646 4.785 11.85 2.519 17.596-2.267 5.756-7.48 10.087-8.059 16.35-.588 6.323 3.86 12.155 3.453 18.496-.438 6.84-7.636 11.932-13.287 9.4-6.383-2.861-8.206-12.033-8.172-19.78.032-7.745.805-16.28-3.334-22.46-2.837-4.235-7.406-6.421-11.821-8.714-4.051.604-8.152.15-11.92-1.242.618-1.152.749-2.811.252-4.499-.813-2.744-2.99-4.509-4.864-3.946-.688.206-1.238.698-1.62 1.374-11.631-7.832-7.233-26.5-7.233-26.5h-.006c-.37.767-.7 1.553-.988 2.353zm10.638 29.43c1.108.643 2.263 1.194 3.452 1.65-1.188-.454-2.343-1.006-3.452-1.65zm-7.323-6.585c.836 1.136 1.758 2.183 2.75 3.137-.992-.954-1.914-2-2.75-3.137z" transform="translate(-156 -770) translate(0 785) translate(108 77) matrix(-1 0 0 1 248 -92) translate(18 86.571) translate(77.5 46.183)"/>
                                </g>
                            </g>
                        </g>
                    </g>
                </g>
            </g>
        </g>
    </g>
</svg>
