<svg xmlns="http://www.w3.org/2000/svg" width="195" height="195" viewBox="0 0 195 195">
    <g fill="none" fill-rule="evenodd">
        <g>
            <g>
                <g>
                    <g>
                        <g>
                            <path fill="#D39E00" d="M68.133 32.698s8.618 24.954 14.387 26.599c0 0 .195-9.603-4.755-17.804-4.95-8.2-9.632-8.795-9.632-8.795" transform="translate(-779 -862) translate(0 785) translate(732 77) translate(47) translate(58.5)"/>
                            <path fill="#723846" d="M74.323 32.052l3.645 4.802 1.856 2.445 8.924 11.753-11.088 5.864-.36.192-1.345.712-8.388 8.456c-2.126 2.142-4.658 3.84-7.445 4.995l-4.73 1.96c-1.703 3.635-3.992 6.972-6.78 9.873l-4.057 4.22-8.512-4.464 3.682-7.962-3.022 2.945L24 69.62l8.136-14.876c1.762-3.218 4.632-5.688 8.079-6.948l21.472-7.85c.7-.255 1.372-.59 1.999-.996l5.279-3.424.369-.24.17-.109.872-.565 3.947-2.56z" transform="translate(-779 -862) translate(0 785) translate(732 77) translate(47) translate(58.5)"/>
                            <path fill="#FC3" d="M118.39 0L68.133 32.698S79.038 47.894 82.52 59.297l53.966-24.495L118.39 0z" transform="translate(-779 -862) translate(0 785) translate(732 77) translate(47) translate(58.5)"/>
                            <g>
                                <g>
                                    <g>
                                        <path fill="#9E3667" d="M54.502 16.966L7.462 42.733 0 26.119 8.351 21.189 15.398 17.03 45.204 0 51.726 11.903z" transform="translate(-779 -862) translate(0 785) translate(732 77) translate(47) translate(58.5) translate(.375 59.25) translate(.062 3.988) translate(5.201 8.953)"/>
                                        <path fill="#732645" d="M45.204 0l6.522 11.903-2.59 6.281c-5.504 2.055-10.998 3.247-16.223 3.855-.291 2.714-1.85 5.233-4.376 6.588-4.026 2.158-8.987.543-11.08-3.608-.448-.887-.728-1.818-.853-2.755-3.068-.254-5.85-.646-8.253-1.075l7.047-4.159 3.808-2.176c.516-.485 1.1-.91 1.75-1.257.513-.275 1.041-.489 1.577-.644L45.203 0z" transform="translate(-779 -862) translate(0 785) translate(732 77) translate(47) translate(58.5) translate(.375 59.25) translate(.062 3.988) translate(5.201 8.953)"/>
                                    </g>
                                    <g>
                                        <path fill="#C3DEE7" d="M58.41 8.587L50.835 26.95c-25.214 9.415-50.209.716-50.209.716L6.593 1.242l33.092 4.69 11.8 1.673 6.925.982z" transform="translate(-779 -862) translate(0 785) translate(732 77) translate(47) translate(58.5) translate(.375 59.25) translate(.062 3.988)"/>
                                        <path fill="#DEEDF2" d="M57.783 7.345L50.208 25.71C24.995 35.124 0 26.425 0 26.425L5.967 0l33.091 4.69 11.8 1.673 6.925.982z" transform="translate(-779 -862) translate(0 785) translate(732 77) translate(47) translate(58.5) translate(.375 59.25) translate(.062 3.988)"/>
                                        <path fill="#9BC3D3" d="M35.568 13.097c2.256 4.472.568 9.983-3.77 12.308-4.337 2.326-9.683.586-11.939-3.887-2.256-4.472-.568-9.982 3.77-12.308 4.34-2.325 9.685-.585 11.94 3.887zM16.193 7.9c.914 1.813.23 4.047-1.529 4.99-1.758.942-3.925.237-4.84-1.576-.913-1.813-.23-4.047 1.53-4.99 1.758-.942 3.924-.237 4.839 1.576z" transform="translate(-779 -862) translate(0 785) translate(732 77) translate(47) translate(58.5) translate(.375 59.25) translate(.062 3.988)"/>
                                    </g>
                                </g>
                            </g>
                            <path fill="#723846" d="M32.212 77.77l3.557-6.584c.363-.671.855-1.265 1.45-1.745l4.632-3.753c.845-.684 1.931-.994 3.01-.859 6.513.817 13.037-1.411 17.69-6.04l5.535-5.507-6.607-9.13L44.687 50.2c-4.004 1.443-7.337 4.311-9.36 8.057l-.632 1.17-3.232 3.27c-.741.75-1.318 1.645-1.695 2.63l-3.775 9.863c-.599 2.174 1.021 4.326 3.275 4.353.055 0 .11 0 .165-.002 1.173-.042 2.222-.74 2.78-1.772" transform="translate(-779 -862) translate(0 785) translate(732 77) translate(47) translate(58.5)"/>
                        </g>
                        <g>
                            <g>
                                <path fill="#34466B" d="M49.3 45.697h5.03s5.627-19.899 4.297-28.57l-4.562-2.534-8.842 26.362 4.076 4.742z" transform="translate(-779 -862) translate(0 785) translate(732 77) translate(47) translate(0 78) translate(0 33.048)"/>
                                <path fill="#F4A48D" d="M108.478 15.705c.376-.353.843-.473 1.287-.33 1.224.392 1.665 2.458.785 3.683-.375.522-.778 1.082-1.187 1.648l-.307.426c-1.694 2.341-3.392 4.655-3.518 4.69-.256.069-7.009-.768-7.009-.768l2.115-1.987-8.458 2.963-1.448-1.626-1.98-2.226-.105-.117-.969-1.09 4.979-1.534 3.36-1.036 4.534-1.398c1.39-.428 2.807.538 3.388 2.311.058.177.097.357.119.539z" transform="translate(-779 -862) translate(0 785) translate(732 77) translate(47) translate(0 78) translate(0 33.048)"/>
                                <path fill="#FFC4B8" d="M74.242 11.945l2.43 1.056c1.14.495 2.339.696 3.533.592l9.258-.812c.133-.011.264-.013.394-.003 1.623.116 2.979 1.823 3.158 4.077.013.166.02.33.02.495 0 .746-.134 1.458-.372 2.087-.509 1.347-1.498 2.322-2.69 2.464l-1.32.16-.726.087h-.002l5.503.196 5.613.2 8.56-3.673 5.324-5.104c.872-.836 2.041-.797 2.882.096 1.138 1.208 1.247 3.48.269 4.88l-.123.163-.752.937c.251 1.1-.117 2.333-.918 2.852l-2.857 1.85-5.94 7.402c-1.404 1.75-3.123 2.958-4.98 3.505l-.329.09-13.82 3.457c-.643.16-1.295.238-1.948.23l-.327-.011-15.95-.881-13.846-.645-13.77-.643 4.455-12.331 2.605-7.21 13.512-5.303c4.22-2.02 8.838-2.135 13.154-.26z" transform="translate(-779 -862) translate(0 785) translate(732 77) translate(47) translate(0 78) translate(0 33.048)"/>
                                <path fill="#9BC3D3" d="M1.74.152l30.066 10.364.245.083c.218-.322.448-.62.69-.888l23.123 4.247s-2.276 7.996-3.577 16.34l-.114.747c-.315 2.12-.56 4.249-.684 6.26-.29 4.709-1.33 9.274-3.063 13.366H29.145s-.167-1.493-.359-3.921l-3.077-.234L0 44.582 1.74.152z" transform="translate(-779 -862) translate(0 785) translate(732 77) translate(47) translate(0 78) translate(0 33.048)"/>
                            </g>
                        </g>
                    </g>
                </g>
            </g>
        </g>
    </g>
</svg>
