<svg xmlns="http://www.w3.org/2000/svg" xmlns:xlink="http://www.w3.org/1999/xlink" width="576" height="386" viewBox="0 0 576 386">
    <defs>
        <rect id="v425n3l5ja" width="576" height="181" x="0" y="0" rx="4"/>
        <rect id="akxy1kq3gb" width="576" height="181" x="0" y="0" rx="4"/>
    </defs>
    <g fill="none" fill-rule="evenodd">
        <g transform="translate(0 205)">
            <use fill="#FFF" xlink:href="#v425n3l5ja"/>
            <g fill="#946F00">
                <text font-family="SantanderMicroText, Santander Micro Text" font-size="14" transform="translate(415 133)">
                    <tspan x="32.126" y="17">To be confirmed</tspan>
                </text>
                <path d="M7.529 2.997c.019 0 .035.01.054.011.038.004.074.01.109.022.029.01.054.024.08.04.029.016.056.032.082.054.025.023.046.05.067.077.013.017.03.029.04.047.006.009.005.019.01.029.015.03.023.062.032.095.009.034.018.065.02.098 0 .01.006.02.006.03v5.06c0 .277-.224.503-.5.503-.277 0-.5-.226-.5-.503V4.463C4.98 6.089 3.557 9.095 3.557 11.998c0 4.683 3.788 8.493 8.443 8.493.276 0 .5.225.5.503s-.224.503-.5.503c-5.207 0-9.443-4.26-9.443-9.5 0-3.01 1.41-6.124 3.479-7.994H2.5c-.276 0-.5-.225-.5-.503 0-.279.224-.503.5-.503zM12 2.5c5.207 0 9.443 4.236 9.443 9.443 0 2.991-1.41 6.088-3.479 7.946H21.5c.276 0 .5.224.5.5s-.224.5-.5.5h-5.029c-.082 0-.156-.024-.224-.06-.018-.008-.033-.021-.05-.033-.052-.035-.095-.078-.131-.13-.007-.01-.021-.015-.027-.027-.005-.009-.005-.019-.01-.027-.015-.031-.024-.063-.032-.097-.009-.032-.018-.064-.02-.096l-.006-.03V15.36c0-.277.224-.5.5-.5.277 0 .5.223.5.5v4.071c2.049-1.615 3.472-4.604 3.472-7.488C20.443 7.287 16.655 3.5 12 3.5c-.276 0-.5-.224-.5-.5 0-.277.224-.5.5-.5z" transform="translate(415 133)"/>
            </g>
            <text fill="#444" font-family="SantanderMicroText, Santander Micro Text" font-size="14">
                <tspan x="24" y="149">Bamboo Enterprise S.A.</tspan>
            </text>
            <g fill="#3A8340">
                <text font-family="SantanderMicroText, Santander Micro Text" font-size="14" transform="translate(451 93)">
                    <tspan x="32.582" y="17">Confirmed</tspan>
                </text>
                <path d="M12 2c5.514 0 10 4.486 10 10s-4.486 10-10 10S2 17.514 2 12 6.486 2 12 2zm0 1c-4.963 0-9 4.037-9 9s4.037 9 9 9 9-4.037 9-9-4.037-9-9-9zm4.001 4.23c.15-.234.458-.298.691-.152.232.15.301.458.152.691l-5.153 8.071c-.083.13-.22.213-.372.227-.017.002-.033.003-.05.003-.135 0-.265-.054-.36-.153l-3.77-3.916c-.19-.199-.185-.516.014-.707.198-.19.515-.185.707.013l3.33 3.46z" transform="translate(451 93)"/>
            </g>
            <text fill="#444" font-family="SantanderMicroText, Santander Micro Text" font-size="14">
                <tspan x="24" y="109">Bamboo Enterprise S.A.</tspan>
            </text>
            <path fill="#CEDEE7" d="M24 76H552V77H24z"/>
            <g>
                <text fill="#444" font-family="SantanderMicroText-Bd, Santander Micro Text" font-size="16" font-weight="bold" transform="translate(24 24)">
                    <tspan x="40" y="19">Chile</tspan>
                </text>
                <g fill-rule="nonzero" transform="translate(24 24)">
                    <circle cx="14" cy="14" r="14" fill="#F0F0F0"/>
                    <path fill="#D80027" d="M28 14c0 7.732-6.268 14-14 14S0 21.732 0 14s14 0 14 0h14z"/>
                    <path fill="#0052B4" d="M0 14C0 6.268 6.268 0 14 0v14H0z"/>
                    <path fill="#F0F0F0" d="M8.334 4.87L9.24 7.66 12.174 7.66 9.801 9.384 10.707 12.174 8.334 10.45 5.96 12.174 6.867 9.384 4.494 7.66 7.427 7.66z"/>
                </g>
            </g>
        </g>
        <use fill="#FFF" xlink:href="#akxy1kq3gb"/>
        <g fill="#3A8340">
            <text font-family="SantanderMicroText, Santander Micro Text" font-size="14" transform="translate(451 133)">
                <tspan x="32.582" y="17">Confirmed</tspan>
            </text>
            <path d="M12 2c5.514 0 10 4.486 10 10s-4.486 10-10 10S2 17.514 2 12 6.486 2 12 2zm0 1c-4.963 0-9 4.037-9 9s4.037 9 9 9 9-4.037 9-9-4.037-9-9-9zm4.001 4.23c.15-.234.458-.298.691-.152.232.15.301.458.152.691l-5.153 8.071c-.083.13-.22.213-.372.227-.017.002-.033.003-.05.003-.135 0-.265-.054-.36-.153l-3.77-3.916c-.19-.199-.185-.516.014-.707.198-.19.515-.185.707.013l3.33 3.46z" transform="translate(451 133)"/>
        </g>
        <text fill="#444" font-family="SantanderMicroText, Santander Micro Text" font-size="14">
            <tspan x="24" y="149">Bamboo Enterprise S.A.</tspan>
        </text>
        <g fill="#3A8340">
            <text font-family="SantanderMicroText, Santander Micro Text" font-size="14" transform="translate(451 93)">
                <tspan x="32.582" y="17">Confirmed</tspan>
            </text>
            <path d="M12 2c5.514 0 10 4.486 10 10s-4.486 10-10 10S2 17.514 2 12 6.486 2 12 2zm0 1c-4.963 0-9 4.037-9 9s4.037 9 9 9 9-4.037 9-9-4.037-9-9-9zm4.001 4.23c.15-.234.458-.298.691-.152.232.15.301.458.152.691l-5.153 8.071c-.083.13-.22.213-.372.227-.017.002-.033.003-.05.003-.135 0-.265-.054-.36-.153l-3.77-3.916c-.19-.199-.185-.516.014-.707.198-.19.515-.185.707.013l3.33 3.46z" transform="translate(451 93)"/>
        </g>
        <text fill="#444" font-family="SantanderMicroText, Santander Micro Text" font-size="14">
            <tspan x="24" y="109">Bamboo Enterprise S.A.</tspan>
        </text>
        <path fill="#CEDEE7" d="M24 76H552V77H24z"/>
        <g>
            <text fill="#444" font-family="SantanderMicroText-Bd, Santander Micro Text" font-size="16" font-weight="bold" transform="translate(24 24)">
                <tspan x="40" y="19">Argentina</tspan>
            </text>
            <g fill-rule="nonzero" transform="translate(24 24)">
                <circle cx="14" cy="14" r="14" fill="#F0F0F0"/>
                <g fill="#338AF3">
                    <path d="M12.633 0C7.083 0 2.286 3.23.022 7.913h25.222C22.979 3.23 18.184 0 12.633 0zM12.633 28c5.55 0 10.346-3.23 12.61-7.913H.023C2.286 24.77 7.082 28 12.632 28z" transform="translate(1.367)"/>
                </g>
                <path fill="#FFDA44" d="M18.184 14L16.475 14.804 17.385 16.46 15.528 16.105 15.293 17.981 14 16.601 12.707 17.981 12.472 16.105 10.615 16.46 11.525 14.804 9.816 14 11.525 13.196 10.615 11.54 12.471 11.895 12.707 10.019 14 11.399 15.293 10.019 15.528 11.895 17.385 11.54 16.475 13.196z"/>
            </g>
        </g>
    </g>
</svg>
