<svg xmlns="http://www.w3.org/2000/svg" xmlns:xlink="http://www.w3.org/1999/xlink" width="936" height="355" viewBox="0 0 936 355">
    <defs>
        <rect id="prefix__a" width="764" height="405" x="0" y="4" rx="202.5"/>
        <path id="prefix__b" d="M4 0h928c2.21 0 4 1.79 4 4v351H0V4c0-2.21 1.79-4 4-4z"/>
        <mask id="prefix__d" width="764" height="405" x="0" y="0" fill="#fff" maskContentUnits="userSpaceOnUse" maskUnits="objectBoundingBox">
            <use xlink:href="#prefix__a"/>
        </mask>
    </defs>
    <g fill="none" fill-rule="evenodd">
        <mask id="prefix__c" fill="#fff">
            <use xlink:href="#prefix__b"/>
        </mask>
        <path fill="#EFF6F9" d="M-53-51H998c2.21 0 4 1.79 4 4v459H-57V-47c0-2.21 1.79-4 4-4z" mask="url(#prefix__c)"/>
        <g fill="#DEEDF2" mask="url(#prefix__c)">
            <path d="M107.527 78.704c25.852-4.534 52.986 6.787 66.875 30.193 17.7 29.825 7.195 67.958-23.455 85.175-13.356 7.502-28.337 9.791-42.454 7.522v.004l-.012-.005c-1.272-.204-2.536-.453-3.794-.733-2.567-.241-6.542-.25-12.275.634-4.939.762-11.018 2.327-16.387 3.88-4.337 1.766-8.755 3.16-13.22 4.17-.038.011-.055.018-.055.018l-.006-.005c-34.65 7.792-71.896-6.82-90.603-38.345-22.934-38.647-9.324-88.065 30.398-110.378 35.393-19.88 79.554-11.52 104.988 17.87"/>
        </g>
        <g fill="#C3DEE7" mask="url(#prefix__c)">
            <path d="M140.164 143.627c14.673-2.626 30.073 3.932 37.956 17.49 10.046 17.276 4.084 39.365-13.313 49.338-7.58 4.346-16.082 5.672-24.095 4.357v.002l-.007-.003c-.722-.117-1.439-.262-2.153-.424-1.457-.14-3.713-.145-6.967.367-2.803.442-6.253 1.348-9.3 2.247-2.462 1.023-4.97 1.83-7.504 2.416l-.031.01-.003-.002c-19.666 4.514-40.806-3.95-51.424-22.212-13.017-22.387-5.292-51.012 17.253-63.937 20.088-11.516 45.153-6.673 59.588 10.35"/>
        </g>
        <g fill="#9BC3D3" mask="url(#prefix__c)" opacity=".5">
            <path d="M826.857 155.837c12.45-1.864 24.704 8.622 34.407 18.129 6.529-12.164 21.868-18.284 32.54-16.525 2.038.334 2.141 3.837 0 4.039-6.474.613-12.841 3.06-17.817 8.443-4.188 4.532-6.201 8.431-9.644 13.647-.99 1.5-2.983 1.965-4.413 1.453-.377-.136-.76-.307-1.087-.571-.373-.295-.7-.672-.995-1.076-.196-.179-.401-.26-.587-.497-8.709-11.228-19.645-23.248-32.404-23.434-1.915-.027-1.807-3.336 0-3.608zm75.157-35c5.735-6.82 19.209-10.249 28.583-9.262 1.793.186 1.88 2.151 0 2.264-5.691.342-11.28 1.72-15.648 4.734-3.684 2.544-5.452 6.04-8.479 8.964-.866.835-2.62 1.099-3.874.811-.328-.073-.666-.17-.95-.318-.333-.167-.617-.38-.877-.606-.171-.097-.357-.144-.514-.28-7.65-6.295-17.26-10.412-28.466-10.517-1.68-.015-1.582-1.868 0-2.023 10.937-1.048 21.702.905 30.225 6.233zm-154.07-65.602c13.233-1.39 32.256 3.452 40.352 13.08 12.034-7.523 27.232-10.28 42.67-8.804 2.243.213 2.375 2.83 0 2.854-15.82.148-29.387 5.965-40.186 14.855-.226.186-.485.252-.73.392-.363.323-.764.618-1.23.855-.406.206-.881.341-1.346.45-1.773.408-4.252.035-5.476-1.15-4.266-4.132-6.764-9.064-11.96-12.652-6.172-4.257-14.062-6.199-22.095-6.684-2.654-.16-2.527-2.932 0-3.196z"/>
        </g>
        <g mask="url(#prefix__c)">
            <g transform="translate(131 26)">
                <use stroke="#9BC3D3" stroke-dasharray="2 4" stroke-width="2" mask="url(#prefix__d)" xlink:href="#prefix__a"/>
                <circle cx="344" cy="4" r="4" fill="#FC3"/>
                <circle cx="15" cy="283" r="4" fill="#9E3667"/>
                <circle cx="761" cy="172" r="4" fill="#1BB3BC"/>
            </g>
        </g>
        <g mask="url(#prefix__c)">
            <g>
                <g>
                    <path fill="#9BC3D3" d="M237.043 475.986L299.135 475.986 299.135 287.384 237.043 287.384z" transform="translate(198 29) translate(2.025 31.725)"/>
                    <path fill="#9BC3D3" d="M27.278 378.241h481.625c15.063 0 27.27-12.21 27.27-27.27V27.267C536.173 12.206 523.966 0 508.903 0H27.278C12.209 0 0 12.206 0 27.268V350.97c0 15.062 12.21 27.271 27.278 27.271" transform="translate(198 29) translate(2.025 31.725)"/>
                    <path fill="#FFF" d="M20.997 318.966L515.173 318.966 515.173 20.442 20.997 20.442z" transform="translate(198 29) translate(2.025 31.725)"/>
                </g>
                <g transform="translate(198 29) translate(23 52)">
                    <path fill="#ECECEC" d="M0 12H494V24H0z"/>
                    <path fill="#9BC3D3" d="M494 0H504V323H494z"/>
                    <path fill="#F6FAFC" d="M0 24H494V80H0z"/>
                    <path fill="#A2A2A2" d="M0 0H494V12H0zM37.05 37.379H78.217V45.611999999999995H37.05z"/>
                    <path fill="#FFF" d="M37.05 68H104.289V80H37.05z"/>
                    <path fill="#E8F3F6" d="M104.289 68H171.52800000000002V80H104.289z"/>
                    <rect width="62.779" height="12" y=".722" fill="#FAB2B2" rx="6" transform="translate(394.17 39.978)"/>
                    <path fill="#C7C7C7" d="M37.05 112.165H69.983V117.65400000000001H37.05zM101.544 112.165H134.477V117.65400000000001H101.544z"/>
                    <path fill="#DEEDF2" d="M179.761 138.238H210.636V149.216H179.761zM213.381 138.238H249.745V149.216H213.381zM252.489 138.238H288.853V149.216H252.489z"/>
                    <path fill="#FAB2B2" d="M436.367 139.953H456.95000000000005V146.814H436.367zM393.828 139.953H428.13399999999996V146.814H393.828z"/>
                    <path fill="#ECECEC" d="M37.05 135.493H171.52800000000002V151.95999999999998H37.05z"/>
                    <path fill="#C7C7C7" d="M37.05 167.608H456.95V179.608H37.05z"/>
                    <path fill="#A2A2A2" d="M37.05 97.071H45.283V108.04899999999999H37.05zM101.544 97.071H109.777V108.04899999999999H101.544z"/>
                    <path fill="#C7C7C7" d="M166.039 112.165H198.97199999999998V117.65400000000001H166.039z"/>
                    <path fill="#A2A2A2" d="M166.039 97.071H174.272V108.04899999999999H166.039z"/>
                    <path fill="#C7C7C7" d="M230.533 112.165H263.466V117.65400000000001H230.533z"/>
                    <path fill="#A2A2A2" d="M230.533 97.071H238.766V108.04899999999999H230.533z"/>
                    <path fill="#C7C7C7" d="M295.028 112.165H327.961V117.65400000000001H295.028z"/>
                    <path fill="#A2A2A2" d="M295.028 97.071H303.261V108.04899999999999H295.028zM359.522 97.071H367.755V108.04899999999999H359.522z"/>
                    <path fill="#C7C7C7" d="M359.522 112.165H392.455V117.65400000000001H359.522z"/>
                    <path fill="#FFF" d="M37.05 179.608H456.95V201.564H37.05zM37.05 223.519H456.95V245.475H37.05z"/>
                    <path fill="#F6FAFC" d="M37.05 201.564H456.95V223.51999999999998H37.05zM37.05 245.475H456.95V267.431H37.05z"/>
                    <path fill="#A2A2A2" d="M52.831 188.528H89.881V192.64499999999998H52.831zM52.831 232.439H89.881V236.55599999999998H52.831zM52.831 210.483H89.881V214.6H52.831zM52.831 254.394H89.881V258.511H52.831zM315.268 188.528H359.179V192.64499999999998H315.268zM172 188.528H220V192.64499999999998H172zM172 210H220V214.117H172zM172 232H220V236.117H172zM172 255H220V259.117H172zM244 188.528H292V192.64499999999998H244zM244 210H292V214.117H244zM244 232H292V236.117H244zM244 255H292V259.117H244zM315.268 232.439H359.179V236.55599999999998H315.268zM315.268 210.483H359.179V214.6H315.268zM315.268 254.394H359.179V258.511H315.268z"/>
                    <path fill="#DADADA" d="M381.478 188.528H390.397V192.64499999999998H381.478zM381.478 232.439H390.397V236.55599999999998H381.478zM381.478 210.483H390.397V214.6H381.478zM381.478 254.394H390.397V258.511H381.478z"/>
                    <path fill="#A2A2A2" d="M416.813 188.528H441.513V192.64499999999998H416.813zM416.813 232.439H441.513V236.55599999999998H416.813zM416.813 210.483H441.513V214.6H416.813zM416.813 254.394H441.513V258.511H416.813z"/>
                    <rect width="34.306" height="8.233" x="117.668" y="186.469" fill="#FCCCCC" rx="4.117"/>
                    <rect width="34.306" height="8.233" x="117.668" y="230.381" fill="#ECD7E1" rx="4.117"/>
                    <rect width="34.306" height="8.233" x="117.668" y="208.425" fill="#FFF5D7" rx="4.117"/>
                    <rect width="34.306" height="8.233" x="117.668" y="252.336" fill="#D2F0F2" rx="4.117"/>
                    <path fill="#FFF" d="M37.05 267.431H456.95V289.387H37.05z"/>
                </g>
            </g>
        </g>
    </g>
</svg>
