<svg xmlns="http://www.w3.org/2000/svg" xmlns:xlink="http://www.w3.org/1999/xlink" width="936" height="355" viewBox="0 0 936 355">
    <defs>
        <rect id="prefix__a" width="764" height="405" x="0" y="4" rx="202.5"/>
        <path id="prefix__b" d="M4 0h928c2.21 0 4 1.79 4 4v351H0V4c0-2.21 1.79-4 4-4z"/>
        <mask id="prefix__d" width="764" height="405" x="0" y="0" fill="#fff" maskContentUnits="userSpaceOnUse" maskUnits="objectBoundingBox">
            <use xlink:href="#prefix__a"/>
        </mask>
    </defs>
    <g fill="none" fill-rule="evenodd">
        <mask id="prefix__c" fill="#fff">
            <use xlink:href="#prefix__b"/>
        </mask>
        <path fill="#EFF6F9" d="M-73-51h1118c2.21 0 4 1.79 4 4v459H-77V-47c0-2.21 1.79-4 4-4z" mask="url(#prefix__c)"/>
        <g fill="#DEEDF2" mask="url(#prefix__c)">
            <path d="M920.022 56.085C924.32 17.71 954.08-12 990.149-12c39.022 0 70.657 34.776 70.657 77.677 0 7.039-.851 13.858-2.448 20.341.6.009 1.195.032 1.786.07l.665-.06v.109c20.238 1.671 36.191 20.256 36.191 42.935 0 22.68-15.953 41.264-36.19 42.935v.129H803.553v-.005c-15.77 0-28.554-14.056-28.554-31.393 0-17.337 12.784-31.392 28.553-31.392v-.001l65.178-5.908c-.298-2.14-.452-4.332-.452-6.563 0-23.78 17.534-43.058 39.164-43.058 4.4 0 8.63.798 12.579 2.27z"/>
        </g>
        <g fill="#C3DEE7" mask="url(#prefix__c)">
            <path d="M979.283 157.075c12.577-2.065 25.777 3.092 32.534 13.753 8.61 13.586 3.5 30.956-11.41 38.798-6.498 3.418-13.786 4.46-20.653 3.427l-.001.001-.006-.002c-.618-.093-1.233-.206-1.845-.334-1.249-.11-3.183-.114-5.972.29-2.402.346-5.36 1.06-7.972 1.766-2.11.805-4.26 1.44-6.432 1.9l-.026.008-.003-.002c-16.857 3.55-34.976-3.107-44.077-17.466-11.157-17.605-4.536-40.115 14.788-50.279 17.218-9.056 38.702-5.247 51.075 8.14"/>
        </g>
        <g fill="#9BC3D3" mask="url(#prefix__c)" opacity=".5">
            <path d="M124.945 75.866c5.688-.717 11.288 3.316 15.72 6.973 2.984-4.679 9.993-7.033 14.87-6.356.93.128.977 1.476 0 1.553-2.96.236-5.868 1.178-8.142 3.248-1.913 1.743-2.833 3.243-4.406 5.249-.453.577-1.363.756-2.017.559-.172-.053-.347-.118-.497-.22-.17-.113-.32-.258-.454-.414-.09-.068-.183-.1-.268-.19-3.98-4.32-8.977-8.943-14.806-9.014-.875-.01-.826-1.283 0-1.388zm34.34-13.462c2.62-2.623 8.777-3.942 13.06-3.563.82.072.86.828 0 .871-2.6.132-5.154.662-7.15 1.821-1.683.979-2.49 2.323-3.874 3.448-.396.321-1.197.423-1.77.312-.15-.028-.304-.066-.434-.122-.152-.065-.282-.147-.4-.233-.079-.038-.164-.056-.235-.108-3.496-2.421-7.887-4.005-13.007-4.045-.768-.006-.723-.719 0-.778 4.997-.404 9.916.348 13.81 2.397zM88.888 37.171c6.047-.534 14.739 1.328 18.438 5.031 5.498-2.893 12.443-3.954 19.496-3.386 1.025.082 1.086 1.089 0 1.098-7.228.057-13.427 2.294-18.361 5.714-.103.071-.222.097-.334.15-.166.124-.349.238-.562.33-.185.078-.402.13-.615.172-.81.157-1.943.014-2.502-.442-1.95-1.59-3.09-3.486-5.465-4.867-2.82-1.637-6.425-2.384-10.095-2.57-1.213-.062-1.155-1.128 0-1.23z"/>
        </g>
        <g fill="#DEEDF2" mask="url(#prefix__c)">
            <path d="M14.527 78.704c25.852-4.534 52.986 6.787 66.875 30.193 17.7 29.825 7.195 67.958-23.455 85.175-13.356 7.502-28.337 9.791-42.454 7.522v.004l-.012-.005c-1.272-.204-2.536-.453-3.794-.733-2.567-.241-6.542-.25-12.275.634-4.939.762-11.018 2.327-16.387 3.88-4.337 1.766-8.755 3.16-13.22 4.17-.038.011-.055.018-.055.018l-.006-.005c-34.65 7.792-71.896-6.82-90.603-38.345-22.934-38.647-9.324-88.065 30.398-110.378 35.393-19.88 79.554-11.52 104.988 17.87"/>
        </g>
        <g fill="#C3DEE7" mask="url(#prefix__c)">
            <path d="M47.164 143.627c14.673-2.626 30.073 3.932 37.956 17.49 10.046 17.276 4.084 39.365-13.313 49.338-7.58 4.346-16.082 5.672-24.095 4.357v.002l-.007-.003c-.722-.117-1.439-.262-2.153-.424-1.457-.14-3.713-.145-6.967.367-2.803.442-6.253 1.348-9.3 2.247-2.462 1.023-4.97 1.83-7.504 2.416l-.031.01-.003-.002c-19.666 4.514-40.806-3.95-51.424-22.212-13.017-22.387-5.292-51.012 17.253-63.937 20.088-11.516 45.153-6.673 59.588 10.35"/>
        </g>
        <g mask="url(#prefix__c)">
            <g transform="translate(43 26)">
                <use stroke="#9BC3D3" stroke-dasharray="2 4" stroke-width="2" mask="url(#prefix__d)" xlink:href="#prefix__a"/>
                <circle cx="365" cy="4" r="4" fill="#9E3667"/>
                <circle cx="11" cy="270" r="4" fill="#1BB3BC"/>
                <circle cx="752" cy="275" r="4" fill="#FC3"/>
            </g>
        </g>
        <g mask="url(#prefix__c)">
            <g>
                <g>
                    <g>
                        <path fill="#9BC3D3" d="M237.043 475.986L299.135 475.986 299.135 287.384 237.043 287.384z" transform="translate(198 29) translate(2.025 31.725)"/>
                        <path fill="#9BC3D3" d="M27.278 378.241h481.625c15.063 0 27.27-12.21 27.27-27.27V27.267C536.173 12.206 523.966 0 508.903 0H27.278C12.209 0 0 12.206 0 27.268V350.97c0 15.062 12.21 27.271 27.278 27.271" transform="translate(198 29) translate(2.025 31.725)"/>
                        <path fill="#FFF" d="M20.997 318.966L515.173 318.966 515.173 20.442 20.997 20.442z" transform="translate(198 29) translate(2.025 31.725)"/>
                    </g>
                    <path fill="#FCFEFE" d="M0 0H395V273H0z" transform="translate(198 29) translate(23 52)"/>
                </g>
                <path fill="#E8F3F6" d="M23 52H518V357H23z" transform="translate(198 29)"/>
                <g transform="translate(198 29) translate(131 73)">
                    <path fill="#FFF" d="M0 0H135.022V93H0z"/>
                    <path fill="#CEDEE7" d="M0 202.533H278.311V231.46599999999998H0z"/>
                    <path fill="#FFF" d="M0 101.267H135.022V194.267H0zM143.289 0H278.311V93H143.289zM143.289 101.267H278.311V194.267H143.289z"/>
                    <rect width="35.822" height="14.122" x="49.6" y="65.1" fill="#FAB2B2" rx="7.061"/>
                    <rect width="35.822" height="14.122" x="170.844" y="65.1" fill="#FAB2B2" rx="7.061"/>
                    <rect width="35.822" height="14.122" x="27.556" y="166.367" fill="#FAB2B2" rx="7.061"/>
                    <rect width="35.822" height="14.122" x="214.933" y="65.1" fill="#FAB2B2" rx="7.061"/>
                    <rect width="35.822" height="14.122" x="71.644" y="166.367" fill="#FAB2B2" rx="7.061"/>
                    <path fill="#CEDEE7" d="M159.822 159.478H261.778V173.256H159.822z"/>
                    <path fill="#CCC" d="M28.933 145.011H106.43299999999999V150.867H28.933zM19.978 45.811H115.38900000000001V51.667H19.978zM172.911 45.811H249.03300000000002V51.667H172.911zM172.911 145.011H249.03300000000002V150.867H172.911z"/>
                    <path fill="#9BC3D3" d="M58.9 18.256H76.467V35.823H58.9zM202.189 18.256H219.756V35.823H202.189zM58.9 117.456H76.467V135.023H58.9zM202.189 117.456H219.756V135.023H202.189z"/>
                </g>
            </g>
        </g>
    </g>
</svg>
