<svg xmlns="http://www.w3.org/2000/svg" xmlns:xlink="http://www.w3.org/1999/xlink" width="808" height="360" viewBox="0 0 808 360">
    <defs>
        <filter id="prefix__b" width="106.4%" height="109.3%" x="-2.7%" y="-3.9%" filterUnits="objectBoundingBox">
            <feMorphology in="SourceAlpha" operator="dilate" radius="2" result="shadowSpreadOuter1"/>
            <feOffset dx="4" dy="4" in="shadowSpreadOuter1" result="shadowOffsetOuter1"/>
            <feGaussianBlur in="shadowOffsetOuter1" result="shadowBlurOuter1" stdDeviation="6"/>
            <feColorMatrix in="shadowBlurOuter1" values="0 0 0 0 0.807843137 0 0 0 0 0.839215686 0 0 0 0 0.858823529 0 0 0 0.4 0"/>
        </filter>
        <filter id="prefix__g" width="119.4%" height="119.4%" x="-6.9%" y="-6.9%" filterUnits="objectBoundingBox">
            <feOffset dx="2" dy="2" in="SourceAlpha" result="shadowOffsetOuter1"/>
            <feGaussianBlur in="shadowOffsetOuter1" result="shadowBlurOuter1" stdDeviation="2"/>
            <feComposite in="shadowBlurOuter1" in2="SourceAlpha" operator="out" result="shadowBlurOuter1"/>
            <feColorMatrix in="shadowBlurOuter1" values="0 0 0 0 0.870588235 0 0 0 0 0.929411765 0 0 0 0 0.949019608 0 0 0 0.4 0"/>
        </filter>
        <rect id="prefix__c" width="808" height="562" x="0" y="0" rx="4"/>
        <rect id="prefix__a" width="704" height="405" x="104" y="34" rx="202.5"/>
        <path id="prefix__d" d="M4 0h800c2.21 0 4 1.79 4 4v355H0V4c0-2.21 1.79-4 4-4z"/>
        <path id="prefix__h" d="M231 209c7.71 0 14.855-2.424 20.712-6.551.338.003 2.524.45 6.56 1.34.539.119 1.072-.222 1.191-.761.024-.108.03-.219.018-.328-.455-4.024-.744-6.225-.865-6.604C263.849 189.845 267 181.79 267 173c0-19.882-16.118-36-36-36s-36 16.118-36 36 16.118 36 36 36z"/>
        <mask id="prefix__f" width="704" height="405" x="0" y="0" fill="#fff" maskContentUnits="userSpaceOnUse" maskUnits="objectBoundingBox">
            <use xlink:href="#prefix__a"/>
        </mask>
    </defs>
    <g fill="none" fill-rule="evenodd">
        <path fill="#444" d="M0 0H1440V768H0z" opacity=".7" transform="translate(-316 -80)"/>
        <g>
            <g transform="translate(-316 -80) translate(316 48) translate(0 32)">
                <use fill="#000" filter="url(#prefix__b)" xlink:href="#prefix__c"/>
                <rect width="808" height="562" fill="#FFF" rx="4"/>
            </g>
            <g transform="translate(-316 -80) translate(316 48) translate(0 32)">
                <path fill="#CEDEE7" d="M0 0H808V1H0z" transform="translate(0 359)"/>
                <mask id="prefix__e" fill="#fff">
                    <use xlink:href="#prefix__d"/>
                </mask>
                <use fill="#EFF6F9" xlink:href="#prefix__d"/>
                <g fill="#DEEDF2" mask="url(#prefix__e)">
                    <path d="M284.437 65.556C276.921 11.134 224.888-31 161.824-31 93.596-31 38.284 18.319 38.284 79.16c0 9.981 1.487 19.652 4.28 28.846-1.05.013-2.09.046-3.123.1l-1.163-.086v.155C2.892 110.545-25 136.902-25 169.065c0 32.162 27.892 58.518 63.278 60.889v.182h449.797v-.006h.001c27.571 0 49.924-19.935 49.924-44.522s-22.353-44.519-49.924-44.519h-.001v-.002l-113.958-8.377c.52-3.035.79-6.144.79-9.308 0-33.724-30.657-61.063-68.477-61.063-7.693 0-15.09 1.131-21.993 3.217z"/>
                </g>
                <g fill="#C3DEE7" mask="url(#prefix__e)">
                    <path d="M273.752 189.21c-30.743-5.404-63.01 8.089-79.527 35.984-21.049 35.546-8.556 80.993 27.893 101.512 15.882 8.941 33.697 11.67 50.484 8.965l.002.004.014-.006c1.512-.242 3.014-.539 4.51-.873 3.054-.287 7.781-.299 14.598.756 5.873.908 13.103 2.773 19.487 4.623 5.158 2.105 10.412 3.766 15.722 4.97l.065.023.007-.007c41.205 9.288 85.498-8.128 107.745-45.699 27.273-46.06 11.088-104.957-36.15-131.55-42.089-23.694-94.605-13.729-124.85 21.297"/>
                </g>
                <g stroke="#9BC3D3" stroke-dasharray="2 4" stroke-width="2" mask="url(#prefix__e)">
                    <use mask="url(#prefix__f)" xlink:href="#prefix__a"/>
                </g>
                <circle cx="349" cy="34" r="4" fill="#FC3" mask="url(#prefix__e)"/>
                <circle cx="119" cy="313" r="4" fill="#9BC3D3" mask="url(#prefix__e)"/>
                <g mask="url(#prefix__e)">
                    <g transform="translate(390 34)">
                        <g>
                            <path fill="#9BC3D3" d="M237.043 475.986L299.135 475.986 299.135 287.384 237.043 287.384z" transform="translate(2.025 31.725)"/>
                            <path fill="#9BC3D3" d="M27.278 378.241h481.625c15.063 0 27.27-12.21 27.27-27.27V27.267C536.173 12.206 523.966 0 508.903 0H27.278C12.209 0 0 12.206 0 27.268V350.97c0 15.062 12.21 27.271 27.278 27.271" transform="translate(2.025 31.725)"/>
                            <path fill="#FFF" d="M20.997 318.966L515.173 318.966 515.173 20.442 20.997 20.442z" transform="translate(2.025 31.725)"/>
                        </g>
                        <path fill="#FCFEFE" d="M0 0H395V273H0z" transform="translate(23 52)"/>
                        <path fill="#F2F8FA" d="M0 0H348V23H0z" transform="translate(70 302)"/>
                        <path fill="#FFF" d="M0 0H348V28H0z" transform="translate(70 274)"/>
                        <path fill="#F2F8FA" d="M0 0H348V28H0z" transform="translate(70 246)"/>
                        <path fill="#FFF" d="M0 0H348V28H0z" transform="translate(70 218)"/>
                        <path fill="#F2F8FA" d="M0 0H348V28H0z" transform="translate(70 190)"/>
                        <path fill="#CCC" d="M72 178h346v4H72c-1.105 0-2-.895-2-2s.895-2 2-2z"/>
                        <rect width="56" height="4" fill="#EC0000" rx="2" transform="translate(241 140)"/>
                        <rect width="72" height="4" fill="#CCC" rx="2" transform="translate(70 161)"/>
                        <path fill="#DEEDF2" d="M0 0H163V16H0z" transform="translate(70 134)"/>
                        <rect width="32" height="4" fill="#CCC" rx="2" transform="translate(70 128)"/>
                        <path fill="#EC0000" d="M0 0H16V2H0z" transform="translate(70 118)"/>
                        <rect width="261" height="8" fill="#767676" rx="4" transform="translate(70 104)"/>
                        <path fill="#FCFEFE" d="M0 0H395V16H0z" transform="translate(23 74)"/>
                        <path fill="#444" d="M0 0H395V22H0z" transform="translate(23 52)"/>
                        <g transform="matrix(1 0 0 -1 0 346)">
                            <use fill="#000" filter="url(#prefix__g)" xlink:href="#prefix__h"/>
                            <path fill="#FFF" stroke="#DEEDF2" stroke-linejoin="square" stroke-width=".5" d="M231 137.25c-9.872 0-18.81 4.001-25.28 10.47-6.469 6.47-10.47 15.408-10.47 25.28 0 9.872 4.001 18.81 10.47 25.28 6.47 6.469 15.408 10.47 25.28 10.47 7.657 0 14.751-2.407 20.715-6.551.33.003 2.412.422 6.61 1.346.204.045.407 0 .568-.145.163-.147.28-.383.335-.706-.449-3.972-.73-6.146-.804-6.758 5.197-6.208 8.326-14.207 8.326-22.936 0-9.872-4.001-18.81-10.47-25.28-6.47-6.469-15.408-10.47-25.28-10.47z"/>
                        </g>
                        <path fill="#EC0000" d="M233 176.15V188c0 .553.447 1 1 1 .553 0 1-.447 1-1v-11.543l12.129-17.896c.31-.457.19-1.079-.268-1.39-.23-.154-.502-.2-.755-.15-.037-.004-.069-.021-.106-.021h-30c-.03 0-.057.015-.087.018-.068.005-.131.02-.197.04s-.127.042-.186.075c-.026.014-.056.016-.082.033-.027.018-.042.047-.068.068-.054.044-.101.09-.146.145-.04.05-.073.098-.102.152-.03.057-.054.114-.073.176-.02.065-.033.129-.04.197-.003.033-.019.062-.019.096 0 .031.015.057.018.088.005.067.02.13.039.195.02.066.043.127.076.187.014.027.016.056.033.082l11.834 17.9V188c0 .553.447 1 1 1 .553 0 1-.447 1-1v-11.85c0-.196-.058-.387-.166-.551L217.86 159h26.555l-11.243 16.59c-.112.165-.172.36-.172.56z"/>
                    </g>
                </g>
            </g>
        </g>
    </g>
</svg>
