<svg xmlns="http://www.w3.org/2000/svg" xmlns:xlink="http://www.w3.org/1999/xlink" width="936" height="355" viewBox="0 0 936 355">
    <defs>
        <rect id="prefix__a" width="764" height="405" x="4" y="3" rx="202.5"/>
        <path id="prefix__b" d="M4 0h928c2.21 0 4 1.79 4 4v351H0V4c0-2.21 1.79-4 4-4z"/>
        <mask id="prefix__d" width="764" height="405" x="0" y="0" fill="#fff" maskContentUnits="userSpaceOnUse" maskUnits="objectBoundingBox">
            <use xlink:href="#prefix__a"/>
        </mask>
    </defs>
    <g fill="none" fill-rule="evenodd">
        <mask id="prefix__c" fill="#fff">
            <use xlink:href="#prefix__b"/>
        </mask>
        <path fill="#EFF6F9" d="M-37-31H986c2.21 0 4 1.79 4 4v419H-41V-27c0-2.21 1.79-4 4-4z" mask="url(#prefix__c)"/>
        <g fill="#DEEDF2" mask="url(#prefix__c)">
            <path d="M57.527 78.704c25.852-4.534 52.986 6.787 66.875 30.193 17.7 29.825 7.195 67.958-23.455 85.175-13.356 7.502-28.337 9.791-42.454 7.522v.004l-.012-.005c-1.272-.204-2.536-.453-3.794-.733-2.567-.241-6.542-.25-12.275.634-4.939.762-11.018 2.327-16.387 3.88-4.337 1.766-8.755 3.16-13.22 4.17-.038.011-.055.018-.055.018l-.006-.005c-34.65 7.792-71.896-6.82-90.603-38.345-22.934-38.647-9.324-88.065 30.398-110.378 35.393-19.88 79.554-11.52 104.988 17.87"/>
        </g>
        <g fill="#C3DEE7" mask="url(#prefix__c)">
            <path d="M90.164 143.627c14.673-2.626 30.073 3.932 37.956 17.49 10.046 17.276 4.084 39.365-13.313 49.338-7.58 4.346-16.082 5.672-24.095 4.357v.002l-.007-.003c-.722-.117-1.439-.262-2.153-.424-1.457-.14-3.713-.145-6.967.367-2.803.442-6.253 1.348-9.3 2.247-2.462 1.023-4.97 1.83-7.504 2.416l-.031.01-.003-.002c-19.666 4.514-40.806-3.95-51.424-22.212-13.017-22.387-5.292-51.012 17.253-63.937 20.088-11.516 45.153-6.673 59.588 10.35"/>
        </g>
        <g fill="#DEEDF2" mask="url(#prefix__c)">
            <path d="M994.022 56.085C998.32 17.71 1028.08-12 1064.149-12c39.022 0 70.657 34.776 70.657 77.677 0 7.039-.851 13.858-2.448 20.341.6.009 1.195.032 1.786.07l.665-.06v.109c20.238 1.671 36.191 20.256 36.191 42.935 0 22.68-15.953 41.264-36.19 42.935v.129H877.553v-.005c-15.77 0-28.554-14.056-28.554-31.393 0-17.337 12.784-31.392 28.553-31.392v-.001l65.178-5.908c-.298-2.14-.452-4.332-.452-6.563 0-23.78 17.534-43.058 39.164-43.058 4.4 0 8.63.798 12.579 2.27z"/>
        </g>
        <g mask="url(#prefix__c)">
            <g transform="translate(77 27)">
                <use stroke="#9BC3D3" stroke-dasharray="2 4" stroke-width="2" mask="url(#prefix__d)" xlink:href="#prefix__a"/>
                <circle cx="4" cy="217" r="4" fill="#FC3"/>
                <circle cx="499" cy="4" r="4" fill="#1BB3BC"/>
            </g>
        </g>
        <g fill="#9BC3D3" mask="url(#prefix__c)" opacity=".5">
            <path d="M475.118 74.043c7.564-1.091 15.008 5.049 20.902 10.615 3.966-7.122 13.284-10.706 19.768-9.676 1.237.196 1.3 2.247 0 2.365-3.934.36-7.802 1.792-10.825 4.944-2.543 2.654-3.766 4.937-5.858 7.991-.6.878-1.812 1.15-2.68.85-.23-.08-.462-.18-.661-.334-.226-.173-.426-.393-.604-.63-.12-.104-.244-.152-.357-.29-5.29-6.575-11.934-13.613-19.685-13.722-1.163-.016-1.098-1.954 0-2.113zm45.656-20.493c3.484-3.993 11.67-6.001 17.364-5.424 1.089.11 1.142 1.26 0 1.326-3.457.2-6.852 1.008-9.506 2.772-2.238 1.49-3.312 3.536-5.15 5.249-.527.489-1.592.643-2.354.475-.2-.043-.404-.1-.577-.187-.202-.097-.375-.222-.533-.354-.104-.057-.217-.084-.312-.164-4.647-3.686-10.485-6.097-17.292-6.158-1.02-.01-.961-1.094 0-1.185 6.643-.614 13.183.53 18.36 3.65zm-93.593-38.413c8.039-.814 19.595 2.022 24.513 7.66 7.31-4.406 16.543-6.02 25.92-5.156 1.363.125 1.444 1.658 0 1.671-9.61.087-17.851 3.493-24.412 8.699-.136.109-.294.147-.443.23-.22.188-.464.36-.747.5-.247.12-.535.2-.818.263-1.077.24-2.582.02-3.326-.673-2.592-2.42-4.11-5.307-7.266-7.409-3.749-2.492-8.542-3.629-13.421-3.913-1.613-.093-1.536-1.717 0-1.872z"/>
        </g>
        <g mask="url(#prefix__c)">
            <g>
                <g>
                    <path fill="#9BC3D3" d="M237.043 475.986L299.135 475.986 299.135 287.384 237.043 287.384z" transform="translate(198 29) translate(2.025 31.725)"/>
                    <path fill="#9BC3D3" d="M27.278 378.241h481.625c15.063 0 27.27-12.21 27.27-27.27V27.267C536.173 12.206 523.966 0 508.903 0H27.278C12.209 0 0 12.206 0 27.268V350.97c0 15.062 12.21 27.271 27.278 27.271" transform="translate(198 29) translate(2.025 31.725)"/>
                    <path fill="#FFF" d="M20.997 318.966L515.173 318.966 515.173 20.442 20.997 20.442z" transform="translate(198 29) translate(2.025 31.725)"/>
                </g>
                <g transform="translate(198 29) translate(60 90)">
                    <path fill="#B5B5B5" d="M.05.618H51.165V6.107H.05zM107.083.618H158.198V6.107H107.083zM214.117.618H265.23199999999997V6.107H214.117zM323.208.618H374.32300000000004V6.107H323.208z"/>
                    <path fill="#F6FAFC" d="M0.05 19.829H419.95V90.155H0.05z"/>
                    <rect width="54.889" height="9.606" x=".243" y="103.878" fill="#FAB2B2" rx="4.803"/>
                    <rect width="53.389" height="8.106" x="64.458" y="104.628" stroke="#FAB2B2" stroke-width="1.5" rx="4.053"/>
                    <rect width="53.389" height="8.106" x="127.924" y="104.628" stroke="#FAB2B2" stroke-width="1.5" rx="4.053"/>
                    <path fill="#B5B5B5" d="M13.086 36.639H64.20100000000001V42.128H13.086zM13.086 47.617H50.821999999999996V53.105999999999995H13.086zM31.611 134.607H97.135V140.096H31.611zM42.246 169.256H117.375V172H42.246zM42.246 174.744H97.135V177.488H42.246zM42.246 180.233H104.339V182.977H42.246zM42.246 185.722H97.135V188.466H42.246z"/>
                    <path fill="#1BB3BC" d="M31.611 158.621H176.38V164.11H31.611z"/>
                    <path fill="#B5B5B5" d="M31.611 209.393H69.347V214.882H31.611zM13.086 58.594H64.20100000000001V64.083H13.086zM120.119 36.639H171.234V42.128H120.119zM120.119 47.617H163.001V53.105999999999995H120.119zM120.119 58.594H176.38V64.083H120.119zM120.119 69.572H192.84699999999998V75.061H120.119zM227.153 36.639H278.268V42.128H227.153zM227.153 47.617H307.085V53.105999999999995H227.153zM227.153 58.594H332.81399999999996V64.083H227.153z"/>
                    <circle cx="18.232" cy="161.365" r="5.146" fill="#1BB3BC"/>
                    <circle cx="18.232" cy="212.137" r="5.146" fill="#C7C7C7"/>
                    <circle cx="18.232" cy="137.351" r="5.146" fill="#7C7C7C"/>
                </g>
                <path fill="#ECECEC" d="M23 64H517.2V76H23z" transform="translate(198 29)"/>
                <path fill="#A2A2A2" d="M23 52H517.2V64H23z" transform="translate(198 29)"/>
            </g>
        </g>
    </g>
</svg>
