<svg xmlns="http://www.w3.org/2000/svg" width="174" height="232" viewBox="0 0 174 232">
    <g fill="none" fill-rule="evenodd">
        <g>
            <g>
                <g>
                    <g>
                        <g>
                            <path fill="#DEEDF2" d="M34.294 163.6l-16.65-.03 9.124-22.393 2.347-18.287c1.724-13.438 7.964-25.094 16.902-32.054 1.632-1.262 16.685-2.383 18.487-3.322L98.576 69.77c.931-.487 1.863-.885 2.806-1.216 10.394-3.59 21.574 2.131 27.08 14.334l19.483 43.175c6.429 14.25 1.651 31.324-9.133 37.554l-.431.167-92.743-.164 4.47-23.136L34.242 163.6h.053z" transform="translate(-1054 -700) translate(0 554) translate(0 40) translate(1054 106) translate(0 8.847) matrix(-1 0 0 1 168.492 0)"/>
                            <path fill="#723846" d="M35.988 155.088c.96-.139 1.938-.178 2.917-.103l9.6.761c2.561.203 4.716 2.512 5.325 5.707l.47 2.462-4.305-.027-2.83 10.96c-.168.668-.631 1.127-1.168 1.189l-.125.007h-.846c-.676 0-1.246-.623-1.349-1.476l-.208-1.754-.195 1.736c-.092.86-.67 1.494-1.349 1.494h-1.387c-.654 0-1.21-.594-1.338-1.412l-.2-1.36-.222 1.388c-.131.804-.688 1.384-1.336 1.384h-.514c-.564 0-1.065-.445-1.268-1.113l-3.534-11.724c-1.107-3.664.803-7.67 3.862-8.119zm86.55-107.816c.375-.882 1.154-1.398 1.966-1.234.884.178 1.54 1.163 1.54 2.313l-.002 8.896.003.125v.032l-.003.043v.097l1.568 1.565 2.536 2.53c.665.665.962 1.775.753 2.821l-4.594 24.272 23.598 49.144c1.763 2.32 3.372 5.359 4.598 8.902 3.407 9.834 2.578 19.846-1.846 22.351-4.425 2.508-10.77-3.44-14.174-13.274-.303-.875-.572-1.751-.809-2.623l-20.916-57.183-3.173-7.648c-1.037-2.49-1.126-5.443-.248-8.026l1.541-4.508-1.326-2.48-.05 1.043c-.042.76-.501 1.373-1.09 1.461l-.106.018c-.71.11-1.343-.58-1.382-1.487l-.112-2.746-1.432.626c-.453.199-.956-.043-1.198-.573-.19-.402-.181-.89-.017-1.277.053-.12.117-.235.198-.33l2.24-2.663 2.754-3.682c.462-.619 1.165-.826 1.79-.533l5.176 2.426-4.972-3.451c-.195-.11-.398-.174-.61-.2l-7.544-.864c-.898-.1-1.512-1.224-1.268-2.348.181-.822.81-1.356 1.471-1.356l9.528-.014c.283 0 .564.078.823.23l4.51 2.702-3.89-4.199c-.195-.217-.426-.37-.67-.459l-7.99-2.881c-.781-.278-1.207-1.352-.929-2.32.234-.811.882-1.288 1.544-1.142l7.377 1.661 1.897.43c.292.065.567.218.8.453l1.097 1.092v-.001l.411-2.427.445-2.65c.04-.234.1-.454.187-.654zm-55.43 21.282c.94.327 1.88.73 2.806 1.217l5.338 2.779c.056-.32.01-.553.01-.553L98.43 74.26c-.325 4.623.391 8.294 1.533 11.158l4.025 2.096c1.805.943 3.53 2.06 5.161 3.323-3.773 14.413-15.205 23.208-26.66 19.946-12.269-3.498-19.925-19.52-17.094-35.79.395-2.266.976-4.421 1.713-6.44z" transform="translate(-1054 -700) translate(0 554) translate(0 40) translate(1054 106) translate(0 8.847)"/>
                        </g>
                        <g>
                            <g>
                                <path fill="#723846" d="M33.117 59.853l-.219.11c-9.6-9.6-9.571-25.22.066-34.857 8.742-8.742 22.406-9.578 32.035-2.492 1.448.926 2.752 2.103 3.843 3.51 3.283 3.703 5.254 8.166 5.912 12.786l.005.002-.017.009 6.607 20.726-3.695.825c.311 2.37-.44 5.871-1.204 8.619-1.326 4.747-5.96 7.798-10.861 7.099-.397-.055-.807-.128-1.229-.225-.562-.115-1.143-.273-1.754-.468-.036-.012-.08-.024-.122-.036l2.097 3.604 6.693 11.537c3.266 5.629-.523 12.715-7.042 13.17-.208.025-.422.043-.63.061-.44.043-.885.062-1.332.062-1.589.011-3.233-.202-4.89-.651-1.154-.31-2.273-.73-3.349-1.24-.03-.019-.055-.03-.085-.043-4.052-1.945-7.127-5.452-8.685-9.652L35.048 64.763l-1.632-4.388.03.012c-.114-.176-.223-.354-.33-.534z" transform="translate(-1054 -700) translate(0 554) translate(0 40) translate(1054 106) matrix(-1 0 0 1 140.576 0)"/>
                                <path fill="#3B101C" d="M47.09 68.898c6.894 5.112 12.694 8.26 17.492 10.126l-2.096-3.604c-4.547-1.295-8.935-3.082-13.098-5.33l-2.224-1.204-.074.012zm30.564-8.468l-2.74-11.202s-3.108 8.324 2.74 11.202z" transform="translate(-1054 -700) translate(0 554) translate(0 40) translate(1054 106) matrix(-1 0 0 1 140.576 0)"/>
                            </g>
                            <g fill="#420716">
                                <path d="M73.548 35.13l.007.029.387 1.212c.012-1.157-.05-2.312-.188-3.458-.03-.242-.06-.485-.098-.725-.564-3.848-1.97-7.567-4.157-10.867-1.805-2.726-4.147-5.167-6.994-7.159-12.165-8.506-28.957-5.596-37.51 6.498-.602.85-1.146 1.724-1.635 2.615-1.793-1.803-4.283-2.92-7.034-2.92-5.466 0-9.897 4.407-9.897 9.843 0 5.435 4.43 9.842 9.897 9.842 1.408 0 2.747-.293 3.96-.82.707 5.896 3.37 11.541 7.81 15.893 1.045 1.027 2.193 1.982 3.436 2.85.503.353 1.015.686 1.534 1l-.62-1.668.03.012c-.874-1.354-1.514-2.814-1.919-4.322-1.086-.482-2.137-1.406-2.9-2.663-1.551-2.555-1.334-5.526.485-6.63.85-.517 1.9-.535 2.935-.147.335-.855.75-1.686 1.247-2.484l1.553-2.505 2.223-3.574c-.204 1.758.013 3.471.819 5.058 2.776 5.465 23.852-15.327 23.852-15.327l.723 2.107c2.17 6.52 10.871 8.122 12.054 8.31z" transform="translate(-1054 -700) translate(0 554) translate(0 40) translate(1054 106) matrix(-1 0 0 1 140.576 0)"/>
                            </g>
                        </g>
                    </g>
                </g>
            </g>
        </g>
    </g>
</svg>
