<svg xmlns="http://www.w3.org/2000/svg" xmlns:xlink="http://www.w3.org/1999/xlink" width="24" height="24" viewBox="0 0 24 24">
    <defs>
        <path id="a" d="M5.758.488c.02 0 .036.01.055.011.037.005.073.01.108.022.03.01.055.025.082.04a.475.475 0 0 1 .08.054c.026.023.047.05.069.079.012.016.029.026.039.044.005.009.005.019.01.028.015.03.023.063.032.096.009.033.017.064.02.096l.005.03v4.77a.5.5 0 1 1-1 0V1.946C3.343 3.48 2.017 6.289 2.017 9c0 4.402 3.581 7.983 7.983 7.983a.5.5 0 1 1 0 1c-4.954 0-8.983-4.03-8.983-8.983 0-2.822 1.32-5.74 3.261-7.512H.988a.5.5 0 1 1 0-1zM10 .017c4.954 0 8.983 4.03 8.983 8.983 0 2.822-1.32 5.74-3.261 7.512h3.29a.5.5 0 1 1 0 1h-4.77a.489.489 0 0 1-.225-.06c-.018-.009-.033-.022-.05-.033a.487.487 0 0 1-.13-.13c-.008-.011-.021-.015-.028-.027-.005-.009-.005-.019-.01-.028-.015-.03-.023-.063-.032-.096-.009-.033-.017-.064-.02-.096 0-.01-.005-.02-.005-.03v-4.77a.5.5 0 1 1 1 0v3.812c1.915-1.534 3.241-4.343 3.241-7.054 0-4.402-3.581-7.983-7.983-7.983a.5.5 0 1 1 0-1z"/>
    </defs>
    <g fill="none" fill-rule="evenodd" transform="translate(2 3)">
        <mask id="b" fill="#fff">
            <use xlink:href="#a"/>
        </mask>
        <use fill="#000" fill-rule="nonzero" xlink:href="#a"/>
        <g fill="#EC0000" mask="url(#b)">
            <path d="M-2 21h24V-3H-2z"/>
        </g>
    </g>
</svg>
