<?xml version="1.0" encoding="UTF-8"?>
<svg width="220px" height="226px" viewBox="0 0 220 226" version="1.1" xmlns="http://www.w3.org/2000/svg" xmlns:xlink="http://www.w3.org/1999/xlink">
    <!-- Generator: Sketch 62 (91390) - https://sketch.com -->
    <title>Group 21</title>
    <desc>Created with Sketch.</desc>
    <g id="Landing-Privada" stroke="none" stroke-width="1" fill="none" fill-rule="evenodd" opacity="0.900000036">
        <g transform="translate(-1055.000000, -509.000000)" id="Products">
            <g transform="translate(891.000000, 509.000000)">
                <g id="g.-illustration/Characters/Children/Girl-with-Laptop">
                    <g id="Group-21" transform="translate(164.000000, 0.000000)">
                        <path d="M0,106 C0,46.8762021 49.2484627,3 110.00024,3 C170.752018,3 220,46.8762021 220,106" id="Primary-color" fill="#FFCC33"></path>
                        <path d="M189.36592,89.7767884 C184.697082,83.761313 173.466477,79.5205625 160.347754,79.5205625 C152.79624,79.5205625 145.869931,80.9254321 140.459504,83.2646223 C139.124451,83.8416742 137.587408,83.5783217 136.464925,82.6498103 C130.90541,78.0517912 121.131053,75 110.000481,75 C98.8699093,75 89.0955514,78.0517912 83.5360367,82.6498103 C82.4130725,83.5783217 80.8765111,83.8416742 79.5414581,83.2646223 C74.1310307,80.9254321 67.2042409,79.5205625 59.653208,79.5205625 C46.5340037,79.5205625 35.3038802,83.761313 30.6345612,89.7767884 C13.5953219,90.147612 0,97.3733473 0,106.23729 C0,115.338444 14.3301782,122.716188 32.0071265,122.716188 C32.2211389,122.716188 32.4341895,122.714252 32.6477211,122.711347 C33.0613182,122.705538 33.4624112,122.835278 33.8029074,123.072489 C39.4494699,127.008254 48.9174773,129.591432 59.653208,129.591432 C66.585288,129.591432 72.9878675,128.512849 78.1765876,126.689713 C79.4419062,126.246274 80.8284184,126.588051 81.784501,127.533022 C86.8534703,132.543014 97.5791015,136 110.000481,136 C122.42186,136 133.147492,132.543014 138.216461,127.533022 C139.172543,126.588051 140.559537,126.246274 141.824374,126.689713 C147.013575,128.512849 153.415674,129.591432 160.347754,129.591432 C171.083004,129.591432 180.55053,127.008254 186.197574,123.072489 C186.53807,122.835278 186.939163,122.705538 187.35276,122.711347 C187.566291,122.714252 187.778861,122.716188 187.993354,122.716188 C205.670303,122.716188 220,115.338444 220,106.23729 C220,97.3733473 206.406121,90.147612 189.36592,89.7767884" id="Inner-color" fill="#D39E00"></path>
                        <path d="M110.257187,75 C121.413754,75 131.210939,78.051796 136.783438,82.6498225 C137.563395,83.2936817 138.54292,83.6083498 139.516661,83.55413 L139.516661,83.55413 L140.658156,126.520359 C139.874343,126.604593 139.125237,126.954116 138.539064,127.533106 C133.457292,132.543008 122.707576,136 110.257187,136 C97.8067986,136 87.0562148,132.543008 81.9754072,127.533106 C81.3723626,126.937657 80.5981902,126.583292 79.7907564,126.511645 L79.7907564,126.511645 L80.9684047,83.5531618 C81.9517868,83.6151272 82.9428817,83.3004592 83.7310335,82.6498225 C89.3035321,78.051796 99.100621,75 110.257187,75 Z M36.3193598,85.0504318 C33.3004996,92.6620759 33.1385308,122.721105 32.7239678,122.726914 C32.5104196,122.730787 32.2968714,122.732723 32.0818771,122.732723 C14.3636454,122.732723 -1.42108547e-12,115.354968 -1.42108547e-12,106.253799 C-1.42108547e-12,97.3898424 13.6265909,90.1631274 30.7061063,89.7932714 C32.4911376,87.340797 36.3976712,84.867022 36.3205432,85.0596957 Z M188.294376,89.7932714 C205.374373,90.1631274 219,97.3898424 219,106.253799 C219,115.354968 204.636837,122.732723 186.918605,122.732723 C186.703611,122.732723 186.490544,122.730787 186.276514,122.726914 C185.861951,122.721105 185.699982,92.6620759 182.680421,85.0596957 C182.603293,84.867022 186.509826,87.340797 188.294376,89.7932714 Z" id="Shadow-color" fill-opacity="0.25" fill="#420716"></path>
                        <path d="M89.7210404,1 C89.7210404,1 69.8919688,37.4003292 80.9296683,82.7096724 C80.5116245,82.6822721 80.0950171,82.5932211 79.6966065,82.4180548 C74.3094429,80.0537998 67.412437,78.6338767 59.8938721,78.6338767 C46.8334722,78.6338767 35.6506784,82.9220248 31,89 C31.183403,87.7748148 41.3179745,22.6374352 79.9848796,3.12156662 C83.3210901,2.21637791 86.3493943,1.58029936 89.7210404,1 Z M130.515037,1.0332718 C133.886204,1.61259258 138.262975,2.63423259 141.599665,3.53844272 C180.26657,23.0543113 188.816118,87.6329204 189,88.8590841 C184.349322,82.7801303 173.168922,78.4958966 160.10948,78.4958966 C152.590436,78.4958966 145.693909,79.9158197 140.306746,82.2800747 C139.908335,82.455241 139.49077,82.544292 139.073205,82.5716923 C150.110904,37.262349 130.515037,1.0332718 130.515037,1.0332718 Z" id="Medium-color" fill-opacity="0.25" fill="#FFFFFF"></path>
                        <path d="M139.623453,82.8547892 C150.619404,38.0192766 131.256134,2.12770125 131.05762,1.76270218 C124.408839,0.607358454 117.550994,0 110.535873,0 C103.586923,0 96.7904542,0.595678484 90.2005555,1.72960893 C90.015947,2.07027473 70.3481932,38.1458096 81.3335954,82.9871622 C81.3335954,82.9871622 82.8334792,83.163335 84.150193,82.0848845 C89.7311226,77.5092561 99.4382669,74.393624 110.535873,74.393624 C121.632519,74.393624 131.378887,77.4615629 136.920977,82.0848845 C137.697771,82.7321495 138.67212,83.048482 139.639756,82.9939755" id="Brigth-color" fill-opacity="0.5" fill="#FFFFFF"></path>
                        <path d="M82.131358,82.1959681 L82.5414513,82.8068444 L110.238,220.099 L137.797995,82.7991483 L138.2078,82.18731 C138.2078,82.18731 138.513954,82.0458897 138.928559,82.0458897 C139.390189,82.2382966 139.680988,82.5855821 139.680031,83.1781803 L115.085,205.707 L139.640679,124.837058 C139.813431,124.420507 140.122465,124.1598 140.654156,124.1598 C141.514075,124.332002 141.634042,124.608099 141.477605,125.396947 L113.539,217.403 L188.603303,88.6962691 C188.849954,88.4172862 188.853793,88.4144002 189.18778,88.2508585 C189.18778,88.2508585 189.523686,88.2152642 189.916216,88.3509076 L190.359612,88.9377336 L190.2598,89.6669371 L119.204,211.501 L187.297109,121.329569 C187.552397,121.053473 187.886384,120.913019 188.304827,120.979398 C189.398921,121.384404 189.22425,121.842321 188.827881,122.490715 L121.982,211.011 L218.218699,108.980248 C218.611229,108.56466 219.262887,108.547344 219.677491,108.938882 C220.091135,109.331382 220.10937,109.985549 219.7178,110.401137 L110.990773,225.676284 L110.970339,225.697402 C110.962891,225.704882 110.955307,225.712273 110.947585,225.719574 L110.921,225.741 L110.899493,225.761915 C110.891162,225.768841 110.882748,225.775616 110.874253,225.782241 L110.947585,225.719574 C110.907017,225.757881 110.864128,225.792237 110.8194,225.822658 C110.803503,225.83299 110.787477,225.843232 110.771241,225.85299 C110.7509,225.865712 110.730095,225.877246 110.709002,225.888002 C110.69438,225.894974 110.680111,225.901834 110.665724,225.908348 C110.643898,225.918685 110.621138,225.92801 110.598142,225.936484 C110.572382,225.945612 110.546732,225.953947 110.520858,225.961252 C110.510098,225.964558 110.498996,225.96748 110.487858,225.970214 C110.460229,225.976795 110.432638,225.982407 110.404907,225.986878 C110.390255,225.989342 110.375501,225.991377 110.36072,225.993092 C110.359893,225.993121 110.35889,225.993237 110.357888,225.993351 L110.241223,226 L110.241223,226 C110.200659,226 110.160095,225.997615 110.119763,225.992852 L110.241223,226 C110.188406,226 110.135548,225.995955 110.083155,225.987851 C110.053664,225.983321 110.02396,225.977405 109.99452,225.970177 C109.982077,225.967079 109.969602,225.963763 109.957178,225.960209 C109.931559,225.952953 109.905956,225.944552 109.880655,225.935127 C109.864377,225.928947 109.848909,225.922732 109.833565,225.916126 C109.809865,225.906065 109.786092,225.894757 109.762701,225.882492 C109.749214,225.875268 109.735791,225.86784 109.7225,225.860088 C109.698786,225.846417 109.675504,225.831557 109.652737,225.815675 C109.639862,225.806572 109.627181,225.797303 109.614666,225.787707 C109.595059,225.772727 109.575778,225.756771 109.556978,225.740009 C109.548553,225.73261 109.54022,225.724971 109.531981,225.717169 L109.506119,225.69146 C109.500613,225.685836 109.495158,225.680136 109.489753,225.67436 L1.28030992,110.398251 C0.889699186,109.983625 0.909853548,109.328496 1.32493744,108.936958 C1.73954146,108.547344 2.39263878,108.565622 2.78276965,108.982172 L98.718,211.182 L32.2913474,122.482057 C31.6186716,121.371898 32.2861649,120.913019 33.1942628,120.952462 C33.4388984,121.012106 33.6520548,121.136205 33.826438,121.327645 L100.991,211.011 L30.2220702,89.6669371 C30.1390535,89.4264346 30.0076662,89.173426 30.2860843,88.6000681 L30.920179,88.2287323 C31.0447521,88.2364284 31.1694212,88.2431625 31.2939944,88.2508585 C31.6284608,88.4144002 31.6323957,88.4172862 31.8791427,88.6962691 L106.939,217.399 L79.0050325,125.396947 C78.7580936,124.158841 79.3695385,124.030893 80.200954,124.196359 C80.4966473,124.318534 80.7146983,124.531138 80.8412869,124.837058 L105.339,205.52 L80.6598282,83.1878004 C80.6588419,82.8155025 80.6598282,82.8106925 80.8010741,82.4653309 L81.0650003,82.1988542 C81.4630969,82.0324264 81.294664,81.8515686 82.131358,82.1959681 Z" id="Ropes" fill="#DEEDF2"></path>
                        <path d="M125.529615,210.941566 C124.875166,210.941566 124.336768,210.427417 124.237364,209.756321 L123.006944,211.030518 L123.405035,210.515437 C123.444511,210.464208 123.467817,210.408788 123.495878,210.355231 C123.317522,210.4521 123.118714,210.512643 122.904211,210.512643 C122.300178,210.512643 121.796024,210.072076 121.643826,209.476427 L120.478566,210.983947 L120.817205,210.417171 C120.863339,210.339397 120.895206,210.258828 120.918511,210.178259 C120.752045,210.268608 120.566079,210.324494 120.367271,210.324494 C119.770848,210.324494 119.275255,209.867627 119.165863,209.262663 C119.125436,209.308303 119.083582,209.353012 119.052191,209.406569 L114.442038,217.127195 L116.306456,211.129715 C116.307407,211.126921 116.306931,211.124127 116.307883,211.121798 C115.941658,211.493905 115.449394,211.725831 114.904338,211.725831 C113.974031,211.725831 113.197825,211.056132 112.950029,210.146125 C112.93576,210.194094 112.91626,210.240199 112.906272,210.290497 L110.924853,219.935923 L108.96436,210.444648 C108.641417,211.199107 107.93465,211.725831 107.10898,211.725831 C106.452153,211.725831 105.874279,211.388187 105.500444,210.873106 C105.51281,210.955538 105.519469,211.037969 105.544676,211.120867 L107.411947,217.127195 L102.80227,209.406569 C102.77088,209.353478 102.729501,209.309701 102.690025,209.26406 C102.534974,209.798701 102.075528,210.189902 101.524764,210.189902 C101.299321,210.189902 101.091001,210.120045 100.909316,210.00641 C100.923109,210.144728 100.958304,210.283977 101.037732,210.416705 L101.074355,210.47818 L100.178768,209.310632 C100.072706,209.171383 99.9309722,209.067994 99.7730674,209 C99.7759211,209.035394 99.7825797,209.070323 99.7825797,209.106649 C99.7825797,209.728378 99.3121948,210.232282 98.7319424,210.232282 C98.6073308,210.232282 98.4889023,210.204805 98.3780836,210.162425 C98.4104255,210.283045 98.4584628,210.402268 98.5435982,210.513109 L99.0653497,211.193984 L97.1738221,209.225406 C97.1557486,209.206778 97.1338703,209.19234 97.1148456,209.175575 C97.1433826,209.291072 97.1638341,209.410295 97.1638341,209.536038 C97.1638341,210.257897 96.653973,210.845629 96,210.925732 L110.182415,225.684245 C110.184793,225.687505 110.188122,225.689368 110.190976,225.691697 C110.197159,225.697751 110.202866,225.703805 110.208574,225.709394 C110.212379,225.713119 110.216184,225.716845 110.219513,225.720105 C110.22094,225.721968 110.222842,225.723831 110.224745,225.726159 C110.227598,225.728488 110.231403,225.730351 110.234257,225.733145 C110.241867,225.740131 110.250904,225.747582 110.259465,225.754568 C110.264697,225.759225 110.269928,225.764814 110.275636,225.769471 C110.278014,225.771334 110.279916,225.773197 110.281819,225.77506 C110.287526,225.779251 110.293709,225.782511 110.299417,225.787168 C110.303222,225.789962 110.306075,225.794154 110.310356,225.796948 C110.312734,225.798345 110.315112,225.798811 110.31749,225.800674 C110.322722,225.8044 110.327002,225.80766 110.33271,225.811385 C110.338417,225.815111 110.343173,225.820234 110.348405,225.82396 C110.355064,225.828151 110.361722,225.831411 110.368857,225.835137 C110.378845,225.841657 110.388357,225.847711 110.39882,225.853765 C110.403101,225.85656 110.40643,225.860285 110.411187,225.86308 C110.413089,225.864011 110.415467,225.864011 110.417845,225.865408 C110.419748,225.866805 110.42165,225.868668 110.424504,225.870065 C110.425931,225.870997 110.426882,225.871463 110.428309,225.872394 C110.430211,225.87286 110.431638,225.873325 110.432589,225.873791 C110.44115,225.878914 110.451138,225.882174 110.459224,225.886366 C110.473017,225.893351 110.48681,225.899871 110.500127,225.905926 C110.506785,225.90872 110.512968,225.912911 110.519151,225.915706 C110.527237,225.919431 110.534847,225.922226 110.542457,225.92502 C110.551969,225.928746 110.56053,225.932006 110.570042,225.935266 C110.579079,225.938991 110.589067,225.941786 110.598579,225.945511 C110.601433,225.946443 110.604287,225.948771 110.607616,225.949703 C110.611421,225.9511 110.615226,225.950634 110.618555,225.951566 C110.62236,225.952497 110.62569,225.954826 110.629495,225.956223 C110.634726,225.95762 110.639958,225.957154 110.64519,225.958551 C110.6528,225.96088 110.659934,225.964606 110.667544,225.966469 C110.6723,225.967866 110.677056,225.9674 110.681812,225.968797 C110.691325,225.97066 110.699886,225.973454 110.708923,225.975317 C110.71463,225.976714 110.719386,225.979043 110.725094,225.98044 L110.725569,225.98044 C110.727947,225.98044 110.730325,225.98044 110.732703,225.980906 C110.736033,225.981371 110.740313,225.982303 110.744594,225.983234 C110.801668,225.99348 110.860644,225.999069 110.920572,225.999534 C110.922474,225.999534 110.924853,226 110.926755,226 L110.934365,225.999534 C110.993817,225.999069 111.052318,225.99348 111.109392,225.983234 C111.113672,225.982303 111.118429,225.981371 111.122709,225.98044 C111.129843,225.979043 111.136502,225.97718 111.143636,225.975317 C111.153149,225.973454 111.162661,225.971126 111.172173,225.968797 C111.176454,225.9674 111.182161,225.967866 111.186917,225.966469 C111.194527,225.964606 111.201661,225.96088 111.209271,225.958551 C111.214503,225.957154 111.219735,225.95762 111.224967,225.956223 C111.228772,225.955291 111.231625,225.952963 111.234955,225.951566 C111.239235,225.9511 111.242565,225.9511 111.246369,225.950168 C111.249699,225.948771 111.252077,225.946443 111.255406,225.945046 C111.265394,225.942251 111.273955,225.939457 111.282992,225.936197 C111.292504,225.932471 111.302017,225.928746 111.312005,225.92502 C111.316285,225.922691 111.321517,225.922226 111.326749,225.920363 C111.33531,225.916171 111.343395,225.910583 111.352908,225.906391 C111.3667,225.900337 111.380018,225.893817 111.393335,225.887297 C111.402847,225.88264 111.413311,225.878448 111.422823,225.873791 C111.426628,225.871928 111.429482,225.8696 111.432811,225.867737 C111.434238,225.867271 111.435189,225.86634 111.436141,225.865874 C111.438519,225.864477 111.441372,225.864011 111.443275,225.86308 C111.448031,225.860285 111.450409,225.857025 111.45469,225.854231 C111.465629,225.848177 111.475617,225.841657 111.48608,225.835137 C111.492739,225.830945 111.500349,225.827685 111.507007,225.823494 C111.50891,225.821631 111.510812,225.818837 111.514142,225.81744 C111.516044,225.815577 111.518422,225.813714 111.5208,225.811851 C111.525556,225.808591 111.529837,225.805797 111.535069,225.802537 C111.536496,225.80114 111.539349,225.800674 111.541252,225.799277 C111.546959,225.795551 111.550289,225.790428 111.55552,225.786237 C111.560276,225.782511 111.565984,225.780182 111.570264,225.776457 C111.572643,225.774594 111.574545,225.772731 111.576923,225.770868 C111.583582,225.765745 111.588813,225.759691 111.595472,225.754568 C111.603558,225.747582 111.612119,225.741062 111.620204,225.733611 C111.622582,225.731748 111.625436,225.729885 111.627814,225.728022 C111.629241,225.726159 111.630668,225.723365 111.633521,225.721502 C111.637326,225.717311 111.642083,225.713119 111.646839,225.708928 C111.652546,225.703339 111.657778,225.697285 111.663961,225.691231 C111.666339,225.689368 111.667766,225.688437 111.669668,225.686574 L126,210.844698 C125.853986,210.905241 125.696081,210.941566 125.529615,210.941566" id="Down-ropes" fill="#C3DEE7"></path>
                    </g>
                </g>
            </g>
        </g>
    </g>
</svg>