<svg xmlns="http://www.w3.org/2000/svg" xmlns:xlink="http://www.w3.org/1999/xlink" width="808" height="360" viewBox="0 0 808 360">
    <defs>
        <filter id="prefix__b" width="106.4%" height="109.3%" x="-2.7%" y="-3.9%" filterUnits="objectBoundingBox">
            <feMorphology in="SourceAlpha" operator="dilate" radius="2" result="shadowSpreadOuter1"/>
            <feOffset dx="4" dy="4" in="shadowSpreadOuter1" result="shadowOffsetOuter1"/>
            <feGaussianBlur in="shadowOffsetOuter1" result="shadowBlurOuter1" stdDeviation="6"/>
            <feColorMatrix in="shadowBlurOuter1" values="0 0 0 0 0.807843137 0 0 0 0 0.839215686 0 0 0 0 0.858823529 0 0 0 0.4 0"/>
        </filter>
        <filter id="prefix__g" width="119.4%" height="119.4%" x="-6.9%" y="-6.9%" filterUnits="objectBoundingBox">
            <feOffset dx="2" dy="2" in="SourceAlpha" result="shadowOffsetOuter1"/>
            <feGaussianBlur in="shadowOffsetOuter1" result="shadowBlurOuter1" stdDeviation="2"/>
            <feComposite in="shadowBlurOuter1" in2="SourceAlpha" operator="out" result="shadowBlurOuter1"/>
            <feColorMatrix in="shadowBlurOuter1" values="0 0 0 0 0.870588235 0 0 0 0 0.929411765 0 0 0 0 0.949019608 0 0 0 0.4 0"/>
        </filter>
        <rect id="prefix__c" width="808" height="562" x="0" y="0" rx="4"/>
        <rect id="prefix__a" width="704" height="405" x="-16" y="34" rx="202.5"/>
        <path id="prefix__d" d="M4 0h800c2.21 0 4 1.79 4 4v355H0V4c0-2.21 1.79-4 4-4z"/>
        <path id="prefix__h" d="M447 268c7.71 0 14.855-2.424 20.712-6.551.338.003 2.524.45 6.56 1.34.539.119 1.072-.222 1.191-.761.024-.108.03-.219.018-.328-.455-4.024-.744-6.225-.865-6.604C479.849 248.845 483 240.79 483 232c0-19.882-16.118-36-36-36s-36 16.118-36 36 16.118 36 36 36z"/>
        <mask id="prefix__f" width="704" height="405" x="0" y="0" fill="#fff" maskContentUnits="userSpaceOnUse" maskUnits="objectBoundingBox">
            <use xlink:href="#prefix__a"/>
        </mask>
    </defs>
    <g fill="none" fill-rule="evenodd">
        <path fill="#444" d="M0 0H1440V768H0z" opacity=".7" transform="translate(-316 -80)"/>
        <g>
            <g transform="translate(-316 -80) translate(316 48) translate(0 32)">
                <use fill="#000" filter="url(#prefix__b)" xlink:href="#prefix__c"/>
                <rect width="808" height="562" fill="#FFF" rx="4"/>
            </g>
            <g transform="translate(-316 -80) translate(316 48) translate(0 32)">
                <path fill="#CEDEE7" d="M0 0H808V1H0z" transform="translate(0 359)"/>
                <mask id="prefix__e" fill="#fff">
                    <use xlink:href="#prefix__d"/>
                </mask>
                <use fill="#EFF6F9" xlink:href="#prefix__d"/>
                <g fill="#DEEDF2" mask="url(#prefix__e)">
                    <path d="M548.563 81.556C556.079 27.134 608.112-15 671.176-15c68.228 0 123.54 49.319 123.54 110.16 0 9.981-1.487 19.652-4.28 28.846 1.05.013 2.09.046 3.123.1l1.163-.086v.155c35.386 2.37 63.278 28.727 63.278 60.89 0 32.162-27.892 58.518-63.278 60.889v.182H344.925v-.006h-.001c-27.571 0-49.924-19.935-49.924-44.522s22.353-44.519 49.924-44.519h.001v-.002l113.958-8.377c-.52-3.035-.79-6.144-.79-9.308 0-33.724 30.657-61.063 68.477-61.063 7.693 0 15.09 1.131 21.993 3.217z"/>
                </g>
                <g fill="#C3DEE7" mask="url(#prefix__e)">
                    <path d="M768.505 188.777c20.38-3.44 41.769 5.15 52.717 22.908 13.953 22.628 5.672 51.559-18.49 64.621-10.528 5.692-22.337 7.429-33.465 5.707v.003l-.01-.004c-1.002-.154-1.998-.343-2.99-.556-2.024-.183-5.158-.19-9.676.481-3.893.579-8.686 1.766-12.918 2.943-3.419 1.34-6.902 2.398-10.422 3.164l-.043.015-.004-.004c-27.314 5.912-56.675-5.175-71.422-29.092-18.079-29.322-7.35-66.815 23.963-83.743 27.9-15.084 62.712-8.74 82.76 13.557"/>
                </g>
                <g stroke="#9BC3D3" stroke-dasharray="2 4" stroke-width="2" mask="url(#prefix__e)">
                    <use mask="url(#prefix__f)" xlink:href="#prefix__a"/>
                </g>
                <circle cx="349" cy="34" r="4" fill="#FC3" mask="url(#prefix__e)"/>
                <circle cx="653" cy="126" r="4" fill="#9BC3D3" mask="url(#prefix__e)"/>
                <g mask="url(#prefix__e)">
                    <g transform="translate(-146 58)">
                        <g>
                            <path fill="#9BC3D3" d="M27.278 378.241h481.625c15.063 0 27.27-12.21 27.27-27.27V27.267C536.173 12.206 523.966 0 508.903 0H27.278C12.209 0 0 12.206 0 27.268V350.97c0 15.062 12.21 27.271 27.278 27.271" transform="translate(2.025 31.725)"/>
                            <path fill="#FFF" d="M20.997 318.966L515.173 318.966 515.173 20.442 20.997 20.442z" transform="translate(2.025 31.725)"/>
                        </g>
                        <path fill="#9BC3D3" d="M711.921 210.58c17.003-3.025 33.738 13.986 46.988 29.408 8.916-19.732 29.865-29.66 44.44-26.807 2.782.542 2.922 6.225 0 6.552-8.843.996-17.538 4.965-24.334 13.697-5.719 7.352-8.468 13.677-13.17 22.138-1.351 2.432-4.073 3.188-6.026 2.357-.515-.22-1.037-.498-1.485-.926-.509-.48-.957-1.09-1.358-1.746-.268-.29-.548-.422-.803-.806-11.892-18.214-26.828-37.713-44.252-38.015-2.615-.044-2.468-5.412 0-5.853zm102.637-56.778c7.833-11.063 26.233-16.626 39.035-15.025 2.448.302 2.569 3.49 0 3.673-7.772.554-15.404 2.79-21.37 7.68-5.03 4.126-7.444 9.796-11.578 14.54-1.184 1.355-3.578 1.783-5.29 1.317-.449-.12-.91-.277-1.298-.517-.455-.27-.843-.617-1.197-.983-.235-.157-.489-.233-.703-.453-10.447-10.213-23.57-16.89-38.874-17.06-2.294-.026-2.16-3.031 0-3.283 14.936-1.701 29.637 1.468 41.275 10.111zM604.154 47.381c18.073-2.256 44.051 5.6 55.108 21.218 16.434-12.203 37.189-16.676 58.271-14.282 3.064.347 3.244 4.593 0 4.63-21.604.24-40.132 9.678-54.88 24.099-.308.302-.662.41-.997.636-.495.523-1.043 1.002-1.679 1.386-.555.334-1.204.554-1.839.73-2.421.662-5.806.058-7.478-1.864-5.826-6.703-9.237-14.705-16.333-20.526-8.428-6.905-19.204-10.055-30.173-10.842-3.625-.259-3.451-4.757 0-5.185z" opacity=".5"/>
                        <path fill="#FCFEFE" d="M0 0H395V273H0z" transform="translate(23 52)"/>
                        <path fill="#FFF" d="M0 0H312V28H0z" transform="translate(146 274)"/>
                        <path fill="#F2F8FA" d="M0 0H312V28H0z" transform="translate(146 246)"/>
                        <path fill="#FFF" d="M0 0H312V28H0z" transform="translate(146 218)"/>
                        <path fill="#F2F8FA" d="M0 0H312V28H0z" transform="translate(146 190)"/>
                        <path fill="#CCC" d="M148 178h310v4H148c-1.105 0-2-.895-2-2s.895-2 2-2z"/>
                        <rect width="56" height="4" fill="#EC0000" rx="2" transform="translate(241 140)"/>
                        <path fill="#DEEDF2" d="M0 0H163V16H0z" transform="translate(70 134)"/>
                        <rect width="261" height="8" fill="#767676" rx="4" transform="translate(70 104)"/>
                        <path fill="#FCFEFE" d="M0 0H371V16H0z" transform="translate(146 74)"/>
                        <path fill="#444" d="M0 0H371V22H0z" transform="translate(146 52)"/>
                        <g transform="rotate(180 447 232)">
                            <use fill="#000" filter="url(#prefix__g)" xlink:href="#prefix__h"/>
                            <path fill="#FFF" stroke="#DEEDF2" stroke-linejoin="square" stroke-width=".5" d="M447 196.25c-9.872 0-18.81 4.001-25.28 10.47-6.469 6.47-10.47 15.408-10.47 25.28 0 9.872 4.001 18.81 10.47 25.28 6.47 6.469 15.408 10.47 25.28 10.47 7.657 0 14.751-2.407 20.715-6.551.33.003 2.412.422 6.61 1.346.204.045.407 0 .568-.145.163-.147.28-.383.335-.706-.449-3.972-.73-6.146-.804-6.758 5.197-6.208 8.326-14.207 8.326-22.936 0-9.872-4.001-18.81-10.47-25.28-6.47-6.469-15.408-10.47-25.28-10.47z"/>
                        </g>
                        <path fill="#EC0000" d="M447 212c7.741 0 14 6.534 14 14.571 0 4.603-1.71 8.174-5.407 12.998-.218.285-.442.573-.737.951-.363.465-.557.713-.717.92-.565.726-.96 1.248-1.324 1.753-.899 1.25-1.488 2.26-1.84 3.2-.25.666-.375 1.29-.375 1.892 0 2.043-1.602 3.714-3.6 3.714-1.999 0-3.6-1.671-3.6-3.714 0-.602-.125-1.226-.375-1.893-.352-.94-.942-1.948-1.841-3.2-.363-.504-.759-1.026-1.324-1.753l-.717-.919c-.295-.378-.518-.666-.737-.951-3.696-4.824-5.406-8.395-5.406-12.998 0-8.037 6.258-14.572 14-14.572zm0 2c-6.618 0-12 5.62-12 12.571 0 4.056 1.541 7.277 4.993 11.781.215.28.435.564.727.938l.719.922c.579.744.988 1.284 1.369 1.813.993 1.382 1.664 2.531 2.09 3.665.33.881.502 1.74.502 2.595 0 .957.725 1.714 1.6 1.714.874 0 1.6-.757 1.6-1.714 0-.855.171-1.714.502-2.595.425-1.134 1.096-2.283 2.09-3.665.38-.529.79-1.07 1.368-1.813l.72-.922c.291-.374.511-.658.726-.938 3.452-4.504 4.994-7.725 4.994-11.78 0-6.953-5.383-12.573-12-12.573zm0 7c2.76 0 5 2.24 5 5s-2.24 5-5 5-5-2.24-5-5 2.24-5 5-5zm0 2c-1.656 0-3 1.344-3 3s1.344 3 3 3 3-1.344 3-3-1.344-3-3-3z"/>
                    </g>
                </g>
            </g>
        </g>
    </g>
</svg>
